<svg width="1440" height="620" viewBox="0 0 1440 620" fill="none" xmlns="http://www.w3.org/2000/svg">
<rect width="1440" height="618.577" transform="translate(0 0.619141)" fill="white"/>
<path d="M0 468.513L48.4195 458.391C124.756 442.433 203.768 444.57 279.13 464.633L316.327 474.535C383.493 492.415 454.358 490.844 520.666 470.006V470.006C587.959 448.858 659.923 447.561 727.934 466.27L777.877 480.009C830.591 494.51 885.327 500.267 939.905 497.052L1027.47 491.892C1058.75 490.049 1089.8 485.268 1120.19 477.613L1154.68 468.925C1236.24 448.381 1321.67 448.743 1403.05 469.98L1440 479.621V588.635L0 593.121V468.513Z" fill="url(#paint0_linear_203_1020)" fill-opacity="0.5"/>
<path d="M0 507.621L97.9977 482.798C157.724 467.67 220.551 470.126 278.914 489.871L308.771 499.971C361.523 517.818 418.909 516.275 470.626 495.62V495.62C523.098 474.664 581.378 473.392 634.715 492.038L653.144 498.48C707.048 517.325 765.813 516.936 819.463 497.38V497.38C866.386 480.275 917.388 477.778 965.758 490.216L993.746 497.413C1052.44 512.506 1114.39 508.855 1170.9 486.973V486.973C1221.3 467.459 1276.14 462.398 1329.26 472.357L1440 493.121V619.121H0V507.621Z" fill="url(#paint1_linear_203_1020)"/>
<path d="M0 471.121L98.0261 491.514C159.266 504.253 222.553 503.437 283.444 489.12V489.12C334.059 477.22 386.417 474.628 437.96 481.469L476.714 486.613C521.366 492.54 566.615 492.406 611.232 486.215L637.298 482.598C692.011 475.005 747.63 477.043 801.641 488.618V488.618C867.779 502.792 936.187 502.635 1002.26 488.156L1004.18 487.736C1054.4 476.73 1106.07 473.821 1157.21 479.118L1208.13 484.392C1242.29 487.929 1276.71 487.939 1310.87 484.421L1440 471.121V619.121H0V471.121Z" fill="url(#paint2_linear_203_1020)" fill-opacity="0.8"/>
<defs>
<linearGradient id="paint0_linear_203_1020" x1="-75.5525" y1="512.375" x2="1748.71" y2="512.375" gradientUnits="userSpaceOnUse">
<stop stop-color="#0052D4"/>
<stop offset="0.5" stop-color="#4364F7"/>
<stop offset="1" stop-color="#6FB1FC"/>
</linearGradient>
<linearGradient id="paint1_linear_203_1020" x1="0" y1="538.121" x2="1440" y2="538.121" gradientUnits="userSpaceOnUse">
<stop stop-color="#0052D4"/>
<stop offset="0.5" stop-color="#4364F7"/>
<stop offset="1" stop-color="#6FB1FC"/>
</linearGradient>
<linearGradient id="paint2_linear_203_1020" x1="0" y1="545.121" x2="1440" y2="545.121" gradientUnits="userSpaceOnUse">
<stop stop-color="#0052D4"/>
<stop offset="0.5" stop-color="#4364F7"/>
<stop offset="1" stop-color="#6FB1FC"/>
</linearGradient>
</defs>
</svg>
