<svg xmlns="http://www.w3.org/2000/svg" version="1.1" xmlns:xlink="http://www.w3.org/1999/xlink" xmlns:svgjs="http://svgjs.com/svgjs" width="1440" height="560" preserveAspectRatio="none" viewBox="0 0 1440 560"><g mask="url(&quot;#SvgjsMask1000&quot;)" fill="none"><rect width="1440" height="560" x="0" y="0" fill="#1e3266"></rect><path d="M1560 560L0 560 L0 355.89Q70.35 306.24, 120 376.58Q131.14 315.72, 192 326.86Q241.62 256.48, 312 306.09Q405.7 279.79, 432 373.5Q460.99 330.49, 504 359.48Q543.2 278.68, 624 317.88Q670.58 244.46, 744 291.04Q809.97 237.01, 864 302.98Q914.99 281.97, 936 332.96Q977.34 302.3, 1008 343.64Q1050.65 266.29, 1128 308.95Q1213.87 274.82, 1248 360.69Q1268.9 261.59, 1368 282.49Q1410.59 253.08, 1440 295.67Q1519.97 255.64, 1560 335.62z" fill="#182f5d"></path><path d="M1536 560L0 560 L0 374.43Q51.3 353.73, 72 405.03Q143.89 356.92, 192 428.81Q227.69 344.5, 312 380.2Q333.34 329.54, 384 350.89Q475.44 322.33, 504 413.78Q552.17 389.95, 576 438.12Q630.38 372.5, 696 426.87Q733.14 344.01, 816 381.16Q906.63 351.79, 936 442.41Q957.88 392.29, 1008 414.17Q1032.6 366.76, 1080 391.36Q1103.59 342.94, 1152 366.53Q1241.5 336.03, 1272 425.54Q1316.48 398.02, 1344 442.51Q1362.48 388.99, 1416 407.47Q1460.92 332.39, 1536 377.31z" fill="#25467d"></path><path d="M1488 560L0 560 L0 430.52Q77.98 436.5, 72 514.47Q93.21 463.68, 144 484.89Q209.96 430.85, 264 496.8Q268.09 428.89, 336 432.98Q366.63 391.61, 408 422.24Q458.95 401.19, 480 452.14Q551.66 403.8, 600 475.46Q612.26 415.72, 672 427.98Q713.89 397.87, 744 439.76Q839.51 415.27, 864 510.79Q912.61 439.39, 984 488Q996.84 428.84, 1056 441.68Q1133.22 398.9, 1176 476.12Q1209.11 389.23, 1296 422.34Q1373.33 379.67, 1416 457Q1446.09 415.09, 1488 445.18z" fill="#356cb1"></path><path d="M1512 560L0 560 L0 525.33Q72.28 477.61, 120 549.89Q159.68 469.57, 240 509.25Q286.98 484.23, 312 531.21Q355.66 502.88, 384 546.54Q429.49 472.02, 504 517.51Q588.29 481.8, 624 566.09Q667.48 537.57, 696 581.05Q697.25 510.3, 768 511.56Q797.21 468.77, 840 497.99Q899.68 485.67, 912 545.35Q991.74 505.09, 1032 584.83Q1057.08 537.91, 1104 562.99Q1120.31 507.3, 1176 523.6Q1199.1 474.7, 1248 497.79Q1304 481.79, 1320 537.79Q1366.95 512.74, 1392 559.69Q1459.05 506.74, 1512 573.79z" fill="white"></path></g><defs><mask id="SvgjsMask1000"><rect width="1440" height="560" fill="#ffffff"></rect></mask></defs></svg>