<svg xmlns="http://www.w3.org/2000/svg" xmlns:xlink="http://www.w3.org/1999/xlink" width="250" zoomAndPan="magnify" viewBox="0 0 187.5 53.25" height="71" preserveAspectRatio="xMidYMid meet" version="1.0"><defs><filter x="0%" y="0%" width="100%" height="100%" id="id1"><feColorMatrix values="0 0 0 0 1 0 0 0 0 1 0 0 0 0 1 0 0 0 1 0" color-interpolation-filters="sRGB"/></filter><g/><clipPath id="id2"><path d="M 1.054688 0 L 185.953125 0 L 185.953125 52.511719 L 1.054688 52.511719 Z M 1.054688 0 " clip-rule="nonzero"/></clipPath><clipPath id="id3"><path d="M 1.054688 0 L 114 0 L 114 52.511719 L 1.054688 52.511719 Z M 1.054688 0 " clip-rule="nonzero"/></clipPath><mask id="id4"><g filter="url(#id1)"><rect x="-18.75" width="225" fill="#000000" y="-5.325" height="63.899999" fill-opacity="0.3098"/></g></mask><clipPath id="id5"><path d="M 0.0546875 0 L 103 0 L 103 52.511719 L 0.0546875 52.511719 Z M 0.0546875 0 " clip-rule="nonzero"/></clipPath><clipPath id="id6"><path d="M 15 0 L 84 0 L 84 52.511719 L 15 52.511719 Z M 15 0 " clip-rule="nonzero"/></clipPath><clipPath id="id7"><path d="M 71 51 L 81 51 L 81 52.511719 L 71 52.511719 Z M 71 51 " clip-rule="nonzero"/></clipPath><clipPath id="id8"><path d="M 18 52 L 26 52 L 26 52.511719 L 18 52.511719 Z M 18 52 " clip-rule="nonzero"/></clipPath><clipPath id="id9"><path d="M 16 0 L 26 0 L 26 5 L 16 5 Z M 16 0 " clip-rule="nonzero"/></clipPath><clipPath id="id10"><path d="M 25 1 L 73 1 L 73 52.511719 L 25 52.511719 Z M 25 1 " clip-rule="nonzero"/></clipPath><clipPath id="id11"><rect x="0" width="113" y="0" height="53"/></clipPath></defs><g clip-path="url(#id2)"><path fill="#ffffff" d="M 1.054688 0 L 186.445312 0 L 186.445312 60.066406 L 1.054688 60.066406 Z M 1.054688 0 " fill-opacity="1" fill-rule="nonzero"/><path fill="#ffffff" d="M 1.054688 0 L 186.445312 0 L 186.445312 52.652344 L 1.054688 52.652344 Z M 1.054688 0 " fill-opacity="1" fill-rule="nonzero"/><path fill="#fafafa" d="M 1.054688 0 L 186.445312 0 L 186.445312 52.652344 L 1.054688 52.652344 Z M 1.054688 0 " fill-opacity="1" fill-rule="nonzero"/></g><g clip-path="url(#id3)"><g mask="url(#id4)"><g transform="matrix(1, 0, 0, 1, 1, -0.00000000000000563)"><g clip-path="url(#id11)"><g clip-path="url(#id5)"><path fill="#19baaa" d="M 49.171875 80.894531 C 19.519531 80.894531 -4.515625 56.824219 -4.515625 27.128906 C -4.515625 -2.5625 19.519531 -26.636719 49.171875 -26.636719 C 78.820312 -26.636719 102.859375 -2.5625 102.859375 27.128906 C 102.859375 56.824219 78.820312 80.894531 49.171875 80.894531 " fill-opacity="1" fill-rule="nonzero"/></g><g clip-path="url(#id6)"><path fill="#fafafa" d="M 83.132812 27.128906 C 83.132812 45.914062 67.925781 61.140625 49.171875 61.140625 C 30.414062 61.140625 15.210938 45.914062 15.210938 27.128906 C 15.210938 8.34375 30.414062 -6.882812 49.171875 -6.882812 C 67.925781 -6.882812 83.132812 8.34375 83.132812 27.128906 " fill-opacity="1" fill-rule="nonzero"/></g><path fill="#070808" d="M 84.582031 8.804688 C 83.0625 5.851562 81.167969 3.097656 78.96875 0.613281 L 78.042969 1.4375 C 80.175781 3.84375 82.007812 6.511719 83.480469 9.371094 L 84.582031 8.804688 " fill-opacity="1" fill-rule="nonzero"/><path fill="#070808" d="M 86.992188 14.550781 C 86.804688 13.988281 86.609375 13.433594 86.398438 12.878906 L 85.242188 13.320312 C 85.445312 13.855469 85.636719 14.394531 85.816406 14.941406 L 86.992188 14.550781 " fill-opacity="1" fill-rule="nonzero"/><path fill="#070808" d="M 89.003906 29.003906 C 89.03125 28.425781 89.042969 27.847656 89.042969 27.273438 C 89.042969 23.386719 88.480469 19.507812 87.378906 15.78125 L 86.191406 16.132812 C 87.257812 19.742188 87.804688 23.507812 87.804688 27.273438 C 87.804688 27.832031 87.792969 28.390625 87.769531 28.949219 L 89.003906 29.003906 " fill-opacity="1" fill-rule="nonzero"/><path fill="#070808" d="M 85.621094 43.359375 C 87.050781 40.144531 88.058594 36.738281 88.59375 33.253906 L 87.367188 33.066406 C 86.855469 36.4375 85.875 39.738281 84.488281 42.855469 L 85.621094 43.359375 " fill-opacity="1" fill-rule="nonzero"/><path fill="#070808" d="M 84.453125 45.773438 C 84.601562 45.492188 84.742188 45.210938 84.882812 44.929688 L 83.777344 44.378906 C 83.640625 44.652344 83.5 44.925781 83.359375 45.195312 L 84.453125 45.773438 " fill-opacity="1" fill-rule="nonzero"/><path fill="#070808" d="M 81.179688 50.996094 C 81.46875 50.605469 81.75 50.210938 82.023438 49.8125 L 81.003906 49.113281 C 80.738281 49.5 80.464844 49.882812 80.1875 50.257812 L 81.179688 50.996094 " fill-opacity="1" fill-rule="nonzero"/><g clip-path="url(#id7)"><path fill="#070808" d="M 72.480469 59.539062 C 75.324219 57.5 77.902344 55.089844 80.109375 52.375 L 79.148438 51.589844 C 77.011719 54.21875 74.515625 56.554688 71.761719 58.53125 L 72.480469 59.539062 " fill-opacity="1" fill-rule="nonzero"/></g><g clip-path="url(#id8)"><path fill="#070808" d="M 18.839844 53.089844 C 20.714844 55.285156 22.824219 57.273438 25.128906 59.011719 L 25.875 58.023438 C 23.640625 56.339844 21.59375 54.410156 19.78125 52.285156 L 18.839844 53.089844 " fill-opacity="1" fill-rule="nonzero"/></g><path fill="#070808" d="M 14.257812 46.472656 C 14.804688 47.464844 15.394531 48.429688 16.023438 49.367188 L 17.050781 48.679688 C 16.441406 47.769531 15.871094 46.832031 15.339844 45.871094 L 14.257812 46.472656 " fill-opacity="1" fill-rule="nonzero"/><path fill="#070808" d="M 12.945312 43.878906 C 13.148438 44.320312 13.359375 44.753906 13.578125 45.1875 L 14.683594 44.628906 C 14.46875 44.207031 14.265625 43.785156 14.070312 43.359375 L 12.945312 43.878906 " fill-opacity="1" fill-rule="nonzero"/><path fill="#070808" d="M 11.035156 38.894531 C 11.117188 39.164062 11.203125 39.425781 11.289062 39.6875 L 12.464844 39.296875 C 12.378906 39.039062 12.292969 38.785156 12.21875 38.535156 L 11.035156 38.894531 " fill-opacity="1" fill-rule="nonzero"/><path fill="#070808" d="M 9.496094 31.433594 C 9.699219 33.359375 10.046875 35.269531 10.535156 37.140625 L 11.734375 36.828125 C 11.261719 35.015625 10.925781 33.167969 10.730469 31.304688 L 9.496094 31.433594 " fill-opacity="1" fill-rule="nonzero"/><path fill="#070808" d="M 9.574219 22.429688 C 9.390625 24.003906 9.300781 25.59375 9.300781 27.179688 L 9.300781 27.214844 L 10.535156 27.179688 L 10.191406 27.1875 L 10.535156 27.1875 L 10.535156 27.179688 L 10.191406 27.1875 L 10.535156 27.1875 L 10.535156 27.179688 C 10.535156 25.640625 10.625 24.101562 10.804688 22.574219 L 9.578125 22.429688 " fill-opacity="1" fill-rule="nonzero"/><path fill="#070808" d="M 10.015625 19.5625 C 9.933594 20.007812 9.855469 20.457031 9.785156 20.90625 L 11.007812 21.097656 C 11.074219 20.660156 11.148438 20.226562 11.234375 19.792969 L 10.015625 19.5625 " fill-opacity="1" fill-rule="nonzero"/><path fill="#070808" d="M 12.871094 10.582031 C 12.179688 12.085938 11.589844 13.636719 11.101562 15.214844 L 12.28125 15.582031 C 12.757812 14.050781 13.328125 12.554688 13.996094 11.097656 L 12.871094 10.582031 " fill-opacity="1" fill-rule="nonzero"/><path fill="#070808" d="M 15.578125 5.632812 C 15.394531 5.917969 15.214844 6.203125 15.039062 6.492188 L 16.097656 7.140625 C 16.269531 6.859375 16.441406 6.578125 16.621094 6.304688 L 15.578125 5.632812 " fill-opacity="1" fill-rule="nonzero"/><g clip-path="url(#id9)"><path fill="#070808" d="M 24.984375 -4.621094 C 21.777344 -2.164062 18.949219 0.773438 16.609375 4.066406 L 17.621094 4.785156 C 19.886719 1.59375 22.628906 -1.257812 25.734375 -3.636719 L 24.984375 -4.621094 " fill-opacity="1" fill-rule="nonzero"/></g><path fill="#070808" d="M 89.527344 51.859375 L 90.765625 51.859375 L 90.765625 48.742188 L 89.527344 48.742188 Z M 89.527344 51.859375 " fill-opacity="1" fill-rule="nonzero"/><path fill="#070808" d="M 88.59375 50.921875 L 91.703125 50.921875 L 91.703125 49.679688 L 88.59375 49.679688 Z M 88.59375 50.921875 " fill-opacity="1" fill-rule="nonzero"/><path fill="#070808" d="M 109.789062 9.289062 L 111.027344 9.289062 L 111.027344 6.171875 L 109.789062 6.171875 Z M 109.789062 9.289062 " fill-opacity="1" fill-rule="nonzero"/><path fill="#070808" d="M 108.851562 8.351562 L 111.964844 8.351562 L 111.964844 7.109375 L 108.851562 7.109375 Z M 108.851562 8.351562 " fill-opacity="1" fill-rule="nonzero"/><path fill="#070808" d="M 2.824219 41.75 L 4.0625 41.75 L 4.0625 38.632812 L 2.824219 38.632812 Z M 2.824219 41.75 " fill-opacity="1" fill-rule="nonzero"/><path fill="#070808" d="M 1.886719 40.8125 L 5 40.8125 L 5 39.570312 L 1.886719 39.570312 Z M 1.886719 40.8125 " fill-opacity="1" fill-rule="nonzero"/><path fill="#070808" d="M 90.746094 3.195312 L 95.730469 3.195312 L 95.730469 1.957031 L 90.746094 1.957031 Z M 90.746094 3.195312 " fill-opacity="1" fill-rule="nonzero"/><path fill="#070808" d="M 91.683594 36.273438 L 96.667969 36.273438 L 96.667969 35.035156 L 91.683594 35.035156 Z M 91.683594 36.273438 " fill-opacity="1" fill-rule="nonzero"/><path fill="#070808" d="M 105.425781 49.636719 L 110.410156 49.636719 L 110.410156 48.398438 L 105.425781 48.398438 Z M 105.425781 49.636719 " fill-opacity="1" fill-rule="nonzero"/><path fill="#070808" d="M 103.867188 22.394531 L 103.25 22.394531 C 103.25 22.695312 103.128906 22.960938 102.933594 23.160156 C 102.734375 23.355469 102.46875 23.476562 102.167969 23.476562 C 101.871094 23.476562 101.601562 23.355469 101.40625 23.160156 C 101.210938 22.960938 101.089844 22.695312 101.089844 22.394531 C 101.089844 22.09375 101.210938 21.828125 101.40625 21.628906 C 101.601562 21.433594 101.871094 21.3125 102.167969 21.3125 C 102.46875 21.3125 102.734375 21.433594 102.933594 21.628906 C 103.128906 21.828125 103.25 22.09375 103.25 22.394531 L 104.488281 22.394531 C 104.488281 21.113281 103.449219 20.074219 102.167969 20.074219 C 100.890625 20.074219 99.851562 21.113281 99.851562 22.394531 C 99.851562 23.675781 100.890625 24.714844 102.167969 24.714844 C 103.449219 24.714844 104.488281 23.675781 104.488281 22.394531 L 103.867188 22.394531 " fill-opacity="1" fill-rule="nonzero"/><g clip-path="url(#id10)"><path fill="#070808" d="M 33.328125 57.171875 C 35.019531 53.15625 35.566406 49.765625 35.5625 47.085938 C 35.5625 42.441406 33.941406 39.925781 33.90625 39.871094 C 33.882812 39.835938 33.851562 39.800781 33.816406 39.773438 C 30.714844 37.113281 28.875 33.9375 27.804688 30.8125 C 26.738281 27.683594 26.441406 24.605469 26.441406 22.179688 C 26.441406 20.722656 26.546875 19.5 26.652344 18.648438 C 26.707031 18.21875 26.757812 17.882812 26.796875 17.65625 C 26.820312 17.542969 26.835938 17.457031 26.84375 17.402344 C 26.851562 17.371094 26.855469 17.347656 26.859375 17.335938 L 26.863281 17.316406 L 26.867188 17.292969 C 27.449219 13.683594 28.746094 10.957031 30.398438 8.882812 C 32.878906 5.773438 36.191406 4.109375 39.148438 3.226562 C 42.101562 2.34375 44.691406 2.246094 45.675781 2.246094 C 45.8125 2.246094 45.917969 2.25 45.992188 2.25 C 46.027344 2.25 46.050781 2.253906 46.070312 2.253906 L 46.167969 2.253906 L 46.179688 2.25 C 46.253906 2.242188 46.621094 2.210938 47.210938 2.210938 C 48.90625 2.210938 52.414062 2.484375 55.949219 4.382812 C 57.71875 5.335938 59.496094 6.691406 61.074219 8.628906 C 62.652344 10.5625 64.03125 13.085938 64.988281 16.382812 L 65.433594 16.25 L 64.976562 16.335938 L 66.160156 22.589844 L 66.175781 22.652344 C 66.203125 22.726562 66.359375 23.148438 67.140625 24.15625 C 67.921875 25.167969 69.332031 26.769531 71.882812 29.183594 L 72.203125 28.84375 L 71.824219 29.113281 L 72.058594 28.945312 L 71.820312 29.109375 L 71.824219 29.113281 L 72.058594 28.945312 L 71.820312 29.109375 C 71.824219 29.113281 71.847656 29.152344 71.867188 29.203125 C 71.886719 29.253906 71.902344 29.3125 71.902344 29.355469 C 71.898438 29.394531 71.894531 29.417969 71.875 29.449219 L 72.277344 29.683594 L 72.066406 29.269531 L 67.8125 31.417969 C 67.746094 31.453125 67.6875 31.503906 67.644531 31.566406 C 67.628906 31.589844 67.5625 31.683594 67.496094 31.847656 C 67.433594 32.007812 67.371094 32.234375 67.371094 32.511719 C 67.371094 32.769531 67.425781 33.0625 67.574219 33.367188 C 67.71875 33.671875 67.957031 33.984375 68.300781 34.289062 L 68.304688 34.289062 L 69.222656 35.078125 L 69.523438 34.726562 L 69.160156 35.015625 C 69.183594 35.046875 69.183594 35.050781 69.1875 35.09375 C 69.191406 35.15625 69.144531 35.308594 69.035156 35.480469 C 68.871094 35.738281 68.589844 36.03125 68.351562 36.246094 C 68.234375 36.355469 68.128906 36.445312 68.050781 36.503906 C 68.011719 36.535156 67.980469 36.558594 67.960938 36.574219 L 67.9375 36.59375 L 67.933594 36.597656 C 67.820312 36.679688 67.75 36.808594 67.746094 36.949219 C 67.738281 37.089844 67.792969 37.222656 67.898438 37.316406 L 69.074219 38.375 L 69.382812 38.03125 L 68.984375 38.269531 L 69.097656 38.203125 L 68.972656 38.246094 L 68.984375 38.269531 L 69.097656 38.203125 L 68.972656 38.246094 L 69 38.238281 L 68.972656 38.238281 L 68.972656 38.246094 L 69 38.238281 L 68.972656 38.238281 L 69.0625 38.238281 L 68.984375 38.191406 L 68.972656 38.238281 L 69.0625 38.238281 L 68.984375 38.191406 L 68.972656 38.214844 L 67.972656 40.128906 C 67.921875 40.226562 67.90625 40.339844 67.929688 40.445312 C 67.929688 40.445312 67.9375 40.484375 67.953125 40.558594 C 68.007812 40.816406 68.144531 41.488281 68.265625 42.277344 C 68.390625 43.066406 68.496094 43.976562 68.496094 44.683594 C 68.496094 44.898438 68.484375 45.097656 68.464844 45.261719 L 68.925781 45.320312 L 68.484375 45.171875 L 68.515625 45.183594 L 68.484375 45.171875 L 68.515625 45.183594 L 68.484375 45.171875 C 68.476562 45.191406 68.339844 45.578125 68.0625 45.953125 C 67.925781 46.144531 67.75 46.328125 67.550781 46.476562 C 67.351562 46.625 67.125 46.730469 66.855469 46.777344 L 66.933594 47.234375 L 66.953125 46.769531 L 57.765625 46.34375 C 57.71875 46.34375 57.667969 46.347656 57.621094 46.359375 C 57.582031 46.371094 56.867188 46.566406 56.117188 47.183594 C 55.742188 47.492188 55.359375 47.910156 55.0625 48.457031 C 54.765625 49.007812 54.558594 49.6875 54.527344 50.503906 L 54.527344 50.511719 L 54.253906 60.65625 C 54.246094 60.910156 54.449219 61.125 54.707031 61.132812 C 54.960938 61.140625 55.175781 60.9375 55.183594 60.679688 L 55.457031 50.535156 L 54.992188 50.523438 L 55.457031 50.542969 C 55.484375 49.859375 55.648438 49.328125 55.878906 48.898438 C 56.226562 48.257812 56.726562 47.847656 57.144531 47.589844 C 57.351562 47.464844 57.539062 47.378906 57.671875 47.328125 C 57.738281 47.300781 57.789062 47.28125 57.824219 47.269531 L 57.859375 47.257812 L 57.867188 47.257812 L 57.835938 47.152344 L 57.863281 47.257812 L 57.867188 47.257812 L 57.835938 47.152344 L 57.863281 47.257812 L 57.742188 46.808594 L 57.722656 47.273438 L 66.910156 47.699219 C 66.945312 47.699219 66.976562 47.699219 67.007812 47.691406 C 67.449219 47.621094 67.824219 47.433594 68.128906 47.207031 C 68.582031 46.863281 68.882812 46.433594 69.078125 46.089844 C 69.269531 45.746094 69.359375 45.484375 69.367188 45.464844 C 69.375 45.433594 69.382812 45.410156 69.386719 45.375 C 69.414062 45.160156 69.421875 44.925781 69.421875 44.683594 C 69.421875 43.773438 69.273438 42.679688 69.128906 41.792969 C 68.984375 40.914062 68.839844 40.25 68.835938 40.246094 L 68.382812 40.347656 L 68.796875 40.5625 L 69.796875 38.644531 L 69.382812 38.429688 L 69.78125 38.667969 C 69.871094 38.523438 69.902344 38.367188 69.902344 38.238281 C 69.898438 37.976562 69.804688 37.828125 69.78125 37.792969 C 69.757812 37.75 69.730469 37.714844 69.695312 37.683594 L 68.519531 36.625 L 68.207031 36.972656 L 68.484375 37.34375 C 68.496094 37.335938 68.871094 37.058594 69.261719 36.660156 C 69.457031 36.460938 69.65625 36.234375 69.820312 35.976562 C 69.976562 35.722656 70.113281 35.4375 70.117188 35.09375 C 70.117188 34.875 70.042969 34.628906 69.886719 34.433594 L 69.828125 34.375 L 68.910156 33.582031 L 68.914062 33.585938 C 68.644531 33.351562 68.496094 33.140625 68.410156 32.964844 C 68.324219 32.785156 68.300781 32.640625 68.300781 32.511719 C 68.300781 32.375 68.332031 32.265625 68.359375 32.1875 C 68.375 32.152344 68.390625 32.125 68.398438 32.109375 L 68.40625 32.09375 L 68.382812 32.078125 L 68.40625 32.09375 L 68.382812 32.078125 L 68.40625 32.09375 L 68.152344 31.921875 L 68.402344 32.101562 L 68.40625 32.09375 L 68.152344 31.921875 L 68.402344 32.101562 L 68.023438 31.832031 L 68.230469 32.25 L 72.484375 30.097656 C 72.566406 30.058594 72.632812 29.996094 72.679688 29.917969 C 72.789062 29.730469 72.828125 29.53125 72.828125 29.355469 C 72.828125 29.125 72.765625 28.941406 72.707031 28.808594 C 72.652344 28.675781 72.59375 28.59375 72.582031 28.578125 L 72.519531 28.507812 C 69.996094 26.117188 68.613281 24.546875 67.875 23.589844 C 67.503906 23.109375 67.292969 22.785156 67.179688 22.585938 C 67.121094 22.488281 67.085938 22.421875 67.070312 22.382812 L 67.054688 22.351562 L 67.054688 22.347656 L 66.84375 22.429688 L 67.058594 22.359375 L 67.054688 22.347656 L 66.84375 22.429688 L 67.058594 22.359375 L 66.617188 22.503906 L 67.074219 22.417969 L 65.890625 16.164062 L 65.878906 16.121094 C 64.890625 12.71875 63.453125 10.078125 61.792969 8.039062 C 59.304688 4.980469 56.316406 3.285156 53.632812 2.363281 C 50.945312 1.441406 48.554688 1.28125 47.210938 1.28125 C 46.5 1.28125 46.082031 1.324219 46.066406 1.328125 L 46.117188 1.789062 L 46.140625 1.324219 C 46.132812 1.324219 45.96875 1.316406 45.675781 1.316406 C 44.285156 1.316406 40 1.492188 35.714844 3.558594 C 33.570312 4.589844 31.429688 6.101562 29.675781 8.300781 C 27.917969 10.503906 26.550781 13.390625 25.949219 17.144531 L 26.410156 17.21875 L 25.953125 17.121094 C 25.949219 17.144531 25.515625 19.175781 25.511719 22.179688 C 25.515625 24.679688 25.816406 27.855469 26.925781 31.113281 C 28.039062 34.367188 29.96875 37.699219 33.214844 40.480469 L 33.515625 40.125 L 33.128906 40.382812 L 33.257812 40.296875 L 33.128906 40.378906 L 33.128906 40.382812 L 33.257812 40.296875 L 33.128906 40.378906 C 33.140625 40.402344 34.632812 42.734375 34.632812 47.085938 C 34.632812 49.640625 34.121094 52.898438 32.472656 56.808594 C 32.371094 57.046875 32.484375 57.320312 32.71875 57.417969 C 32.957031 57.519531 33.226562 57.40625 33.328125 57.171875 " fill-opacity="1" fill-rule="nonzero"/></g><path fill="#070808" d="M 44.925781 7.617188 C 45.023438 7.789062 45.117188 7.949219 45.183594 8.101562 C 45.25 8.253906 45.285156 8.386719 45.285156 8.507812 L 45.28125 8.578125 C 45.253906 8.835938 45.4375 9.0625 45.695312 9.09375 C 45.949219 9.117188 46.175781 8.933594 46.203125 8.679688 C 46.210938 8.621094 46.214844 8.566406 46.214844 8.507812 C 46.210938 8.214844 46.132812 7.953125 46.035156 7.730469 C 45.9375 7.503906 45.824219 7.316406 45.730469 7.15625 C 45.605469 6.933594 45.320312 6.855469 45.097656 6.984375 C 44.875 7.109375 44.796875 7.394531 44.925781 7.617188 " fill-opacity="1" fill-rule="nonzero"/><path fill="#070808" d="M 31.269531 27.421875 C 31.335938 27.429688 31.40625 27.433594 31.476562 27.433594 C 32.078125 27.429688 32.664062 27.191406 33.089844 26.773438 C 33.273438 26.589844 33.273438 26.296875 33.09375 26.113281 C 32.910156 25.933594 32.617188 25.933594 32.4375 26.113281 C 32.210938 26.34375 31.816406 26.507812 31.476562 26.503906 C 31.4375 26.503906 31.398438 26.5 31.363281 26.5 C 31.105469 26.472656 30.878906 26.660156 30.851562 26.914062 C 30.828125 27.171875 31.015625 27.398438 31.269531 27.421875 " fill-opacity="1" fill-rule="nonzero"/><path fill="#070808" d="M 35.429688 28.679688 L 35.753906 29.011719 C 35.910156 28.855469 36.027344 28.753906 36.109375 28.707031 C 36.191406 28.660156 36.226562 28.652344 36.324219 28.648438 C 36.382812 28.648438 36.464844 28.660156 36.582031 28.6875 C 37.015625 28.792969 37.488281 28.867188 37.976562 28.867188 C 38.410156 28.867188 38.859375 28.804688 39.285156 28.640625 C 39.464844 28.566406 39.617188 28.464844 39.742188 28.359375 C 39.929688 28.199219 40.0625 28.03125 40.183594 27.898438 C 40.304688 27.761719 40.40625 27.65625 40.503906 27.597656 C 40.636719 27.515625 40.777344 27.480469 40.953125 27.480469 C 41.128906 27.480469 41.335938 27.519531 41.554688 27.585938 C 41.773438 27.648438 41.996094 27.738281 42.21875 27.820312 C 42.769531 28.023438 43.363281 28.1875 43.984375 28.191406 C 44.542969 28.191406 45.128906 28.042969 45.652344 27.671875 C 46.078125 27.363281 46.421875 27.015625 46.757812 26.765625 C 46.925781 26.640625 47.085938 26.539062 47.253906 26.46875 C 47.417969 26.398438 47.585938 26.359375 47.78125 26.351562 L 47.835938 26.351562 C 48.289062 26.351562 48.746094 26.492188 49.242188 26.683594 C 49.734375 26.871094 50.257812 27.105469 50.847656 27.230469 C 51.132812 27.289062 51.433594 27.316406 51.742188 27.316406 C 52.21875 27.316406 52.710938 27.253906 53.183594 27.140625 C 53.65625 27.023438 54.101562 26.859375 54.480469 26.632812 C 54.824219 26.425781 55.105469 26.191406 55.328125 25.925781 C 55.667969 25.527344 55.867188 25.074219 55.984375 24.605469 C 56.101562 24.136719 56.144531 23.648438 56.171875 23.140625 L 55.707031 23.117188 L 55.746094 23.582031 C 55.957031 23.5625 56.171875 23.554688 56.386719 23.554688 C 56.902344 23.554688 57.425781 23.59375 57.953125 23.597656 C 58.546875 23.59375 59.148438 23.546875 59.730469 23.292969 C 60.316406 23.046875 60.847656 22.585938 61.273438 21.867188 C 61.671875 21.199219 61.867188 20.46875 61.863281 19.75 C 61.863281 18.609375 61.378906 17.496094 60.511719 16.640625 L 60.1875 16.96875 L 60.578125 17.214844 C 60.800781 16.863281 60.882812 16.457031 60.882812 16.050781 C 60.882812 15.519531 60.738281 14.976562 60.464844 14.519531 C 60.363281 14.351562 60.226562 14.222656 60.097656 14.140625 C 60 14.078125 59.90625 14.039062 59.835938 14.011719 C 59.730469 13.972656 59.675781 13.949219 59.660156 13.941406 C 59.648438 13.929688 59.652344 13.941406 59.625 13.886719 C 59.542969 13.707031 59.515625 13.492188 59.484375 13.210938 C 59.453125 12.9375 59.417969 12.597656 59.242188 12.242188 C 59.082031 11.917969 58.875 11.640625 58.628906 11.421875 C 58.378906 11.199219 58.085938 11.039062 57.773438 10.9375 C 57.582031 10.875 57.453125 10.820312 57.386719 10.78125 C 57.332031 10.753906 57.3125 10.734375 57.296875 10.71875 C 57.273438 10.691406 57.246094 10.648438 57.191406 10.527344 C 57.140625 10.414062 57.074219 10.238281 56.96875 10.011719 C 56.71875 9.484375 56.320312 8.96875 55.804688 8.605469 C 55.625 8.476562 55.433594 8.402344 55.257812 8.359375 C 54.996094 8.292969 54.765625 8.277344 54.585938 8.246094 C 54.402344 8.214844 54.285156 8.175781 54.203125 8.113281 C 53.957031 7.929688 53.726562 7.710938 53.457031 7.488281 C 53.191406 7.269531 52.886719 7.042969 52.507812 6.878906 C 52.042969 6.679688 51.554688 6.589844 51.070312 6.589844 C 50.792969 6.589844 50.515625 6.621094 50.242188 6.675781 C 49.953125 6.730469 49.742188 6.84375 49.605469 6.914062 C 49.535156 6.949219 49.484375 6.96875 49.449219 6.984375 C 49.414062 6.996094 49.394531 6.996094 49.363281 7 C 49.332031 6.996094 49.285156 6.992188 49.199219 6.960938 C 49 6.886719 48.8125 6.777344 48.570312 6.652344 C 48.328125 6.527344 48.027344 6.398438 47.644531 6.335938 C 47.472656 6.308594 47.316406 6.296875 47.171875 6.296875 C 46.867188 6.292969 46.609375 6.367188 46.394531 6.453125 C 46.183594 6.539062 46.007812 6.632812 45.761719 6.726562 C 45.558594 6.800781 45.410156 6.820312 45.261719 6.824219 C 45.121094 6.824219 44.976562 6.800781 44.800781 6.761719 C 44.625 6.71875 44.417969 6.664062 44.175781 6.613281 C 43.878906 6.550781 43.566406 6.515625 43.246094 6.515625 C 42.789062 6.515625 42.316406 6.59375 41.867188 6.796875 C 41.519531 6.957031 41.304688 7.207031 41.128906 7.40625 C 40.960938 7.609375 40.824219 7.761719 40.699219 7.835938 C 40.628906 7.875 40.601562 7.878906 40.550781 7.882812 C 40.492188 7.882812 40.402344 7.863281 40.273438 7.816406 C 40.144531 7.777344 39.980469 7.710938 39.78125 7.667969 C 39.640625 7.636719 39.503906 7.621094 39.371094 7.621094 C 39.125 7.621094 38.898438 7.671875 38.695312 7.730469 C 38.492188 7.792969 38.308594 7.871094 38.128906 7.941406 C 37.699219 8.109375 37.402344 8.441406 37.195312 8.796875 C 36.988281 9.15625 36.867188 9.550781 36.835938 9.925781 L 37.300781 9.964844 L 37.386719 9.507812 C 36.960938 9.425781 36.59375 9.363281 36.226562 9.363281 C 35.914062 9.363281 35.601562 9.414062 35.296875 9.539062 C 34.992188 9.664062 34.699219 9.855469 34.394531 10.113281 C 34.136719 10.332031 33.945312 10.542969 33.804688 10.75 C 33.585938 11.0625 33.488281 11.351562 33.414062 11.570312 C 33.332031 11.796875 33.28125 11.945312 33.160156 12.105469 C 33.117188 12.164062 33.011719 12.242188 32.84375 12.324219 C 32.675781 12.410156 32.464844 12.492188 32.242188 12.648438 C 31.828125 12.945312 31.421875 13.355469 31.210938 13.902344 C 31.085938 14.234375 31.082031 14.527344 31.066406 14.753906 C 31.050781 14.984375 31.027344 15.140625 30.953125 15.273438 C 30.867188 15.433594 30.730469 15.597656 30.566406 15.785156 C 30.402344 15.972656 30.214844 16.179688 30.058594 16.453125 C 29.746094 16.996094 29.542969 17.625 29.496094 18.261719 L 29.960938 18.292969 L 29.496094 18.25 L 29.496094 18.308594 C 29.496094 18.351562 29.5 18.390625 29.503906 18.445312 C 29.515625 18.621094 29.550781 18.917969 29.601562 19.191406 C 29.628906 19.328125 29.65625 19.457031 29.699219 19.582031 C 29.722656 19.644531 29.746094 19.707031 29.800781 19.789062 C 29.828125 19.828125 29.867188 19.875 29.933594 19.925781 C 29.996094 19.972656 30.105469 20.027344 30.234375 20.027344 C 30.328125 20.027344 30.417969 19.996094 30.476562 19.964844 L 30.253906 19.554688 L 30.019531 19.152344 C 30 19.164062 29.976562 19.179688 29.9375 19.210938 C 29.917969 19.226562 29.894531 19.246094 29.859375 19.289062 C 29.84375 19.3125 29.824219 19.339844 29.804688 19.386719 C 29.785156 19.429688 29.765625 19.492188 29.761719 19.578125 C 29.761719 19.679688 29.808594 19.8125 29.882812 19.886719 C 29.933594 19.945312 29.984375 19.976562 30.027344 20 C 30.089844 20.027344 30.132812 20.035156 30.164062 20.039062 C 30.195312 20.042969 30.21875 20.042969 30.234375 20.042969 C 30.296875 20.042969 30.324219 20.039062 30.351562 20.03125 C 30.390625 20.023438 30.417969 20.015625 30.457031 20.003906 C 30.476562 19.992188 30.496094 19.988281 30.539062 19.964844 C 30.558594 19.953125 30.585938 19.9375 30.628906 19.898438 C 30.652344 19.878906 30.679688 19.851562 30.710938 19.800781 C 30.742188 19.75 30.777344 19.667969 30.777344 19.554688 C 30.777344 19.46875 30.75 19.375 30.710938 19.3125 C 30.632812 19.195312 30.554688 19.152344 30.503906 19.128906 C 30.429688 19.097656 30.390625 19.09375 30.363281 19.089844 C 30.335938 19.085938 30.316406 19.085938 30.300781 19.085938 C 30.253906 19.085938 30.230469 19.089844 30.195312 19.09375 C 30.109375 19.105469 30.027344 19.140625 29.957031 19.195312 C 29.6875 19.421875 29.503906 19.726562 29.382812 20.058594 C 29.261719 20.386719 29.203125 20.75 29.203125 21.117188 C 29.203125 21.59375 29.300781 22.078125 29.519531 22.511719 C 29.738281 22.941406 30.097656 23.324219 30.597656 23.519531 L 30.765625 23.085938 L 30.570312 22.664062 C 30.203125 22.832031 29.933594 23.125 29.777344 23.453125 C 29.617188 23.78125 29.554688 24.144531 29.554688 24.511719 C 29.554688 25.109375 29.722656 25.71875 30.007812 26.238281 C 30.152344 26.5 30.324219 26.738281 30.535156 26.9375 C 30.746094 27.132812 30.996094 27.292969 31.28125 27.375 L 31.410156 26.929688 L 31.109375 26.570312 C 30.886719 26.757812 30.71875 26.984375 30.617188 27.226562 C 30.511719 27.46875 30.464844 27.722656 30.464844 27.972656 C 30.464844 28.328125 30.554688 28.671875 30.6875 28.988281 C 30.820312 29.304688 31 29.59375 31.207031 29.847656 L 31.265625 29.90625 C 31.285156 29.921875 31.488281 30.097656 31.828125 30.273438 C 32.164062 30.453125 32.644531 30.636719 33.214844 30.636719 C 33.632812 30.640625 34.097656 30.53125 34.546875 30.257812 C 35 29.984375 35.429688 29.554688 35.820312 28.925781 L 35.429688 28.679688 L 35.753906 29.011719 L 35.429688 28.679688 L 35.035156 28.433594 C 34.703125 28.964844 34.371094 29.28125 34.066406 29.464844 C 33.761719 29.644531 33.484375 29.707031 33.214844 29.707031 C 32.851562 29.710938 32.507812 29.582031 32.257812 29.453125 C 32.132812 29.386719 32.03125 29.320312 31.960938 29.269531 C 31.929688 29.246094 31.902344 29.226562 31.886719 29.214844 L 31.871094 29.203125 L 31.871094 29.199219 L 31.734375 29.359375 L 31.871094 29.203125 L 31.871094 29.199219 L 31.734375 29.359375 L 31.871094 29.203125 L 31.566406 29.554688 L 31.925781 29.257812 C 31.777344 29.074219 31.636719 28.851562 31.542969 28.625 C 31.445312 28.398438 31.394531 28.171875 31.394531 27.972656 C 31.394531 27.832031 31.417969 27.710938 31.46875 27.597656 C 31.515625 27.484375 31.589844 27.382812 31.707031 27.285156 C 31.839844 27.171875 31.898438 27 31.863281 26.828125 C 31.828125 26.660156 31.699219 26.527344 31.535156 26.480469 C 31.421875 26.449219 31.296875 26.378906 31.171875 26.257812 C 30.984375 26.082031 30.804688 25.804688 30.679688 25.488281 C 30.554688 25.175781 30.480469 24.824219 30.484375 24.511719 C 30.480469 24.253906 30.527344 24.027344 30.609375 23.863281 C 30.695312 23.695312 30.800781 23.582031 30.964844 23.507812 C 31.132812 23.429688 31.238281 23.257812 31.230469 23.070312 C 31.226562 22.882812 31.109375 22.71875 30.933594 22.652344 C 30.679688 22.550781 30.488281 22.363281 30.347656 22.085938 C 30.207031 21.8125 30.132812 21.460938 30.132812 21.117188 C 30.132812 20.851562 30.175781 20.589844 30.253906 20.375 C 30.332031 20.160156 30.441406 20 30.550781 19.914062 L 30.253906 19.554688 L 30.3125 20.015625 L 30.316406 20.015625 L 30.300781 19.78125 L 30.300781 20.015625 L 30.316406 20.015625 L 30.300781 19.78125 L 30.300781 20.015625 L 30.300781 19.601562 L 30.203125 20.003906 C 30.265625 20.019531 30.285156 20.015625 30.300781 20.015625 L 30.300781 19.601562 L 30.203125 20.003906 L 30.308594 19.558594 L 30.046875 19.933594 C 30.121094 19.988281 30.167969 19.996094 30.203125 20.003906 L 30.308594 19.558594 L 30.046875 19.933594 L 30.3125 19.554688 L 29.917969 19.800781 C 29.960938 19.867188 30.007812 19.90625 30.046875 19.933594 L 30.3125 19.554688 L 29.917969 19.800781 L 30.3125 19.554688 L 29.847656 19.554688 C 29.847656 19.640625 29.878906 19.734375 29.917969 19.800781 L 30.3125 19.554688 L 29.847656 19.554688 L 30.3125 19.554688 L 29.886719 19.375 C 29.867188 19.421875 29.847656 19.480469 29.847656 19.554688 L 30.3125 19.554688 L 29.886719 19.375 L 30.308594 19.554688 L 29.996094 19.21875 C 29.96875 19.246094 29.925781 19.285156 29.886719 19.375 L 30.308594 19.554688 L 29.996094 19.21875 L 30.296875 19.542969 L 30.089844 19.152344 C 30.070312 19.160156 30.046875 19.171875 29.996094 19.21875 L 30.296875 19.542969 L 30.089844 19.152344 L 30.253906 19.460938 L 30.136719 19.128906 C 30.128906 19.132812 30.121094 19.136719 30.089844 19.152344 L 30.253906 19.460938 L 30.136719 19.128906 L 30.203125 19.3125 L 30.160156 19.125 L 30.136719 19.128906 L 30.203125 19.3125 L 30.160156 19.125 L 30.234375 19.460938 L 30.234375 19.113281 C 30.175781 19.117188 30.171875 19.121094 30.160156 19.125 L 30.234375 19.460938 L 30.234375 19.113281 L 30.234375 19.5625 L 30.390625 19.144531 C 30.300781 19.113281 30.261719 19.117188 30.234375 19.113281 L 30.234375 19.5625 L 30.390625 19.144531 L 30.230469 19.574219 L 30.574219 19.269531 C 30.503906 19.191406 30.4375 19.160156 30.390625 19.144531 L 30.230469 19.574219 L 30.574219 19.269531 L 30.230469 19.578125 L 30.691406 19.578125 C 30.695312 19.472656 30.644531 19.34375 30.574219 19.269531 L 30.230469 19.578125 L 30.691406 19.578125 L 30.230469 19.578125 L 30.652344 19.765625 C 30.671875 19.71875 30.691406 19.660156 30.691406 19.578125 L 30.230469 19.578125 L 30.652344 19.765625 L 30.238281 19.578125 L 30.5625 19.894531 C 30.585938 19.871094 30.617188 19.839844 30.652344 19.765625 L 30.238281 19.578125 L 30.5625 19.894531 L 30.269531 19.609375 L 30.503906 19.945312 C 30.515625 19.9375 30.53125 19.925781 30.5625 19.894531 L 30.269531 19.609375 L 30.503906 19.945312 L 30.355469 19.734375 L 30.484375 19.957031 L 30.503906 19.945312 L 30.355469 19.734375 L 30.484375 19.957031 C 30.707031 19.832031 30.78125 19.550781 30.65625 19.328125 C 30.53125 19.105469 30.253906 19.023438 30.03125 19.148438 L 30.234375 19.519531 L 30.234375 19.097656 C 30.152344 19.09375 30.074219 19.121094 30.03125 19.148438 L 30.234375 19.519531 L 30.234375 19.097656 L 30.234375 19.515625 L 30.503906 19.195312 C 30.460938 19.15625 30.363281 19.097656 30.234375 19.097656 L 30.234375 19.515625 L 30.503906 19.195312 L 30.289062 19.445312 L 30.574219 19.269531 C 30.5625 19.257812 30.546875 19.230469 30.503906 19.195312 L 30.289062 19.445312 L 30.574219 19.269531 L 30.425781 19.363281 L 30.578125 19.28125 L 30.574219 19.269531 L 30.425781 19.363281 L 30.578125 19.28125 L 30.519531 19.3125 L 30.578125 19.285156 L 30.578125 19.28125 L 30.519531 19.3125 L 30.578125 19.285156 L 30.574219 19.273438 C 30.5625 19.238281 30.539062 19.152344 30.523438 19.058594 C 30.492188 18.914062 30.464844 18.738281 30.449219 18.589844 C 30.441406 18.515625 30.433594 18.449219 30.429688 18.394531 L 30.425781 18.332031 L 30.425781 18.308594 L 30.097656 18.308594 L 30.421875 18.335938 L 30.421875 18.308594 L 30.097656 18.308594 L 30.421875 18.335938 L 30.421875 18.328125 C 30.457031 17.847656 30.621094 17.339844 30.863281 16.914062 C 30.957031 16.75 31.097656 16.585938 31.261719 16.398438 C 31.425781 16.210938 31.617188 15.996094 31.769531 15.71875 C 31.949219 15.390625 31.976562 15.066406 31.992188 14.816406 C 32.007812 14.566406 32.019531 14.378906 32.078125 14.234375 C 32.1875 13.929688 32.464844 13.625 32.78125 13.40625 C 32.875 13.335938 33.050781 13.257812 33.257812 13.15625 C 33.460938 13.054688 33.703125 12.921875 33.902344 12.667969 C 34.042969 12.476562 34.136719 12.285156 34.203125 12.117188 C 34.300781 11.859375 34.351562 11.664062 34.449219 11.476562 C 34.546875 11.285156 34.6875 11.085938 34.992188 10.824219 C 35.25 10.605469 35.460938 10.476562 35.648438 10.398438 C 35.835938 10.324219 36.007812 10.292969 36.226562 10.292969 C 36.480469 10.292969 36.800781 10.339844 37.210938 10.421875 C 37.339844 10.445312 37.476562 10.414062 37.582031 10.335938 C 37.683594 10.253906 37.75 10.132812 37.761719 10.003906 C 37.78125 9.777344 37.863281 9.492188 38 9.261719 C 38.132812 9.027344 38.308594 8.863281 38.464844 8.808594 C 38.652344 8.734375 38.820312 8.667969 38.96875 8.621094 C 39.117188 8.578125 39.246094 8.550781 39.371094 8.550781 C 39.4375 8.550781 39.507812 8.558594 39.582031 8.578125 C 39.695312 8.601562 39.824219 8.648438 39.980469 8.699219 C 40.136719 8.75 40.320312 8.808594 40.550781 8.8125 C 40.75 8.8125 40.980469 8.753906 41.179688 8.628906 C 41.484375 8.4375 41.671875 8.195312 41.832031 8.011719 C 41.992188 7.824219 42.121094 7.699219 42.253906 7.644531 C 42.554688 7.503906 42.894531 7.445312 43.246094 7.445312 C 43.492188 7.445312 43.742188 7.472656 43.988281 7.523438 C 44.195312 7.566406 44.390625 7.621094 44.59375 7.667969 C 44.796875 7.714844 45.019531 7.753906 45.261719 7.753906 C 45.515625 7.753906 45.792969 7.707031 46.082031 7.597656 C 46.386719 7.484375 46.59375 7.375 46.746094 7.316406 C 46.898438 7.253906 46.992188 7.230469 47.171875 7.226562 C 47.257812 7.226562 47.367188 7.234375 47.5 7.253906 C 47.757812 7.296875 47.941406 7.375 48.148438 7.480469 C 48.351562 7.582031 48.578125 7.722656 48.878906 7.832031 C 49.042969 7.894531 49.207031 7.929688 49.363281 7.929688 C 49.507812 7.929688 49.636719 7.902344 49.746094 7.863281 C 49.910156 7.808594 50.027344 7.738281 50.125 7.691406 C 50.226562 7.644531 50.3125 7.609375 50.421875 7.585938 C 50.640625 7.542969 50.855469 7.519531 51.070312 7.519531 C 51.441406 7.523438 51.800781 7.589844 52.140625 7.734375 C 52.402344 7.847656 52.628906 8.007812 52.863281 8.207031 C 53.101562 8.402344 53.347656 8.632812 53.648438 8.859375 C 53.824219 8.988281 54.011719 9.0625 54.183594 9.109375 C 54.441406 9.175781 54.671875 9.191406 54.855469 9.222656 C 55.039062 9.253906 55.167969 9.296875 55.273438 9.367188 C 55.625 9.613281 55.949219 10.023438 56.125 10.40625 C 56.207031 10.582031 56.265625 10.722656 56.320312 10.855469 C 56.363281 10.953125 56.40625 11.050781 56.46875 11.152344 C 56.558594 11.304688 56.703125 11.457031 56.871094 11.558594 C 57.042969 11.664062 57.238281 11.738281 57.488281 11.824219 C 57.691406 11.890625 57.863281 11.984375 58.011719 12.117188 C 58.164062 12.25 58.296875 12.425781 58.410156 12.65625 C 58.5 12.835938 58.53125 13.042969 58.5625 13.3125 C 58.59375 13.582031 58.621094 13.914062 58.777344 14.269531 C 58.855469 14.445312 58.980469 14.59375 59.113281 14.6875 C 59.210938 14.761719 59.304688 14.804688 59.378906 14.832031 C 59.492188 14.875 59.558594 14.898438 59.589844 14.917969 C 59.621094 14.9375 59.632812 14.945312 59.667969 15 C 59.847656 15.292969 59.957031 15.695312 59.957031 16.050781 C 59.957031 16.324219 59.894531 16.5625 59.792969 16.722656 C 59.679688 16.90625 59.707031 17.144531 59.859375 17.296875 C 60.566406 18 60.9375 18.875 60.9375 19.75 C 60.9375 20.300781 60.789062 20.859375 60.476562 21.390625 C 60.125 21.976562 59.765625 22.265625 59.363281 22.441406 C 58.964844 22.617188 58.496094 22.667969 57.953125 22.667969 C 57.476562 22.667969 56.949219 22.628906 56.386719 22.625 C 56.152344 22.625 55.914062 22.632812 55.667969 22.652344 C 55.4375 22.671875 55.257812 22.859375 55.246094 23.09375 C 55.210938 23.738281 55.148438 24.289062 54.972656 24.726562 C 54.886719 24.945312 54.777344 25.140625 54.621094 25.324219 C 54.46875 25.503906 54.269531 25.671875 54.003906 25.832031 C 53.730469 25.996094 53.363281 26.140625 52.964844 26.238281 C 52.5625 26.332031 52.136719 26.386719 51.742188 26.386719 C 51.484375 26.386719 51.246094 26.363281 51.039062 26.320312 C 50.578125 26.222656 50.09375 26.015625 49.570312 25.8125 C 49.050781 25.617188 48.480469 25.421875 47.835938 25.421875 L 47.757812 25.421875 C 47.4375 25.429688 47.148438 25.503906 46.890625 25.613281 C 46.503906 25.777344 46.1875 26.019531 45.90625 26.257812 C 45.621094 26.496094 45.367188 26.730469 45.113281 26.914062 C 44.757812 27.164062 44.390625 27.257812 43.984375 27.261719 C 43.535156 27.261719 43.035156 27.132812 42.542969 26.949219 C 42.332031 26.871094 42.085938 26.773438 41.820312 26.691406 C 41.550781 26.613281 41.265625 26.550781 40.953125 26.550781 C 40.648438 26.550781 40.316406 26.621094 40.011719 26.808594 C 39.707031 27 39.523438 27.246094 39.363281 27.425781 C 39.28125 27.515625 39.207031 27.59375 39.140625 27.648438 C 39.070312 27.710938 39.011719 27.746094 38.945312 27.773438 C 38.65625 27.886719 38.324219 27.9375 37.976562 27.9375 C 37.589844 27.9375 37.179688 27.875 36.800781 27.78125 C 36.636719 27.742188 36.476562 27.71875 36.324219 27.71875 C 36.070312 27.714844 35.824219 27.792969 35.628906 27.914062 C 35.429688 28.03125 35.277344 28.179688 35.105469 28.347656 C 35.078125 28.375 35.054688 28.398438 35.035156 28.433594 L 35.429688 28.679688 " fill-opacity="1" fill-rule="nonzero"/><path fill="#070808" d="M 36.746094 9.992188 C 36.753906 10.25 36.816406 10.492188 36.921875 10.707031 C 37.101562 11.085938 37.390625 11.371094 37.699219 11.609375 C 38.167969 11.96875 38.707031 12.246094 39.167969 12.53125 C 39.632812 12.816406 40.003906 13.113281 40.164062 13.414062 L 40.179688 13.4375 C 40.496094 13.925781 40.6875 14.535156 40.6875 15.136719 C 40.6875 15.472656 40.625 15.804688 40.503906 16.121094 L 40.496094 16.136719 C 40.433594 16.324219 40.242188 16.617188 40.015625 16.828125 C 39.90625 16.933594 39.785156 17.019531 39.675781 17.078125 C 39.570312 17.132812 39.476562 17.15625 39.414062 17.15625 C 39.375 17.15625 39.34375 17.148438 39.308594 17.136719 C 39.277344 17.121094 39.238281 17.097656 39.195312 17.050781 C 39.011719 16.871094 38.71875 16.871094 38.535156 17.050781 C 38.355469 17.234375 38.355469 17.527344 38.535156 17.710938 C 38.660156 17.832031 38.796875 17.929688 38.949219 17.992188 C 39.101562 18.054688 39.261719 18.085938 39.414062 18.085938 C 39.667969 18.085938 39.898438 18.007812 40.101562 17.902344 C 40.410156 17.742188 40.671875 17.511719 40.886719 17.257812 C 41.101562 17.003906 41.269531 16.726562 41.371094 16.449219 L 40.933594 16.292969 L 41.363281 16.464844 C 41.535156 16.035156 41.613281 15.582031 41.613281 15.136719 C 41.613281 14.34375 41.371094 13.570312 40.960938 12.933594 L 40.570312 13.1875 L 40.976562 12.960938 C 40.738281 12.539062 40.382812 12.234375 40.011719 11.976562 C 39.453125 11.585938 38.828125 11.28125 38.375 10.953125 C 38.148438 10.792969 37.96875 10.628906 37.855469 10.464844 C 37.738281 10.304688 37.679688 10.152344 37.675781 9.960938 C 37.664062 9.703125 37.449219 9.503906 37.195312 9.511719 C 36.9375 9.519531 36.738281 9.734375 36.746094 9.992188 " fill-opacity="1" fill-rule="nonzero"/><path fill="#070808" d="M 36.355469 12.773438 C 35.84375 12.804688 35.375 12.933594 34.972656 13.148438 C 34.359375 13.46875 33.894531 13.964844 33.554688 14.542969 C 33.214844 15.125 33 15.785156 32.875 16.46875 L 32.875 16.464844 C 32.808594 16.8125 32.808594 17.136719 32.808594 17.429688 C 32.808594 17.464844 32.808594 17.503906 32.808594 17.542969 C 32.808594 17.78125 32.804688 17.992188 32.777344 18.183594 C 32.75 18.375 32.703125 18.542969 32.613281 18.714844 C 32.492188 18.9375 32.359375 19.085938 32.207031 19.183594 C 32.054688 19.277344 31.863281 19.339844 31.566406 19.339844 C 31.273438 19.339844 30.886719 19.273438 30.398438 19.113281 C 30.152344 19.035156 29.890625 19.167969 29.8125 19.410156 C 29.730469 19.65625 29.867188 19.917969 30.109375 19.996094 C 30.660156 20.179688 31.136719 20.269531 31.566406 20.269531 C 31.996094 20.273438 32.386719 20.171875 32.703125 19.96875 C 33.023438 19.765625 33.257812 19.476562 33.429688 19.15625 C 33.582031 18.871094 33.660156 18.585938 33.699219 18.3125 C 33.738281 18.039062 33.738281 17.785156 33.738281 17.542969 C 33.738281 17.503906 33.738281 17.46875 33.738281 17.429688 C 33.738281 17.144531 33.742188 16.882812 33.789062 16.636719 C 33.933594 15.835938 34.222656 15.105469 34.652344 14.589844 C 34.867188 14.328125 35.113281 14.121094 35.402344 13.96875 C 35.6875 13.820312 36.019531 13.722656 36.410156 13.703125 C 36.664062 13.6875 36.859375 13.464844 36.847656 13.210938 C 36.832031 12.953125 36.613281 12.757812 36.355469 12.773438 " fill-opacity="1" fill-rule="nonzero"/><path fill="#070808" d="M 30.800781 23.53125 C 31.066406 23.464844 31.386719 23.460938 31.753906 23.449219 C 32.117188 23.4375 32.535156 23.410156 32.972656 23.253906 L 33.003906 23.242188 C 33.597656 22.972656 34.132812 22.546875 34.578125 22.035156 C 35.023438 21.527344 35.378906 20.9375 35.582031 20.324219 C 35.722656 19.898438 35.789062 19.402344 35.878906 18.882812 C 36.007812 18.109375 36.183594 17.292969 36.566406 16.726562 C 36.753906 16.4375 36.988281 16.210938 37.304688 16.046875 C 37.617188 15.878906 38.027344 15.773438 38.582031 15.773438 L 38.648438 15.773438 C 38.90625 15.777344 39.117188 15.574219 39.121094 15.316406 C 39.128906 15.0625 38.921875 14.847656 38.667969 14.84375 C 38.636719 14.84375 38.609375 14.84375 38.582031 14.84375 C 37.683594 14.839844 36.96875 15.085938 36.441406 15.5 C 36.046875 15.808594 35.765625 16.199219 35.558594 16.613281 C 35.253906 17.238281 35.109375 17.914062 34.996094 18.527344 C 34.890625 19.136719 34.816406 19.695312 34.703125 20.027344 C 34.542969 20.503906 34.25 21 33.878906 21.425781 C 33.511719 21.847656 33.066406 22.195312 32.625 22.394531 L 32.816406 22.816406 L 32.65625 22.378906 C 32.371094 22.484375 32.0625 22.507812 31.71875 22.523438 C 31.375 22.535156 30.996094 22.53125 30.589844 22.625 C 30.339844 22.679688 30.1875 22.929688 30.242188 23.179688 C 30.300781 23.429688 30.550781 23.585938 30.800781 23.53125 " fill-opacity="1" fill-rule="nonzero"/><path fill="#070808" d="M 33.476562 21.984375 C 33.460938 22.136719 33.453125 22.289062 33.453125 22.441406 C 33.453125 23.039062 33.585938 23.628906 33.882812 24.140625 C 34.179688 24.652344 34.652344 25.070312 35.277344 25.304688 C 35.746094 25.480469 36.234375 25.546875 36.703125 25.546875 C 36.882812 25.546875 37.0625 25.535156 37.238281 25.519531 C 38.570312 25.398438 39.867188 25.160156 41.105469 25.160156 C 41.914062 25.164062 42.695312 25.257812 43.460938 25.542969 C 43.699219 25.632812 43.96875 25.507812 44.054688 25.265625 C 44.144531 25.027344 44.023438 24.757812 43.78125 24.671875 C 42.886719 24.339844 41.988281 24.230469 41.105469 24.230469 C 39.75 24.234375 38.429688 24.480469 37.152344 24.59375 C 37.003906 24.609375 36.851562 24.617188 36.703125 24.617188 C 36.316406 24.617188 35.945312 24.5625 35.605469 24.433594 C 35.171875 24.269531 34.882812 24.007812 34.683594 23.667969 C 34.484375 23.332031 34.382812 22.90625 34.382812 22.441406 C 34.382812 22.324219 34.386719 22.203125 34.398438 22.085938 C 34.429688 21.828125 34.242188 21.601562 33.988281 21.574219 C 33.734375 21.546875 33.503906 21.730469 33.476562 21.984375 " fill-opacity="1" fill-rule="nonzero"/><path fill="#070808" d="M 42.179688 16.496094 C 42.164062 16.605469 42.160156 16.710938 42.160156 16.820312 C 42.15625 17.394531 42.367188 17.902344 42.710938 18.28125 C 42.96875 18.566406 43.285156 18.785156 43.636719 18.957031 C 44.164062 19.21875 44.769531 19.378906 45.394531 19.476562 C 46.015625 19.578125 46.660156 19.613281 47.257812 19.613281 C 47.738281 19.613281 48.1875 19.589844 48.578125 19.550781 L 48.535156 19.089844 L 48.570312 19.554688 C 48.804688 19.535156 49.035156 19.523438 49.257812 19.523438 C 50.335938 19.523438 51.320312 19.738281 52.207031 20.171875 C 53.09375 20.601562 53.890625 21.257812 54.574219 22.167969 L 54.574219 22.164062 C 54.738281 22.382812 54.910156 22.59375 55.039062 22.796875 C 55.167969 22.996094 55.246094 23.183594 55.257812 23.328125 C 55.285156 23.585938 55.511719 23.773438 55.765625 23.746094 C 56.023438 23.71875 56.207031 23.492188 56.183594 23.238281 C 56.144531 22.867188 55.988281 22.558594 55.820312 22.296875 C 55.652344 22.03125 55.464844 21.804688 55.316406 21.605469 C 54.550781 20.59375 53.640625 19.832031 52.613281 19.335938 C 51.589844 18.832031 50.457031 18.59375 49.257812 18.59375 C 49.007812 18.59375 48.753906 18.605469 48.496094 18.625 L 48.488281 18.625 C 48.128906 18.660156 47.707031 18.683594 47.257812 18.683594 C 46.265625 18.6875 45.144531 18.566406 44.335938 18.25 C 43.929688 18.09375 43.609375 17.890625 43.402344 17.660156 C 43.199219 17.425781 43.089844 17.175781 43.085938 16.820312 C 43.085938 16.753906 43.089844 16.683594 43.101562 16.609375 C 43.132812 16.355469 42.949219 16.121094 42.695312 16.089844 C 42.441406 16.058594 42.210938 16.242188 42.179688 16.496094 " fill-opacity="1" fill-rule="nonzero"/><path fill="#070808" d="M 35.023438 18.457031 L 35.023438 18.523438 C 35.019531 19.148438 35.222656 19.695312 35.546875 20.117188 C 36.039062 20.75 36.765625 21.117188 37.496094 21.339844 C 38.230469 21.5625 38.984375 21.640625 39.589844 21.640625 C 39.75 21.640625 39.898438 21.632812 40.035156 21.625 C 40.195312 21.613281 40.359375 21.605469 40.523438 21.605469 C 41.472656 21.605469 42.519531 21.796875 43.511719 22.136719 C 44.507812 22.476562 45.445312 22.964844 46.179688 23.546875 L 46.464844 23.179688 L 46.167969 23.539062 C 46.289062 23.636719 46.457031 23.8125 46.640625 23.996094 C 46.828125 24.171875 47.035156 24.363281 47.316406 24.488281 C 47.554688 24.589844 47.824219 24.480469 47.925781 24.242188 C 48.027344 24.007812 47.917969 23.734375 47.683594 23.632812 C 47.601562 23.601562 47.445312 23.480469 47.285156 23.324219 C 47.121094 23.167969 46.953125 22.984375 46.761719 22.824219 L 46.753906 22.816406 C 45.917969 22.15625 44.894531 21.628906 43.8125 21.257812 C 42.730469 20.886719 41.59375 20.679688 40.523438 20.675781 C 40.335938 20.675781 40.148438 20.683594 39.96875 20.699219 C 39.855469 20.703125 39.730469 20.710938 39.589844 20.710938 C 38.890625 20.710938 37.914062 20.578125 37.171875 20.226562 C 36.800781 20.050781 36.492188 19.824219 36.285156 19.550781 C 36.074219 19.277344 35.953125 18.960938 35.953125 18.523438 L 35.953125 18.476562 C 35.957031 18.222656 35.753906 18.007812 35.5 18.003906 C 35.242188 17.996094 35.027344 18.199219 35.023438 18.457031 " fill-opacity="1" fill-rule="nonzero"/><path fill="#070808" d="M 44.886719 22.640625 C 45.117188 22.710938 45.375 22.75 45.648438 22.75 C 46.164062 22.75 46.75 22.609375 47.261719 22.234375 C 47.773438 21.855469 48.1875 21.238281 48.367188 20.378906 C 48.421875 20.125 48.261719 19.878906 48.011719 19.824219 C 47.757812 19.773438 47.511719 19.933594 47.457031 20.183594 C 47.3125 20.859375 47.027344 21.246094 46.707031 21.484375 C 46.386719 21.722656 46.003906 21.820312 45.648438 21.820312 C 45.460938 21.820312 45.289062 21.792969 45.148438 21.75 C 44.902344 21.675781 44.644531 21.820312 44.574219 22.0625 C 44.5 22.3125 44.640625 22.570312 44.886719 22.640625 " fill-opacity="1" fill-rule="nonzero"/><path fill="#070808" d="M 40.570312 21.679688 C 40.707031 21.679688 40.789062 21.710938 40.875 21.761719 C 40.996094 21.839844 41.113281 21.996094 41.195312 22.222656 C 41.277344 22.445312 41.320312 22.722656 41.320312 22.988281 C 41.320312 23.242188 41.28125 23.488281 41.222656 23.640625 C 41.132812 23.878906 41.253906 24.148438 41.496094 24.238281 C 41.734375 24.328125 42.003906 24.203125 42.09375 23.964844 C 42.199219 23.671875 42.25 23.339844 42.25 22.988281 C 42.246094 22.507812 42.15625 21.996094 41.90625 21.558594 C 41.78125 21.335938 41.609375 21.132812 41.382812 20.984375 C 41.15625 20.835938 40.871094 20.746094 40.570312 20.75 C 40.316406 20.75 40.105469 20.957031 40.105469 21.214844 C 40.105469 21.46875 40.316406 21.679688 40.570312 21.679688 " fill-opacity="1" fill-rule="nonzero"/><path fill="#070808" d="M 41.523438 9.617188 C 42.515625 10.691406 43.230469 11.621094 43.699219 12.636719 C 44.164062 13.652344 44.398438 14.761719 44.398438 16.242188 C 44.398438 16.5 44.605469 16.707031 44.863281 16.707031 C 45.121094 16.707031 45.328125 16.5 45.328125 16.242188 C 45.328125 14.664062 45.070312 13.394531 44.542969 12.246094 C 44.011719 11.097656 43.226562 10.089844 42.203125 8.984375 C 42.027344 8.796875 41.734375 8.785156 41.546875 8.960938 C 41.359375 9.136719 41.347656 9.429688 41.523438 9.617188 " fill-opacity="1" fill-rule="nonzero"/><path fill="#070808" d="M 44.800781 15.308594 C 46.160156 15.332031 47.359375 15.308594 48.496094 15.453125 C 49.632812 15.597656 50.707031 15.898438 51.863281 16.589844 C 52.085938 16.71875 52.371094 16.648438 52.5 16.429688 C 52.632812 16.207031 52.558594 15.921875 52.339844 15.789062 C 51.066406 15.027344 49.839844 14.683594 48.609375 14.53125 C 47.382812 14.375 46.152344 14.40625 44.820312 14.378906 C 44.5625 14.375 44.351562 14.578125 44.347656 14.832031 C 44.339844 15.089844 44.546875 15.304688 44.800781 15.308594 " fill-opacity="1" fill-rule="nonzero"/><path fill="#070808" d="M 43.714844 11.515625 C 44.714844 11.304688 45.757812 11.164062 46.773438 11.164062 C 47.605469 11.164062 48.417969 11.257812 49.179688 11.488281 C 49.9375 11.714844 50.648438 12.074219 51.289062 12.609375 C 51.484375 12.773438 51.777344 12.75 51.941406 12.550781 C 52.105469 12.355469 52.078125 12.0625 51.882812 11.898438 C 51.140625 11.273438 50.3125 10.855469 49.445312 10.597656 C 48.578125 10.335938 47.671875 10.234375 46.773438 10.234375 C 45.667969 10.234375 44.566406 10.386719 43.523438 10.609375 C 43.273438 10.660156 43.113281 10.90625 43.167969 11.160156 C 43.21875 11.410156 43.464844 11.570312 43.71875 11.515625 " fill-opacity="1" fill-rule="nonzero"/><path fill="#070808" d="M 49.515625 9.507812 C 49.972656 9.507812 50.34375 9.523438 50.695312 9.585938 C 51.042969 9.648438 51.378906 9.757812 51.78125 9.972656 L 51.789062 9.976562 C 52.191406 10.175781 52.476562 10.4375 52.828125 10.730469 C 53.171875 11.015625 53.59375 11.328125 54.191406 11.507812 L 54.324219 11.0625 L 54.179688 11.503906 C 54.910156 11.746094 55.636719 12.265625 56.164062 12.921875 C 56.695312 13.578125 57.023438 14.363281 57.019531 15.132812 C 57.019531 15.183594 57.019531 15.234375 57.015625 15.285156 C 57.003906 15.542969 57.199219 15.761719 57.453125 15.773438 C 57.710938 15.785156 57.929688 15.589844 57.941406 15.332031 C 57.945312 15.265625 57.949219 15.199219 57.949219 15.132812 C 57.945312 14.101562 57.519531 13.125 56.886719 12.335938 C 56.246094 11.546875 55.394531 10.929688 54.472656 10.621094 L 54.457031 10.617188 C 54.023438 10.484375 53.746094 10.28125 53.417969 10.011719 C 53.097656 9.746094 52.738281 9.410156 52.207031 9.144531 L 52 9.5625 L 52.214844 9.148438 C 51.738281 8.898438 51.296875 8.75 50.859375 8.671875 C 50.417969 8.589844 49.988281 8.578125 49.515625 8.578125 C 49.261719 8.578125 49.054688 8.785156 49.054688 9.042969 C 49.054688 9.300781 49.261719 9.507812 49.515625 9.507812 " fill-opacity="1" fill-rule="nonzero"/><path fill="#070808" d="M 59.875 16.519531 C 59.46875 16.769531 58.8125 16.941406 58.183594 16.9375 C 57.65625 16.941406 57.15625 16.820312 56.820312 16.605469 C 56.65625 16.5 56.527344 16.375 56.441406 16.226562 C 56.351562 16.074219 56.296875 15.898438 56.289062 15.660156 C 56.28125 15.402344 56.070312 15.199219 55.8125 15.207031 C 55.554688 15.214844 55.351562 15.425781 55.359375 15.683594 C 55.371094 16.0625 55.46875 16.410156 55.640625 16.699219 C 55.902344 17.136719 56.308594 17.429688 56.753906 17.609375 C 57.199219 17.792969 57.691406 17.867188 58.183594 17.867188 C 58.96875 17.867188 59.757812 17.679688 60.359375 17.3125 C 60.578125 17.175781 60.644531 16.890625 60.511719 16.671875 C 60.378906 16.453125 60.09375 16.382812 59.875 16.519531 " fill-opacity="1" fill-rule="nonzero"/><path fill="#070808" d="M 54.207031 21.503906 C 54.859375 21.5 55.554688 21.621094 56.238281 21.625 C 56.519531 21.625 56.804688 21.601562 57.082031 21.53125 C 57.496094 21.425781 57.90625 21.1875 58.199219 20.785156 C 58.492188 20.382812 58.675781 19.851562 58.765625 19.148438 C 58.800781 18.894531 58.621094 18.660156 58.367188 18.628906 C 58.109375 18.59375 57.878906 18.777344 57.847656 19.03125 C 57.792969 19.433594 57.710938 19.734375 57.609375 19.957031 C 57.457031 20.289062 57.292969 20.441406 57.082031 20.542969 C 56.871094 20.648438 56.589844 20.695312 56.238281 20.695312 C 55.671875 20.695312 54.960938 20.574219 54.207031 20.574219 C 53.949219 20.574219 53.742188 20.78125 53.742188 21.039062 C 53.742188 21.292969 53.949219 21.503906 54.207031 21.503906 " fill-opacity="1" fill-rule="nonzero"/><path fill="#070808" d="M 57.796875 19.394531 C 57.832031 19.390625 57.867188 19.386719 57.902344 19.386719 C 58.136719 19.386719 58.421875 19.488281 58.695312 19.648438 C 58.917969 19.777344 59.203125 19.699219 59.328125 19.476562 C 59.457031 19.253906 59.378906 18.96875 59.15625 18.839844 C 58.804688 18.640625 58.382812 18.460938 57.902344 18.457031 C 57.828125 18.457031 57.753906 18.464844 57.679688 18.472656 C 57.425781 18.503906 57.246094 18.738281 57.277344 18.992188 C 57.308594 19.246094 57.542969 19.425781 57.796875 19.394531 " fill-opacity="1" fill-rule="nonzero"/><path fill="#070808" d="M 52.707031 14.390625 C 53.0625 14.652344 53.320312 14.960938 53.492188 15.300781 C 53.667969 15.640625 53.757812 16.019531 53.757812 16.429688 C 53.757812 16.59375 53.742188 16.765625 53.710938 16.9375 L 53.710938 16.949219 C 53.652344 17.355469 53.449219 17.957031 53.15625 18.410156 C 53.011719 18.636719 52.84375 18.828125 52.675781 18.949219 C 52.507812 19.070312 52.355469 19.125 52.1875 19.125 C 52.128906 19.125 52.070312 19.117188 52.003906 19.101562 C 51.753906 19.042969 51.503906 19.195312 51.445312 19.445312 C 51.382812 19.695312 51.539062 19.949219 51.785156 20.007812 C 51.921875 20.039062 52.054688 20.054688 52.1875 20.054688 C 52.582031 20.058594 52.9375 19.910156 53.222656 19.699219 C 53.65625 19.378906 53.964844 18.921875 54.195312 18.453125 C 54.421875 17.984375 54.566406 17.5 54.628906 17.085938 L 54.171875 17.019531 L 54.628906 17.097656 C 54.667969 16.871094 54.6875 16.648438 54.6875 16.429688 C 54.6875 15.882812 54.5625 15.355469 54.320312 14.878906 C 54.078125 14.402344 53.71875 13.980469 53.253906 13.640625 C 53.050781 13.488281 52.757812 13.53125 52.605469 13.738281 C 52.457031 13.945312 52.5 14.238281 52.707031 14.390625 " fill-opacity="1" fill-rule="nonzero"/><path fill="#070808" d="M 49.6875 23.128906 C 50.554688 23.097656 51.394531 22.953125 52.125 22.535156 C 52.855469 22.121094 53.445312 21.425781 53.78125 20.429688 C 53.863281 20.1875 53.734375 19.921875 53.492188 19.839844 C 53.25 19.757812 52.988281 19.886719 52.902344 20.128906 C 52.621094 20.949219 52.199219 21.417969 51.664062 21.726562 C 51.128906 22.035156 50.441406 22.171875 49.65625 22.199219 C 49.402344 22.207031 49.199219 22.421875 49.207031 22.675781 C 49.214844 22.933594 49.429688 23.132812 49.6875 23.128906 " fill-opacity="1" fill-rule="nonzero"/><path fill="#070808" d="M 31.125 15.546875 C 31.183594 15.648438 31.257812 15.714844 31.328125 15.769531 C 31.453125 15.863281 31.578125 15.917969 31.703125 15.960938 C 31.894531 16.027344 32.09375 16.070312 32.277344 16.097656 C 32.464844 16.121094 32.628906 16.136719 32.761719 16.136719 C 33.019531 16.136719 33.226562 15.929688 33.226562 15.671875 C 33.226562 15.414062 33.019531 15.207031 32.761719 15.207031 C 32.65625 15.207031 32.398438 15.183594 32.1875 15.136719 C 32.082031 15.109375 31.988281 15.078125 31.933594 15.054688 L 31.886719 15.027344 L 31.847656 15.082031 L 31.894531 15.035156 L 31.886719 15.027344 L 31.847656 15.082031 L 31.894531 15.035156 L 31.75 15.171875 L 31.921875 15.070312 L 31.894531 15.035156 L 31.75 15.171875 L 31.921875 15.070312 C 31.789062 14.851562 31.503906 14.777344 31.285156 14.910156 C 31.0625 15.042969 30.992188 15.328125 31.125 15.546875 " fill-opacity="1" fill-rule="nonzero"/><path fill="#070808" d="M 53.710938 8.738281 C 53.714844 8.789062 53.71875 8.835938 53.71875 8.882812 C 53.71875 9.003906 53.699219 9.109375 53.664062 9.199219 C 53.625 9.285156 53.578125 9.355469 53.511719 9.410156 C 53.3125 9.574219 53.289062 9.867188 53.453125 10.066406 C 53.617188 10.261719 53.910156 10.289062 54.105469 10.125 C 54.296875 9.964844 54.4375 9.761719 54.523438 9.546875 C 54.609375 9.332031 54.648438 9.105469 54.648438 8.882812 C 54.648438 8.796875 54.640625 8.710938 54.628906 8.625 C 54.597656 8.367188 54.367188 8.1875 54.113281 8.21875 C 53.859375 8.25 53.675781 8.484375 53.710938 8.738281 " fill-opacity="1" fill-rule="nonzero"/><path fill="#070808" d="M 58.140625 14.785156 C 58.214844 14.796875 58.292969 14.800781 58.375 14.800781 C 58.589844 14.800781 58.828125 14.761719 59.050781 14.628906 C 59.160156 14.566406 59.265625 14.476562 59.347656 14.363281 C 59.433594 14.25 59.496094 14.117188 59.53125 13.972656 C 59.59375 13.722656 59.445312 13.472656 59.195312 13.410156 C 58.949219 13.34375 58.695312 13.496094 58.632812 13.746094 C 58.625 13.777344 58.613281 13.792969 58.609375 13.800781 C 58.597656 13.816406 58.582031 13.828125 58.542969 13.84375 C 58.503906 13.859375 58.441406 13.875 58.375 13.871094 C 58.339844 13.871094 58.304688 13.871094 58.269531 13.863281 C 58.015625 13.828125 57.78125 14.007812 57.742188 14.261719 C 57.707031 14.515625 57.886719 14.75 58.140625 14.785156 " fill-opacity="1" fill-rule="nonzero"/><path fill="#070808" d="M 55.011719 11.324219 C 54.851562 11.511719 54.636719 11.707031 54.4375 11.960938 C 54.242188 12.207031 54.054688 12.53125 54.019531 12.9375 C 53.996094 13.191406 54.183594 13.417969 54.4375 13.441406 C 54.695312 13.464844 54.917969 13.277344 54.941406 13.019531 C 54.957031 12.855469 55.027344 12.714844 55.167969 12.535156 C 55.304688 12.359375 55.507812 12.167969 55.707031 11.9375 C 55.878906 11.746094 55.859375 11.453125 55.664062 11.28125 C 55.472656 11.113281 55.179688 11.132812 55.011719 11.324219 " fill-opacity="1" fill-rule="nonzero"/><path fill="#070808" d="M 51.078125 9.125 C 50.988281 9.285156 50.851562 9.484375 50.730469 9.71875 C 50.605469 9.953125 50.488281 10.226562 50.449219 10.546875 C 50.421875 10.800781 50.605469 11.03125 50.863281 11.058594 C 51.117188 11.085938 51.34375 10.902344 51.375 10.648438 C 51.390625 10.503906 51.453125 10.335938 51.546875 10.15625 C 51.644531 9.972656 51.769531 9.785156 51.882812 9.582031 C 52.011719 9.359375 51.933594 9.078125 51.710938 8.949219 C 51.488281 8.824219 51.203125 8.902344 51.078125 9.125 " fill-opacity="1" fill-rule="nonzero"/><path fill="#070808" d="M 46.007812 11.15625 C 46.214844 11.332031 46.320312 11.585938 46.320312 11.875 C 46.320312 11.914062 46.320312 11.953125 46.3125 11.996094 C 46.285156 12.253906 46.472656 12.480469 46.726562 12.507812 C 46.980469 12.535156 47.210938 12.351562 47.238281 12.097656 C 47.246094 12.023438 47.25 11.949219 47.25 11.875 C 47.25 11.347656 47.042969 10.816406 46.613281 10.449219 C 46.417969 10.285156 46.125 10.304688 45.957031 10.5 C 45.792969 10.699219 45.8125 10.992188 46.007812 11.15625 " fill-opacity="1" fill-rule="nonzero"/><path fill="#070808" d="M 49.75 13.289062 C 49.550781 13.585938 49.445312 13.90625 49.378906 14.214844 C 49.3125 14.523438 49.285156 14.828125 49.261719 15.113281 C 49.238281 15.367188 49.425781 15.59375 49.679688 15.617188 C 49.9375 15.640625 50.160156 15.453125 50.1875 15.195312 C 50.210938 14.910156 50.238281 14.644531 50.285156 14.410156 C 50.335938 14.175781 50.410156 13.976562 50.523438 13.808594 C 50.664062 13.59375 50.605469 13.304688 50.394531 13.160156 C 50.179688 13.019531 49.890625 13.078125 49.75 13.289062 " fill-opacity="1" fill-rule="nonzero"/><path fill="#070808" d="M 48.238281 24.515625 C 48.199219 24.683594 48.175781 24.855469 48.175781 25.027344 C 48.175781 25.34375 48.25 25.664062 48.417969 25.949219 C 48.582031 26.230469 48.847656 26.472656 49.183594 26.613281 C 49.417969 26.710938 49.691406 26.601562 49.789062 26.363281 C 49.886719 26.125 49.777344 25.851562 49.539062 25.753906 C 49.386719 25.6875 49.289062 25.597656 49.214844 25.476562 C 49.144531 25.355469 49.105469 25.199219 49.105469 25.027344 C 49.105469 24.933594 49.117188 24.839844 49.140625 24.742188 C 49.203125 24.496094 49.050781 24.242188 48.800781 24.179688 C 48.554688 24.117188 48.300781 24.269531 48.238281 24.515625 " fill-opacity="1" fill-rule="nonzero"/><path fill="#070808" d="M 35.480469 25.09375 C 35.371094 25.398438 35.328125 25.726562 35.324219 26.058594 C 35.328125 26.523438 35.414062 26.984375 35.605469 27.375 C 35.71875 27.605469 36 27.699219 36.226562 27.585938 C 36.457031 27.46875 36.550781 27.191406 36.433594 26.960938 C 36.328125 26.75 36.253906 26.398438 36.253906 26.058594 C 36.253906 25.816406 36.292969 25.582031 36.355469 25.410156 C 36.441406 25.167969 36.316406 24.902344 36.074219 24.8125 C 35.835938 24.726562 35.570312 24.851562 35.480469 25.09375 " fill-opacity="1" fill-rule="nonzero"/><path fill="#070808" d="M 31.6875 25.390625 C 32.007812 25.308594 32.28125 25.261719 32.496094 25.265625 C 32.71875 25.265625 32.867188 25.304688 33.015625 25.398438 C 33.164062 25.496094 33.324219 25.667969 33.488281 25.984375 L 33.503906 26.007812 C 33.660156 26.269531 33.761719 26.621094 33.761719 26.945312 C 33.761719 27.15625 33.71875 27.351562 33.640625 27.507812 C 33.558594 27.667969 33.445312 27.796875 33.261719 27.898438 C 33.035156 28.023438 32.957031 28.308594 33.082031 28.53125 C 33.207031 28.757812 33.488281 28.835938 33.710938 28.714844 C 34.058594 28.523438 34.3125 28.242188 34.46875 27.929688 C 34.625 27.617188 34.691406 27.277344 34.691406 26.945312 C 34.6875 26.4375 34.542969 25.941406 34.296875 25.53125 L 33.902344 25.769531 L 34.3125 25.554688 C 34.097656 25.140625 33.839844 24.828125 33.519531 24.621094 C 33.203125 24.410156 32.84375 24.332031 32.496094 24.335938 C 32.152344 24.335938 31.816406 24.402344 31.460938 24.488281 C 31.210938 24.550781 31.0625 24.804688 31.121094 25.054688 C 31.183594 25.300781 31.4375 25.453125 31.6875 25.390625 " fill-opacity="1" fill-rule="nonzero"/><path fill="#070808" d="M 46.46875 16.707031 C 46.472656 17.25 46.574219 17.6875 46.570312 18.035156 C 46.570312 18.183594 46.558594 18.316406 46.515625 18.445312 C 46.476562 18.578125 46.414062 18.710938 46.300781 18.863281 C 46.148438 19.066406 46.1875 19.359375 46.394531 19.511719 C 46.597656 19.667969 46.890625 19.625 47.042969 19.421875 C 47.214844 19.1875 47.335938 18.949219 47.40625 18.714844 C 47.476562 18.476562 47.5 18.246094 47.5 18.035156 C 47.496094 17.53125 47.390625 17.109375 47.394531 16.707031 C 47.394531 16.449219 47.1875 16.242188 46.929688 16.242188 C 46.675781 16.242188 46.46875 16.449219 46.46875 16.707031 " fill-opacity="1" fill-rule="nonzero"/><path fill="#070808" d="M 51.710938 22.511719 C 52.050781 22.773438 52.289062 23.023438 52.449219 23.285156 C 52.605469 23.550781 52.699219 23.839844 52.722656 24.242188 C 52.738281 24.496094 52.957031 24.695312 53.214844 24.679688 C 53.46875 24.667969 53.664062 24.445312 53.652344 24.191406 C 53.625 23.660156 53.484375 23.199219 53.242188 22.804688 C 53 22.40625 52.671875 22.082031 52.285156 21.777344 C 52.085938 21.621094 51.792969 21.65625 51.632812 21.855469 C 51.476562 22.058594 51.511719 22.351562 51.710938 22.511719 " fill-opacity="1" fill-rule="nonzero"/><path fill="#070808" d="M 39.808594 25.882812 C 39.878906 26.144531 39.980469 26.34375 40.050781 26.511719 C 40.125 26.683594 40.164062 26.8125 40.164062 26.949219 L 40.160156 27.019531 C 40.136719 27.277344 40.324219 27.503906 40.578125 27.527344 C 40.835938 27.550781 41.0625 27.363281 41.085938 27.105469 C 41.089844 27.054688 41.09375 27 41.09375 26.949219 C 41.09375 26.625 40.996094 26.359375 40.910156 26.148438 C 40.816406 25.941406 40.738281 25.777344 40.710938 25.65625 C 40.648438 25.40625 40.394531 25.257812 40.148438 25.320312 C 39.898438 25.382812 39.746094 25.632812 39.808594 25.882812 " fill-opacity="1" fill-rule="nonzero"/><path fill="#070808" d="M 47.285156 27.433594 L 47.734375 27.324219 C 47.664062 27.023438 47.53125 26.761719 47.367188 26.539062 C 47.199219 26.320312 47.003906 26.140625 46.796875 25.988281 C 46.632812 25.867188 46.410156 25.867188 46.25 25.988281 C 45.816406 26.304688 45.464844 26.660156 45.113281 26.914062 C 44.757812 27.164062 44.390625 27.257812 43.984375 27.261719 C 43.535156 27.261719 43.035156 27.132812 42.542969 26.949219 C 42.332031 26.871094 42.085938 26.773438 41.820312 26.691406 C 41.554688 26.613281 41.265625 26.550781 40.953125 26.550781 C 40.648438 26.550781 40.3125 26.617188 40.011719 26.808594 C 39.707031 27 39.523438 27.246094 39.363281 27.425781 C 39.28125 27.515625 39.207031 27.59375 39.140625 27.648438 C 39.070312 27.710938 39.011719 27.746094 38.945312 27.773438 C 38.65625 27.886719 38.324219 27.9375 37.976562 27.9375 C 37.679688 27.9375 37.371094 27.902344 37.070312 27.84375 C 36.929688 27.8125 36.789062 27.851562 36.679688 27.945312 C 36.570312 28.039062 36.511719 28.175781 36.515625 28.316406 C 36.53125 28.652344 36.609375 28.992188 36.769531 29.304688 C 36.929688 29.617188 37.175781 29.902344 37.503906 30.121094 C 37.871094 30.371094 38.28125 30.511719 38.691406 30.59375 C 39.105469 30.679688 39.523438 30.699219 39.921875 30.699219 C 40.21875 30.699219 40.503906 30.6875 40.769531 30.675781 C 41.382812 30.644531 42.058594 30.644531 42.746094 30.621094 L 42.730469 30.15625 L 42.394531 30.472656 L 42.417969 30.519531 C 42.429688 30.546875 42.4375 30.597656 42.4375 30.6875 C 42.4375 30.78125 42.425781 30.914062 42.390625 31.082031 C 42.367188 31.207031 42.273438 31.460938 42.152344 31.695312 C 42.035156 31.933594 41.890625 32.167969 41.796875 32.289062 C 41.71875 32.394531 41.578125 32.5625 41.449219 32.757812 C 41.382812 32.855469 41.320312 32.960938 41.269531 33.074219 C 41.21875 33.1875 41.171875 33.316406 41.164062 33.476562 C 41.152344 33.679688 41.273438 33.863281 41.464844 33.933594 C 41.621094 33.996094 41.746094 34.042969 41.867188 34.082031 C 41.988281 34.117188 42.109375 34.152344 42.257812 34.152344 C 42.363281 34.152344 42.484375 34.128906 42.582031 34.085938 C 42.734375 34.023438 42.835938 33.9375 42.941406 33.847656 C 43.046875 33.753906 43.15625 33.648438 43.304688 33.515625 C 43.617188 33.230469 43.867188 32.90625 44.09375 32.59375 C 44.320312 32.28125 44.527344 31.976562 44.738281 31.71875 C 45.171875 31.199219 45.554688 30.703125 45.996094 30.25 L 45.996094 30.253906 C 46.054688 30.191406 46.160156 30.097656 46.269531 29.976562 L 45.921875 29.664062 L 46.101562 30.097656 C 46.550781 29.910156 46.960938 29.605469 47.269531 29.210938 C 47.578125 28.820312 47.789062 28.332031 47.789062 27.792969 C 47.789062 27.640625 47.773438 27.480469 47.734375 27.324219 L 47.285156 27.433594 L 46.832031 27.539062 C 46.851562 27.625 46.863281 27.710938 46.863281 27.792969 C 46.863281 28.082031 46.746094 28.375 46.539062 28.636719 C 46.335938 28.898438 46.046875 29.113281 45.746094 29.234375 C 45.683594 29.261719 45.628906 29.300781 45.578125 29.355469 C 45.507812 29.433594 45.421875 29.511719 45.339844 29.597656 L 45.335938 29.597656 C 44.84375 30.101562 44.441406 30.621094 44.023438 31.125 C 43.769531 31.429688 43.554688 31.75 43.339844 32.046875 C 43.125 32.34375 42.914062 32.613281 42.679688 32.828125 C 42.472656 33.015625 42.339844 33.144531 42.265625 33.199219 L 42.230469 33.226562 L 42.222656 33.230469 L 42.257812 33.304688 L 42.257812 33.222656 L 42.222656 33.230469 L 42.257812 33.304688 L 42.257812 33.222656 L 42.257812 33.238281 L 42.257812 33.222656 L 42.257812 33.238281 L 42.257812 33.222656 C 42.257812 33.222656 42.214844 33.21875 42.132812 33.191406 C 42.054688 33.164062 41.9375 33.121094 41.789062 33.0625 L 41.625 33.5 L 42.089844 33.523438 L 42.050781 33.519531 L 42.089844 33.527344 L 42.089844 33.523438 L 42.050781 33.519531 L 42.089844 33.527344 C 42.089844 33.523438 42.101562 33.480469 42.128906 33.429688 C 42.167969 33.347656 42.238281 33.242188 42.3125 33.140625 C 42.386719 33.042969 42.464844 32.941406 42.53125 32.859375 L 42.53125 32.863281 C 42.6875 32.660156 42.84375 32.390625 42.984375 32.109375 C 43.125 31.824219 43.242188 31.539062 43.300781 31.269531 C 43.34375 31.054688 43.367188 30.863281 43.367188 30.6875 C 43.367188 30.519531 43.347656 30.363281 43.296875 30.21875 C 43.246094 30.074219 43.167969 29.941406 43.070312 29.839844 C 42.976562 29.742188 42.851562 29.6875 42.71875 29.691406 C 42.046875 29.714844 41.367188 29.714844 40.722656 29.746094 C 40.460938 29.757812 40.191406 29.769531 39.921875 29.769531 C 39.558594 29.769531 39.199219 29.75 38.875 29.683594 C 38.550781 29.621094 38.261719 29.511719 38.023438 29.351562 C 37.820312 29.210938 37.6875 29.054688 37.59375 28.875 C 37.503906 28.699219 37.453125 28.5 37.445312 28.28125 L 36.980469 28.296875 L 36.890625 28.753906 C 37.238281 28.824219 37.605469 28.867188 37.976562 28.867188 C 38.414062 28.867188 38.859375 28.804688 39.285156 28.640625 C 39.464844 28.566406 39.617188 28.464844 39.742188 28.359375 C 39.929688 28.199219 40.0625 28.03125 40.183594 27.898438 C 40.304688 27.761719 40.40625 27.65625 40.503906 27.597656 C 40.636719 27.515625 40.777344 27.480469 40.953125 27.480469 C 41.128906 27.480469 41.335938 27.519531 41.554688 27.585938 C 41.773438 27.648438 41.996094 27.738281 42.21875 27.820312 C 42.769531 28.023438 43.363281 28.1875 43.984375 28.191406 C 44.542969 28.191406 45.128906 28.042969 45.652344 27.667969 C 46.089844 27.351562 46.445312 26.992188 46.792969 26.738281 L 46.523438 26.363281 L 46.246094 26.738281 C 46.398438 26.851562 46.527344 26.96875 46.625 27.097656 C 46.722656 27.230469 46.789062 27.367188 46.832031 27.539062 L 47.285156 27.433594 " fill-opacity="1" fill-rule="nonzero"/><path fill="#070808" d="M 42.132812 28.972656 C 42.636719 29.511719 43.152344 29.855469 43.636719 30.0625 C 44.121094 30.269531 44.570312 30.335938 44.941406 30.335938 C 45.574219 30.335938 45.976562 30.144531 46.019531 30.128906 L 45.820312 29.707031 L 45.972656 30.144531 C 46.453125 29.976562 46.894531 29.667969 47.226562 29.265625 C 47.558594 28.867188 47.789062 28.355469 47.789062 27.796875 C 47.789062 27.640625 47.773438 27.480469 47.734375 27.324219 C 47.664062 27.023438 47.53125 26.761719 47.367188 26.539062 C 47.199219 26.320312 47.003906 26.140625 46.796875 25.988281 C 46.632812 25.867188 46.410156 25.867188 46.25 25.988281 C 45.816406 26.304688 45.464844 26.660156 45.113281 26.914062 C 44.757812 27.164062 44.390625 27.257812 43.984375 27.261719 C 43.535156 27.261719 43.035156 27.132812 42.542969 26.949219 C 42.332031 26.871094 42.085938 26.773438 41.820312 26.691406 C 41.554688 26.613281 41.265625 26.550781 40.953125 26.550781 C 40.648438 26.550781 40.3125 26.617188 40.011719 26.808594 C 39.707031 27 39.523438 27.246094 39.363281 27.425781 C 39.28125 27.515625 39.207031 27.59375 39.140625 27.648438 C 39.070312 27.710938 39.011719 27.746094 38.945312 27.773438 C 38.65625 27.886719 38.324219 27.9375 37.976562 27.9375 C 37.679688 27.9375 37.371094 27.902344 37.070312 27.84375 C 36.929688 27.8125 36.789062 27.851562 36.679688 27.945312 C 36.570312 28.039062 36.511719 28.175781 36.515625 28.316406 C 36.53125 28.652344 36.609375 28.992188 36.769531 29.304688 C 36.929688 29.617188 37.175781 29.902344 37.503906 30.121094 C 37.871094 30.371094 38.28125 30.511719 38.691406 30.59375 C 39.105469 30.679688 39.523438 30.699219 39.921875 30.699219 C 40.21875 30.699219 40.503906 30.6875 40.769531 30.675781 C 41.382812 30.644531 42.058594 30.644531 42.75 30.621094 C 43.003906 30.613281 43.207031 30.398438 43.195312 30.140625 C 43.1875 29.886719 42.972656 29.683594 42.71875 29.691406 C 42.046875 29.714844 41.371094 29.714844 40.722656 29.746094 C 40.460938 29.757812 40.191406 29.769531 39.921875 29.769531 C 39.558594 29.769531 39.199219 29.75 38.875 29.683594 C 38.550781 29.621094 38.261719 29.511719 38.023438 29.351562 C 37.820312 29.210938 37.6875 29.054688 37.59375 28.875 C 37.503906 28.699219 37.453125 28.5 37.445312 28.28125 L 36.980469 28.296875 L 36.890625 28.753906 C 37.238281 28.824219 37.605469 28.867188 37.976562 28.867188 C 38.414062 28.867188 38.859375 28.804688 39.285156 28.640625 C 39.464844 28.566406 39.617188 28.464844 39.742188 28.359375 C 39.929688 28.199219 40.0625 28.03125 40.183594 27.898438 C 40.304688 27.761719 40.40625 27.65625 40.503906 27.597656 C 40.636719 27.515625 40.777344 27.480469 40.953125 27.480469 C 41.128906 27.480469 41.335938 27.519531 41.554688 27.585938 C 41.773438 27.648438 41.996094 27.738281 42.21875 27.820312 C 42.769531 28.023438 43.363281 28.1875 43.984375 28.191406 C 44.542969 28.191406 45.128906 28.042969 45.652344 27.667969 C 46.089844 27.351562 46.445312 26.992188 46.792969 26.738281 L 46.523438 26.363281 L 46.246094 26.738281 C 46.398438 26.851562 46.527344 26.96875 46.625 27.097656 C 46.722656 27.230469 46.789062 27.367188 46.832031 27.539062 C 46.851562 27.625 46.863281 27.710938 46.863281 27.796875 C 46.863281 28.09375 46.734375 28.402344 46.511719 28.675781 C 46.292969 28.941406 45.976562 29.160156 45.664062 29.269531 L 45.617188 29.289062 L 45.722656 29.503906 L 45.625 29.285156 L 45.617188 29.289062 L 45.722656 29.503906 L 45.625 29.285156 C 45.625 29.285156 45.609375 29.292969 45.578125 29.304688 C 45.480469 29.339844 45.253906 29.40625 44.941406 29.40625 C 44.679688 29.40625 44.359375 29.359375 44 29.207031 C 43.640625 29.050781 43.234375 28.789062 42.804688 28.335938 C 42.628906 28.148438 42.335938 28.140625 42.148438 28.316406 C 41.960938 28.496094 41.957031 28.789062 42.132812 28.976562 " fill-opacity="1" fill-rule="nonzero"/><path fill="#070808" d="M 57.742188 46.34375 L 51.359375 46.34375 C 51.109375 46.347656 49.585938 46.308594 48.195312 45.6875 C 47.5 45.378906 46.839844 44.933594 46.355469 44.289062 C 45.875 43.644531 45.550781 42.804688 45.550781 41.625 C 45.546875 41.402344 45.558594 41.171875 45.585938 40.925781 C 45.613281 40.671875 45.425781 40.441406 45.171875 40.417969 C 44.917969 40.390625 44.6875 40.574219 44.664062 40.832031 C 44.632812 41.105469 44.621094 41.371094 44.621094 41.625 C 44.617188 42.976562 45.007812 44.046875 45.613281 44.847656 C 46.066406 45.453125 46.632812 45.902344 47.222656 46.238281 C 48.109375 46.742188 49.054688 46.996094 49.820312 47.128906 C 50.585938 47.261719 51.179688 47.273438 51.359375 47.273438 C 51.390625 47.273438 51.410156 47.273438 51.410156 47.273438 L 51.402344 46.808594 L 51.402344 47.273438 L 57.742188 47.273438 C 58 47.273438 58.207031 47.066406 58.207031 46.808594 C 58.207031 46.550781 58 46.34375 57.742188 46.34375 " fill-opacity="1" fill-rule="nonzero"/></g></g></g></g><g fill="#000000" fill-opacity="1"><g transform="translate(74.031571, 37.448553)"><g><path d="M 18.125 0 L 23.652344 0 L 13.675781 -21.261719 L 9.257812 -21.261719 L -0.6875 0 L 4.925781 0 L 6.808594 -4.390625 L 16.246094 -4.390625 Z M 8.628906 -8.601562 L 11.527344 -15.320312 L 14.421875 -8.601562 Z M 8.628906 -8.601562 "/></g></g></g><g fill="#000000" fill-opacity="1"><g transform="translate(96.993257, 37.448553)"><g><path d="M 6.6875 0 L 12.363281 0 L 12.363281 -16.722656 L 18.695312 -16.722656 L 18.695312 -21.261719 L 0.359375 -21.261719 L 0.359375 -16.722656 L 6.6875 -16.722656 Z M 6.6875 0 "/></g></g></g><g fill="#000000" fill-opacity="1"><g transform="translate(116.04339, 37.448553)"><g><path d="M 12.242188 0.269531 C 15.019531 0.269531 17.859375 -0.628906 19.441406 -2.058594 L 17.738281 -6.03125 C 16.007812 -4.777344 14.214844 -4.152344 12.363281 -4.152344 C 8.929688 -4.152344 7.046875 -6.359375 7.046875 -10.660156 C 7.046875 -14.929688 8.929688 -17.109375 12.363281 -17.109375 C 14.214844 -17.109375 16.007812 -16.484375 17.738281 -15.230469 L 19.441406 -19.203125 C 17.859375 -20.636719 15.019531 -21.53125 12.242188 -21.53125 C 7.824219 -21.53125 4.449219 -19.648438 2.6875 -16.363281 C 1.792969 -14.722656 1.34375 -12.8125 1.34375 -10.660156 C 1.34375 -6.332031 3.195312 -2.898438 6.480469 -1.105469 C 8.121094 -0.179688 10.035156 0.269531 12.242188 0.269531 Z M 12.242188 0.269531 "/></g></g></g><g fill="#000000" fill-opacity="1"><g transform="translate(136.496906, 37.448553)"><g/></g></g><g fill="#19baaa" fill-opacity="1"><g transform="translate(145.151377, 37.448553)"><g><path d="M 9.617188 0.269531 C 15.46875 0.269531 18.84375 -2.238281 18.84375 -6.390625 C 18.84375 -8.570312 18.035156 -10.09375 15.828125 -11.289062 C 14.722656 -11.855469 13.199219 -12.363281 11.257812 -12.78125 C 9.40625 -13.199219 7.824219 -13.675781 7.347656 -14.214844 C 7.136719 -14.453125 7.019531 -14.753906 7.019531 -15.109375 C 7.019531 -16.425781 8.363281 -17.261719 10.390625 -17.261719 C 12.453125 -17.261719 14.574219 -16.542969 16.453125 -15.230469 L 18.1875 -19.203125 C 16.542969 -20.605469 13.410156 -21.53125 10.332031 -21.53125 C 6.898438 -21.53125 4.121094 -20.304688 2.65625 -18.214844 C 1.910156 -17.171875 1.554688 -15.976562 1.554688 -14.691406 C 1.554688 -12.421875 2.328125 -10.898438 4.570312 -9.734375 C 5.675781 -9.136719 7.257812 -8.628906 9.257812 -8.242188 C 10.839844 -7.914062 11.945312 -7.554688 12.511719 -7.226562 C 13.078125 -6.867188 13.378906 -6.421875 13.378906 -5.882812 C 13.378906 -4.6875 12.0625 -4 9.675781 -4 C 7.316406 -4 4.925781 -4.71875 2.867188 -6.03125 L 1.105469 -2.058594 C 3.046875 -0.628906 6.421875 0.269531 9.617188 0.269531 Z M 9.617188 0.269531 "/></g></g></g><g fill="#19baaa" fill-opacity="1"><g transform="translate(165.216724, 37.448553)"><g><path d="M 12.242188 0.269531 C 15.019531 0.269531 17.859375 -0.628906 19.441406 -2.058594 L 17.738281 -6.03125 C 16.007812 -4.777344 14.214844 -4.152344 12.363281 -4.152344 C 8.929688 -4.152344 7.046875 -6.359375 7.046875 -10.660156 C 7.046875 -14.929688 8.929688 -17.109375 12.363281 -17.109375 C 14.214844 -17.109375 16.007812 -16.484375 17.738281 -15.230469 L 19.441406 -19.203125 C 17.859375 -20.636719 15.019531 -21.53125 12.242188 -21.53125 C 7.824219 -21.53125 4.449219 -19.648438 2.6875 -16.363281 C 1.792969 -14.722656 1.34375 -12.8125 1.34375 -10.660156 C 1.34375 -6.332031 3.195312 -2.898438 6.480469 -1.105469 C 8.121094 -0.179688 10.035156 0.269531 12.242188 0.269531 Z M 12.242188 0.269531 "/></g></g></g></svg>