<svg xmlns="http://www.w3.org/2000/svg" xmlns:xlink="http://www.w3.org/1999/xlink" width="250" zoomAndPan="magnify" viewBox="0 0 187.5 53.25" height="71" preserveAspectRatio="xMidYMid meet" version="1.0"><defs><filter x="0%" y="0%" width="100%" height="100%" id="id1"><feColorMatrix values="0 0 0 0 1 0 0 0 0 1 0 0 0 0 1 0 0 0 1 0" color-interpolation-filters="sRGB"/></filter><g/><clipPath id="id2"><path d="M 1.054688 0 L 185.953125 0 L 185.953125 52.511719 L 1.054688 52.511719 Z M 1.054688 0 " clip-rule="nonzero"/></clipPath><clipPath id="id3"><path d="M 1.054688 0 L 119 0 L 119 52.511719 L 1.054688 52.511719 Z M 1.054688 0 " clip-rule="nonzero"/></clipPath><mask id="id4"><g filter="url(#id1)"><rect x="-18.75" width="225" fill="#000000" y="-5.325" height="63.899999" fill-opacity="0.3098"/></g></mask><clipPath id="id5"><path d="M 0.292969 0 L 108 0 L 108 52.511719 L 0.292969 52.511719 Z M 0.292969 0 " clip-rule="nonzero"/></clipPath><clipPath id="id6"><path d="M 20 0 L 89 0 L 89 52.511719 L 20 52.511719 Z M 20 0 " clip-rule="nonzero"/></clipPath><clipPath id="id7"><path d="M 83 0 L 90 0 L 90 9 L 83 9 Z M 83 0 " clip-rule="nonzero"/></clipPath><clipPath id="id8"><path d="M 76 50 L 86 50 L 86 52.511719 L 76 52.511719 Z M 76 50 " clip-rule="nonzero"/></clipPath><clipPath id="id9"><path d="M 23 51 L 31 51 L 31 52.511719 L 23 52.511719 Z M 23 51 " clip-rule="nonzero"/></clipPath><clipPath id="id10"><path d="M 21 0 L 31 0 L 31 5 L 21 5 Z M 21 0 " clip-rule="nonzero"/></clipPath><clipPath id="id11"><path d="M 30 0 L 78 0 L 78 52.511719 L 30 52.511719 Z M 30 0 " clip-rule="nonzero"/></clipPath><clipPath id="id12"><rect x="0" width="118" y="0" height="53"/></clipPath></defs><g clip-path="url(#id2)"><path fill="#ffffff" d="M 1.054688 0 L 186.445312 0 L 186.445312 60.066406 L 1.054688 60.066406 Z M 1.054688 0 " fill-opacity="1" fill-rule="nonzero"/><path fill="#ffffff" d="M 1.054688 0 L 186.445312 0 L 186.445312 52.652344 L 1.054688 52.652344 Z M 1.054688 0 " fill-opacity="1" fill-rule="nonzero"/><path fill="#fafafa" d="M 1.054688 0 L 186.445312 0 L 186.445312 52.652344 L 1.054688 52.652344 Z M 1.054688 0 " fill-opacity="1" fill-rule="nonzero"/></g><g clip-path="url(#id3)"><g mask="url(#id4)"><g transform="matrix(1, 0, 0, 1, 1, -0.00000000000000563)"><g clip-path="url(#id12)"><g clip-path="url(#id5)"><path fill="#19baaa" d="M 54.160156 80.253906 C 24.507812 80.253906 0.472656 56.179688 0.472656 26.488281 C 0.472656 -3.207031 24.507812 -27.28125 54.160156 -27.28125 C 83.808594 -27.28125 107.847656 -3.207031 107.847656 26.488281 C 107.847656 56.179688 83.808594 80.253906 54.160156 80.253906 " fill-opacity="1" fill-rule="nonzero"/></g><g clip-path="url(#id6)"><path fill="#fafafa" d="M 88.121094 26.488281 C 88.121094 45.269531 72.914062 60.5 54.160156 60.5 C 35.402344 60.5 20.199219 45.269531 20.199219 26.488281 C 20.199219 7.703125 35.402344 -7.523438 54.160156 -7.523438 C 72.914062 -7.523438 88.121094 7.703125 88.121094 26.488281 " fill-opacity="1" fill-rule="nonzero"/></g><g clip-path="url(#id7)"><path fill="#070808" d="M 89.570312 8.160156 C 88.050781 5.210938 86.15625 2.453125 83.957031 -0.03125 L 83.03125 0.792969 C 85.164062 3.199219 86.996094 5.871094 88.46875 8.730469 L 89.570312 8.160156 " fill-opacity="1" fill-rule="nonzero"/></g><path fill="#070808" d="M 91.980469 13.90625 C 91.796875 13.347656 91.597656 12.789062 91.386719 12.238281 L 90.230469 12.679688 C 90.433594 13.214844 90.625 13.753906 90.804688 14.296875 L 91.980469 13.90625 " fill-opacity="1" fill-rule="nonzero"/><path fill="#070808" d="M 93.996094 28.359375 C 94.019531 27.785156 94.03125 27.207031 94.03125 26.628906 C 94.03125 22.746094 93.46875 18.863281 92.367188 15.140625 L 91.179688 15.492188 C 92.246094 19.101562 92.792969 22.867188 92.792969 26.628906 C 92.792969 27.191406 92.78125 27.75 92.757812 28.308594 L 93.996094 28.359375 " fill-opacity="1" fill-rule="nonzero"/><path fill="#070808" d="M 90.609375 42.71875 C 92.039062 39.5 93.046875 36.09375 93.582031 32.609375 L 92.355469 32.421875 C 91.84375 35.792969 90.863281 39.097656 89.480469 42.214844 L 90.609375 42.71875 " fill-opacity="1" fill-rule="nonzero"/><path fill="#070808" d="M 89.441406 45.132812 C 89.589844 44.851562 89.734375 44.570312 89.871094 44.289062 L 88.765625 43.734375 C 88.628906 44.011719 88.488281 44.28125 88.347656 44.550781 L 89.441406 45.132812 " fill-opacity="1" fill-rule="nonzero"/><path fill="#070808" d="M 86.167969 50.355469 C 86.457031 49.964844 86.738281 49.570312 87.011719 49.171875 L 85.992188 48.46875 C 85.726562 48.855469 85.453125 49.238281 85.175781 49.613281 L 86.167969 50.355469 " fill-opacity="1" fill-rule="nonzero"/><g clip-path="url(#id8)"><path fill="#070808" d="M 77.472656 58.894531 C 80.3125 56.859375 82.890625 54.445312 85.097656 51.730469 L 84.136719 50.949219 C 82 53.574219 79.503906 55.914062 76.75 57.886719 L 77.472656 58.894531 " fill-opacity="1" fill-rule="nonzero"/></g><g clip-path="url(#id9)"><path fill="#070808" d="M 23.828125 52.445312 C 25.703125 54.644531 27.8125 56.632812 30.117188 58.371094 L 30.863281 57.378906 C 28.632812 55.695312 26.582031 53.769531 24.769531 51.640625 L 23.828125 52.445312 " fill-opacity="1" fill-rule="nonzero"/></g><path fill="#070808" d="M 19.246094 45.828125 C 19.792969 46.820312 20.382812 47.785156 21.011719 48.726562 L 22.039062 48.035156 C 21.429688 47.125 20.859375 46.191406 20.332031 45.230469 L 19.246094 45.828125 " fill-opacity="1" fill-rule="nonzero"/><path fill="#070808" d="M 17.933594 43.238281 C 18.136719 43.675781 18.347656 44.113281 18.566406 44.546875 L 19.671875 43.984375 C 19.457031 43.566406 19.253906 43.140625 19.058594 42.714844 L 17.933594 43.238281 " fill-opacity="1" fill-rule="nonzero"/><path fill="#070808" d="M 16.023438 38.253906 C 16.105469 38.519531 16.191406 38.78125 16.277344 39.042969 L 17.453125 38.652344 C 17.367188 38.398438 17.285156 38.140625 17.207031 37.890625 L 16.023438 38.253906 " fill-opacity="1" fill-rule="nonzero"/><path fill="#070808" d="M 14.484375 30.789062 C 14.6875 32.714844 15.039062 34.625 15.523438 36.5 L 16.722656 36.1875 C 16.25 34.371094 15.914062 32.523438 15.71875 30.660156 L 14.484375 30.789062 " fill-opacity="1" fill-rule="nonzero"/><path fill="#070808" d="M 14.566406 21.785156 C 14.378906 23.363281 14.289062 24.949219 14.289062 26.539062 L 14.289062 26.574219 L 15.527344 26.535156 L 15.179688 26.546875 L 15.527344 26.546875 L 15.527344 26.535156 L 15.179688 26.546875 L 15.527344 26.546875 L 15.527344 26.539062 C 15.527344 25 15.613281 23.460938 15.792969 21.929688 L 14.566406 21.785156 " fill-opacity="1" fill-rule="nonzero"/><path fill="#070808" d="M 15.003906 18.917969 C 14.921875 19.363281 14.84375 19.8125 14.773438 20.265625 L 15.996094 20.453125 C 16.0625 20.019531 16.136719 19.582031 16.222656 19.148438 L 15.003906 18.917969 " fill-opacity="1" fill-rule="nonzero"/><path fill="#070808" d="M 17.859375 9.9375 C 17.167969 11.441406 16.578125 12.992188 16.089844 14.570312 L 17.269531 14.941406 C 17.746094 13.410156 18.320312 11.910156 18.984375 10.457031 L 17.859375 9.9375 " fill-opacity="1" fill-rule="nonzero"/><path fill="#070808" d="M 20.566406 4.988281 C 20.382812 5.273438 20.203125 5.5625 20.027344 5.847656 L 21.085938 6.496094 C 21.257812 6.214844 21.429688 5.9375 21.609375 5.660156 L 20.566406 4.988281 " fill-opacity="1" fill-rule="nonzero"/><g clip-path="url(#id10)"><path fill="#070808" d="M 29.972656 -5.265625 C 26.765625 -2.808594 23.9375 0.132812 21.601562 3.421875 L 22.609375 4.140625 C 24.875 0.949219 27.621094 -1.902344 30.722656 -4.28125 L 29.972656 -5.265625 " fill-opacity="1" fill-rule="nonzero"/></g><path fill="#070808" d="M 94.519531 51.214844 L 95.753906 51.214844 L 95.753906 48.101562 L 94.519531 48.101562 Z M 94.519531 51.214844 " fill-opacity="1" fill-rule="nonzero"/><path fill="#070808" d="M 93.582031 50.277344 L 96.691406 50.277344 L 96.691406 49.039062 L 93.582031 49.039062 Z M 93.582031 50.277344 " fill-opacity="1" fill-rule="nonzero"/><path fill="#070808" d="M 114.777344 8.644531 L 116.015625 8.644531 L 116.015625 5.53125 L 114.777344 5.53125 Z M 114.777344 8.644531 " fill-opacity="1" fill-rule="nonzero"/><path fill="#070808" d="M 113.839844 7.707031 L 116.953125 7.707031 L 116.953125 6.46875 L 113.839844 6.46875 Z M 113.839844 7.707031 " fill-opacity="1" fill-rule="nonzero"/><path fill="#070808" d="M 7.8125 41.105469 L 9.050781 41.105469 L 9.050781 37.992188 L 7.8125 37.992188 Z M 7.8125 41.105469 " fill-opacity="1" fill-rule="nonzero"/><path fill="#070808" d="M 6.875 40.167969 L 9.988281 40.167969 L 9.988281 38.929688 L 6.875 38.929688 Z M 6.875 40.167969 " fill-opacity="1" fill-rule="nonzero"/><path fill="#070808" d="M 95.734375 2.554688 L 100.71875 2.554688 L 100.71875 1.3125 L 95.734375 1.3125 Z M 95.734375 2.554688 " fill-opacity="1" fill-rule="nonzero"/><path fill="#070808" d="M 96.671875 35.632812 L 101.65625 35.632812 L 101.65625 34.390625 L 96.671875 34.390625 Z M 96.671875 35.632812 " fill-opacity="1" fill-rule="nonzero"/><path fill="#070808" d="M 110.414062 48.996094 L 115.398438 48.996094 L 115.398438 47.753906 L 110.414062 47.753906 Z M 110.414062 48.996094 " fill-opacity="1" fill-rule="nonzero"/><path fill="#070808" d="M 108.855469 21.75 L 108.238281 21.75 C 108.238281 22.050781 108.117188 22.316406 107.921875 22.515625 C 107.722656 22.710938 107.457031 22.832031 107.15625 22.832031 C 106.859375 22.832031 106.59375 22.710938 106.394531 22.515625 C 106.199219 22.316406 106.078125 22.050781 106.078125 21.75 C 106.078125 21.449219 106.199219 21.183594 106.394531 20.988281 C 106.59375 20.789062 106.859375 20.667969 107.15625 20.667969 C 107.457031 20.667969 107.722656 20.789062 107.921875 20.988281 C 108.117188 21.183594 108.238281 21.449219 108.238281 21.75 L 109.476562 21.75 C 109.476562 20.46875 108.4375 19.429688 107.15625 19.429688 C 105.878906 19.429688 104.839844 20.46875 104.839844 21.75 C 104.839844 23.035156 105.878906 24.070312 107.15625 24.070312 C 108.4375 24.070312 109.476562 23.035156 109.476562 21.75 L 108.855469 21.75 " fill-opacity="1" fill-rule="nonzero"/><g clip-path="url(#id11)"><path fill="#070808" d="M 38.316406 56.527344 C 40.007812 52.511719 40.554688 49.125 40.550781 46.441406 C 40.550781 41.800781 38.929688 39.28125 38.894531 39.230469 C 38.871094 39.195312 38.839844 39.160156 38.804688 39.128906 C 35.703125 36.472656 33.863281 33.296875 32.796875 30.167969 C 31.726562 27.039062 31.429688 23.964844 31.429688 21.539062 C 31.429688 20.082031 31.535156 18.859375 31.644531 18.003906 C 31.695312 17.578125 31.746094 17.242188 31.785156 17.015625 C 31.808594 16.902344 31.824219 16.816406 31.832031 16.757812 C 31.839844 16.730469 31.84375 16.707031 31.847656 16.695312 L 31.851562 16.675781 L 31.855469 16.648438 C 32.4375 13.039062 33.734375 10.316406 35.386719 8.238281 C 37.867188 5.128906 41.179688 3.46875 44.136719 2.585938 C 47.089844 1.703125 49.679688 1.601562 50.664062 1.601562 C 50.800781 1.601562 50.90625 1.605469 50.980469 1.605469 C 51.015625 1.609375 51.042969 1.609375 51.058594 1.609375 L 51.167969 1.609375 C 51.242188 1.601562 51.609375 1.566406 52.199219 1.570312 C 53.894531 1.566406 57.402344 1.839844 60.9375 3.742188 C 62.707031 4.691406 64.484375 6.046875 66.0625 7.984375 C 67.640625 9.921875 69.019531 12.441406 69.976562 15.738281 L 70.421875 15.609375 L 69.964844 15.695312 L 71.148438 21.949219 L 71.167969 22.007812 C 71.191406 22.082031 71.347656 22.503906 72.128906 23.515625 C 72.910156 24.527344 74.320312 26.125 76.871094 28.539062 L 77.191406 28.203125 L 76.8125 28.46875 L 77.046875 28.304688 L 76.808594 28.464844 L 76.8125 28.46875 L 77.046875 28.304688 L 76.808594 28.464844 C 76.8125 28.46875 76.835938 28.507812 76.855469 28.558594 C 76.875 28.609375 76.890625 28.671875 76.890625 28.714844 C 76.886719 28.75 76.882812 28.773438 76.867188 28.804688 L 77.265625 29.042969 L 77.054688 28.625 L 72.800781 30.773438 C 72.734375 30.808594 72.675781 30.859375 72.632812 30.921875 C 72.617188 30.945312 72.550781 31.042969 72.484375 31.203125 C 72.421875 31.363281 72.359375 31.59375 72.359375 31.871094 C 72.359375 32.125 72.414062 32.421875 72.5625 32.726562 C 72.707031 33.03125 72.945312 33.34375 73.289062 33.644531 L 73.292969 33.648438 L 74.210938 34.433594 L 74.511719 34.082031 L 74.148438 34.375 C 74.171875 34.40625 74.175781 34.410156 74.175781 34.453125 C 74.179688 34.511719 74.132812 34.664062 74.023438 34.835938 C 73.859375 35.097656 73.578125 35.390625 73.339844 35.605469 C 73.222656 35.710938 73.117188 35.800781 73.039062 35.863281 C 73 35.894531 72.96875 35.917969 72.949219 35.933594 L 72.925781 35.949219 L 72.921875 35.953125 C 72.808594 36.039062 72.738281 36.167969 72.734375 36.308594 C 72.726562 36.445312 72.78125 36.582031 72.886719 36.675781 L 74.0625 37.734375 L 74.371094 37.386719 L 73.972656 37.625 L 74.085938 37.558594 L 73.960938 37.605469 L 73.972656 37.625 L 74.085938 37.558594 L 73.960938 37.605469 L 73.988281 37.59375 L 73.960938 37.59375 L 73.960938 37.605469 L 73.988281 37.59375 L 73.960938 37.59375 L 74.050781 37.59375 L 73.972656 37.550781 L 73.960938 37.59375 L 74.050781 37.59375 L 73.972656 37.550781 L 73.960938 37.570312 L 72.960938 39.488281 C 72.910156 39.585938 72.894531 39.695312 72.917969 39.804688 C 72.917969 39.804688 72.925781 39.839844 72.941406 39.914062 C 72.996094 40.171875 73.132812 40.84375 73.253906 41.632812 C 73.378906 42.421875 73.484375 43.332031 73.484375 44.039062 C 73.484375 44.257812 73.472656 44.453125 73.453125 44.617188 L 73.914062 44.675781 L 73.472656 44.527344 L 73.503906 44.539062 L 73.472656 44.527344 L 73.503906 44.539062 L 73.472656 44.527344 C 73.46875 44.550781 73.328125 44.933594 73.050781 45.3125 C 72.914062 45.5 72.738281 45.6875 72.539062 45.832031 C 72.339844 45.980469 72.113281 46.089844 71.84375 46.132812 L 71.921875 46.59375 L 71.941406 46.128906 L 62.753906 45.703125 C 62.707031 45.699219 62.65625 45.707031 62.609375 45.71875 C 62.570312 45.730469 61.855469 45.925781 61.105469 46.539062 C 60.730469 46.847656 60.347656 47.265625 60.050781 47.816406 C 59.753906 48.363281 59.550781 49.046875 59.515625 49.863281 L 59.515625 49.867188 L 59.242188 60.011719 C 59.234375 60.269531 59.4375 60.480469 59.695312 60.488281 C 59.949219 60.496094 60.164062 60.292969 60.171875 60.039062 L 60.445312 49.894531 L 59.980469 49.878906 L 60.445312 49.898438 C 60.472656 49.21875 60.636719 48.683594 60.867188 48.257812 C 61.214844 47.617188 61.714844 47.203125 62.132812 46.949219 C 62.339844 46.824219 62.527344 46.738281 62.660156 46.683594 C 62.726562 46.65625 62.777344 46.640625 62.8125 46.628906 L 62.847656 46.617188 L 62.855469 46.613281 L 62.824219 46.507812 L 62.851562 46.613281 L 62.855469 46.613281 L 62.824219 46.507812 L 62.851562 46.613281 L 62.730469 46.167969 L 62.710938 46.628906 L 71.898438 47.054688 C 71.933594 47.058594 71.964844 47.054688 71.996094 47.050781 C 72.4375 46.976562 72.8125 46.792969 73.117188 46.5625 C 73.570312 46.222656 73.871094 45.792969 74.066406 45.449219 C 74.261719 45.101562 74.347656 44.84375 74.355469 44.824219 C 74.363281 44.792969 74.371094 44.765625 74.375 44.734375 C 74.402344 44.515625 74.414062 44.285156 74.414062 44.039062 C 74.414062 43.132812 74.261719 42.035156 74.117188 41.152344 C 73.972656 40.269531 73.828125 39.609375 73.824219 39.605469 L 73.371094 39.703125 L 73.785156 39.917969 L 74.785156 38.003906 L 74.371094 37.785156 L 74.769531 38.023438 C 74.859375 37.878906 74.890625 37.722656 74.890625 37.59375 C 74.886719 37.335938 74.792969 37.1875 74.769531 37.148438 C 74.746094 37.105469 74.71875 37.074219 74.683594 37.039062 L 73.507812 35.984375 L 73.195312 36.328125 L 73.472656 36.703125 C 73.484375 36.695312 73.859375 36.417969 74.25 36.019531 C 74.445312 35.820312 74.644531 35.589844 74.808594 35.335938 C 74.964844 35.078125 75.101562 34.792969 75.105469 34.453125 C 75.105469 34.230469 75.03125 33.984375 74.875 33.792969 L 74.816406 33.730469 L 73.898438 32.941406 L 73.902344 32.945312 C 73.632812 32.710938 73.484375 32.5 73.398438 32.320312 C 73.3125 32.144531 73.289062 31.996094 73.289062 31.871094 C 73.289062 31.734375 73.320312 31.621094 73.347656 31.546875 C 73.363281 31.507812 73.378906 31.480469 73.386719 31.464844 L 73.394531 31.449219 L 73.371094 31.4375 L 73.394531 31.453125 L 73.394531 31.449219 L 73.371094 31.4375 L 73.394531 31.453125 L 73.140625 31.28125 L 73.390625 31.457031 L 73.394531 31.453125 L 73.140625 31.28125 L 73.390625 31.457031 L 73.011719 31.191406 L 73.21875 31.605469 L 77.476562 29.457031 C 77.554688 29.414062 77.621094 29.351562 77.667969 29.277344 C 77.777344 29.089844 77.816406 28.886719 77.816406 28.714844 C 77.816406 28.480469 77.753906 28.296875 77.695312 28.164062 C 77.640625 28.035156 77.582031 27.953125 77.570312 27.933594 L 77.507812 27.863281 C 74.984375 25.472656 73.601562 23.90625 72.863281 22.945312 C 72.492188 22.464844 72.28125 22.140625 72.167969 21.945312 C 72.109375 21.84375 72.078125 21.777344 72.058594 21.742188 L 72.046875 21.707031 L 72.042969 21.707031 L 71.832031 21.789062 L 72.046875 21.714844 L 72.042969 21.707031 L 71.832031 21.789062 L 72.046875 21.714844 L 71.605469 21.863281 L 72.0625 21.773438 L 70.878906 15.523438 L 70.867188 15.476562 C 69.878906 12.074219 68.441406 9.433594 66.78125 7.394531 C 64.292969 4.335938 61.308594 2.644531 58.621094 1.722656 C 55.933594 0.796875 53.542969 0.636719 52.199219 0.636719 C 51.488281 0.636719 51.070312 0.683594 51.054688 0.683594 L 51.105469 1.148438 L 51.128906 0.683594 C 51.121094 0.683594 50.957031 0.671875 50.664062 0.671875 C 49.273438 0.675781 44.988281 0.851562 40.703125 2.914062 C 38.5625 3.949219 36.417969 5.457031 34.664062 7.660156 C 32.90625 9.859375 31.539062 12.75 30.9375 16.503906 L 31.398438 16.578125 L 30.941406 16.480469 C 30.9375 16.503906 30.503906 18.53125 30.5 21.539062 C 30.503906 24.039062 30.804688 27.214844 31.914062 30.46875 C 33.027344 33.722656 34.957031 37.058594 38.203125 39.835938 L 38.503906 39.484375 L 38.117188 39.738281 L 38.246094 39.652344 L 38.117188 39.738281 L 38.246094 39.652344 L 38.117188 39.738281 C 38.128906 39.757812 39.625 42.089844 39.625 46.441406 C 39.625 49 39.109375 52.257812 37.460938 56.167969 C 37.359375 56.402344 37.472656 56.675781 37.707031 56.777344 C 37.945312 56.875 38.214844 56.765625 38.316406 56.527344 " fill-opacity="1" fill-rule="nonzero"/></g><path fill="#070808" d="M 49.914062 6.972656 C 50.011719 7.144531 50.105469 7.308594 50.171875 7.457031 C 50.238281 7.609375 50.273438 7.746094 50.273438 7.867188 L 50.269531 7.9375 C 50.242188 8.191406 50.425781 8.421875 50.683594 8.449219 C 50.9375 8.476562 51.164062 8.289062 51.191406 8.035156 C 51.199219 7.980469 51.203125 7.921875 51.203125 7.867188 C 51.199219 7.570312 51.121094 7.308594 51.023438 7.085938 C 50.925781 6.863281 50.8125 6.671875 50.71875 6.511719 C 50.59375 6.289062 50.308594 6.214844 50.085938 6.339844 C 49.863281 6.46875 49.785156 6.75 49.914062 6.972656 " fill-opacity="1" fill-rule="nonzero"/><path fill="#070808" d="M 36.257812 26.78125 C 36.328125 26.785156 36.394531 26.789062 36.464844 26.789062 C 37.066406 26.785156 37.652344 26.550781 38.078125 26.128906 C 38.261719 25.949219 38.261719 25.652344 38.082031 25.472656 C 37.898438 25.289062 37.605469 25.289062 37.425781 25.472656 C 37.199219 25.703125 36.804688 25.863281 36.464844 25.859375 C 36.425781 25.859375 36.386719 25.859375 36.351562 25.855469 C 36.09375 25.832031 35.867188 26.015625 35.839844 26.273438 C 35.816406 26.527344 36.003906 26.753906 36.257812 26.78125 " fill-opacity="1" fill-rule="nonzero"/><path fill="#070808" d="M 40.417969 28.035156 L 40.742188 28.371094 C 40.898438 28.214844 41.015625 28.113281 41.097656 28.066406 C 41.179688 28.019531 41.214844 28.007812 41.3125 28.007812 C 41.371094 28.003906 41.453125 28.015625 41.570312 28.042969 C 42.003906 28.148438 42.476562 28.226562 42.964844 28.226562 C 43.398438 28.226562 43.847656 28.164062 44.273438 27.996094 C 44.453125 27.925781 44.605469 27.824219 44.730469 27.714844 C 44.917969 27.558594 45.050781 27.390625 45.171875 27.253906 C 45.292969 27.117188 45.394531 27.015625 45.496094 26.953125 C 45.628906 26.871094 45.765625 26.839844 45.941406 26.835938 C 46.117188 26.835938 46.324219 26.878906 46.542969 26.941406 C 46.761719 27.007812 46.984375 27.09375 47.207031 27.175781 C 47.757812 27.382812 48.351562 27.546875 48.972656 27.546875 C 49.53125 27.546875 50.117188 27.402344 50.640625 27.027344 C 51.066406 26.722656 51.410156 26.375 51.746094 26.125 C 51.914062 26 52.074219 25.898438 52.242188 25.828125 C 52.40625 25.757812 52.574219 25.714844 52.769531 25.710938 L 52.824219 25.710938 C 53.277344 25.710938 53.734375 25.847656 54.230469 26.039062 C 54.722656 26.226562 55.246094 26.460938 55.835938 26.589844 C 56.121094 26.648438 56.421875 26.675781 56.730469 26.675781 C 57.207031 26.675781 57.699219 26.613281 58.171875 26.496094 C 58.644531 26.382812 59.089844 26.214844 59.46875 25.988281 C 59.8125 25.78125 60.09375 25.546875 60.316406 25.28125 C 60.65625 24.882812 60.855469 24.429688 60.972656 23.960938 C 61.089844 23.492188 61.132812 23.003906 61.160156 22.5 L 60.695312 22.476562 L 60.734375 22.9375 C 60.945312 22.921875 61.160156 22.914062 61.375 22.914062 C 61.890625 22.914062 62.414062 22.953125 62.941406 22.953125 C 63.535156 22.953125 64.136719 22.902344 64.722656 22.652344 C 65.304688 22.402344 65.835938 21.945312 66.261719 21.226562 C 66.660156 20.554688 66.855469 19.824219 66.855469 19.105469 C 66.855469 17.964844 66.367188 16.851562 65.5 15.996094 L 65.175781 16.324219 L 65.570312 16.574219 C 65.789062 16.222656 65.875 15.8125 65.875 15.410156 C 65.871094 14.875 65.726562 14.335938 65.453125 13.878906 L 65.453125 13.875 C 65.351562 13.707031 65.214844 13.578125 65.085938 13.496094 C 64.988281 13.433594 64.894531 13.398438 64.824219 13.371094 C 64.71875 13.328125 64.664062 13.308594 64.648438 13.296875 C 64.636719 13.285156 64.640625 13.300781 64.613281 13.246094 C 64.53125 13.066406 64.503906 12.847656 64.472656 12.570312 C 64.441406 12.292969 64.40625 11.953125 64.234375 11.601562 C 64.070312 11.273438 63.863281 10.996094 63.617188 10.777344 C 63.367188 10.558594 63.074219 10.394531 62.761719 10.292969 C 62.570312 10.230469 62.441406 10.179688 62.375 10.140625 C 62.324219 10.109375 62.300781 10.089844 62.285156 10.074219 C 62.261719 10.050781 62.234375 10.003906 62.179688 9.886719 C 62.128906 9.769531 62.0625 9.59375 61.957031 9.367188 C 61.707031 8.839844 61.308594 8.328125 60.792969 7.964844 C 60.613281 7.835938 60.421875 7.761719 60.246094 7.714844 C 59.984375 7.648438 59.753906 7.632812 59.574219 7.601562 C 59.390625 7.570312 59.277344 7.53125 59.195312 7.46875 C 58.945312 7.285156 58.714844 7.066406 58.445312 6.847656 C 58.179688 6.625 57.875 6.402344 57.496094 6.238281 C 57.03125 6.039062 56.542969 5.949219 56.058594 5.949219 C 55.78125 5.949219 55.503906 5.976562 55.230469 6.03125 C 54.941406 6.089844 54.730469 6.203125 54.59375 6.269531 C 54.523438 6.304688 54.472656 6.328125 54.4375 6.339844 C 54.402344 6.351562 54.382812 6.355469 54.355469 6.355469 C 54.320312 6.355469 54.273438 6.351562 54.1875 6.320312 C 53.988281 6.246094 53.800781 6.132812 53.558594 6.007812 C 53.316406 5.882812 53.015625 5.753906 52.632812 5.695312 C 52.460938 5.667969 52.304688 5.652344 52.160156 5.652344 C 51.855469 5.652344 51.597656 5.722656 51.382812 5.8125 C 51.171875 5.898438 50.996094 5.988281 50.75 6.082031 C 50.546875 6.15625 50.398438 6.179688 50.25 6.179688 C 50.109375 6.179688 49.964844 6.15625 49.789062 6.117188 C 49.613281 6.078125 49.40625 6.019531 49.164062 5.972656 C 48.867188 5.910156 48.554688 5.871094 48.234375 5.871094 C 47.777344 5.871094 47.304688 5.949219 46.855469 6.15625 C 46.511719 6.316406 46.292969 6.5625 46.121094 6.761719 C 45.949219 6.964844 45.8125 7.117188 45.6875 7.191406 C 45.617188 7.234375 45.589844 7.234375 45.539062 7.238281 C 45.480469 7.238281 45.390625 7.21875 45.261719 7.175781 C 45.132812 7.132812 44.96875 7.070312 44.769531 7.027344 C 44.628906 6.992188 44.492188 6.980469 44.359375 6.980469 C 44.113281 6.980469 43.890625 7.027344 43.6875 7.089844 C 43.484375 7.152344 43.296875 7.226562 43.117188 7.296875 C 42.6875 7.464844 42.390625 7.800781 42.183594 8.152344 C 41.976562 8.511719 41.859375 8.90625 41.824219 9.285156 L 42.289062 9.324219 L 42.375 8.867188 C 41.949219 8.785156 41.582031 8.722656 41.214844 8.71875 C 40.902344 8.71875 40.589844 8.769531 40.285156 8.894531 C 39.980469 9.019531 39.6875 9.210938 39.382812 9.472656 C 39.125 9.6875 38.933594 9.902344 38.792969 10.109375 C 38.578125 10.417969 38.476562 10.707031 38.402344 10.929688 C 38.324219 11.15625 38.269531 11.304688 38.148438 11.464844 C 38.105469 11.523438 38 11.601562 37.832031 11.683594 C 37.664062 11.765625 37.453125 11.851562 37.230469 12.003906 C 36.816406 12.300781 36.410156 12.710938 36.199219 13.257812 C 36.074219 13.589844 36.074219 13.886719 36.054688 14.113281 C 36.039062 14.34375 36.015625 14.496094 35.941406 14.628906 C 35.855469 14.792969 35.71875 14.957031 35.554688 15.140625 C 35.390625 15.328125 35.203125 15.539062 35.046875 15.8125 C 34.738281 16.355469 34.53125 16.980469 34.488281 17.617188 L 34.949219 17.652344 L 34.488281 17.609375 L 34.484375 17.664062 C 34.484375 17.710938 34.488281 17.75 34.492188 17.800781 C 34.503906 17.980469 34.539062 18.273438 34.589844 18.546875 C 34.617188 18.6875 34.644531 18.816406 34.6875 18.941406 C 34.710938 19.003906 34.738281 19.066406 34.789062 19.144531 C 34.816406 19.183594 34.855469 19.234375 34.921875 19.28125 C 34.984375 19.332031 35.09375 19.382812 35.222656 19.382812 C 35.316406 19.382812 35.40625 19.355469 35.464844 19.320312 L 35.242188 18.914062 L 35.011719 18.507812 C 34.988281 18.523438 34.964844 18.535156 34.925781 18.566406 C 34.910156 18.582031 34.882812 18.601562 34.847656 18.648438 C 34.832031 18.667969 34.8125 18.699219 34.792969 18.742188 C 34.773438 18.789062 34.753906 18.851562 34.75 18.933594 C 34.75 19.039062 34.796875 19.167969 34.871094 19.246094 C 34.921875 19.304688 34.976562 19.335938 35.015625 19.355469 C 35.078125 19.386719 35.121094 19.390625 35.152344 19.398438 C 35.183594 19.402344 35.207031 19.402344 35.222656 19.402344 C 35.285156 19.402344 35.3125 19.394531 35.339844 19.390625 C 35.378906 19.382812 35.40625 19.375 35.445312 19.359375 C 35.464844 19.351562 35.484375 19.34375 35.527344 19.320312 C 35.546875 19.308594 35.574219 19.296875 35.617188 19.253906 C 35.640625 19.234375 35.667969 19.207031 35.699219 19.15625 C 35.730469 19.105469 35.765625 19.023438 35.765625 18.914062 C 35.769531 18.828125 35.738281 18.734375 35.699219 18.667969 C 35.621094 18.550781 35.542969 18.511719 35.492188 18.488281 C 35.417969 18.457031 35.382812 18.453125 35.351562 18.449219 C 35.324219 18.445312 35.304688 18.445312 35.289062 18.445312 C 35.246094 18.445312 35.21875 18.449219 35.183594 18.453125 C 35.097656 18.464844 35.015625 18.496094 34.945312 18.554688 C 34.675781 18.78125 34.492188 19.085938 34.371094 19.414062 C 34.25 19.746094 34.191406 20.105469 34.191406 20.476562 C 34.191406 20.949219 34.289062 21.433594 34.507812 21.867188 C 34.726562 22.296875 35.085938 22.683594 35.585938 22.875 L 35.753906 22.445312 L 35.558594 22.019531 C 35.195312 22.1875 34.925781 22.480469 34.765625 22.808594 C 34.605469 23.140625 34.542969 23.503906 34.542969 23.867188 C 34.542969 24.464844 34.710938 25.074219 34.996094 25.597656 C 35.140625 25.855469 35.316406 26.09375 35.523438 26.292969 C 35.734375 26.492188 35.984375 26.652344 36.269531 26.730469 L 36.398438 26.285156 L 36.097656 25.929688 C 35.875 26.117188 35.707031 26.34375 35.605469 26.585938 C 35.5 26.828125 35.453125 27.082031 35.453125 27.328125 C 35.453125 27.683594 35.542969 28.027344 35.675781 28.34375 C 35.808594 28.660156 35.992188 28.953125 36.195312 29.207031 L 36.253906 29.261719 C 36.273438 29.277344 36.476562 29.453125 36.816406 29.632812 C 37.152344 29.808594 37.632812 29.992188 38.203125 29.996094 C 38.621094 29.996094 39.085938 29.890625 39.535156 29.617188 C 39.988281 29.34375 40.417969 28.910156 40.8125 28.28125 L 40.417969 28.035156 L 40.742188 28.371094 L 40.417969 28.035156 L 40.023438 27.789062 C 39.691406 28.320312 39.359375 28.636719 39.054688 28.820312 C 38.75 29.003906 38.472656 29.0625 38.203125 29.066406 C 37.839844 29.066406 37.496094 28.941406 37.246094 28.808594 C 37.121094 28.742188 37.019531 28.675781 36.953125 28.628906 C 36.917969 28.605469 36.890625 28.585938 36.875 28.574219 L 36.859375 28.558594 L 36.722656 28.714844 L 36.859375 28.558594 L 36.722656 28.714844 L 36.859375 28.558594 L 36.554688 28.910156 L 36.914062 28.617188 C 36.765625 28.429688 36.625 28.210938 36.53125 27.984375 C 36.433594 27.757812 36.382812 27.527344 36.382812 27.328125 C 36.382812 27.191406 36.40625 27.066406 36.457031 26.953125 C 36.503906 26.84375 36.578125 26.742188 36.695312 26.640625 C 36.828125 26.53125 36.886719 26.355469 36.851562 26.1875 C 36.816406 26.019531 36.6875 25.882812 36.523438 25.835938 C 36.410156 25.804688 36.285156 25.734375 36.160156 25.617188 C 35.972656 25.441406 35.792969 25.160156 35.667969 24.847656 C 35.542969 24.53125 35.46875 24.179688 35.472656 23.867188 C 35.46875 23.613281 35.519531 23.386719 35.601562 23.21875 C 35.683594 23.050781 35.789062 22.941406 35.953125 22.863281 C 36.121094 22.785156 36.226562 22.613281 36.21875 22.429688 C 36.214844 22.242188 36.097656 22.078125 35.921875 22.007812 C 35.667969 21.910156 35.476562 21.71875 35.335938 21.445312 C 35.195312 21.171875 35.121094 20.820312 35.121094 20.476562 C 35.121094 20.207031 35.164062 19.945312 35.242188 19.734375 C 35.320312 19.519531 35.429688 19.359375 35.539062 19.273438 L 35.242188 18.914062 L 35.300781 19.375 L 35.304688 19.375 L 35.289062 19.140625 L 35.289062 19.375 L 35.304688 19.375 L 35.289062 19.140625 L 35.289062 19.375 L 35.289062 18.957031 L 35.191406 19.363281 C 35.253906 19.375 35.273438 19.371094 35.289062 19.375 L 35.289062 18.957031 L 35.191406 19.363281 L 35.296875 18.917969 L 35.035156 19.289062 C 35.113281 19.34375 35.15625 19.355469 35.191406 19.363281 L 35.296875 18.917969 L 35.035156 19.289062 L 35.300781 18.914062 L 34.90625 19.15625 C 34.949219 19.222656 34.996094 19.265625 35.035156 19.289062 L 35.300781 18.914062 L 34.90625 19.15625 L 35.300781 18.914062 L 34.839844 18.914062 C 34.839844 18.996094 34.867188 19.089844 34.90625 19.15625 L 35.300781 18.914062 L 34.839844 18.914062 L 35.300781 18.914062 L 34.875 18.730469 C 34.855469 18.777344 34.839844 18.839844 34.839844 18.914062 L 35.300781 18.914062 L 34.875 18.730469 L 35.296875 18.910156 L 34.984375 18.578125 C 34.957031 18.605469 34.914062 18.640625 34.875 18.730469 L 35.296875 18.910156 L 34.984375 18.578125 L 35.285156 18.898438 L 35.078125 18.507812 C 35.058594 18.519531 35.035156 18.527344 34.984375 18.578125 L 35.285156 18.898438 L 35.078125 18.507812 L 35.246094 18.820312 L 35.125 18.488281 C 35.117188 18.492188 35.109375 18.492188 35.078125 18.507812 L 35.246094 18.820312 L 35.125 18.488281 L 35.191406 18.671875 L 35.148438 18.480469 L 35.125 18.488281 L 35.191406 18.671875 L 35.148438 18.480469 L 35.222656 18.816406 L 35.222656 18.472656 C 35.164062 18.472656 35.160156 18.480469 35.148438 18.480469 L 35.222656 18.816406 L 35.222656 18.472656 L 35.222656 18.921875 L 35.382812 18.5 C 35.289062 18.46875 35.25 18.472656 35.222656 18.472656 L 35.222656 18.921875 L 35.382812 18.5 L 35.21875 18.933594 L 35.5625 18.625 C 35.492188 18.550781 35.425781 18.519531 35.382812 18.5 L 35.21875 18.933594 L 35.5625 18.625 L 35.21875 18.933594 L 35.679688 18.933594 C 35.683594 18.832031 35.632812 18.699219 35.5625 18.625 L 35.21875 18.933594 L 35.679688 18.933594 L 35.21875 18.933594 L 35.640625 19.121094 C 35.660156 19.078125 35.679688 19.015625 35.679688 18.933594 L 35.21875 18.933594 L 35.640625 19.121094 L 35.226562 18.9375 L 35.550781 19.25 C 35.574219 19.230469 35.605469 19.199219 35.640625 19.121094 L 35.226562 18.9375 L 35.550781 19.25 L 35.257812 18.96875 L 35.492188 19.304688 C 35.503906 19.296875 35.519531 19.285156 35.550781 19.25 L 35.257812 18.96875 L 35.492188 19.304688 L 35.34375 19.09375 L 35.472656 19.316406 L 35.492188 19.304688 L 35.34375 19.09375 L 35.472656 19.316406 C 35.695312 19.1875 35.773438 18.90625 35.644531 18.683594 C 35.519531 18.460938 35.242188 18.382812 35.019531 18.507812 L 35.222656 18.878906 L 35.222656 18.453125 C 35.140625 18.453125 35.0625 18.480469 35.019531 18.507812 L 35.222656 18.878906 L 35.222656 18.453125 L 35.222656 18.871094 L 35.492188 18.550781 C 35.449219 18.511719 35.351562 18.453125 35.222656 18.453125 L 35.222656 18.871094 L 35.492188 18.550781 L 35.28125 18.804688 L 35.5625 18.628906 C 35.550781 18.613281 35.535156 18.589844 35.492188 18.550781 L 35.28125 18.804688 L 35.5625 18.628906 L 35.414062 18.71875 L 35.570312 18.640625 L 35.5625 18.628906 L 35.414062 18.71875 L 35.570312 18.640625 L 35.507812 18.671875 L 35.570312 18.644531 L 35.570312 18.640625 L 35.507812 18.671875 L 35.570312 18.644531 L 35.5625 18.628906 C 35.550781 18.59375 35.527344 18.511719 35.511719 18.417969 C 35.480469 18.269531 35.453125 18.09375 35.4375 17.945312 C 35.429688 17.871094 35.421875 17.804688 35.417969 17.753906 L 35.414062 17.6875 L 35.414062 17.664062 L 35.085938 17.664062 L 35.410156 17.695312 L 35.414062 17.664062 L 35.085938 17.664062 L 35.410156 17.695312 L 35.414062 17.683594 C 35.445312 17.207031 35.609375 16.699219 35.851562 16.273438 C 35.945312 16.109375 36.085938 15.945312 36.25 15.753906 C 36.414062 15.566406 36.605469 15.355469 36.757812 15.074219 C 36.9375 14.746094 36.964844 14.421875 36.980469 14.175781 C 36.996094 13.921875 37.007812 13.734375 37.066406 13.589844 C 37.175781 13.289062 37.453125 12.984375 37.769531 12.761719 C 37.863281 12.691406 38.039062 12.613281 38.246094 12.515625 C 38.449219 12.410156 38.695312 12.28125 38.890625 12.023438 C 39.03125 11.832031 39.125 11.644531 39.191406 11.472656 C 39.289062 11.21875 39.339844 11.019531 39.441406 10.832031 C 39.535156 10.644531 39.675781 10.445312 39.980469 10.179688 C 40.238281 9.960938 40.449219 9.832031 40.636719 9.757812 C 40.824219 9.683594 40.996094 9.652344 41.214844 9.648438 C 41.46875 9.648438 41.789062 9.699219 42.199219 9.777344 C 42.332031 9.804688 42.464844 9.769531 42.570312 9.691406 C 42.671875 9.613281 42.738281 9.492188 42.75 9.359375 C 42.769531 9.136719 42.855469 8.847656 42.988281 8.617188 C 43.121094 8.386719 43.296875 8.222656 43.453125 8.164062 C 43.640625 8.089844 43.808594 8.023438 43.957031 7.980469 C 44.105469 7.933594 44.234375 7.910156 44.359375 7.910156 C 44.425781 7.910156 44.496094 7.917969 44.570312 7.933594 C 44.683594 7.957031 44.8125 8.003906 44.96875 8.058594 C 45.125 8.109375 45.308594 8.167969 45.539062 8.167969 C 45.738281 8.167969 45.96875 8.113281 46.171875 7.984375 C 46.476562 7.796875 46.660156 7.554688 46.820312 7.371094 C 46.984375 7.183594 47.109375 7.058594 47.242188 7 C 47.542969 6.863281 47.882812 6.800781 48.234375 6.800781 C 48.480469 6.800781 48.730469 6.832031 48.976562 6.882812 C 49.183594 6.921875 49.378906 6.976562 49.582031 7.023438 C 49.789062 7.070312 50.007812 7.109375 50.25 7.109375 C 50.503906 7.109375 50.78125 7.0625 51.074219 6.953125 C 51.375 6.839844 51.582031 6.734375 51.734375 6.671875 C 51.886719 6.609375 51.980469 6.585938 52.160156 6.582031 C 52.246094 6.582031 52.355469 6.59375 52.488281 6.613281 C 52.746094 6.652344 52.929688 6.730469 53.136719 6.835938 C 53.339844 6.9375 53.566406 7.078125 53.867188 7.191406 C 54.035156 7.253906 54.195312 7.285156 54.355469 7.285156 C 54.496094 7.285156 54.625 7.257812 54.734375 7.21875 C 54.898438 7.164062 55.015625 7.09375 55.117188 7.046875 C 55.214844 7 55.300781 6.964844 55.410156 6.945312 C 55.628906 6.902344 55.84375 6.878906 56.058594 6.878906 C 56.429688 6.878906 56.789062 6.945312 57.128906 7.09375 C 57.390625 7.203125 57.617188 7.367188 57.855469 7.5625 C 58.089844 7.757812 58.335938 7.992188 58.636719 8.214844 C 58.8125 8.347656 59 8.421875 59.171875 8.464844 C 59.429688 8.535156 59.660156 8.546875 59.84375 8.582031 C 60.027344 8.613281 60.15625 8.652344 60.261719 8.722656 C 60.613281 8.972656 60.9375 9.378906 61.113281 9.761719 C 61.195312 9.9375 61.253906 10.078125 61.308594 10.210938 C 61.351562 10.308594 61.394531 10.410156 61.457031 10.507812 C 61.546875 10.660156 61.691406 10.8125 61.863281 10.914062 C 62.035156 11.023438 62.226562 11.097656 62.476562 11.179688 C 62.679688 11.246094 62.851562 11.34375 63 11.476562 C 63.152344 11.609375 63.285156 11.78125 63.402344 12.011719 C 63.488281 12.191406 63.523438 12.398438 63.550781 12.671875 C 63.582031 12.941406 63.609375 13.273438 63.765625 13.625 C 63.84375 13.804688 63.96875 13.953125 64.101562 14.046875 C 64.199219 14.117188 64.292969 14.160156 64.367188 14.191406 C 64.480469 14.234375 64.546875 14.257812 64.578125 14.277344 C 64.609375 14.296875 64.621094 14.300781 64.65625 14.359375 C 64.835938 14.652344 64.945312 15.054688 64.945312 15.410156 C 64.945312 15.679688 64.882812 15.921875 64.78125 16.078125 C 64.667969 16.261719 64.695312 16.503906 64.847656 16.65625 C 65.554688 17.359375 65.925781 18.230469 65.925781 19.105469 C 65.925781 19.660156 65.777344 20.21875 65.464844 20.75 C 65.113281 21.332031 64.753906 21.621094 64.351562 21.796875 C 63.953125 21.972656 63.484375 22.023438 62.941406 22.023438 C 62.464844 22.023438 61.9375 21.984375 61.375 21.984375 C 61.140625 21.984375 60.902344 21.992188 60.65625 22.011719 C 60.425781 22.03125 60.246094 22.21875 60.234375 22.449219 C 60.199219 23.097656 60.136719 23.644531 59.960938 24.082031 C 59.875 24.304688 59.765625 24.5 59.609375 24.679688 C 59.457031 24.859375 59.257812 25.03125 58.992188 25.191406 C 58.71875 25.351562 58.351562 25.496094 57.953125 25.59375 C 57.554688 25.691406 57.125 25.746094 56.730469 25.746094 C 56.472656 25.746094 56.234375 25.722656 56.027344 25.679688 C 55.566406 25.582031 55.085938 25.371094 54.558594 25.171875 C 54.039062 24.972656 53.46875 24.78125 52.824219 24.78125 L 52.746094 24.78125 C 52.429688 24.789062 52.136719 24.859375 51.878906 24.96875 C 51.492188 25.136719 51.179688 25.378906 50.894531 25.613281 C 50.609375 25.851562 50.355469 26.089844 50.101562 26.269531 C 49.746094 26.519531 49.382812 26.613281 48.972656 26.617188 C 48.523438 26.617188 48.023438 26.488281 47.53125 26.304688 C 47.320312 26.226562 47.074219 26.128906 46.808594 26.050781 C 46.542969 25.972656 46.253906 25.90625 45.941406 25.90625 C 45.636719 25.90625 45.304688 25.976562 45.003906 26.164062 C 44.699219 26.359375 44.511719 26.601562 44.351562 26.78125 C 44.269531 26.871094 44.195312 26.949219 44.128906 27.007812 C 44.058594 27.066406 44 27.105469 43.933594 27.128906 C 43.644531 27.246094 43.3125 27.296875 42.964844 27.296875 C 42.578125 27.296875 42.167969 27.234375 41.792969 27.140625 C 41.625 27.097656 41.46875 27.074219 41.3125 27.074219 C 41.058594 27.074219 40.8125 27.148438 40.617188 27.269531 C 40.421875 27.390625 40.265625 27.539062 40.09375 27.703125 C 40.066406 27.730469 40.042969 27.757812 40.023438 27.789062 L 40.417969 28.035156 " fill-opacity="1" fill-rule="nonzero"/><path fill="#070808" d="M 41.734375 9.347656 C 41.742188 9.605469 41.808594 9.851562 41.910156 10.066406 C 42.089844 10.441406 42.378906 10.726562 42.6875 10.964844 C 43.15625 11.324219 43.695312 11.601562 44.15625 11.890625 C 44.621094 12.175781 44.992188 12.46875 45.15625 12.769531 L 45.171875 12.796875 C 45.484375 13.285156 45.675781 13.894531 45.675781 14.492188 C 45.675781 14.828125 45.613281 15.164062 45.492188 15.476562 L 45.484375 15.492188 C 45.421875 15.679688 45.230469 15.972656 45.003906 16.183594 C 44.894531 16.292969 44.773438 16.378906 44.667969 16.433594 C 44.558594 16.492188 44.464844 16.511719 44.402344 16.511719 C 44.363281 16.511719 44.332031 16.507812 44.296875 16.492188 C 44.265625 16.476562 44.226562 16.453125 44.183594 16.410156 C 44 16.226562 43.707031 16.226562 43.523438 16.410156 C 43.34375 16.589844 43.34375 16.886719 43.523438 17.066406 C 43.648438 17.1875 43.789062 17.285156 43.9375 17.351562 C 44.089844 17.414062 44.25 17.441406 44.402344 17.441406 C 44.65625 17.441406 44.886719 17.367188 45.089844 17.261719 C 45.398438 17.101562 45.660156 16.867188 45.875 16.613281 C 46.089844 16.359375 46.257812 16.085938 46.359375 15.804688 L 45.921875 15.648438 L 46.351562 15.824219 C 46.527344 15.390625 46.601562 14.9375 46.601562 14.492188 C 46.601562 13.699219 46.359375 12.929688 45.949219 12.292969 L 45.558594 12.542969 L 45.964844 12.316406 C 45.726562 11.894531 45.375 11.59375 45 11.332031 C 44.441406 10.945312 43.816406 10.640625 43.363281 10.3125 C 43.136719 10.148438 42.957031 9.984375 42.84375 9.824219 C 42.726562 9.660156 42.671875 9.511719 42.664062 9.316406 C 42.65625 9.0625 42.4375 8.859375 42.183594 8.867188 C 41.925781 8.875 41.726562 9.09375 41.734375 9.347656 " fill-opacity="1" fill-rule="nonzero"/><path fill="#070808" d="M 41.34375 12.128906 C 40.832031 12.160156 40.363281 12.292969 39.960938 12.503906 C 39.347656 12.824219 38.882812 13.324219 38.546875 13.902344 C 38.207031 14.480469 37.988281 15.140625 37.863281 15.824219 C 37.800781 16.171875 37.796875 16.492188 37.796875 16.785156 C 37.796875 16.824219 37.796875 16.863281 37.796875 16.902344 C 37.796875 17.136719 37.792969 17.351562 37.765625 17.542969 C 37.738281 17.734375 37.691406 17.902344 37.601562 18.070312 C 37.480469 18.296875 37.347656 18.441406 37.195312 18.539062 C 37.042969 18.636719 36.851562 18.699219 36.554688 18.699219 C 36.261719 18.699219 35.875 18.632812 35.386719 18.472656 C 35.144531 18.390625 34.878906 18.523438 34.800781 18.769531 C 34.722656 19.011719 34.855469 19.273438 35.097656 19.355469 C 35.652344 19.535156 36.125 19.628906 36.554688 19.628906 C 36.984375 19.628906 37.375 19.527344 37.691406 19.324219 C 38.011719 19.125 38.246094 18.835938 38.417969 18.511719 C 38.570312 18.230469 38.648438 17.941406 38.6875 17.671875 C 38.726562 17.398438 38.726562 17.140625 38.726562 16.902344 C 38.726562 16.863281 38.726562 16.824219 38.726562 16.785156 C 38.726562 16.5 38.730469 16.238281 38.777344 15.996094 L 38.777344 15.992188 C 38.921875 15.195312 39.210938 14.464844 39.640625 13.945312 C 39.855469 13.6875 40.101562 13.480469 40.390625 13.328125 C 40.675781 13.175781 41.007812 13.082031 41.398438 13.058594 C 41.65625 13.042969 41.847656 12.824219 41.835938 12.570312 C 41.820312 12.3125 41.601562 12.117188 41.34375 12.128906 " fill-opacity="1" fill-rule="nonzero"/><path fill="#070808" d="M 35.789062 22.886719 C 36.054688 22.824219 36.375 22.820312 36.742188 22.808594 C 37.105469 22.792969 37.523438 22.769531 37.960938 22.613281 L 37.992188 22.597656 C 38.585938 22.332031 39.121094 21.902344 39.566406 21.394531 C 40.011719 20.882812 40.367188 20.292969 40.570312 19.679688 C 40.710938 19.253906 40.777344 18.761719 40.867188 18.242188 C 40.996094 17.464844 41.171875 16.648438 41.554688 16.082031 C 41.742188 15.796875 41.976562 15.570312 42.292969 15.402344 C 42.605469 15.238281 43.015625 15.132812 43.570312 15.128906 L 43.636719 15.132812 C 43.894531 15.136719 44.105469 14.933594 44.109375 14.675781 C 44.117188 14.417969 43.910156 14.207031 43.65625 14.203125 C 43.625 14.199219 43.597656 14.199219 43.570312 14.199219 C 42.671875 14.199219 41.957031 14.441406 41.429688 14.855469 C 41.035156 15.164062 40.753906 15.558594 40.546875 15.972656 C 40.242188 16.59375 40.097656 17.269531 39.984375 17.882812 C 39.878906 18.496094 39.804688 19.054688 39.691406 19.386719 C 39.53125 19.863281 39.238281 20.359375 38.867188 20.78125 C 38.5 21.203125 38.054688 21.550781 37.613281 21.75 L 37.804688 22.175781 L 37.648438 21.738281 C 37.359375 21.839844 37.050781 21.867188 36.707031 21.878906 C 36.363281 21.894531 35.984375 21.890625 35.578125 21.980469 C 35.332031 22.039062 35.175781 22.289062 35.230469 22.539062 C 35.289062 22.789062 35.539062 22.945312 35.789062 22.886719 " fill-opacity="1" fill-rule="nonzero"/><path fill="#070808" d="M 38.464844 21.34375 C 38.449219 21.496094 38.441406 21.648438 38.441406 21.796875 C 38.441406 22.398438 38.574219 22.988281 38.871094 23.496094 C 39.167969 24.007812 39.640625 24.429688 40.265625 24.664062 C 40.734375 24.839844 41.222656 24.902344 41.691406 24.902344 C 41.871094 24.902344 42.050781 24.894531 42.226562 24.878906 C 43.558594 24.757812 44.855469 24.519531 46.09375 24.519531 C 46.902344 24.519531 47.683594 24.617188 48.449219 24.898438 C 48.691406 24.988281 48.957031 24.863281 49.046875 24.625 C 49.132812 24.382812 49.011719 24.117188 48.769531 24.027344 C 47.875 23.695312 46.976562 23.589844 46.09375 23.589844 C 44.738281 23.589844 43.417969 23.835938 42.140625 23.953125 C 41.992188 23.964844 41.839844 23.972656 41.691406 23.972656 C 41.304688 23.972656 40.933594 23.921875 40.59375 23.792969 C 40.160156 23.625 39.871094 23.363281 39.671875 23.027344 C 39.472656 22.6875 39.371094 22.261719 39.371094 21.796875 C 39.371094 21.679688 39.375 21.5625 39.390625 21.441406 C 39.417969 21.1875 39.230469 20.957031 38.976562 20.929688 C 38.722656 20.902344 38.492188 21.089844 38.464844 21.34375 " fill-opacity="1" fill-rule="nonzero"/><path fill="#070808" d="M 47.167969 15.851562 C 47.152344 15.960938 47.148438 16.070312 47.148438 16.175781 C 47.144531 16.75 47.355469 17.257812 47.699219 17.636719 C 47.957031 17.921875 48.273438 18.144531 48.625 18.316406 C 49.152344 18.574219 49.757812 18.734375 50.382812 18.835938 C 51.003906 18.933594 51.648438 18.972656 52.246094 18.972656 C 52.726562 18.972656 53.175781 18.949219 53.566406 18.910156 L 53.523438 18.445312 L 53.558594 18.910156 C 53.792969 18.890625 54.023438 18.882812 54.246094 18.882812 C 55.324219 18.882812 56.308594 19.097656 57.199219 19.527344 C 58.082031 19.960938 58.878906 20.617188 59.566406 21.523438 L 59.5625 21.519531 C 59.726562 21.738281 59.898438 21.953125 60.027344 22.152344 C 60.15625 22.355469 60.234375 22.539062 60.246094 22.6875 C 60.273438 22.941406 60.5 23.128906 60.753906 23.101562 C 61.011719 23.078125 61.195312 22.851562 61.171875 22.59375 C 61.132812 22.226562 60.976562 21.917969 60.808594 21.652344 C 60.640625 21.386719 60.453125 21.160156 60.304688 20.964844 L 60.304688 20.960938 C 59.539062 19.949219 58.628906 19.191406 57.605469 18.691406 C 56.578125 18.191406 55.445312 17.953125 54.246094 17.953125 C 53.996094 17.953125 53.742188 17.960938 53.484375 17.984375 L 53.476562 17.984375 C 53.117188 18.019531 52.695312 18.042969 52.246094 18.042969 C 51.253906 18.042969 50.132812 17.921875 49.324219 17.609375 C 48.917969 17.449219 48.597656 17.25 48.390625 17.015625 C 48.1875 16.78125 48.078125 16.535156 48.074219 16.175781 C 48.074219 16.109375 48.078125 16.039062 48.089844 15.964844 C 48.121094 15.710938 47.9375 15.480469 47.683594 15.449219 C 47.429688 15.417969 47.199219 15.597656 47.167969 15.851562 " fill-opacity="1" fill-rule="nonzero"/><path fill="#070808" d="M 40.011719 17.8125 L 40.011719 17.882812 C 40.007812 18.507812 40.210938 19.054688 40.535156 19.476562 C 41.027344 20.109375 41.753906 20.476562 42.484375 20.699219 C 43.21875 20.921875 43.972656 20.996094 44.582031 20.996094 C 44.738281 20.996094 44.886719 20.992188 45.023438 20.980469 C 45.183594 20.96875 45.347656 20.964844 45.511719 20.964844 C 46.460938 20.964844 47.507812 21.152344 48.5 21.496094 C 49.496094 21.832031 50.433594 22.324219 51.167969 22.902344 L 51.453125 22.539062 L 51.15625 22.894531 C 51.277344 22.992188 51.445312 23.171875 51.628906 23.351562 C 51.820312 23.53125 52.023438 23.722656 52.304688 23.84375 C 52.542969 23.945312 52.816406 23.835938 52.914062 23.601562 C 53.015625 23.363281 52.90625 23.089844 52.671875 22.992188 C 52.589844 22.960938 52.433594 22.839844 52.273438 22.683594 C 52.109375 22.523438 51.941406 22.339844 51.753906 22.179688 L 51.742188 22.171875 C 50.90625 21.515625 49.882812 20.984375 48.800781 20.613281 C 47.71875 20.246094 46.582031 20.035156 45.511719 20.035156 C 45.324219 20.035156 45.140625 20.042969 44.957031 20.054688 C 44.84375 20.0625 44.71875 20.066406 44.582031 20.066406 C 43.878906 20.070312 42.902344 19.9375 42.160156 19.582031 C 41.789062 19.40625 41.480469 19.179688 41.273438 18.90625 C 41.066406 18.632812 40.941406 18.316406 40.941406 17.882812 L 40.941406 17.835938 C 40.945312 17.578125 40.742188 17.367188 40.488281 17.359375 C 40.230469 17.351562 40.015625 17.558594 40.011719 17.8125 " fill-opacity="1" fill-rule="nonzero"/><path fill="#070808" d="M 49.875 22 C 50.105469 22.066406 50.363281 22.105469 50.636719 22.105469 C 51.152344 22.105469 51.738281 21.96875 52.25 21.589844 C 52.761719 21.210938 53.175781 20.59375 53.355469 19.734375 C 53.410156 19.484375 53.25 19.234375 53 19.183594 C 52.746094 19.128906 52.5 19.289062 52.445312 19.542969 C 52.300781 20.21875 52.015625 20.601562 51.695312 20.839844 C 51.375 21.082031 50.992188 21.175781 50.636719 21.175781 C 50.449219 21.175781 50.277344 21.148438 50.136719 21.105469 C 49.890625 21.035156 49.632812 21.175781 49.5625 21.421875 C 49.488281 21.667969 49.628906 21.925781 49.875 22 " fill-opacity="1" fill-rule="nonzero"/><path fill="#070808" d="M 45.558594 21.035156 C 45.695312 21.035156 45.78125 21.066406 45.863281 21.117188 C 45.984375 21.199219 46.101562 21.355469 46.183594 21.578125 C 46.265625 21.800781 46.308594 22.082031 46.308594 22.34375 C 46.308594 22.601562 46.269531 22.84375 46.210938 22.996094 C 46.121094 23.238281 46.242188 23.503906 46.484375 23.59375 C 46.722656 23.683594 46.992188 23.5625 47.082031 23.324219 C 47.1875 23.03125 47.238281 22.695312 47.238281 22.34375 C 47.238281 21.863281 47.144531 21.355469 46.898438 20.914062 C 46.769531 20.695312 46.597656 20.492188 46.371094 20.339844 C 46.144531 20.191406 45.859375 20.105469 45.558594 20.105469 C 45.304688 20.105469 45.09375 20.3125 45.09375 20.570312 C 45.09375 20.828125 45.304688 21.035156 45.558594 21.035156 " fill-opacity="1" fill-rule="nonzero"/><path fill="#070808" d="M 46.511719 8.976562 C 47.507812 10.046875 48.21875 10.980469 48.6875 11.992188 C 49.152344 13.007812 49.386719 14.121094 49.386719 15.597656 C 49.386719 15.855469 49.59375 16.0625 49.851562 16.0625 C 50.109375 16.0625 50.316406 15.855469 50.316406 15.597656 C 50.316406 14.023438 50.058594 12.75 49.53125 11.605469 C 49 10.457031 48.214844 9.445312 47.191406 8.34375 C 47.019531 8.152344 46.722656 8.144531 46.535156 8.320312 C 46.347656 8.492188 46.335938 8.785156 46.511719 8.976562 " fill-opacity="1" fill-rule="nonzero"/><path fill="#070808" d="M 49.792969 14.664062 C 51.148438 14.691406 52.347656 14.667969 53.484375 14.8125 C 54.621094 14.953125 55.695312 15.257812 56.851562 15.945312 C 57.074219 16.078125 57.359375 16.003906 57.488281 15.785156 C 57.621094 15.5625 57.546875 15.28125 57.328125 15.148438 C 56.054688 14.386719 54.828125 14.042969 53.597656 13.886719 C 52.371094 13.734375 51.140625 13.761719 49.808594 13.734375 C 49.554688 13.730469 49.339844 13.933594 49.335938 14.191406 C 49.332031 14.449219 49.535156 14.660156 49.792969 14.664062 " fill-opacity="1" fill-rule="nonzero"/><path fill="#070808" d="M 48.707031 10.875 C 49.703125 10.664062 50.746094 10.519531 51.761719 10.519531 C 52.59375 10.519531 53.40625 10.617188 54.167969 10.84375 C 54.925781 11.074219 55.636719 11.433594 56.277344 11.96875 C 56.472656 12.132812 56.765625 12.105469 56.929688 11.910156 C 57.09375 11.710938 57.066406 11.417969 56.871094 11.253906 C 56.128906 10.632812 55.300781 10.214844 54.433594 9.953125 C 53.566406 9.695312 52.664062 9.589844 51.761719 9.589844 C 50.65625 9.589844 49.554688 9.746094 48.511719 9.964844 C 48.261719 10.019531 48.101562 10.265625 48.15625 10.515625 C 48.207031 10.769531 48.453125 10.929688 48.707031 10.875 " fill-opacity="1" fill-rule="nonzero"/><path fill="#070808" d="M 54.507812 8.867188 C 54.964844 8.863281 55.335938 8.878906 55.683594 8.941406 C 56.03125 9.007812 56.367188 9.117188 56.769531 9.328125 L 56.777344 9.335938 C 57.179688 9.535156 57.464844 9.792969 57.816406 10.085938 C 58.160156 10.375 58.582031 10.6875 59.179688 10.863281 L 59.3125 10.421875 L 59.167969 10.859375 C 59.898438 11.101562 60.625 11.621094 61.152344 12.277344 C 61.683594 12.933594 62.011719 13.722656 62.007812 14.488281 C 62.007812 14.539062 62.007812 14.589844 62.003906 14.640625 C 61.992188 14.898438 62.1875 15.117188 62.441406 15.128906 C 62.699219 15.144531 62.917969 14.949219 62.929688 14.691406 C 62.933594 14.625 62.9375 14.554688 62.9375 14.488281 C 62.933594 13.457031 62.507812 12.484375 61.875 11.695312 C 61.234375 10.90625 60.382812 10.289062 59.460938 9.980469 L 59.449219 9.976562 C 59.011719 9.84375 58.734375 9.636719 58.40625 9.371094 C 58.085938 9.101562 57.726562 8.769531 57.195312 8.503906 L 56.988281 8.917969 L 57.203125 8.507812 C 56.726562 8.253906 56.285156 8.105469 55.847656 8.027344 C 55.40625 7.949219 54.980469 7.9375 54.507812 7.9375 C 54.25 7.9375 54.042969 8.144531 54.042969 8.402344 C 54.042969 8.65625 54.25 8.867188 54.507812 8.867188 " fill-opacity="1" fill-rule="nonzero"/><path fill="#070808" d="M 64.863281 15.875 C 64.457031 16.128906 63.800781 16.296875 63.171875 16.296875 C 62.644531 16.296875 62.144531 16.179688 61.8125 15.964844 C 61.644531 15.859375 61.515625 15.730469 61.429688 15.582031 C 61.339844 15.433594 61.285156 15.253906 61.277344 15.015625 C 61.269531 14.761719 61.058594 14.558594 60.800781 14.566406 C 60.546875 14.570312 60.34375 14.785156 60.347656 15.039062 C 60.359375 15.417969 60.457031 15.765625 60.632812 16.058594 C 60.890625 16.492188 61.296875 16.789062 61.742188 16.96875 C 62.1875 17.148438 62.679688 17.226562 63.171875 17.226562 C 63.960938 17.222656 64.746094 17.035156 65.347656 16.667969 C 65.566406 16.535156 65.636719 16.246094 65.5 16.027344 C 65.367188 15.808594 65.082031 15.742188 64.863281 15.875 " fill-opacity="1" fill-rule="nonzero"/><path fill="#070808" d="M 59.195312 20.859375 C 59.847656 20.859375 60.546875 20.976562 61.226562 20.980469 C 61.511719 20.980469 61.792969 20.960938 62.070312 20.886719 C 62.484375 20.785156 62.894531 20.546875 63.1875 20.140625 C 63.480469 19.742188 63.664062 19.207031 63.753906 18.507812 C 63.789062 18.25 63.609375 18.019531 63.355469 17.988281 C 63.101562 17.953125 62.867188 18.132812 62.835938 18.386719 C 62.78125 18.789062 62.699219 19.09375 62.597656 19.3125 C 62.445312 19.648438 62.28125 19.796875 62.070312 19.902344 C 61.863281 20.007812 61.578125 20.050781 61.226562 20.050781 C 60.660156 20.054688 59.949219 19.933594 59.195312 19.929688 C 58.941406 19.929688 58.730469 20.136719 58.730469 20.394531 C 58.730469 20.652344 58.941406 20.859375 59.195312 20.859375 " fill-opacity="1" fill-rule="nonzero"/><path fill="#070808" d="M 62.785156 18.753906 C 62.820312 18.75 62.855469 18.746094 62.890625 18.746094 C 63.125 18.742188 63.410156 18.847656 63.683594 19.007812 C 63.90625 19.132812 64.191406 19.054688 64.316406 18.832031 C 64.445312 18.609375 64.367188 18.324219 64.148438 18.199219 C 63.792969 18 63.371094 17.816406 62.890625 17.816406 C 62.816406 17.816406 62.742188 17.820312 62.667969 17.832031 C 62.414062 17.863281 62.234375 18.09375 62.265625 18.351562 C 62.296875 18.605469 62.53125 18.785156 62.785156 18.753906 " fill-opacity="1" fill-rule="nonzero"/><path fill="#070808" d="M 57.695312 13.746094 C 58.050781 14.007812 58.308594 14.316406 58.484375 14.65625 C 58.65625 15 58.746094 15.378906 58.746094 15.785156 C 58.746094 15.953125 58.730469 16.121094 58.703125 16.296875 L 58.699219 16.304688 C 58.640625 16.714844 58.4375 17.316406 58.144531 17.765625 C 58 17.996094 57.832031 18.183594 57.664062 18.304688 C 57.496094 18.425781 57.34375 18.480469 57.175781 18.484375 C 57.117188 18.484375 57.058594 18.476562 56.992188 18.460938 C 56.742188 18.402344 56.492188 18.554688 56.433594 18.804688 C 56.371094 19.054688 56.527344 19.304688 56.773438 19.363281 C 56.910156 19.398438 57.042969 19.414062 57.175781 19.414062 C 57.570312 19.414062 57.925781 19.269531 58.210938 19.054688 C 58.644531 18.734375 58.953125 18.28125 59.183594 17.8125 C 59.410156 17.34375 59.554688 16.855469 59.617188 16.445312 L 59.160156 16.375 L 59.617188 16.453125 C 59.65625 16.230469 59.675781 16.007812 59.675781 15.785156 C 59.675781 15.238281 59.550781 14.710938 59.308594 14.234375 C 59.066406 13.761719 58.707031 13.339844 58.246094 12.996094 C 58.039062 12.84375 57.746094 12.890625 57.59375 13.097656 C 57.445312 13.304688 57.488281 13.59375 57.695312 13.746094 " fill-opacity="1" fill-rule="nonzero"/><path fill="#070808" d="M 54.675781 22.484375 C 55.542969 22.457031 56.382812 22.308594 57.113281 21.894531 C 57.84375 21.480469 58.433594 20.785156 58.769531 19.789062 C 58.855469 19.546875 58.722656 19.28125 58.484375 19.199219 C 58.238281 19.113281 57.976562 19.246094 57.890625 19.488281 C 57.609375 20.304688 57.1875 20.773438 56.652344 21.085938 C 56.117188 21.394531 55.429688 21.53125 54.644531 21.554688 C 54.390625 21.5625 54.1875 21.777344 54.195312 22.035156 C 54.203125 22.289062 54.417969 22.492188 54.675781 22.484375 " fill-opacity="1" fill-rule="nonzero"/><path fill="#070808" d="M 36.113281 14.90625 C 36.171875 15.003906 36.246094 15.074219 36.316406 15.128906 C 36.441406 15.222656 36.566406 15.273438 36.691406 15.320312 C 36.882812 15.386719 37.082031 15.425781 37.265625 15.453125 C 37.453125 15.480469 37.617188 15.492188 37.75 15.492188 C 38.007812 15.492188 38.214844 15.285156 38.214844 15.027344 C 38.214844 14.773438 38.007812 14.5625 37.75 14.5625 C 37.644531 14.566406 37.386719 14.539062 37.175781 14.492188 C 37.074219 14.46875 36.976562 14.4375 36.921875 14.410156 L 36.875 14.382812 L 36.835938 14.4375 L 36.882812 14.390625 L 36.875 14.382812 L 36.835938 14.4375 L 36.882812 14.390625 L 36.738281 14.53125 L 36.910156 14.429688 L 36.882812 14.390625 L 36.738281 14.53125 L 36.910156 14.429688 C 36.777344 14.207031 36.492188 14.136719 36.273438 14.265625 C 36.050781 14.398438 35.980469 14.683594 36.113281 14.90625 " fill-opacity="1" fill-rule="nonzero"/><path fill="#070808" d="M 58.699219 8.097656 C 58.703125 8.144531 58.707031 8.191406 58.707031 8.238281 C 58.707031 8.359375 58.6875 8.46875 58.652344 8.554688 C 58.617188 8.644531 58.566406 8.710938 58.5 8.769531 C 58.300781 8.933594 58.277344 9.226562 58.441406 9.421875 C 58.605469 9.621094 58.898438 9.648438 59.09375 9.480469 C 59.285156 9.324219 59.425781 9.117188 59.511719 8.90625 C 59.597656 8.6875 59.636719 8.460938 59.636719 8.238281 C 59.636719 8.152344 59.628906 8.066406 59.617188 7.980469 C 59.585938 7.726562 59.355469 7.542969 59.101562 7.578125 C 58.847656 7.609375 58.667969 7.839844 58.699219 8.097656 " fill-opacity="1" fill-rule="nonzero"/><path fill="#070808" d="M 63.128906 14.144531 C 63.203125 14.15625 63.28125 14.160156 63.363281 14.160156 C 63.578125 14.160156 63.816406 14.117188 64.039062 13.988281 C 64.148438 13.921875 64.253906 13.832031 64.335938 13.71875 C 64.421875 13.605469 64.484375 13.472656 64.519531 13.328125 C 64.585938 13.082031 64.433594 12.828125 64.183594 12.765625 C 63.9375 12.703125 63.683594 12.855469 63.621094 13.105469 C 63.613281 13.136719 63.605469 13.148438 63.597656 13.160156 C 63.585938 13.171875 63.570312 13.1875 63.53125 13.203125 C 63.492188 13.21875 63.429688 13.230469 63.363281 13.230469 C 63.328125 13.230469 63.292969 13.226562 63.257812 13.222656 C 63.003906 13.1875 62.769531 13.363281 62.730469 13.617188 C 62.695312 13.871094 62.875 14.105469 63.128906 14.144531 " fill-opacity="1" fill-rule="nonzero"/><path fill="#070808" d="M 60 10.683594 C 59.839844 10.867188 59.625 11.066406 59.425781 11.316406 C 59.230469 11.566406 59.042969 11.890625 59.007812 12.292969 C 58.984375 12.550781 59.171875 12.777344 59.425781 12.800781 C 59.683594 12.824219 59.90625 12.632812 59.929688 12.378906 C 59.945312 12.214844 60.015625 12.070312 60.15625 11.894531 C 60.292969 11.714844 60.496094 11.527344 60.699219 11.296875 C 60.867188 11.101562 60.847656 10.808594 60.652344 10.640625 C 60.460938 10.472656 60.167969 10.492188 60 10.683594 " fill-opacity="1" fill-rule="nonzero"/><path fill="#070808" d="M 56.066406 8.480469 C 55.976562 8.640625 55.84375 8.84375 55.71875 9.074219 C 55.59375 9.308594 55.476562 9.582031 55.4375 9.902344 C 55.410156 10.160156 55.59375 10.386719 55.851562 10.417969 C 56.105469 10.445312 56.335938 10.261719 56.363281 10.003906 C 56.378906 9.859375 56.441406 9.691406 56.539062 9.511719 C 56.632812 9.332031 56.757812 9.144531 56.875 8.941406 C 57 8.71875 56.921875 8.433594 56.699219 8.308594 C 56.476562 8.179688 56.191406 8.257812 56.066406 8.480469 " fill-opacity="1" fill-rule="nonzero"/><path fill="#070808" d="M 50.996094 10.515625 C 51.203125 10.691406 51.308594 10.941406 51.308594 11.230469 C 51.308594 11.269531 51.308594 11.3125 51.300781 11.355469 C 51.277344 11.609375 51.460938 11.839844 51.714844 11.867188 C 51.972656 11.894531 52.199219 11.707031 52.226562 11.453125 C 52.234375 11.378906 52.238281 11.304688 52.238281 11.230469 C 52.238281 10.703125 52.03125 10.175781 51.601562 9.808594 C 51.40625 9.640625 51.113281 9.664062 50.945312 9.859375 C 50.78125 10.054688 50.804688 10.347656 50.996094 10.515625 " fill-opacity="1" fill-rule="nonzero"/><path fill="#070808" d="M 54.738281 12.648438 C 54.542969 12.945312 54.433594 13.261719 54.367188 13.570312 C 54.300781 13.882812 54.273438 14.183594 54.25 14.46875 C 54.226562 14.726562 54.414062 14.953125 54.667969 14.972656 C 54.925781 14.996094 55.152344 14.808594 55.175781 14.554688 C 55.199219 14.269531 55.226562 14.003906 55.273438 13.765625 C 55.324219 13.53125 55.398438 13.332031 55.511719 13.164062 C 55.652344 12.949219 55.59375 12.660156 55.382812 12.519531 C 55.167969 12.378906 54.882812 12.433594 54.738281 12.648438 " fill-opacity="1" fill-rule="nonzero"/><path fill="#070808" d="M 53.226562 23.875 C 53.1875 24.042969 53.164062 24.210938 53.164062 24.382812 C 53.164062 24.703125 53.238281 25.023438 53.40625 25.304688 C 53.570312 25.589844 53.835938 25.832031 54.171875 25.96875 C 54.40625 26.070312 54.679688 25.957031 54.777344 25.71875 C 54.875 25.484375 54.765625 25.210938 54.527344 25.113281 C 54.375 25.046875 54.277344 24.953125 54.203125 24.832031 C 54.132812 24.710938 54.09375 24.554688 54.09375 24.382812 C 54.09375 24.292969 54.105469 24.195312 54.128906 24.101562 C 54.191406 23.851562 54.039062 23.601562 53.789062 23.535156 C 53.542969 23.476562 53.289062 23.625 53.226562 23.875 " fill-opacity="1" fill-rule="nonzero"/><path fill="#070808" d="M 40.46875 24.449219 C 40.359375 24.753906 40.316406 25.085938 40.3125 25.417969 C 40.316406 25.878906 40.402344 26.339844 40.59375 26.734375 C 40.707031 26.960938 40.988281 27.054688 41.214844 26.941406 C 41.445312 26.828125 41.539062 26.546875 41.421875 26.316406 C 41.316406 26.105469 41.242188 25.753906 41.242188 25.417969 C 41.242188 25.175781 41.28125 24.9375 41.34375 24.765625 C 41.429688 24.527344 41.304688 24.257812 41.066406 24.171875 C 40.824219 24.085938 40.558594 24.207031 40.46875 24.449219 " fill-opacity="1" fill-rule="nonzero"/><path fill="#070808" d="M 36.675781 24.75 C 36.996094 24.667969 37.269531 24.621094 37.484375 24.621094 C 37.707031 24.621094 37.855469 24.664062 38.003906 24.757812 C 38.152344 24.851562 38.3125 25.023438 38.476562 25.34375 L 38.492188 25.367188 C 38.648438 25.625 38.75 25.980469 38.75 26.300781 C 38.75 26.511719 38.707031 26.707031 38.628906 26.867188 C 38.546875 27.027344 38.433594 27.15625 38.25 27.257812 C 38.023438 27.382812 37.945312 27.664062 38.070312 27.890625 C 38.195312 28.113281 38.476562 28.195312 38.699219 28.070312 C 39.046875 27.878906 39.300781 27.597656 39.457031 27.285156 C 39.613281 26.972656 39.679688 26.632812 39.679688 26.300781 C 39.679688 25.796875 39.53125 25.300781 39.289062 24.886719 L 38.890625 25.125 L 39.300781 24.910156 C 39.085938 24.5 38.828125 24.183594 38.511719 23.976562 C 38.191406 23.769531 37.832031 23.691406 37.484375 23.691406 C 37.140625 23.691406 36.804688 23.757812 36.449219 23.847656 C 36.199219 23.910156 36.050781 24.160156 36.109375 24.410156 C 36.175781 24.660156 36.425781 24.8125 36.675781 24.75 " fill-opacity="1" fill-rule="nonzero"/><path fill="#070808" d="M 51.457031 16.066406 C 51.460938 16.609375 51.566406 17.042969 51.558594 17.390625 C 51.558594 17.542969 51.546875 17.671875 51.503906 17.804688 C 51.464844 17.933594 51.402344 18.066406 51.289062 18.21875 C 51.136719 18.425781 51.179688 18.714844 51.382812 18.871094 C 51.585938 19.023438 51.878906 18.984375 52.03125 18.777344 C 52.207031 18.546875 52.324219 18.308594 52.394531 18.070312 C 52.464844 17.835938 52.488281 17.605469 52.488281 17.390625 C 52.484375 16.890625 52.378906 16.46875 52.382812 16.066406 C 52.382812 15.808594 52.175781 15.601562 51.921875 15.601562 C 51.664062 15.601562 51.457031 15.808594 51.457031 16.066406 " fill-opacity="1" fill-rule="nonzero"/><path fill="#070808" d="M 56.699219 21.867188 C 57.039062 22.132812 57.277344 22.378906 57.4375 22.644531 C 57.59375 22.90625 57.6875 23.195312 57.710938 23.601562 C 57.726562 23.855469 57.945312 24.050781 58.203125 24.039062 C 58.457031 24.023438 58.652344 23.804688 58.640625 23.546875 C 58.613281 23.019531 58.472656 22.554688 58.230469 22.160156 C 57.988281 21.761719 57.660156 21.441406 57.273438 21.136719 C 57.074219 20.976562 56.78125 21.011719 56.621094 21.214844 C 56.464844 21.417969 56.5 21.707031 56.699219 21.867188 " fill-opacity="1" fill-rule="nonzero"/><path fill="#070808" d="M 44.800781 25.242188 C 44.867188 25.5 44.972656 25.699219 45.039062 25.867188 C 45.113281 26.039062 45.152344 26.171875 45.152344 26.304688 L 45.148438 26.378906 C 45.125 26.632812 45.3125 26.859375 45.566406 26.882812 C 45.824219 26.90625 46.050781 26.71875 46.074219 26.464844 C 46.078125 26.414062 46.082031 26.359375 46.082031 26.304688 C 46.082031 25.984375 45.984375 25.714844 45.898438 25.507812 C 45.804688 25.296875 45.726562 25.136719 45.699219 25.015625 C 45.636719 24.765625 45.382812 24.613281 45.136719 24.675781 C 44.886719 24.738281 44.734375 24.992188 44.800781 25.242188 " fill-opacity="1" fill-rule="nonzero"/><path fill="#070808" d="M 52.273438 26.789062 L 52.722656 26.679688 C 52.652344 26.382812 52.519531 26.117188 52.355469 25.898438 C 52.1875 25.675781 51.992188 25.5 51.785156 25.347656 C 51.621094 25.226562 51.398438 25.226562 51.238281 25.34375 C 50.804688 25.660156 50.453125 26.019531 50.101562 26.269531 C 49.746094 26.519531 49.382812 26.613281 48.972656 26.617188 C 48.523438 26.617188 48.023438 26.488281 47.53125 26.304688 C 47.320312 26.226562 47.074219 26.128906 46.808594 26.050781 C 46.542969 25.972656 46.253906 25.90625 45.941406 25.90625 C 45.636719 25.90625 45.300781 25.976562 45.003906 26.164062 C 44.699219 26.359375 44.511719 26.601562 44.351562 26.78125 C 44.269531 26.871094 44.195312 26.949219 44.128906 27.007812 C 44.058594 27.066406 44 27.105469 43.933594 27.128906 C 43.644531 27.246094 43.3125 27.296875 42.964844 27.296875 C 42.667969 27.296875 42.359375 27.257812 42.058594 27.199219 C 41.917969 27.171875 41.777344 27.210938 41.667969 27.300781 C 41.558594 27.394531 41.5 27.53125 41.503906 27.671875 C 41.519531 28.007812 41.597656 28.347656 41.757812 28.660156 C 41.917969 28.972656 42.164062 29.257812 42.492188 29.476562 C 42.859375 29.726562 43.269531 29.871094 43.683594 29.953125 C 44.09375 30.035156 44.511719 30.058594 44.910156 30.058594 C 45.207031 30.058594 45.492188 30.042969 45.757812 30.03125 C 46.375 30.003906 47.046875 30 47.734375 29.976562 L 47.71875 29.511719 L 47.382812 29.832031 L 47.40625 29.878906 C 47.417969 29.90625 47.425781 29.957031 47.425781 30.042969 C 47.425781 30.136719 47.414062 30.269531 47.378906 30.441406 C 47.355469 30.5625 47.261719 30.816406 47.140625 31.050781 C 47.023438 31.289062 46.882812 31.527344 46.785156 31.644531 L 46.785156 31.648438 C 46.707031 31.75 46.566406 31.921875 46.4375 32.117188 C 46.375 32.210938 46.308594 32.316406 46.257812 32.429688 C 46.207031 32.546875 46.160156 32.671875 46.152344 32.832031 C 46.140625 33.035156 46.261719 33.222656 46.453125 33.292969 C 46.609375 33.351562 46.734375 33.398438 46.855469 33.4375 C 46.976562 33.476562 47.097656 33.507812 47.246094 33.507812 C 47.355469 33.511719 47.472656 33.484375 47.570312 33.445312 C 47.722656 33.378906 47.824219 33.292969 47.929688 33.203125 C 48.035156 33.113281 48.144531 33.007812 48.292969 32.875 C 48.605469 32.585938 48.855469 32.261719 49.082031 31.949219 C 49.308594 31.636719 49.515625 31.332031 49.726562 31.078125 C 50.160156 30.554688 50.542969 30.058594 50.984375 29.609375 L 50.984375 29.613281 C 51.042969 29.550781 51.148438 29.453125 51.257812 29.335938 L 50.910156 29.023438 L 51.089844 29.453125 C 51.539062 29.269531 51.949219 28.960938 52.261719 28.570312 C 52.566406 28.175781 52.777344 27.6875 52.777344 27.148438 C 52.777344 26.996094 52.761719 26.839844 52.722656 26.679688 L 52.273438 26.789062 L 51.820312 26.894531 C 51.839844 26.980469 51.851562 27.066406 51.851562 27.148438 C 51.851562 27.4375 51.734375 27.730469 51.53125 27.992188 C 51.328125 28.253906 51.035156 28.472656 50.738281 28.59375 C 50.671875 28.621094 50.617188 28.660156 50.570312 28.710938 C 50.496094 28.789062 50.410156 28.871094 50.328125 28.953125 L 50.324219 28.957031 C 49.832031 29.457031 49.429688 29.976562 49.011719 30.484375 C 48.757812 30.789062 48.542969 31.109375 48.328125 31.40625 C 48.117188 31.703125 47.902344 31.972656 47.667969 32.183594 C 47.460938 32.371094 47.328125 32.5 47.253906 32.554688 L 47.21875 32.582031 L 47.210938 32.585938 L 47.246094 32.664062 L 47.246094 32.578125 L 47.210938 32.585938 L 47.246094 32.664062 L 47.246094 32.578125 L 47.246094 32.59375 L 47.246094 32.578125 L 47.246094 32.59375 L 47.246094 32.578125 C 47.246094 32.582031 47.203125 32.574219 47.121094 32.546875 C 47.042969 32.519531 46.925781 32.476562 46.777344 32.421875 L 46.613281 32.855469 L 47.078125 32.878906 L 47.039062 32.878906 L 47.078125 32.886719 L 47.078125 32.878906 L 47.039062 32.878906 L 47.078125 32.886719 C 47.078125 32.882812 47.089844 32.839844 47.117188 32.789062 C 47.15625 32.707031 47.226562 32.601562 47.300781 32.5 C 47.375 32.398438 47.453125 32.300781 47.519531 32.21875 C 47.675781 32.015625 47.832031 31.75 47.972656 31.464844 C 48.113281 31.179688 48.234375 30.894531 48.289062 30.628906 C 48.332031 30.410156 48.355469 30.222656 48.355469 30.042969 C 48.355469 29.878906 48.335938 29.722656 48.285156 29.578125 C 48.234375 29.429688 48.15625 29.300781 48.058594 29.195312 C 47.964844 29.097656 47.839844 29.042969 47.707031 29.050781 C 47.035156 29.070312 46.359375 29.070312 45.710938 29.105469 C 45.449219 29.117188 45.179688 29.128906 44.910156 29.128906 C 44.546875 29.128906 44.191406 29.105469 43.863281 29.042969 C 43.539062 28.976562 43.25 28.871094 43.011719 28.707031 C 42.808594 28.570312 42.675781 28.410156 42.582031 28.234375 C 42.492188 28.058594 42.441406 27.855469 42.433594 27.636719 L 41.96875 27.65625 L 41.878906 28.113281 C 42.226562 28.179688 42.59375 28.226562 42.964844 28.226562 C 43.402344 28.226562 43.847656 28.164062 44.273438 27.996094 C 44.453125 27.925781 44.605469 27.824219 44.730469 27.714844 C 44.917969 27.558594 45.050781 27.390625 45.171875 27.253906 C 45.292969 27.117188 45.394531 27.015625 45.496094 26.953125 C 45.625 26.871094 45.765625 26.839844 45.941406 26.835938 C 46.117188 26.835938 46.324219 26.878906 46.542969 26.941406 C 46.761719 27.007812 46.984375 27.09375 47.207031 27.175781 C 47.757812 27.382812 48.351562 27.546875 48.972656 27.546875 C 49.53125 27.546875 50.117188 27.402344 50.640625 27.027344 C 51.078125 26.710938 51.433594 26.347656 51.785156 26.097656 L 51.511719 25.722656 L 51.234375 26.09375 C 51.386719 26.207031 51.515625 26.328125 51.613281 26.457031 C 51.710938 26.585938 51.777344 26.726562 51.820312 26.898438 L 51.820312 26.894531 L 52.273438 26.789062 " fill-opacity="1" fill-rule="nonzero"/><path fill="#070808" d="M 47.121094 28.332031 C 47.625 28.867188 48.140625 29.214844 48.625 29.417969 C 49.109375 29.625 49.558594 29.695312 49.929688 29.695312 C 50.5625 29.691406 50.964844 29.503906 51.007812 29.484375 L 50.808594 29.066406 L 50.960938 29.503906 C 51.441406 29.335938 51.882812 29.027344 52.214844 28.625 C 52.546875 28.222656 52.777344 27.714844 52.777344 27.152344 C 52.777344 26.996094 52.761719 26.839844 52.722656 26.679688 C 52.652344 26.382812 52.519531 26.117188 52.355469 25.898438 C 52.1875 25.675781 51.992188 25.5 51.785156 25.347656 C 51.621094 25.226562 51.398438 25.226562 51.238281 25.34375 C 50.804688 25.660156 50.453125 26.019531 50.101562 26.269531 C 49.746094 26.519531 49.382812 26.613281 48.972656 26.617188 C 48.523438 26.617188 48.023438 26.488281 47.53125 26.304688 C 47.320312 26.226562 47.074219 26.128906 46.808594 26.050781 C 46.542969 25.972656 46.253906 25.90625 45.941406 25.90625 C 45.636719 25.90625 45.300781 25.976562 45.003906 26.164062 C 44.699219 26.359375 44.511719 26.601562 44.351562 26.78125 C 44.269531 26.871094 44.195312 26.949219 44.128906 27.007812 C 44.058594 27.066406 44 27.105469 43.933594 27.128906 C 43.644531 27.246094 43.3125 27.296875 42.964844 27.296875 C 42.667969 27.296875 42.359375 27.257812 42.058594 27.199219 C 41.917969 27.171875 41.777344 27.210938 41.667969 27.300781 C 41.558594 27.394531 41.5 27.53125 41.503906 27.671875 C 41.519531 28.007812 41.597656 28.347656 41.757812 28.660156 C 41.917969 28.972656 42.164062 29.257812 42.492188 29.476562 C 42.859375 29.726562 43.269531 29.871094 43.683594 29.953125 C 44.09375 30.035156 44.511719 30.058594 44.910156 30.058594 C 45.207031 30.058594 45.492188 30.042969 45.757812 30.03125 C 46.375 30.003906 47.046875 30 47.738281 29.976562 C 47.992188 29.972656 48.195312 29.753906 48.183594 29.5 C 48.175781 29.242188 47.964844 29.042969 47.707031 29.050781 C 47.035156 29.070312 46.359375 29.070312 45.710938 29.105469 C 45.449219 29.117188 45.179688 29.128906 44.910156 29.128906 C 44.546875 29.128906 44.191406 29.105469 43.863281 29.042969 C 43.539062 28.976562 43.25 28.871094 43.011719 28.707031 C 42.808594 28.570312 42.675781 28.410156 42.582031 28.234375 C 42.492188 28.058594 42.441406 27.855469 42.433594 27.636719 L 41.96875 27.65625 L 41.878906 28.113281 C 42.226562 28.179688 42.59375 28.226562 42.964844 28.226562 C 43.402344 28.226562 43.847656 28.164062 44.273438 27.996094 C 44.453125 27.925781 44.605469 27.824219 44.730469 27.714844 C 44.917969 27.558594 45.050781 27.390625 45.171875 27.253906 C 45.292969 27.117188 45.394531 27.015625 45.496094 26.953125 C 45.625 26.871094 45.765625 26.839844 45.941406 26.835938 C 46.117188 26.835938 46.324219 26.878906 46.542969 26.941406 C 46.761719 27.007812 46.984375 27.09375 47.207031 27.175781 C 47.757812 27.382812 48.351562 27.546875 48.972656 27.546875 C 49.53125 27.546875 50.117188 27.402344 50.640625 27.027344 C 51.078125 26.710938 51.433594 26.347656 51.785156 26.097656 L 51.511719 25.722656 L 51.234375 26.09375 C 51.386719 26.207031 51.515625 26.328125 51.613281 26.457031 C 51.710938 26.585938 51.777344 26.726562 51.820312 26.898438 L 51.820312 26.894531 C 51.839844 26.984375 51.851562 27.066406 51.851562 27.152344 C 51.851562 27.453125 51.722656 27.761719 51.5 28.03125 C 51.28125 28.300781 50.964844 28.519531 50.652344 28.625 L 50.605469 28.644531 L 50.710938 28.863281 L 50.613281 28.644531 L 50.605469 28.644531 L 50.710938 28.863281 L 50.613281 28.644531 C 50.613281 28.644531 50.597656 28.648438 50.566406 28.664062 C 50.46875 28.695312 50.242188 28.765625 49.929688 28.765625 C 49.667969 28.761719 49.351562 28.71875 48.988281 28.5625 C 48.628906 28.410156 48.222656 28.144531 47.792969 27.691406 C 47.617188 27.503906 47.324219 27.5 47.136719 27.675781 C 46.949219 27.851562 46.945312 28.144531 47.121094 28.332031 " fill-opacity="1" fill-rule="nonzero"/><path fill="#070808" d="M 62.730469 45.703125 L 56.347656 45.703125 C 56.097656 45.703125 54.578125 45.667969 53.183594 45.046875 C 52.488281 44.738281 51.828125 44.289062 51.34375 43.648438 C 50.863281 43.003906 50.539062 42.160156 50.539062 40.984375 C 50.535156 40.761719 50.550781 40.527344 50.574219 40.285156 C 50.601562 40.027344 50.414062 39.800781 50.160156 39.773438 C 49.90625 39.75 49.675781 39.933594 49.652344 40.1875 C 49.621094 40.464844 49.609375 40.730469 49.609375 40.984375 C 49.605469 42.335938 49.996094 43.40625 50.601562 44.207031 C 51.054688 44.808594 51.621094 45.257812 52.210938 45.597656 C 53.097656 46.101562 54.042969 46.355469 54.808594 46.488281 C 55.574219 46.621094 56.167969 46.632812 56.347656 46.632812 C 56.378906 46.632812 56.398438 46.632812 56.402344 46.632812 L 56.390625 46.167969 L 56.390625 46.632812 L 62.730469 46.632812 C 62.988281 46.632812 63.195312 46.421875 63.195312 46.167969 C 63.195312 45.910156 62.988281 45.703125 62.730469 45.703125 " fill-opacity="1" fill-rule="nonzero"/></g></g></g></g><g fill="#000000" fill-opacity="1"><g transform="translate(80.113966, 36.706998)"><g><path d="M 16.925781 0 L 22.082031 0 L 12.769531 -19.851562 L 8.644531 -19.851562 L -0.640625 0 L 4.601562 0 L 6.355469 -4.097656 L 15.167969 -4.097656 Z M 8.058594 -8.03125 L 10.761719 -14.304688 L 13.46875 -8.03125 Z M 8.058594 -8.03125 "/></g></g></g><g fill="#000000" fill-opacity="1"><g transform="translate(101.552089, 36.706998)"><g><path d="M 6.246094 0 L 11.542969 0 L 11.542969 -15.613281 L 17.453125 -15.613281 L 17.453125 -19.851562 L 0.335938 -19.851562 L 0.335938 -15.613281 L 6.246094 -15.613281 Z M 6.246094 0 "/></g></g></g><g fill="#000000" fill-opacity="1"><g transform="translate(119.338208, 36.706998)"><g><path d="M 11.433594 0.25 C 14.023438 0.25 16.671875 -0.585938 18.152344 -1.925781 L 16.5625 -5.632812 C 14.945312 -4.460938 13.273438 -3.875 11.542969 -3.875 C 8.335938 -3.875 6.582031 -5.9375 6.582031 -9.953125 C 6.582031 -13.941406 8.335938 -15.976562 11.542969 -15.976562 C 13.273438 -15.976562 14.945312 -15.390625 16.5625 -14.21875 L 18.152344 -17.929688 C 16.671875 -19.265625 14.023438 -20.101562 11.433594 -20.101562 C 7.304688 -20.101562 4.15625 -18.347656 2.507812 -15.28125 C 1.671875 -13.746094 1.253906 -11.960938 1.253906 -9.953125 C 1.253906 -5.910156 2.984375 -2.703125 6.050781 -1.03125 C 7.585938 -0.167969 9.367188 0.25 11.433594 0.25 Z M 11.433594 0.25 "/></g></g></g><g fill="#000000" fill-opacity="1"><g transform="translate(138.434585, 36.706998)"><g/></g></g><g fill="#19baaa" fill-opacity="1"><g transform="translate(146.517943, 36.706998)"><g><path d="M 8.976562 0.25 C 14.441406 0.25 17.59375 -2.089844 17.59375 -5.96875 C 17.59375 -8.003906 16.839844 -9.425781 14.777344 -10.539062 C 13.746094 -11.070312 12.324219 -11.542969 10.511719 -11.933594 C 8.78125 -12.324219 7.304688 -12.769531 6.859375 -13.273438 C 6.664062 -13.496094 6.550781 -13.773438 6.550781 -14.109375 C 6.550781 -15.335938 7.808594 -16.117188 9.703125 -16.117188 C 11.628906 -16.117188 13.605469 -15.445312 15.363281 -14.21875 L 16.980469 -17.929688 C 15.445312 -19.238281 12.519531 -20.101562 9.648438 -20.101562 C 6.441406 -20.101562 3.847656 -18.960938 2.480469 -17.007812 C 1.785156 -16.03125 1.449219 -14.917969 1.449219 -13.71875 C 1.449219 -11.597656 2.175781 -10.175781 4.265625 -9.089844 C 5.296875 -8.53125 6.777344 -8.058594 8.644531 -7.695312 C 10.121094 -7.390625 11.152344 -7.054688 11.683594 -6.746094 C 12.210938 -6.414062 12.492188 -5.996094 12.492188 -5.492188 C 12.492188 -4.378906 11.265625 -3.734375 9.035156 -3.734375 C 6.832031 -3.734375 4.601562 -4.40625 2.675781 -5.632812 L 1.03125 -1.925781 C 2.84375 -0.585938 5.996094 0.25 8.976562 0.25 Z M 8.976562 0.25 "/></g></g></g><g fill="#19baaa" fill-opacity="1"><g transform="translate(165.251905, 36.706998)"><g><path d="M 11.433594 0.25 C 14.023438 0.25 16.671875 -0.585938 18.152344 -1.925781 L 16.5625 -5.632812 C 14.945312 -4.460938 13.273438 -3.875 11.542969 -3.875 C 8.335938 -3.875 6.582031 -5.9375 6.582031 -9.953125 C 6.582031 -13.941406 8.335938 -15.976562 11.542969 -15.976562 C 13.273438 -15.976562 14.945312 -15.390625 16.5625 -14.21875 L 18.152344 -17.929688 C 16.671875 -19.265625 14.023438 -20.101562 11.433594 -20.101562 C 7.304688 -20.101562 4.15625 -18.347656 2.507812 -15.28125 C 1.671875 -13.746094 1.253906 -11.960938 1.253906 -9.953125 C 1.253906 -5.910156 2.984375 -2.703125 6.050781 -1.03125 C 7.585938 -0.167969 9.367188 0.25 11.433594 0.25 Z M 11.433594 0.25 "/></g></g></g></svg>