<svg xmlns="http://www.w3.org/2000/svg" xmlns:xlink="http://www.w3.org/1999/xlink" width="250" zoomAndPan="magnify" viewBox="0 0 187.5 53.25" height="71" preserveAspectRatio="xMidYMid meet" version="1.0"><defs><filter x="0%" y="0%" width="100%" height="100%" id="id1"><feColorMatrix values="0 0 0 0 1 0 0 0 0 1 0 0 0 0 1 0 0 0 1 0" color-interpolation-filters="sRGB"/></filter><g/><clipPath id="id2"><path d="M 1.054688 0 L 185.953125 0 L 185.953125 52.511719 L 1.054688 52.511719 Z M 1.054688 0 " clip-rule="nonzero"/></clipPath><clipPath id="id3"><path d="M 1.054688 0 L 90 0 L 90 52.511719 L 1.054688 52.511719 Z M 1.054688 0 " clip-rule="nonzero"/></clipPath><mask id="id4"><g filter="url(#id1)"><rect x="-18.75" width="225" fill="#000000" y="-5.325" height="63.899999" fill-opacity="0.3098"/></g></mask><clipPath id="id5"><path d="M 0.0546875 0 L 79 0 L 79 52.511719 L 0.0546875 52.511719 Z M 0.0546875 0 " clip-rule="nonzero"/></clipPath><clipPath id="id6"><path d="M 0.0546875 0 L 60 0 L 60 52.511719 L 0.0546875 52.511719 Z M 0.0546875 0 " clip-rule="nonzero"/></clipPath><clipPath id="id7"><path d="M 53 0 L 61 0 L 61 9 L 53 9 Z M 53 0 " clip-rule="nonzero"/></clipPath><clipPath id="id8"><path d="M 47 50 L 57 50 L 57 52.511719 L 47 52.511719 Z M 47 50 " clip-rule="nonzero"/></clipPath><clipPath id="id9"><path d="M 0.0546875 51 L 2 51 L 2 52.511719 L 0.0546875 52.511719 Z M 0.0546875 51 " clip-rule="nonzero"/></clipPath><clipPath id="id10"><path d="M 0.0546875 0 L 2 0 L 2 5 L 0.0546875 5 Z M 0.0546875 0 " clip-rule="nonzero"/></clipPath><clipPath id="id11"><path d="M 84 6 L 87.992188 6 L 87.992188 8 L 84 8 Z M 84 6 " clip-rule="nonzero"/></clipPath><clipPath id="id12"><path d="M 1 0 L 49 0 L 49 52.511719 L 1 52.511719 Z M 1 0 " clip-rule="nonzero"/></clipPath><clipPath id="id13"><rect x="0" width="89" y="0" height="53"/></clipPath></defs><g clip-path="url(#id2)"><path fill="#ffffff" d="M 1.054688 0 L 186.445312 0 L 186.445312 60.066406 L 1.054688 60.066406 Z M 1.054688 0 " fill-opacity="1" fill-rule="nonzero"/><path fill="#ffffff" d="M 1.054688 0 L 186.445312 0 L 186.445312 52.652344 L 1.054688 52.652344 Z M 1.054688 0 " fill-opacity="1" fill-rule="nonzero"/><path fill="#fafafa" d="M 1.054688 0 L 186.445312 0 L 186.445312 52.652344 L 1.054688 52.652344 Z M 1.054688 0 " fill-opacity="1" fill-rule="nonzero"/></g><g clip-path="url(#id3)"><g mask="url(#id4)"><g transform="matrix(1, 0, 0, 1, 1, -0.00000000000000563)"><g clip-path="url(#id13)"><g clip-path="url(#id5)"><path fill="#19baaa" d="M 25.09375 80.253906 C -4.554688 80.253906 -28.59375 56.179688 -28.59375 26.488281 C -28.59375 -3.207031 -4.554688 -27.28125 25.09375 -27.28125 C 54.746094 -27.28125 78.78125 -3.207031 78.78125 26.488281 C 78.78125 56.179688 54.746094 80.253906 25.09375 80.253906 " fill-opacity="1" fill-rule="nonzero"/></g><g clip-path="url(#id6)"><path fill="#fafafa" d="M 59.054688 26.488281 C 59.054688 45.269531 43.851562 60.5 25.09375 60.5 C 6.335938 60.5 -8.867188 45.269531 -8.867188 26.488281 C -8.867188 7.703125 6.335938 -7.523438 25.09375 -7.523438 C 43.851562 -7.523438 59.054688 7.703125 59.054688 26.488281 " fill-opacity="1" fill-rule="nonzero"/></g><g clip-path="url(#id7)"><path fill="#070808" d="M 60.503906 8.160156 C 58.984375 5.210938 57.089844 2.453125 54.890625 -0.03125 L 53.964844 0.792969 C 56.097656 3.199219 57.933594 5.871094 59.402344 8.730469 L 60.503906 8.160156 " fill-opacity="1" fill-rule="nonzero"/></g><path fill="#070808" d="M 62.917969 13.90625 C 62.730469 13.347656 62.53125 12.789062 62.324219 12.238281 L 61.164062 12.679688 C 61.367188 13.214844 61.5625 13.753906 61.742188 14.296875 L 62.917969 13.90625 " fill-opacity="1" fill-rule="nonzero"/><path fill="#070808" d="M 64.929688 28.359375 C 64.953125 27.785156 64.964844 27.207031 64.964844 26.628906 C 64.964844 22.746094 64.402344 18.863281 63.300781 15.140625 L 62.113281 15.492188 C 63.179688 19.101562 63.730469 22.867188 63.730469 26.628906 C 63.730469 27.191406 63.714844 27.75 63.691406 28.308594 L 64.929688 28.359375 " fill-opacity="1" fill-rule="nonzero"/><path fill="#070808" d="M 61.546875 42.71875 C 62.972656 39.5 63.984375 36.09375 64.515625 32.609375 L 63.292969 32.421875 C 62.777344 35.792969 61.800781 39.097656 60.414062 42.214844 L 61.546875 42.71875 " fill-opacity="1" fill-rule="nonzero"/><path fill="#070808" d="M 60.378906 45.132812 C 60.523438 44.851562 60.667969 44.570312 60.808594 44.289062 L 59.699219 43.734375 C 59.5625 44.011719 59.425781 44.28125 59.28125 44.550781 L 60.378906 45.132812 " fill-opacity="1" fill-rule="nonzero"/><path fill="#070808" d="M 57.101562 50.355469 C 57.390625 49.964844 57.671875 49.570312 57.945312 49.171875 L 56.925781 48.46875 C 56.660156 48.855469 56.390625 49.238281 56.109375 49.613281 L 57.101562 50.355469 " fill-opacity="1" fill-rule="nonzero"/><g clip-path="url(#id8)"><path fill="#070808" d="M 48.40625 58.894531 C 51.25 56.859375 53.824219 54.445312 56.035156 51.730469 L 55.074219 50.949219 C 52.933594 53.574219 50.441406 55.914062 47.683594 57.886719 L 48.40625 58.894531 " fill-opacity="1" fill-rule="nonzero"/></g><g clip-path="url(#id9)"><path fill="#070808" d="M -5.238281 52.445312 C -3.363281 54.644531 -1.25 56.632812 1.050781 58.371094 L 1.796875 57.378906 C -0.433594 55.695312 -2.480469 53.769531 -4.296875 51.640625 L -5.238281 52.445312 " fill-opacity="1" fill-rule="nonzero"/></g><g clip-path="url(#id10)"><path fill="#070808" d="M 0.90625 -5.265625 C -2.296875 -2.808594 -5.128906 0.132812 -7.464844 3.421875 L -6.457031 4.140625 C -4.191406 0.949219 -1.445312 -1.902344 1.660156 -4.28125 L 0.90625 -5.265625 " fill-opacity="1" fill-rule="nonzero"/></g><path fill="#070808" d="M 65.453125 51.214844 L 66.691406 51.214844 L 66.691406 48.101562 L 65.453125 48.101562 Z M 65.453125 51.214844 " fill-opacity="1" fill-rule="nonzero"/><path fill="#070808" d="M 64.515625 50.277344 L 67.625 50.277344 L 67.625 49.039062 L 64.515625 49.039062 Z M 64.515625 50.277344 " fill-opacity="1" fill-rule="nonzero"/><path fill="#070808" d="M 85.714844 8.644531 L 86.953125 8.644531 L 86.953125 5.53125 L 85.714844 5.53125 Z M 85.714844 8.644531 " fill-opacity="1" fill-rule="nonzero"/><g clip-path="url(#id11)"><path fill="#070808" d="M 84.777344 7.707031 L 87.886719 7.707031 L 87.886719 6.46875 L 84.777344 6.46875 Z M 84.777344 7.707031 " fill-opacity="1" fill-rule="nonzero"/></g><path fill="#070808" d="M 66.671875 2.554688 L 71.652344 2.554688 L 71.652344 1.3125 L 66.671875 1.3125 Z M 66.671875 2.554688 " fill-opacity="1" fill-rule="nonzero"/><path fill="#070808" d="M 67.605469 35.632812 L 72.589844 35.632812 L 72.589844 34.390625 L 67.605469 34.390625 Z M 67.605469 35.632812 " fill-opacity="1" fill-rule="nonzero"/><path fill="#070808" d="M 81.347656 48.996094 L 86.332031 48.996094 L 86.332031 47.753906 L 81.347656 47.753906 Z M 81.347656 48.996094 " fill-opacity="1" fill-rule="nonzero"/><path fill="#070808" d="M 79.792969 21.75 L 79.171875 21.75 C 79.171875 22.050781 79.054688 22.316406 78.855469 22.515625 C 78.660156 22.710938 78.394531 22.832031 78.09375 22.832031 C 77.792969 22.832031 77.527344 22.710938 77.328125 22.515625 C 77.132812 22.316406 77.011719 22.050781 77.011719 21.75 C 77.011719 21.449219 77.132812 21.183594 77.328125 20.988281 C 77.527344 20.789062 77.792969 20.667969 78.09375 20.667969 C 78.394531 20.667969 78.660156 20.789062 78.855469 20.988281 C 79.054688 21.183594 79.171875 21.449219 79.171875 21.75 L 80.410156 21.75 C 80.410156 20.46875 79.375 19.429688 78.09375 19.429688 C 76.8125 19.429688 75.773438 20.46875 75.773438 21.75 C 75.773438 23.035156 76.8125 24.070312 78.09375 24.070312 C 79.375 24.070312 80.410156 23.035156 80.410156 21.75 L 79.792969 21.75 " fill-opacity="1" fill-rule="nonzero"/><g clip-path="url(#id12)"><path fill="#070808" d="M 9.25 56.527344 C 10.945312 52.511719 11.488281 49.125 11.488281 46.441406 C 11.488281 41.800781 9.863281 39.28125 9.828125 39.230469 C 9.804688 39.195312 9.773438 39.160156 9.742188 39.128906 C 6.640625 36.472656 4.800781 33.296875 3.730469 30.167969 C 2.660156 27.039062 2.363281 23.964844 2.363281 21.539062 C 2.363281 20.082031 2.472656 18.859375 2.578125 18.003906 C 2.628906 17.578125 2.683594 17.242188 2.722656 17.015625 C 2.742188 16.902344 2.757812 16.816406 2.769531 16.757812 C 2.773438 16.730469 2.777344 16.707031 2.78125 16.695312 L 2.785156 16.675781 L 2.789062 16.648438 C 3.371094 13.039062 4.667969 10.316406 6.324219 8.238281 C 8.804688 5.128906 12.113281 3.46875 15.070312 2.585938 C 18.027344 1.703125 20.613281 1.601562 21.597656 1.601562 C 21.734375 1.601562 21.84375 1.605469 21.914062 1.605469 C 21.949219 1.609375 21.976562 1.609375 21.992188 1.609375 L 22.105469 1.609375 C 22.179688 1.601562 22.546875 1.566406 23.132812 1.570312 C 24.828125 1.566406 28.335938 1.839844 31.875 3.742188 C 33.644531 4.691406 35.421875 6.046875 36.996094 7.984375 C 38.574219 9.921875 39.953125 12.441406 40.910156 15.738281 L 41.359375 15.609375 L 40.902344 15.695312 L 42.085938 21.949219 L 42.101562 22.007812 C 42.125 22.082031 42.28125 22.503906 43.0625 23.515625 C 43.84375 24.527344 45.257812 26.125 47.804688 28.539062 L 48.125 28.203125 L 47.746094 28.46875 L 47.984375 28.304688 L 47.742188 28.464844 L 47.746094 28.46875 L 47.984375 28.304688 L 47.742188 28.464844 C 47.746094 28.46875 47.769531 28.507812 47.789062 28.558594 C 47.8125 28.609375 47.824219 28.671875 47.824219 28.714844 C 47.824219 28.75 47.820312 28.773438 47.800781 28.804688 L 48.203125 29.042969 L 47.992188 28.625 L 43.738281 30.773438 C 43.667969 30.808594 43.609375 30.859375 43.566406 30.921875 C 43.550781 30.945312 43.484375 31.042969 43.421875 31.203125 C 43.355469 31.363281 43.292969 31.59375 43.292969 31.871094 C 43.292969 32.125 43.351562 32.421875 43.496094 32.726562 C 43.644531 33.03125 43.878906 33.34375 44.226562 33.644531 L 44.226562 33.648438 L 45.144531 34.433594 L 45.449219 34.082031 L 45.085938 34.375 C 45.109375 34.40625 45.109375 34.410156 45.113281 34.453125 C 45.113281 34.511719 45.070312 34.664062 44.957031 34.835938 C 44.792969 35.097656 44.511719 35.390625 44.277344 35.605469 C 44.15625 35.710938 44.050781 35.800781 43.972656 35.863281 C 43.933594 35.894531 43.90625 35.917969 43.882812 35.933594 L 43.863281 35.949219 L 43.855469 35.953125 C 43.742188 36.039062 43.675781 36.167969 43.667969 36.308594 C 43.660156 36.445312 43.71875 36.582031 43.820312 36.675781 L 44.996094 37.734375 L 45.308594 37.386719 L 44.910156 37.625 L 45.023438 37.558594 L 44.898438 37.605469 L 44.910156 37.625 L 45.023438 37.558594 L 44.898438 37.605469 L 44.921875 37.59375 L 44.894531 37.59375 L 44.898438 37.605469 L 44.921875 37.59375 L 44.894531 37.59375 L 44.984375 37.59375 L 44.910156 37.550781 L 44.894531 37.59375 L 44.984375 37.59375 L 44.910156 37.550781 L 44.894531 37.570312 L 43.894531 39.488281 C 43.84375 39.585938 43.832031 39.695312 43.855469 39.804688 C 43.855469 39.804688 43.863281 39.839844 43.878906 39.914062 C 43.929688 40.171875 44.066406 40.84375 44.191406 41.632812 C 44.3125 42.421875 44.417969 43.332031 44.417969 44.039062 C 44.417969 44.257812 44.410156 44.453125 44.386719 44.617188 L 44.847656 44.675781 L 44.410156 44.527344 L 44.4375 44.539062 L 44.410156 44.527344 L 44.4375 44.539062 L 44.410156 44.527344 C 44.402344 44.550781 44.265625 44.933594 43.984375 45.3125 C 43.847656 45.5 43.675781 45.6875 43.472656 45.832031 C 43.273438 45.980469 43.046875 46.089844 42.777344 46.132812 L 42.855469 46.59375 L 42.878906 46.128906 L 33.6875 45.703125 C 33.640625 45.699219 33.589844 45.707031 33.542969 45.71875 C 33.507812 45.730469 32.792969 45.925781 32.039062 46.539062 C 31.667969 46.847656 31.28125 47.265625 30.988281 47.816406 C 30.691406 48.363281 30.484375 49.046875 30.449219 49.863281 L 30.449219 49.867188 L 30.175781 60.011719 C 30.167969 60.269531 30.371094 60.480469 30.628906 60.488281 C 30.886719 60.496094 31.097656 60.292969 31.105469 60.039062 L 31.378906 49.894531 L 30.914062 49.878906 L 31.378906 49.898438 C 31.40625 49.21875 31.574219 48.683594 31.804688 48.257812 C 32.148438 47.617188 32.648438 47.203125 33.066406 46.949219 C 33.277344 46.824219 33.464844 46.738281 33.597656 46.683594 C 33.660156 46.65625 33.714844 46.640625 33.746094 46.628906 L 33.78125 46.617188 L 33.789062 46.613281 L 33.761719 46.507812 L 33.789062 46.613281 L 33.761719 46.507812 L 33.789062 46.613281 L 33.667969 46.167969 L 33.644531 46.628906 L 42.835938 47.054688 C 42.867188 47.058594 42.898438 47.054688 42.933594 47.050781 C 43.375 46.976562 43.75 46.792969 44.050781 46.5625 C 44.503906 46.222656 44.804688 45.792969 45 45.449219 C 45.195312 45.101562 45.28125 44.84375 45.289062 44.824219 C 45.300781 44.792969 45.304688 44.765625 45.308594 44.734375 C 45.335938 44.515625 45.347656 44.285156 45.347656 44.039062 C 45.347656 43.132812 45.199219 42.035156 45.054688 41.152344 C 44.90625 40.269531 44.761719 39.609375 44.761719 39.605469 L 44.308594 39.703125 L 44.71875 39.917969 L 45.71875 38.003906 L 45.308594 37.785156 L 45.707031 38.023438 C 45.792969 37.878906 45.824219 37.722656 45.824219 37.59375 C 45.820312 37.335938 45.726562 37.1875 45.707031 37.148438 C 45.679688 37.105469 45.652344 37.074219 45.617188 37.039062 L 44.441406 35.984375 L 44.132812 36.328125 L 44.40625 36.703125 C 44.417969 36.695312 44.792969 36.417969 45.183594 36.019531 C 45.378906 35.820312 45.578125 35.589844 45.742188 35.335938 C 45.902344 35.078125 46.035156 34.792969 46.039062 34.453125 C 46.042969 34.230469 45.964844 33.984375 45.808594 33.792969 L 45.75 33.730469 L 44.832031 32.941406 L 44.835938 32.945312 C 44.570312 32.710938 44.417969 32.5 44.332031 32.320312 C 44.246094 32.144531 44.222656 31.996094 44.222656 31.871094 C 44.222656 31.734375 44.253906 31.621094 44.285156 31.546875 C 44.300781 31.507812 44.3125 31.480469 44.320312 31.464844 L 44.332031 31.449219 L 44.308594 31.4375 L 44.328125 31.453125 L 44.332031 31.449219 L 44.308594 31.4375 L 44.328125 31.453125 L 44.074219 31.28125 L 44.324219 31.457031 L 44.328125 31.453125 L 44.074219 31.28125 L 44.324219 31.457031 L 43.945312 31.191406 L 44.15625 31.605469 L 48.410156 29.457031 C 48.492188 29.414062 48.554688 29.351562 48.601562 29.277344 C 48.710938 29.089844 48.753906 28.886719 48.753906 28.714844 C 48.75 28.480469 48.6875 28.296875 48.632812 28.164062 C 48.574219 28.035156 48.515625 27.953125 48.503906 27.933594 L 48.445312 27.863281 C 45.917969 25.472656 44.539062 23.90625 43.796875 22.945312 C 43.425781 22.464844 43.214844 22.140625 43.101562 21.945312 C 43.046875 21.84375 43.011719 21.777344 42.996094 21.742188 L 42.980469 21.707031 L 42.769531 21.789062 L 42.980469 21.714844 L 42.980469 21.707031 L 42.769531 21.789062 L 42.980469 21.714844 L 42.542969 21.863281 L 43 21.773438 L 41.8125 15.523438 L 41.800781 15.476562 C 40.816406 12.074219 39.378906 9.433594 37.71875 7.394531 C 35.226562 4.335938 32.242188 2.644531 29.554688 1.722656 C 26.867188 0.796875 24.476562 0.636719 23.132812 0.636719 C 22.421875 0.636719 22.003906 0.683594 21.992188 0.683594 L 22.039062 1.148438 L 22.0625 0.683594 C 22.058594 0.683594 21.894531 0.671875 21.597656 0.671875 C 20.207031 0.675781 15.921875 0.851562 11.636719 2.914062 C 9.496094 3.949219 7.355469 5.457031 5.597656 7.660156 C 3.839844 9.859375 2.476562 12.75 1.871094 16.503906 L 2.332031 16.578125 L 1.878906 16.480469 C 1.871094 16.503906 1.4375 18.53125 1.4375 21.539062 C 1.4375 24.039062 1.738281 27.214844 2.851562 30.46875 C 3.964844 33.722656 5.894531 37.058594 9.136719 39.835938 L 9.441406 39.484375 L 9.050781 39.738281 L 9.179688 39.652344 L 9.050781 39.738281 L 9.179688 39.652344 L 9.050781 39.738281 C 9.0625 39.757812 10.558594 42.089844 10.558594 46.441406 C 10.558594 49 10.042969 52.257812 8.394531 56.167969 C 8.296875 56.402344 8.40625 56.675781 8.644531 56.777344 C 8.878906 56.875 9.152344 56.765625 9.25 56.527344 " fill-opacity="1" fill-rule="nonzero"/></g><path fill="#070808" d="M 20.847656 6.972656 C 20.945312 7.144531 21.042969 7.308594 21.109375 7.457031 C 21.171875 7.609375 21.207031 7.746094 21.207031 7.867188 L 21.203125 7.9375 C 21.175781 8.191406 21.363281 8.421875 21.617188 8.449219 C 21.871094 8.476562 22.101562 8.289062 22.128906 8.035156 C 22.132812 7.980469 22.136719 7.921875 22.136719 7.867188 C 22.136719 7.570312 22.054688 7.308594 21.960938 7.085938 C 21.859375 6.863281 21.746094 6.671875 21.65625 6.511719 C 21.527344 6.289062 21.242188 6.214844 21.019531 6.339844 C 20.796875 6.46875 20.722656 6.75 20.847656 6.972656 " fill-opacity="1" fill-rule="nonzero"/><path fill="#070808" d="M 7.195312 26.78125 C 7.261719 26.785156 7.332031 26.789062 7.398438 26.789062 C 8 26.785156 8.589844 26.550781 9.015625 26.128906 C 9.195312 25.949219 9.195312 25.652344 9.015625 25.472656 C 8.835938 25.289062 8.539062 25.289062 8.359375 25.472656 C 8.132812 25.703125 7.738281 25.863281 7.398438 25.859375 C 7.359375 25.859375 7.320312 25.859375 7.285156 25.855469 C 7.027344 25.832031 6.800781 26.015625 6.777344 26.273438 C 6.75 26.527344 6.9375 26.753906 7.195312 26.78125 " fill-opacity="1" fill-rule="nonzero"/><path fill="#070808" d="M 11.351562 28.035156 L 11.675781 28.371094 C 11.835938 28.214844 11.953125 28.113281 12.03125 28.066406 C 12.113281 28.019531 12.148438 28.007812 12.246094 28.007812 C 12.304688 28.003906 12.390625 28.015625 12.507812 28.042969 C 12.9375 28.148438 13.414062 28.226562 13.898438 28.226562 C 14.335938 28.226562 14.78125 28.164062 15.207031 27.996094 C 15.390625 27.925781 15.539062 27.824219 15.664062 27.714844 C 15.851562 27.558594 15.988281 27.390625 16.109375 27.253906 C 16.226562 27.117188 16.332031 27.015625 16.429688 26.953125 C 16.5625 26.871094 16.699219 26.839844 16.878906 26.835938 C 17.054688 26.835938 17.261719 26.878906 17.480469 26.941406 C 17.695312 27.007812 17.921875 27.09375 18.140625 27.175781 C 18.691406 27.382812 19.289062 27.546875 19.90625 27.546875 C 20.46875 27.546875 21.050781 27.402344 21.574219 27.027344 C 22 26.722656 22.34375 26.375 22.679688 26.125 C 22.847656 26 23.011719 25.898438 23.175781 25.828125 C 23.34375 25.757812 23.511719 25.714844 23.703125 25.710938 L 23.757812 25.710938 C 24.210938 25.710938 24.671875 25.847656 25.164062 26.039062 C 25.660156 26.226562 26.179688 26.460938 26.773438 26.589844 C 27.054688 26.648438 27.355469 26.675781 27.664062 26.675781 C 28.140625 26.675781 28.636719 26.613281 29.105469 26.496094 C 29.578125 26.382812 30.023438 26.214844 30.402344 25.988281 C 30.746094 25.78125 31.027344 25.546875 31.253906 25.28125 C 31.589844 24.882812 31.789062 24.429688 31.90625 23.960938 C 32.023438 23.492188 32.066406 23.003906 32.09375 22.5 L 31.632812 22.476562 L 31.667969 22.9375 C 31.882812 22.921875 32.09375 22.914062 32.308594 22.914062 C 32.828125 22.914062 33.351562 22.953125 33.878906 22.953125 C 34.46875 22.953125 35.074219 22.902344 35.65625 22.652344 C 36.238281 22.402344 36.773438 21.945312 37.195312 21.226562 C 37.59375 20.554688 37.789062 19.824219 37.789062 19.105469 C 37.789062 17.964844 37.304688 16.851562 36.4375 15.996094 L 36.109375 16.324219 L 36.503906 16.574219 C 36.722656 16.222656 36.808594 15.8125 36.808594 15.410156 C 36.808594 14.875 36.660156 14.335938 36.386719 13.878906 L 36.386719 13.875 C 36.285156 13.707031 36.152344 13.578125 36.019531 13.496094 C 35.921875 13.433594 35.828125 13.398438 35.761719 13.371094 C 35.652344 13.328125 35.597656 13.308594 35.585938 13.296875 C 35.570312 13.285156 35.574219 13.300781 35.546875 13.246094 C 35.464844 13.066406 35.4375 12.847656 35.410156 12.570312 C 35.378906 12.292969 35.34375 11.953125 35.167969 11.601562 C 35.007812 11.273438 34.800781 10.996094 34.550781 10.777344 C 34.300781 10.558594 34.011719 10.394531 33.699219 10.292969 C 33.503906 10.230469 33.378906 10.179688 33.308594 10.140625 C 33.257812 10.109375 33.238281 10.089844 33.222656 10.074219 C 33.195312 10.050781 33.167969 10.003906 33.117188 9.886719 C 33.0625 9.769531 32.996094 9.59375 32.890625 9.367188 C 32.640625 8.839844 32.242188 8.328125 31.726562 7.964844 C 31.546875 7.835938 31.355469 7.761719 31.183594 7.714844 C 30.921875 7.648438 30.6875 7.632812 30.507812 7.601562 C 30.328125 7.570312 30.210938 7.53125 30.128906 7.46875 C 29.878906 7.285156 29.648438 7.066406 29.382812 6.847656 C 29.113281 6.625 28.8125 6.402344 28.429688 6.238281 C 27.964844 6.039062 27.476562 5.949219 26.992188 5.949219 C 26.714844 5.949219 26.4375 5.976562 26.164062 6.03125 C 25.875 6.089844 25.664062 6.203125 25.527344 6.269531 C 25.460938 6.304688 25.410156 6.328125 25.375 6.339844 C 25.335938 6.351562 25.316406 6.355469 25.289062 6.355469 C 25.257812 6.355469 25.207031 6.351562 25.125 6.320312 C 24.921875 6.246094 24.734375 6.132812 24.492188 6.007812 C 24.25 5.882812 23.949219 5.753906 23.566406 5.695312 C 23.394531 5.667969 23.242188 5.652344 23.097656 5.652344 C 22.789062 5.652344 22.53125 5.722656 22.320312 5.8125 C 22.105469 5.898438 21.929688 5.988281 21.683594 6.082031 C 21.484375 6.15625 21.332031 6.179688 21.183594 6.179688 C 21.042969 6.179688 20.898438 6.15625 20.722656 6.117188 C 20.546875 6.078125 20.34375 6.019531 20.097656 5.972656 C 19.800781 5.910156 19.488281 5.871094 19.171875 5.871094 C 18.714844 5.871094 18.238281 5.949219 17.792969 6.15625 C 17.445312 6.316406 17.226562 6.5625 17.054688 6.761719 C 16.882812 6.964844 16.746094 7.117188 16.621094 7.191406 C 16.550781 7.234375 16.523438 7.234375 16.472656 7.238281 C 16.417969 7.238281 16.328125 7.21875 16.195312 7.175781 C 16.066406 7.132812 15.90625 7.070312 15.703125 7.027344 C 15.566406 6.992188 15.425781 6.980469 15.292969 6.980469 C 15.046875 6.980469 14.824219 7.027344 14.621094 7.089844 C 14.417969 7.152344 14.234375 7.226562 14.050781 7.296875 C 13.625 7.464844 13.324219 7.800781 13.117188 8.152344 C 12.914062 8.511719 12.792969 8.90625 12.761719 9.285156 L 13.222656 9.324219 L 13.3125 8.867188 C 12.886719 8.785156 12.519531 8.722656 12.152344 8.71875 C 11.839844 8.71875 11.527344 8.769531 11.222656 8.894531 C 10.917969 9.019531 10.625 9.210938 10.316406 9.472656 C 10.058594 9.6875 9.871094 9.902344 9.726562 10.109375 C 9.511719 10.417969 9.414062 10.707031 9.335938 10.929688 C 9.257812 11.15625 9.203125 11.304688 9.082031 11.464844 C 9.042969 11.523438 8.9375 11.601562 8.765625 11.683594 C 8.601562 11.765625 8.386719 11.851562 8.167969 12.003906 C 7.753906 12.300781 7.34375 12.710938 7.132812 13.257812 C 7.007812 13.589844 7.007812 13.886719 6.992188 14.113281 C 6.976562 14.34375 6.953125 14.496094 6.878906 14.628906 C 6.792969 14.792969 6.652344 14.957031 6.488281 15.140625 C 6.328125 15.328125 6.136719 15.539062 5.980469 15.8125 C 5.671875 16.355469 5.46875 16.980469 5.421875 17.617188 L 5.882812 17.652344 L 5.421875 17.609375 L 5.421875 17.664062 C 5.421875 17.710938 5.421875 17.75 5.425781 17.800781 C 5.441406 17.980469 5.472656 18.273438 5.523438 18.546875 C 5.550781 18.6875 5.578125 18.816406 5.625 18.941406 C 5.648438 19.003906 5.671875 19.066406 5.726562 19.144531 C 5.753906 19.183594 5.789062 19.234375 5.855469 19.28125 C 5.917969 19.332031 6.027344 19.382812 6.15625 19.382812 C 6.25 19.382812 6.339844 19.355469 6.402344 19.320312 L 6.175781 18.914062 L 5.945312 18.507812 C 5.921875 18.523438 5.898438 18.535156 5.863281 18.566406 C 5.84375 18.582031 5.820312 18.601562 5.785156 18.648438 C 5.765625 18.667969 5.746094 18.699219 5.726562 18.742188 C 5.707031 18.789062 5.6875 18.851562 5.6875 18.933594 C 5.683594 19.039062 5.734375 19.167969 5.804688 19.246094 C 5.855469 19.304688 5.910156 19.335938 5.949219 19.355469 C 6.015625 19.386719 6.058594 19.390625 6.089844 19.398438 C 6.121094 19.402344 6.140625 19.402344 6.160156 19.402344 C 6.222656 19.402344 6.246094 19.394531 6.273438 19.390625 C 6.3125 19.382812 6.339844 19.375 6.378906 19.359375 C 6.402344 19.351562 6.421875 19.34375 6.460938 19.320312 C 6.480469 19.308594 6.507812 19.296875 6.550781 19.253906 C 6.574219 19.234375 6.601562 19.207031 6.632812 19.15625 C 6.664062 19.105469 6.703125 19.023438 6.703125 18.914062 C 6.703125 18.828125 6.675781 18.734375 6.632812 18.667969 C 6.554688 18.550781 6.476562 18.511719 6.429688 18.488281 C 6.351562 18.457031 6.316406 18.453125 6.285156 18.449219 C 6.257812 18.445312 6.238281 18.445312 6.222656 18.445312 C 6.179688 18.445312 6.152344 18.449219 6.117188 18.453125 C 6.03125 18.464844 5.949219 18.496094 5.882812 18.554688 C 5.609375 18.78125 5.425781 19.085938 5.304688 19.414062 C 5.183594 19.746094 5.128906 20.105469 5.128906 20.476562 C 5.128906 20.949219 5.222656 21.433594 5.445312 21.867188 C 5.660156 22.296875 6.019531 22.683594 6.523438 22.875 L 6.691406 22.445312 L 6.496094 22.019531 C 6.128906 22.1875 5.859375 22.480469 5.699219 22.808594 C 5.539062 23.140625 5.476562 23.503906 5.476562 23.867188 C 5.480469 24.464844 5.644531 25.074219 5.929688 25.597656 C 6.074219 25.855469 6.25 26.09375 6.460938 26.292969 C 6.671875 26.492188 6.917969 26.652344 7.207031 26.730469 L 7.332031 26.285156 L 7.03125 25.929688 C 6.808594 26.117188 6.644531 26.34375 6.539062 26.585938 C 6.433594 26.828125 6.390625 27.082031 6.390625 27.328125 C 6.390625 27.683594 6.476562 28.027344 6.609375 28.34375 C 6.746094 28.660156 6.925781 28.953125 7.132812 29.207031 L 7.1875 29.261719 C 7.207031 29.277344 7.410156 29.453125 7.75 29.632812 C 8.089844 29.808594 8.566406 29.992188 9.140625 29.996094 C 9.554688 29.996094 10.023438 29.890625 10.472656 29.617188 C 10.921875 29.34375 11.355469 28.910156 11.746094 28.28125 L 11.351562 28.035156 L 11.675781 28.371094 L 11.351562 28.035156 L 10.960938 27.789062 C 10.625 28.320312 10.292969 28.636719 9.988281 28.820312 C 9.6875 29.003906 9.40625 29.0625 9.140625 29.066406 C 8.777344 29.066406 8.433594 28.941406 8.179688 28.808594 C 8.054688 28.742188 7.953125 28.675781 7.886719 28.628906 C 7.851562 28.605469 7.828125 28.585938 7.8125 28.574219 L 7.796875 28.558594 L 7.792969 28.558594 L 7.660156 28.714844 L 7.792969 28.558594 L 7.660156 28.714844 L 7.792969 28.558594 L 7.492188 28.910156 L 7.851562 28.617188 C 7.699219 28.429688 7.5625 28.210938 7.464844 27.984375 C 7.371094 27.757812 7.316406 27.527344 7.316406 27.328125 C 7.316406 27.191406 7.34375 27.066406 7.390625 26.953125 C 7.4375 26.84375 7.511719 26.742188 7.632812 26.640625 C 7.761719 26.53125 7.824219 26.355469 7.785156 26.1875 C 7.75 26.019531 7.625 25.882812 7.457031 25.835938 C 7.347656 25.804688 7.222656 25.734375 7.097656 25.617188 C 6.90625 25.441406 6.726562 25.160156 6.601562 24.847656 C 6.476562 24.53125 6.40625 24.179688 6.40625 23.867188 C 6.40625 23.613281 6.453125 23.386719 6.535156 23.21875 C 6.621094 23.050781 6.722656 22.941406 6.886719 22.863281 C 7.054688 22.785156 7.160156 22.613281 7.15625 22.429688 C 7.148438 22.242188 7.03125 22.078125 6.859375 22.007812 C 6.605469 21.910156 6.414062 21.71875 6.269531 21.445312 C 6.128906 21.171875 6.054688 20.820312 6.054688 20.476562 C 6.054688 20.207031 6.101562 19.945312 6.179688 19.734375 C 6.253906 19.519531 6.367188 19.359375 6.472656 19.273438 L 6.179688 18.914062 L 6.234375 19.375 L 6.242188 19.375 L 6.222656 19.140625 L 6.222656 19.375 L 6.242188 19.375 L 6.222656 19.140625 L 6.222656 19.375 L 6.222656 18.957031 L 6.125 19.363281 C 6.1875 19.375 6.207031 19.371094 6.222656 19.375 L 6.222656 18.957031 L 6.125 19.363281 L 6.234375 18.917969 L 5.96875 19.289062 C 6.046875 19.34375 6.09375 19.355469 6.125 19.363281 L 6.234375 18.917969 L 5.96875 19.289062 L 6.234375 18.914062 L 5.84375 19.15625 C 5.882812 19.222656 5.929688 19.265625 5.96875 19.289062 L 6.234375 18.914062 L 5.84375 19.15625 L 6.234375 18.914062 L 5.773438 18.914062 C 5.773438 18.996094 5.800781 19.089844 5.84375 19.15625 L 6.234375 18.914062 L 5.773438 18.914062 L 6.234375 18.914062 L 5.8125 18.730469 C 5.792969 18.777344 5.773438 18.839844 5.773438 18.914062 L 6.234375 18.914062 L 5.8125 18.730469 L 6.234375 18.910156 L 5.917969 18.578125 C 5.890625 18.605469 5.851562 18.640625 5.8125 18.730469 L 6.234375 18.910156 L 5.917969 18.578125 L 6.21875 18.898438 L 6.011719 18.507812 C 5.996094 18.519531 5.96875 18.527344 5.917969 18.578125 L 6.21875 18.898438 L 6.011719 18.507812 L 6.179688 18.820312 L 6.0625 18.488281 C 6.050781 18.492188 6.042969 18.492188 6.011719 18.507812 L 6.179688 18.820312 L 6.0625 18.488281 L 6.125 18.671875 L 6.082031 18.480469 L 6.0625 18.488281 L 6.125 18.671875 L 6.082031 18.480469 L 6.160156 18.816406 L 6.160156 18.472656 C 6.097656 18.472656 6.09375 18.480469 6.082031 18.480469 L 6.160156 18.816406 L 6.160156 18.472656 L 6.160156 18.921875 L 6.316406 18.5 C 6.222656 18.46875 6.1875 18.472656 6.160156 18.472656 L 6.160156 18.921875 L 6.316406 18.5 L 6.152344 18.933594 L 6.5 18.625 C 6.429688 18.550781 6.359375 18.519531 6.316406 18.5 L 6.152344 18.933594 L 6.5 18.625 L 6.152344 18.933594 L 6.613281 18.933594 C 6.617188 18.832031 6.570312 18.699219 6.5 18.625 L 6.152344 18.933594 L 6.613281 18.933594 L 6.152344 18.933594 L 6.574219 19.121094 C 6.59375 19.078125 6.613281 19.015625 6.613281 18.933594 L 6.152344 18.933594 L 6.574219 19.121094 L 6.164062 18.9375 L 6.488281 19.25 C 6.507812 19.230469 6.539062 19.199219 6.574219 19.121094 L 6.164062 18.9375 L 6.488281 19.25 L 6.195312 18.96875 L 6.425781 19.304688 C 6.4375 19.296875 6.457031 19.285156 6.488281 19.25 L 6.195312 18.96875 L 6.425781 19.304688 L 6.28125 19.09375 L 6.410156 19.316406 L 6.425781 19.304688 L 6.28125 19.09375 L 6.410156 19.316406 C 6.628906 19.1875 6.707031 18.90625 6.582031 18.683594 C 6.457031 18.460938 6.175781 18.382812 5.953125 18.507812 L 6.15625 18.878906 L 6.15625 18.453125 C 6.078125 18.453125 6 18.480469 5.953125 18.507812 L 6.15625 18.878906 L 6.15625 18.453125 L 6.15625 18.871094 L 6.425781 18.550781 C 6.382812 18.511719 6.285156 18.453125 6.15625 18.453125 L 6.15625 18.871094 L 6.425781 18.550781 L 6.214844 18.804688 L 6.496094 18.628906 C 6.488281 18.613281 6.472656 18.589844 6.425781 18.550781 L 6.214844 18.804688 L 6.496094 18.628906 L 6.347656 18.71875 L 6.503906 18.640625 L 6.496094 18.628906 L 6.347656 18.71875 L 6.503906 18.640625 L 6.445312 18.671875 L 6.503906 18.644531 L 6.503906 18.640625 L 6.445312 18.671875 L 6.503906 18.644531 L 6.5 18.628906 C 6.488281 18.59375 6.464844 18.511719 6.445312 18.417969 C 6.417969 18.269531 6.390625 18.09375 6.371094 17.945312 C 6.363281 17.871094 6.359375 17.804688 6.351562 17.753906 L 6.347656 17.6875 L 6.347656 17.664062 L 6.023438 17.664062 L 6.347656 17.695312 L 6.347656 17.664062 L 6.023438 17.664062 L 6.347656 17.695312 L 6.347656 17.683594 C 6.382812 17.207031 6.542969 16.699219 6.789062 16.273438 C 6.878906 16.109375 7.019531 15.945312 7.1875 15.753906 C 7.351562 15.566406 7.539062 15.355469 7.691406 15.074219 C 7.875 14.746094 7.898438 14.421875 7.917969 14.175781 C 7.933594 13.921875 7.945312 13.734375 8 13.589844 C 8.113281 13.289062 8.390625 12.984375 8.703125 12.761719 C 8.800781 12.691406 8.976562 12.613281 9.179688 12.515625 C 9.382812 12.410156 9.628906 12.28125 9.824219 12.023438 C 9.96875 11.832031 10.058594 11.644531 10.125 11.472656 C 10.226562 11.21875 10.277344 11.019531 10.375 10.832031 C 10.472656 10.644531 10.609375 10.445312 10.917969 10.179688 C 11.171875 9.960938 11.382812 9.832031 11.570312 9.757812 C 11.761719 9.683594 11.933594 9.652344 12.152344 9.648438 C 12.40625 9.648438 12.726562 9.699219 13.136719 9.777344 C 13.265625 9.804688 13.398438 9.769531 13.503906 9.691406 C 13.609375 9.613281 13.675781 9.492188 13.6875 9.359375 C 13.703125 9.136719 13.789062 8.847656 13.921875 8.617188 C 14.054688 8.386719 14.230469 8.222656 14.386719 8.164062 C 14.574219 8.089844 14.742188 8.023438 14.890625 7.980469 C 15.039062 7.933594 15.167969 7.910156 15.292969 7.910156 C 15.363281 7.910156 15.429688 7.917969 15.503906 7.933594 C 15.617188 7.957031 15.746094 8.003906 15.902344 8.058594 C 16.058594 8.109375 16.246094 8.167969 16.472656 8.167969 C 16.675781 8.167969 16.902344 8.113281 17.105469 7.984375 C 17.410156 7.796875 17.597656 7.554688 17.757812 7.371094 C 17.917969 7.183594 18.046875 7.058594 18.175781 7 C 18.480469 6.863281 18.816406 6.800781 19.171875 6.800781 C 19.414062 6.800781 19.667969 6.832031 19.910156 6.882812 C 20.121094 6.921875 20.3125 6.976562 20.519531 7.023438 C 20.722656 7.070312 20.941406 7.109375 21.183594 7.109375 C 21.4375 7.109375 21.714844 7.0625 22.007812 6.953125 C 22.308594 6.839844 22.515625 6.734375 22.667969 6.671875 C 22.824219 6.609375 22.914062 6.585938 23.097656 6.582031 C 23.183594 6.582031 23.289062 6.59375 23.425781 6.613281 C 23.683594 6.652344 23.863281 6.730469 24.070312 6.835938 C 24.273438 6.9375 24.5 7.078125 24.800781 7.191406 C 24.96875 7.253906 25.132812 7.285156 25.289062 7.285156 C 25.429688 7.285156 25.5625 7.257812 25.667969 7.21875 C 25.832031 7.164062 25.949219 7.09375 26.050781 7.046875 C 26.152344 7 26.234375 6.964844 26.34375 6.945312 C 26.5625 6.902344 26.78125 6.878906 26.992188 6.878906 C 27.363281 6.878906 27.722656 6.945312 28.066406 7.09375 C 28.328125 7.203125 28.550781 7.367188 28.789062 7.5625 C 29.027344 7.757812 29.273438 7.992188 29.574219 8.214844 C 29.75 8.347656 29.9375 8.421875 30.109375 8.464844 C 30.367188 8.535156 30.59375 8.546875 30.777344 8.582031 C 30.964844 8.613281 31.09375 8.652344 31.195312 8.722656 C 31.550781 8.972656 31.871094 9.378906 32.050781 9.761719 C 32.132812 9.9375 32.1875 10.078125 32.242188 10.210938 C 32.289062 10.308594 32.328125 10.410156 32.390625 10.507812 C 32.480469 10.660156 32.625 10.8125 32.796875 10.914062 C 32.96875 11.023438 33.160156 11.097656 33.410156 11.179688 C 33.613281 11.246094 33.785156 11.34375 33.9375 11.476562 C 34.085938 11.609375 34.222656 11.78125 34.335938 12.011719 C 34.425781 12.191406 34.457031 12.398438 34.484375 12.671875 C 34.515625 12.941406 34.542969 13.273438 34.703125 13.625 C 34.777344 13.804688 34.902344 13.953125 35.035156 14.046875 C 35.132812 14.117188 35.230469 14.160156 35.300781 14.191406 C 35.414062 14.234375 35.480469 14.257812 35.511719 14.277344 C 35.542969 14.296875 35.554688 14.300781 35.59375 14.359375 C 35.773438 14.652344 35.878906 15.054688 35.878906 15.410156 C 35.878906 15.679688 35.816406 15.921875 35.71875 16.078125 C 35.601562 16.261719 35.628906 16.503906 35.785156 16.65625 C 36.488281 17.359375 36.859375 18.230469 36.859375 19.105469 C 36.859375 19.660156 36.714844 20.21875 36.398438 20.75 C 36.046875 21.332031 35.6875 21.621094 35.289062 21.796875 C 34.886719 21.972656 34.417969 22.023438 33.878906 22.023438 C 33.398438 22.023438 32.871094 21.984375 32.308594 21.984375 C 32.074219 21.984375 31.835938 21.992188 31.59375 22.011719 C 31.363281 22.03125 31.179688 22.21875 31.167969 22.449219 C 31.132812 23.097656 31.070312 23.644531 30.898438 24.082031 C 30.808594 24.304688 30.699219 24.5 30.546875 24.679688 C 30.390625 24.859375 30.195312 25.03125 29.925781 25.191406 C 29.65625 25.351562 29.285156 25.496094 28.886719 25.59375 C 28.488281 25.691406 28.058594 25.746094 27.664062 25.746094 C 27.410156 25.746094 27.167969 25.722656 26.964844 25.679688 C 26.5 25.582031 26.019531 25.371094 25.496094 25.171875 C 24.972656 24.972656 24.402344 24.78125 23.757812 24.78125 L 23.679688 24.78125 C 23.363281 24.789062 23.070312 24.859375 22.8125 24.96875 C 22.425781 25.136719 22.113281 25.378906 21.828125 25.613281 C 21.546875 25.851562 21.289062 26.089844 21.035156 26.269531 C 20.679688 26.519531 20.316406 26.613281 19.90625 26.617188 C 19.457031 26.617188 18.960938 26.488281 18.464844 26.304688 C 18.257812 26.226562 18.011719 26.128906 17.742188 26.050781 C 17.476562 25.972656 17.1875 25.90625 16.878906 25.90625 C 16.570312 25.90625 16.238281 25.976562 15.9375 26.164062 C 15.632812 26.359375 15.449219 26.601562 15.285156 26.78125 C 15.203125 26.871094 15.132812 26.949219 15.0625 27.007812 C 14.996094 27.066406 14.933594 27.105469 14.867188 27.128906 C 14.578125 27.246094 14.25 27.296875 13.898438 27.296875 C 13.511719 27.296875 13.105469 27.234375 12.726562 27.140625 C 12.558594 27.097656 12.402344 27.074219 12.246094 27.074219 C 11.996094 27.074219 11.746094 27.148438 11.550781 27.269531 C 11.355469 27.390625 11.199219 27.539062 11.027344 27.703125 C 11 27.730469 10.980469 27.757812 10.960938 27.789062 L 11.351562 28.035156 " fill-opacity="1" fill-rule="nonzero"/><path fill="#070808" d="M 12.667969 9.347656 C 12.675781 9.605469 12.742188 9.851562 12.84375 10.066406 C 13.027344 10.441406 13.3125 10.726562 13.621094 10.964844 C 14.089844 11.324219 14.628906 11.601562 15.09375 11.890625 C 15.558594 12.175781 15.925781 12.46875 16.089844 12.769531 L 16.105469 12.796875 C 16.421875 13.285156 16.609375 13.894531 16.609375 14.492188 C 16.609375 14.828125 16.550781 15.164062 16.425781 15.476562 L 16.417969 15.492188 C 16.355469 15.679688 16.164062 15.972656 15.941406 16.183594 C 15.828125 16.292969 15.710938 16.378906 15.601562 16.433594 C 15.492188 16.492188 15.398438 16.511719 15.335938 16.511719 C 15.296875 16.511719 15.265625 16.507812 15.234375 16.492188 C 15.199219 16.476562 15.164062 16.453125 15.117188 16.410156 C 14.9375 16.226562 14.640625 16.226562 14.460938 16.410156 C 14.277344 16.589844 14.277344 16.886719 14.460938 17.066406 C 14.582031 17.1875 14.722656 17.285156 14.875 17.351562 C 15.023438 17.414062 15.183594 17.441406 15.335938 17.441406 C 15.589844 17.441406 15.824219 17.367188 16.027344 17.261719 C 16.335938 17.101562 16.59375 16.867188 16.808594 16.613281 C 17.023438 16.359375 17.191406 16.085938 17.292969 15.804688 L 16.855469 15.648438 L 17.289062 15.824219 C 17.460938 15.390625 17.539062 14.9375 17.539062 14.492188 C 17.539062 13.699219 17.296875 12.929688 16.882812 12.292969 L 16.496094 12.542969 L 16.898438 12.316406 C 16.664062 11.894531 16.308594 11.59375 15.9375 11.332031 C 15.375 10.945312 14.753906 10.640625 14.300781 10.3125 C 14.074219 10.148438 13.894531 9.984375 13.777344 9.824219 C 13.664062 9.660156 13.605469 9.511719 13.597656 9.316406 C 13.589844 9.0625 13.375 8.859375 13.117188 8.867188 C 12.863281 8.875 12.660156 9.09375 12.667969 9.347656 " fill-opacity="1" fill-rule="nonzero"/><path fill="#070808" d="M 12.28125 12.128906 C 11.765625 12.160156 11.300781 12.292969 10.894531 12.503906 C 10.285156 12.824219 9.816406 13.324219 9.480469 13.902344 C 9.140625 14.480469 8.921875 15.140625 8.800781 15.824219 C 8.734375 16.171875 8.734375 16.492188 8.734375 16.785156 C 8.734375 16.824219 8.734375 16.863281 8.734375 16.902344 C 8.734375 17.136719 8.730469 17.351562 8.703125 17.542969 C 8.675781 17.734375 8.625 17.902344 8.535156 18.070312 C 8.414062 18.296875 8.285156 18.441406 8.132812 18.539062 C 7.976562 18.636719 7.785156 18.699219 7.488281 18.699219 C 7.199219 18.699219 6.8125 18.632812 6.320312 18.472656 C 6.078125 18.390625 5.816406 18.523438 5.734375 18.769531 C 5.65625 19.011719 5.789062 19.273438 6.03125 19.355469 C 6.585938 19.535156 7.0625 19.628906 7.488281 19.628906 C 7.921875 19.628906 8.308594 19.527344 8.628906 19.324219 C 8.945312 19.125 9.179688 18.835938 9.351562 18.511719 C 9.503906 18.230469 9.582031 17.941406 9.621094 17.671875 C 9.660156 17.398438 9.660156 17.140625 9.660156 16.902344 C 9.660156 16.863281 9.660156 16.824219 9.660156 16.785156 C 9.660156 16.5 9.667969 16.238281 9.710938 15.996094 L 9.710938 15.992188 C 9.855469 15.195312 10.148438 14.464844 10.578125 13.945312 C 10.789062 13.6875 11.039062 13.480469 11.324219 13.328125 C 11.613281 13.175781 11.941406 13.082031 12.332031 13.058594 C 12.589844 13.042969 12.785156 12.824219 12.769531 12.570312 C 12.753906 12.3125 12.535156 12.117188 12.28125 12.128906 " fill-opacity="1" fill-rule="nonzero"/><path fill="#070808" d="M 6.722656 22.886719 C 6.988281 22.824219 7.308594 22.820312 7.675781 22.808594 C 8.042969 22.792969 8.457031 22.769531 8.894531 22.613281 L 8.929688 22.597656 C 9.519531 22.332031 10.058594 21.902344 10.503906 21.394531 C 10.949219 20.882812 11.300781 20.292969 11.503906 19.679688 C 11.644531 19.253906 11.714844 18.761719 11.800781 18.242188 C 11.929688 17.464844 12.109375 16.648438 12.488281 16.082031 C 12.679688 15.796875 12.914062 15.570312 13.226562 15.402344 C 13.542969 15.238281 13.949219 15.132812 14.507812 15.128906 L 14.570312 15.132812 C 14.828125 15.136719 15.039062 14.933594 15.042969 14.675781 C 15.050781 14.417969 14.847656 14.207031 14.589844 14.203125 C 14.5625 14.199219 14.535156 14.199219 14.507812 14.199219 C 13.605469 14.199219 12.894531 14.441406 12.367188 14.855469 C 11.972656 15.164062 11.6875 15.558594 11.484375 15.972656 C 11.175781 16.59375 11.03125 17.269531 10.921875 17.882812 C 10.816406 18.496094 10.738281 19.054688 10.625 19.386719 C 10.46875 19.863281 10.175781 20.359375 9.804688 20.78125 C 9.433594 21.203125 8.988281 21.550781 8.546875 21.75 L 8.738281 22.175781 L 8.582031 21.738281 C 8.296875 21.839844 7.988281 21.867188 7.640625 21.878906 C 7.296875 21.894531 6.921875 21.890625 6.515625 21.980469 C 6.265625 22.039062 6.109375 22.289062 6.167969 22.539062 C 6.222656 22.789062 6.472656 22.945312 6.722656 22.886719 " fill-opacity="1" fill-rule="nonzero"/><path fill="#070808" d="M 9.402344 21.34375 C 9.382812 21.496094 9.375 21.648438 9.375 21.796875 C 9.375 22.398438 9.507812 22.988281 9.804688 23.496094 C 10.105469 24.007812 10.578125 24.429688 11.199219 24.664062 C 11.671875 24.839844 12.15625 24.902344 12.625 24.902344 C 12.808594 24.902344 12.984375 24.894531 13.160156 24.878906 C 14.496094 24.757812 15.789062 24.519531 17.03125 24.519531 C 17.835938 24.519531 18.617188 24.617188 19.382812 24.898438 C 19.625 24.988281 19.890625 24.863281 19.980469 24.625 C 20.070312 24.382812 19.945312 24.117188 19.707031 24.027344 C 18.8125 23.695312 17.910156 23.589844 17.03125 23.589844 C 15.675781 23.589844 14.351562 23.835938 13.078125 23.953125 C 12.925781 23.964844 12.777344 23.972656 12.625 23.972656 C 12.238281 23.972656 11.867188 23.921875 11.527344 23.792969 C 11.097656 23.625 10.808594 23.363281 10.605469 23.027344 C 10.40625 22.6875 10.304688 22.261719 10.304688 21.796875 C 10.304688 21.679688 10.3125 21.5625 10.324219 21.441406 C 10.351562 21.1875 10.167969 20.957031 9.910156 20.929688 C 9.65625 20.902344 9.429688 21.089844 9.402344 21.34375 " fill-opacity="1" fill-rule="nonzero"/><path fill="#070808" d="M 18.101562 15.851562 C 18.089844 15.960938 18.082031 16.070312 18.082031 16.175781 C 18.078125 16.75 18.292969 17.257812 18.636719 17.636719 C 18.890625 17.921875 19.210938 18.144531 19.5625 18.316406 C 20.089844 18.574219 20.691406 18.734375 21.316406 18.835938 C 21.941406 18.933594 22.582031 18.972656 23.179688 18.972656 C 23.660156 18.972656 24.109375 18.949219 24.503906 18.910156 L 24.457031 18.445312 L 24.496094 18.910156 C 24.726562 18.890625 24.957031 18.882812 25.183594 18.882812 C 26.257812 18.882812 27.246094 19.097656 28.132812 19.527344 C 29.019531 19.960938 29.8125 20.617188 30.5 21.523438 L 30.5 21.519531 C 30.660156 21.738281 30.835938 21.953125 30.960938 22.152344 C 31.09375 22.355469 31.167969 22.539062 31.183594 22.6875 C 31.207031 22.941406 31.433594 23.128906 31.691406 23.101562 C 31.945312 23.078125 32.132812 22.851562 32.105469 22.59375 C 32.070312 22.226562 31.914062 21.917969 31.746094 21.652344 C 31.574219 21.386719 31.386719 21.160156 31.242188 20.964844 L 31.238281 20.960938 C 30.476562 19.949219 29.5625 19.191406 28.539062 18.691406 C 27.515625 18.191406 26.382812 17.953125 25.183594 17.953125 C 24.929688 17.953125 24.675781 17.960938 24.421875 17.984375 L 24.414062 17.984375 C 24.050781 18.019531 23.628906 18.042969 23.179688 18.042969 C 22.1875 18.042969 21.070312 17.921875 20.257812 17.609375 C 19.855469 17.449219 19.53125 17.25 19.328125 17.015625 C 19.121094 16.78125 19.015625 16.535156 19.011719 16.175781 C 19.011719 16.109375 19.015625 16.039062 19.023438 15.964844 C 19.054688 15.710938 18.875 15.480469 18.621094 15.449219 C 18.363281 15.417969 18.132812 15.597656 18.101562 15.851562 " fill-opacity="1" fill-rule="nonzero"/><path fill="#070808" d="M 10.949219 17.8125 L 10.945312 17.882812 C 10.945312 18.507812 11.144531 19.054688 11.472656 19.476562 C 11.960938 20.109375 12.6875 20.476562 13.417969 20.699219 C 14.152344 20.921875 14.910156 20.996094 15.515625 20.996094 C 15.675781 20.996094 15.824219 20.992188 15.957031 20.980469 C 16.117188 20.96875 16.28125 20.964844 16.449219 20.964844 C 17.394531 20.964844 18.445312 21.152344 19.4375 21.496094 C 20.429688 21.832031 21.367188 22.324219 22.101562 22.902344 L 22.390625 22.539062 L 22.09375 22.894531 C 22.210938 22.992188 22.378906 23.171875 22.566406 23.351562 C 22.753906 23.53125 22.960938 23.722656 23.242188 23.84375 C 23.476562 23.945312 23.75 23.835938 23.851562 23.601562 C 23.949219 23.363281 23.839844 23.089844 23.605469 22.992188 C 23.527344 22.960938 23.367188 22.839844 23.210938 22.683594 C 23.046875 22.523438 22.875 22.339844 22.6875 22.179688 L 22.675781 22.171875 C 21.84375 21.515625 20.816406 20.984375 19.734375 20.613281 C 18.65625 20.246094 17.515625 20.035156 16.449219 20.035156 C 16.261719 20.035156 16.074219 20.042969 15.890625 20.054688 C 15.78125 20.0625 15.652344 20.066406 15.515625 20.066406 C 14.8125 20.070312 13.835938 19.9375 13.09375 19.582031 C 12.722656 19.40625 12.417969 19.179688 12.207031 18.90625 C 12 18.632812 11.878906 18.316406 11.875 17.882812 L 11.875 17.835938 C 11.882812 17.578125 11.679688 17.367188 11.421875 17.359375 C 11.164062 17.351562 10.953125 17.558594 10.949219 17.8125 " fill-opacity="1" fill-rule="nonzero"/><path fill="#070808" d="M 20.808594 22 C 21.039062 22.066406 21.296875 22.105469 21.574219 22.105469 C 22.089844 22.105469 22.671875 21.96875 23.183594 21.589844 C 23.695312 21.210938 24.109375 20.59375 24.292969 19.734375 C 24.34375 19.484375 24.183594 19.234375 23.933594 19.183594 C 23.683594 19.128906 23.433594 19.289062 23.382812 19.542969 C 23.234375 20.21875 22.953125 20.601562 22.632812 20.839844 C 22.3125 21.082031 21.925781 21.175781 21.574219 21.175781 C 21.386719 21.175781 21.210938 21.148438 21.074219 21.105469 C 20.828125 21.035156 20.570312 21.175781 20.496094 21.421875 C 20.421875 21.667969 20.5625 21.925781 20.808594 22 " fill-opacity="1" fill-rule="nonzero"/><path fill="#070808" d="M 16.496094 21.035156 C 16.628906 21.035156 16.714844 21.066406 16.796875 21.117188 C 16.917969 21.199219 17.035156 21.355469 17.121094 21.578125 C 17.203125 21.800781 17.246094 22.082031 17.246094 22.34375 C 17.246094 22.601562 17.203125 22.84375 17.144531 22.996094 C 17.054688 23.238281 17.175781 23.503906 17.417969 23.59375 C 17.65625 23.683594 17.925781 23.5625 18.015625 23.324219 C 18.121094 23.03125 18.171875 22.695312 18.171875 22.34375 C 18.171875 21.863281 18.082031 21.355469 17.832031 20.914062 C 17.703125 20.695312 17.535156 20.492188 17.304688 20.339844 C 17.078125 20.191406 16.796875 20.105469 16.496094 20.105469 C 16.238281 20.105469 16.03125 20.3125 16.03125 20.570312 C 16.03125 20.828125 16.238281 21.035156 16.496094 21.035156 " fill-opacity="1" fill-rule="nonzero"/><path fill="#070808" d="M 17.445312 8.976562 C 18.441406 10.046875 19.152344 10.980469 19.621094 11.992188 C 20.085938 13.007812 20.320312 14.121094 20.320312 15.597656 C 20.320312 15.855469 20.53125 16.0625 20.785156 16.0625 C 21.042969 16.0625 21.25 15.855469 21.25 15.597656 C 21.25 14.023438 20.996094 12.75 20.464844 11.605469 C 19.9375 10.457031 19.152344 9.445312 18.125 8.34375 C 17.953125 8.152344 17.660156 8.144531 17.472656 8.320312 C 17.28125 8.492188 17.273438 8.785156 17.445312 8.976562 " fill-opacity="1" fill-rule="nonzero"/><path fill="#070808" d="M 20.726562 14.664062 C 22.082031 14.691406 23.28125 14.667969 24.417969 14.8125 C 25.558594 14.953125 26.628906 15.257812 27.789062 15.945312 C 28.007812 16.078125 28.292969 16.003906 28.421875 15.785156 C 28.554688 15.5625 28.484375 15.28125 28.261719 15.148438 C 26.988281 14.386719 25.761719 14.042969 24.535156 13.886719 C 23.304688 13.734375 22.078125 13.761719 20.742188 13.734375 C 20.488281 13.730469 20.277344 13.933594 20.269531 14.191406 C 20.265625 14.449219 20.46875 14.660156 20.726562 14.664062 " fill-opacity="1" fill-rule="nonzero"/><path fill="#070808" d="M 19.640625 10.875 C 20.640625 10.664062 21.679688 10.519531 22.695312 10.519531 C 23.527344 10.519531 24.339844 10.617188 25.101562 10.84375 C 25.863281 11.074219 26.570312 11.433594 27.210938 11.96875 C 27.40625 12.132812 27.699219 12.105469 27.863281 11.910156 C 28.027344 11.710938 28.003906 11.417969 27.804688 11.253906 C 27.066406 10.632812 26.234375 10.214844 25.367188 9.953125 C 24.5 9.695312 23.597656 9.589844 22.695312 9.589844 C 21.59375 9.589844 20.492188 9.746094 19.449219 9.964844 C 19.199219 10.019531 19.035156 10.265625 19.089844 10.515625 C 19.144531 10.769531 19.390625 10.929688 19.640625 10.875 " fill-opacity="1" fill-rule="nonzero"/><path fill="#070808" d="M 25.441406 8.867188 C 25.898438 8.863281 26.269531 8.878906 26.617188 8.941406 C 26.96875 9.007812 27.300781 9.117188 27.703125 9.328125 L 27.714844 9.335938 C 28.113281 9.535156 28.402344 9.792969 28.75 10.085938 C 29.097656 10.375 29.515625 10.6875 30.113281 10.863281 L 30.25 10.421875 L 30.101562 10.859375 C 30.832031 11.101562 31.558594 11.621094 32.085938 12.277344 C 32.617188 12.933594 32.945312 13.722656 32.941406 14.488281 C 32.941406 14.539062 32.941406 14.589844 32.9375 14.640625 C 32.925781 14.898438 33.121094 15.117188 33.378906 15.128906 C 33.632812 15.144531 33.851562 14.949219 33.867188 14.691406 C 33.871094 14.625 33.871094 14.554688 33.871094 14.488281 C 33.871094 13.457031 33.445312 12.484375 32.808594 11.695312 C 32.171875 10.90625 31.316406 10.289062 30.394531 9.980469 L 30.382812 9.976562 C 29.949219 9.84375 29.667969 9.636719 29.34375 9.371094 C 29.019531 9.101562 28.660156 8.769531 28.128906 8.503906 L 27.921875 8.917969 L 28.140625 8.507812 C 27.664062 8.253906 27.222656 8.105469 26.78125 8.027344 C 26.34375 7.949219 25.914062 7.9375 25.441406 7.9375 C 25.183594 7.9375 24.976562 8.144531 24.976562 8.402344 C 24.976562 8.65625 25.183594 8.867188 25.441406 8.867188 " fill-opacity="1" fill-rule="nonzero"/><path fill="#070808" d="M 35.796875 15.875 C 35.394531 16.128906 34.738281 16.296875 34.109375 16.296875 C 33.582031 16.296875 33.078125 16.179688 32.746094 15.964844 C 32.578125 15.859375 32.453125 15.730469 32.363281 15.582031 C 32.277344 15.433594 32.21875 15.253906 32.210938 15.015625 C 32.207031 14.761719 31.992188 14.558594 31.734375 14.566406 C 31.480469 14.570312 31.277344 14.785156 31.285156 15.039062 C 31.292969 15.417969 31.394531 15.765625 31.566406 16.058594 C 31.824219 16.492188 32.230469 16.789062 32.675781 16.96875 C 33.121094 17.148438 33.617188 17.226562 34.109375 17.226562 C 34.894531 17.222656 35.679688 17.035156 36.285156 16.667969 C 36.503906 16.535156 36.570312 16.246094 36.4375 16.027344 C 36.300781 15.808594 36.015625 15.742188 35.796875 15.875 " fill-opacity="1" fill-rule="nonzero"/><path fill="#070808" d="M 30.128906 20.859375 C 30.78125 20.859375 31.480469 20.976562 32.164062 20.980469 C 32.445312 20.980469 32.726562 20.960938 33.003906 20.886719 C 33.421875 20.785156 33.832031 20.546875 34.121094 20.140625 C 34.417969 19.742188 34.597656 19.207031 34.691406 18.507812 C 34.722656 18.25 34.542969 18.019531 34.289062 17.988281 C 34.035156 17.953125 33.800781 18.132812 33.769531 18.386719 C 33.71875 18.789062 33.632812 19.09375 33.53125 19.3125 C 33.378906 19.648438 33.214844 19.796875 33.003906 19.902344 C 32.796875 20.007812 32.515625 20.050781 32.164062 20.050781 C 31.597656 20.054688 30.886719 19.933594 30.128906 19.929688 C 29.875 19.929688 29.667969 20.136719 29.667969 20.394531 C 29.667969 20.652344 29.875 20.859375 30.128906 20.859375 " fill-opacity="1" fill-rule="nonzero"/><path fill="#070808" d="M 33.71875 18.753906 C 33.753906 18.75 33.789062 18.746094 33.824219 18.746094 C 34.058594 18.742188 34.34375 18.847656 34.621094 19.007812 C 34.84375 19.132812 35.125 19.054688 35.253906 18.832031 C 35.382812 18.609375 35.304688 18.324219 35.082031 18.199219 C 34.730469 18 34.304688 17.816406 33.824219 17.816406 C 33.75 17.816406 33.679688 17.820312 33.605469 17.832031 C 33.347656 17.863281 33.167969 18.09375 33.199219 18.351562 C 33.234375 18.605469 33.464844 18.785156 33.71875 18.753906 " fill-opacity="1" fill-rule="nonzero"/><path fill="#070808" d="M 28.628906 13.746094 C 28.984375 14.007812 29.242188 14.316406 29.417969 14.65625 C 29.589844 15 29.679688 15.378906 29.679688 15.785156 C 29.679688 15.953125 29.667969 16.121094 29.636719 16.296875 L 29.636719 16.304688 C 29.574219 16.714844 29.375 17.316406 29.082031 17.765625 C 28.933594 17.996094 28.765625 18.183594 28.601562 18.304688 C 28.433594 18.425781 28.277344 18.480469 28.109375 18.484375 C 28.050781 18.484375 27.992188 18.476562 27.925781 18.460938 C 27.675781 18.402344 27.425781 18.554688 27.367188 18.804688 C 27.308594 19.054688 27.460938 19.304688 27.710938 19.363281 C 27.84375 19.398438 27.976562 19.414062 28.109375 19.414062 C 28.503906 19.414062 28.859375 19.269531 29.148438 19.054688 C 29.582031 18.734375 29.886719 18.28125 30.117188 17.8125 C 30.34375 17.34375 30.488281 16.855469 30.550781 16.445312 L 30.09375 16.375 L 30.550781 16.453125 C 30.589844 16.230469 30.609375 16.007812 30.609375 15.785156 C 30.609375 15.238281 30.488281 14.710938 30.246094 14.234375 C 30.003906 13.761719 29.640625 13.339844 29.179688 12.996094 C 28.972656 12.84375 28.683594 12.890625 28.53125 13.097656 C 28.378906 13.304688 28.421875 13.59375 28.628906 13.746094 " fill-opacity="1" fill-rule="nonzero"/><path fill="#070808" d="M 25.609375 22.484375 C 26.480469 22.457031 27.320312 22.308594 28.050781 21.894531 C 28.777344 21.480469 29.367188 20.785156 29.707031 19.789062 C 29.789062 19.546875 29.660156 19.28125 29.417969 19.199219 C 29.175781 19.113281 28.910156 19.246094 28.828125 19.488281 C 28.542969 20.304688 28.125 20.773438 27.589844 21.085938 C 27.050781 21.394531 26.367188 21.53125 25.582031 21.554688 C 25.324219 21.5625 25.125 21.777344 25.132812 22.035156 C 25.140625 22.289062 25.351562 22.492188 25.609375 22.484375 " fill-opacity="1" fill-rule="nonzero"/><path fill="#070808" d="M 7.046875 14.90625 C 7.109375 15.003906 7.179688 15.074219 7.25 15.128906 C 7.375 15.222656 7.5 15.273438 7.628906 15.320312 C 7.820312 15.386719 8.015625 15.425781 8.203125 15.453125 C 8.386719 15.480469 8.550781 15.492188 8.6875 15.492188 C 8.941406 15.492188 9.152344 15.285156 9.152344 15.027344 C 9.152344 14.773438 8.941406 14.5625 8.6875 14.5625 C 8.578125 14.566406 8.320312 14.539062 8.113281 14.492188 C 8.007812 14.46875 7.910156 14.4375 7.855469 14.410156 L 7.808594 14.382812 L 7.769531 14.4375 L 7.816406 14.390625 L 7.808594 14.382812 L 7.769531 14.4375 L 7.816406 14.390625 L 7.671875 14.53125 L 7.84375 14.429688 L 7.816406 14.390625 L 7.671875 14.53125 L 7.84375 14.429688 C 7.710938 14.207031 7.425781 14.136719 7.207031 14.265625 C 6.988281 14.398438 6.914062 14.683594 7.046875 14.90625 " fill-opacity="1" fill-rule="nonzero"/><path fill="#070808" d="M 29.632812 8.097656 C 29.640625 8.144531 29.640625 8.191406 29.640625 8.238281 C 29.640625 8.359375 29.621094 8.46875 29.585938 8.554688 C 29.550781 8.644531 29.503906 8.710938 29.433594 8.769531 C 29.238281 8.933594 29.210938 9.226562 29.375 9.421875 C 29.539062 9.621094 29.832031 9.648438 30.027344 9.480469 C 30.222656 9.324219 30.359375 9.117188 30.445312 8.90625 C 30.535156 8.6875 30.570312 8.460938 30.570312 8.238281 C 30.570312 8.152344 30.566406 8.066406 30.554688 7.980469 C 30.523438 7.726562 30.289062 7.542969 30.035156 7.578125 C 29.78125 7.609375 29.601562 7.839844 29.632812 8.097656 " fill-opacity="1" fill-rule="nonzero"/><path fill="#070808" d="M 34.0625 14.144531 C 34.136719 14.15625 34.21875 14.160156 34.296875 14.160156 C 34.515625 14.160156 34.75 14.117188 34.972656 13.988281 C 35.082031 13.921875 35.1875 13.832031 35.273438 13.71875 C 35.355469 13.605469 35.421875 13.472656 35.457031 13.328125 C 35.519531 13.082031 35.367188 12.828125 35.117188 12.765625 C 34.871094 12.703125 34.617188 12.855469 34.554688 13.105469 C 34.546875 13.136719 34.539062 13.148438 34.53125 13.160156 C 34.519531 13.171875 34.507812 13.1875 34.464844 13.203125 C 34.425781 13.21875 34.367188 13.230469 34.296875 13.230469 C 34.261719 13.230469 34.226562 13.226562 34.191406 13.222656 C 33.9375 13.1875 33.703125 13.363281 33.667969 13.617188 C 33.632812 13.871094 33.808594 14.105469 34.0625 14.144531 " fill-opacity="1" fill-rule="nonzero"/><path fill="#070808" d="M 30.933594 10.683594 C 30.773438 10.867188 30.5625 11.066406 30.363281 11.316406 C 30.164062 11.566406 29.976562 11.890625 29.941406 12.292969 C 29.917969 12.550781 30.105469 12.777344 30.363281 12.800781 C 30.617188 12.824219 30.84375 12.632812 30.867188 12.378906 C 30.882812 12.214844 30.953125 12.070312 31.09375 11.894531 C 31.230469 11.714844 31.429688 11.527344 31.632812 11.296875 C 31.800781 11.101562 31.78125 10.808594 31.589844 10.640625 C 31.394531 10.472656 31.101562 10.492188 30.933594 10.683594 " fill-opacity="1" fill-rule="nonzero"/><path fill="#070808" d="M 27 8.480469 C 26.910156 8.640625 26.777344 8.84375 26.652344 9.074219 C 26.527344 9.308594 26.410156 9.582031 26.375 9.902344 C 26.347656 10.160156 26.53125 10.386719 26.785156 10.417969 C 27.039062 10.445312 27.269531 10.261719 27.296875 10.003906 C 27.3125 9.859375 27.375 9.691406 27.472656 9.511719 C 27.566406 9.332031 27.691406 9.144531 27.808594 8.941406 C 27.933594 8.71875 27.855469 8.433594 27.632812 8.308594 C 27.410156 8.179688 27.128906 8.257812 27 8.480469 " fill-opacity="1" fill-rule="nonzero"/><path fill="#070808" d="M 21.933594 10.515625 C 22.136719 10.691406 22.242188 10.941406 22.246094 11.230469 C 22.246094 11.269531 22.242188 11.3125 22.238281 11.355469 C 22.210938 11.609375 22.394531 11.839844 22.652344 11.867188 C 22.90625 11.894531 23.132812 11.707031 23.160156 11.453125 C 23.167969 11.378906 23.171875 11.304688 23.171875 11.230469 C 23.175781 10.703125 22.964844 10.175781 22.535156 9.808594 C 22.339844 9.640625 22.046875 9.664062 21.882812 9.859375 C 21.714844 10.054688 21.738281 10.347656 21.933594 10.515625 " fill-opacity="1" fill-rule="nonzero"/><path fill="#070808" d="M 25.671875 12.648438 C 25.476562 12.945312 25.367188 13.261719 25.300781 13.570312 C 25.238281 13.882812 25.210938 14.183594 25.183594 14.46875 C 25.160156 14.726562 25.347656 14.953125 25.605469 14.972656 C 25.859375 14.996094 26.085938 14.808594 26.109375 14.554688 C 26.136719 14.269531 26.160156 14.003906 26.210938 13.765625 C 26.261719 13.53125 26.332031 13.332031 26.445312 13.164062 C 26.589844 12.949219 26.53125 12.660156 26.316406 12.519531 C 26.105469 12.378906 25.816406 12.433594 25.671875 12.648438 " fill-opacity="1" fill-rule="nonzero"/><path fill="#070808" d="M 24.164062 23.875 C 24.121094 24.042969 24.097656 24.210938 24.097656 24.382812 C 24.097656 24.703125 24.175781 25.023438 24.339844 25.304688 C 24.503906 25.589844 24.769531 25.832031 25.105469 25.96875 C 25.34375 26.070312 25.613281 25.957031 25.714844 25.71875 C 25.8125 25.484375 25.699219 25.210938 25.460938 25.113281 C 25.308594 25.046875 25.214844 24.953125 25.140625 24.832031 C 25.070312 24.710938 25.027344 24.554688 25.027344 24.382812 C 25.027344 24.292969 25.039062 24.195312 25.0625 24.101562 C 25.125 23.851562 24.972656 23.601562 24.726562 23.535156 C 24.476562 23.476562 24.226562 23.625 24.164062 23.875 " fill-opacity="1" fill-rule="nonzero"/><path fill="#070808" d="M 11.40625 24.449219 C 11.292969 24.753906 11.25 25.085938 11.25 25.417969 C 11.25 25.878906 11.335938 26.339844 11.527344 26.734375 C 11.644531 26.960938 11.921875 27.054688 12.152344 26.941406 C 12.378906 26.828125 12.472656 26.546875 12.359375 26.316406 C 12.25 26.105469 12.175781 25.753906 12.175781 25.417969 C 12.175781 25.175781 12.214844 24.9375 12.277344 24.765625 C 12.363281 24.527344 12.238281 24.257812 12 24.171875 C 11.757812 24.085938 11.492188 24.207031 11.40625 24.449219 " fill-opacity="1" fill-rule="nonzero"/><path fill="#070808" d="M 7.609375 24.75 C 7.933594 24.667969 8.207031 24.621094 8.417969 24.621094 C 8.640625 24.621094 8.792969 24.664062 8.941406 24.757812 C 9.085938 24.851562 9.246094 25.023438 9.414062 25.34375 L 9.425781 25.367188 C 9.582031 25.625 9.6875 25.980469 9.683594 26.300781 C 9.683594 26.511719 9.644531 26.707031 9.5625 26.867188 C 9.480469 27.027344 9.367188 27.15625 9.183594 27.257812 C 8.960938 27.382812 8.878906 27.664062 9.003906 27.890625 C 9.128906 28.113281 9.414062 28.195312 9.636719 28.070312 C 9.980469 27.878906 10.238281 27.597656 10.394531 27.285156 C 10.550781 26.972656 10.613281 26.632812 10.613281 26.300781 C 10.613281 25.796875 10.46875 25.300781 10.222656 24.886719 L 9.824219 25.125 L 10.234375 24.910156 C 10.019531 24.5 9.761719 24.183594 9.445312 23.976562 C 9.128906 23.769531 8.769531 23.691406 8.417969 23.691406 C 8.078125 23.691406 7.738281 23.757812 7.382812 23.847656 C 7.136719 23.910156 6.984375 24.160156 7.046875 24.410156 C 7.109375 24.660156 7.359375 24.8125 7.609375 24.75 " fill-opacity="1" fill-rule="nonzero"/><path fill="#070808" d="M 22.390625 16.066406 C 22.394531 16.609375 22.5 17.042969 22.496094 17.390625 C 22.496094 17.542969 22.480469 17.671875 22.441406 17.804688 C 22.402344 17.933594 22.335938 18.066406 22.226562 18.21875 C 22.070312 18.425781 22.113281 18.714844 22.316406 18.871094 C 22.523438 19.023438 22.8125 18.984375 22.96875 18.777344 C 23.140625 18.546875 23.261719 18.308594 23.332031 18.070312 C 23.402344 17.835938 23.425781 17.605469 23.421875 17.390625 C 23.417969 16.890625 23.316406 16.46875 23.320312 16.066406 C 23.320312 15.808594 23.109375 15.601562 22.855469 15.601562 C 22.597656 15.601562 22.390625 15.808594 22.390625 16.066406 " fill-opacity="1" fill-rule="nonzero"/><path fill="#070808" d="M 27.636719 21.867188 C 27.972656 22.132812 28.210938 22.378906 28.371094 22.644531 C 28.53125 22.90625 28.625 23.195312 28.648438 23.601562 C 28.660156 23.855469 28.878906 24.050781 29.136719 24.039062 C 29.394531 24.023438 29.589844 23.804688 29.574219 23.546875 C 29.546875 23.019531 29.40625 22.554688 29.164062 22.160156 C 28.925781 21.761719 28.59375 21.441406 28.207031 21.136719 C 28.007812 20.976562 27.714844 21.011719 27.558594 21.214844 C 27.398438 21.417969 27.433594 21.707031 27.636719 21.867188 " fill-opacity="1" fill-rule="nonzero"/><path fill="#070808" d="M 15.734375 25.242188 C 15.800781 25.5 15.90625 25.699219 15.976562 25.867188 C 16.046875 26.039062 16.085938 26.171875 16.085938 26.304688 L 16.082031 26.378906 C 16.058594 26.632812 16.246094 26.859375 16.503906 26.882812 C 16.757812 26.90625 16.984375 26.71875 17.007812 26.464844 C 17.011719 26.414062 17.015625 26.359375 17.015625 26.304688 C 17.015625 25.984375 16.917969 25.714844 16.832031 25.507812 C 16.742188 25.296875 16.664062 25.136719 16.632812 25.015625 C 16.570312 24.765625 16.320312 24.613281 16.070312 24.675781 C 15.824219 24.738281 15.671875 24.992188 15.734375 25.242188 " fill-opacity="1" fill-rule="nonzero"/><path fill="#070808" d="M 23.207031 26.789062 L 23.65625 26.679688 C 23.585938 26.382812 23.453125 26.117188 23.289062 25.898438 C 23.125 25.675781 22.925781 25.5 22.71875 25.347656 C 22.558594 25.226562 22.335938 25.226562 22.171875 25.34375 C 21.742188 25.660156 21.390625 26.019531 21.035156 26.269531 C 20.679688 26.519531 20.316406 26.613281 19.90625 26.617188 C 19.457031 26.617188 18.960938 26.488281 18.464844 26.304688 C 18.257812 26.226562 18.011719 26.128906 17.742188 26.050781 C 17.476562 25.972656 17.1875 25.90625 16.878906 25.90625 C 16.570312 25.90625 16.238281 25.976562 15.9375 26.164062 C 15.632812 26.359375 15.449219 26.601562 15.285156 26.78125 C 15.203125 26.871094 15.132812 26.949219 15.0625 27.007812 C 14.996094 27.066406 14.933594 27.105469 14.867188 27.128906 C 14.582031 27.246094 14.25 27.296875 13.902344 27.296875 C 13.601562 27.296875 13.292969 27.257812 12.996094 27.199219 C 12.855469 27.171875 12.710938 27.210938 12.601562 27.300781 C 12.496094 27.394531 12.4375 27.53125 12.441406 27.671875 C 12.453125 28.007812 12.53125 28.347656 12.695312 28.660156 C 12.855469 28.972656 13.101562 29.257812 13.425781 29.476562 C 13.792969 29.726562 14.207031 29.871094 14.617188 29.953125 C 15.027344 30.035156 15.445312 30.058594 15.84375 30.058594 C 16.140625 30.058594 16.429688 30.042969 16.691406 30.03125 C 17.308594 30.003906 17.980469 30 18.667969 29.976562 L 18.65625 29.511719 L 18.316406 29.832031 L 18.34375 29.878906 C 18.351562 29.90625 18.363281 29.957031 18.363281 30.042969 C 18.363281 30.136719 18.347656 30.269531 18.3125 30.441406 C 18.292969 30.5625 18.195312 30.816406 18.078125 31.050781 C 17.960938 31.289062 17.816406 31.527344 17.722656 31.644531 L 17.722656 31.648438 C 17.640625 31.75 17.5 31.921875 17.371094 32.117188 C 17.308594 32.210938 17.246094 32.316406 17.191406 32.429688 C 17.140625 32.546875 17.097656 32.671875 17.085938 32.832031 C 17.074219 33.035156 17.195312 33.222656 17.386719 33.292969 C 17.546875 33.351562 17.671875 33.398438 17.792969 33.4375 C 17.914062 33.476562 18.035156 33.507812 18.179688 33.507812 C 18.289062 33.511719 18.40625 33.484375 18.503906 33.445312 C 18.65625 33.378906 18.757812 33.292969 18.863281 33.203125 C 18.96875 33.113281 19.078125 33.007812 19.226562 32.875 C 19.542969 32.585938 19.789062 32.261719 20.015625 31.949219 C 20.242188 31.636719 20.449219 31.332031 20.660156 31.078125 C 21.09375 30.554688 21.476562 30.058594 21.921875 29.609375 L 21.917969 29.613281 C 21.980469 29.550781 22.082031 29.453125 22.191406 29.335938 L 21.847656 29.023438 L 22.023438 29.453125 C 22.476562 29.269531 22.886719 28.960938 23.195312 28.570312 C 23.503906 28.175781 23.714844 27.6875 23.714844 27.148438 C 23.714844 26.996094 23.695312 26.839844 23.660156 26.679688 L 23.65625 26.679688 L 23.207031 26.789062 L 22.753906 26.894531 C 22.773438 26.980469 22.785156 27.066406 22.785156 27.148438 C 22.785156 27.4375 22.671875 27.730469 22.464844 27.992188 C 22.261719 28.253906 21.96875 28.472656 21.671875 28.59375 C 21.605469 28.621094 21.550781 28.660156 21.503906 28.710938 C 21.433594 28.789062 21.34375 28.871094 21.261719 28.953125 L 21.257812 28.957031 C 20.765625 29.457031 20.367188 29.976562 19.945312 30.484375 C 19.695312 30.789062 19.480469 31.109375 19.265625 31.40625 C 19.050781 31.703125 18.835938 31.972656 18.601562 32.183594 C 18.398438 32.371094 18.261719 32.5 18.191406 32.554688 L 18.152344 32.582031 L 18.144531 32.585938 L 18.179688 32.664062 L 18.179688 32.578125 L 18.144531 32.585938 L 18.179688 32.664062 L 18.179688 32.578125 L 18.179688 32.59375 L 18.183594 32.578125 L 18.179688 32.578125 L 18.179688 32.59375 L 18.183594 32.578125 C 18.179688 32.582031 18.136719 32.574219 18.058594 32.546875 C 17.976562 32.519531 17.863281 32.476562 17.710938 32.421875 L 17.550781 32.855469 L 18.011719 32.878906 L 17.972656 32.878906 L 18.011719 32.886719 L 18.011719 32.878906 L 17.972656 32.878906 L 18.011719 32.886719 C 18.011719 32.882812 18.023438 32.839844 18.054688 32.789062 C 18.09375 32.707031 18.160156 32.601562 18.238281 32.5 C 18.308594 32.398438 18.390625 32.300781 18.453125 32.21875 C 18.609375 32.015625 18.765625 31.75 18.910156 31.464844 C 19.046875 31.179688 19.167969 30.894531 19.222656 30.628906 C 19.269531 30.410156 19.289062 30.222656 19.289062 30.042969 C 19.289062 29.878906 19.269531 29.722656 19.21875 29.578125 C 19.171875 29.429688 19.089844 29.300781 18.992188 29.195312 C 18.902344 29.097656 18.773438 29.042969 18.640625 29.050781 C 17.96875 29.070312 17.292969 29.070312 16.644531 29.105469 C 16.386719 29.117188 16.113281 29.128906 15.84375 29.128906 C 15.484375 29.128906 15.125 29.105469 14.800781 29.042969 C 14.472656 28.976562 14.183594 28.871094 13.949219 28.707031 C 13.742188 28.570312 13.609375 28.410156 13.519531 28.234375 C 13.425781 28.058594 13.378906 27.855469 13.371094 27.636719 L 12.90625 27.65625 L 12.816406 28.113281 C 13.160156 28.179688 13.527344 28.226562 13.902344 28.226562 C 14.335938 28.226562 14.785156 28.164062 15.210938 27.996094 C 15.390625 27.925781 15.539062 27.824219 15.664062 27.714844 C 15.851562 27.558594 15.988281 27.390625 16.109375 27.253906 C 16.226562 27.117188 16.332031 27.015625 16.429688 26.953125 C 16.5625 26.871094 16.699219 26.839844 16.878906 26.835938 C 17.054688 26.835938 17.261719 26.878906 17.480469 26.941406 C 17.695312 27.007812 17.921875 27.09375 18.140625 27.175781 C 18.691406 27.382812 19.289062 27.546875 19.90625 27.546875 C 20.46875 27.546875 21.050781 27.402344 21.574219 27.027344 C 22.015625 26.710938 22.367188 26.347656 22.71875 26.097656 L 22.445312 25.722656 L 22.171875 26.09375 C 22.324219 26.207031 22.449219 26.328125 22.546875 26.457031 C 22.644531 26.585938 22.714844 26.726562 22.753906 26.898438 L 22.753906 26.894531 L 23.207031 26.789062 " fill-opacity="1" fill-rule="nonzero"/><path fill="#070808" d="M 18.054688 28.332031 C 18.5625 28.867188 19.078125 29.214844 19.558594 29.417969 C 20.042969 29.625 20.492188 29.695312 20.863281 29.695312 C 21.496094 29.691406 21.902344 29.503906 21.945312 29.484375 L 21.742188 29.066406 L 21.894531 29.503906 C 22.378906 29.335938 22.816406 29.027344 23.152344 28.625 C 23.484375 28.222656 23.714844 27.714844 23.714844 27.152344 C 23.714844 26.996094 23.695312 26.839844 23.660156 26.679688 L 23.65625 26.679688 C 23.585938 26.382812 23.453125 26.117188 23.289062 25.898438 C 23.125 25.675781 22.925781 25.5 22.71875 25.347656 C 22.558594 25.226562 22.335938 25.226562 22.171875 25.34375 C 21.742188 25.660156 21.390625 26.019531 21.035156 26.269531 C 20.679688 26.519531 20.316406 26.613281 19.90625 26.617188 C 19.457031 26.617188 18.960938 26.488281 18.464844 26.304688 C 18.257812 26.226562 18.011719 26.128906 17.742188 26.050781 C 17.476562 25.972656 17.1875 25.90625 16.878906 25.90625 C 16.570312 25.90625 16.238281 25.976562 15.9375 26.164062 C 15.632812 26.359375 15.449219 26.601562 15.285156 26.78125 C 15.203125 26.871094 15.132812 26.949219 15.0625 27.007812 C 14.996094 27.066406 14.933594 27.105469 14.867188 27.128906 C 14.582031 27.246094 14.25 27.296875 13.902344 27.296875 C 13.601562 27.296875 13.292969 27.257812 12.996094 27.199219 C 12.855469 27.171875 12.710938 27.210938 12.601562 27.300781 C 12.496094 27.394531 12.4375 27.53125 12.441406 27.671875 C 12.453125 28.007812 12.53125 28.347656 12.695312 28.660156 C 12.855469 28.972656 13.101562 29.257812 13.425781 29.476562 C 13.792969 29.726562 14.207031 29.871094 14.617188 29.953125 C 15.027344 30.035156 15.445312 30.058594 15.84375 30.058594 C 16.140625 30.058594 16.429688 30.042969 16.691406 30.03125 C 17.308594 30.003906 17.984375 30 18.671875 29.976562 C 18.929688 29.972656 19.128906 29.753906 19.121094 29.5 C 19.113281 29.242188 18.898438 29.042969 18.640625 29.050781 C 17.96875 29.070312 17.292969 29.070312 16.644531 29.105469 C 16.386719 29.117188 16.113281 29.128906 15.84375 29.128906 C 15.484375 29.128906 15.125 29.105469 14.800781 29.042969 C 14.472656 28.976562 14.183594 28.871094 13.949219 28.707031 C 13.742188 28.570312 13.609375 28.410156 13.519531 28.234375 C 13.425781 28.058594 13.378906 27.855469 13.371094 27.636719 L 12.90625 27.65625 L 12.816406 28.113281 C 13.160156 28.179688 13.527344 28.226562 13.902344 28.226562 C 14.335938 28.226562 14.785156 28.164062 15.210938 27.996094 C 15.390625 27.925781 15.539062 27.824219 15.664062 27.714844 C 15.851562 27.558594 15.988281 27.390625 16.109375 27.253906 C 16.226562 27.117188 16.332031 27.015625 16.429688 26.953125 C 16.5625 26.871094 16.699219 26.839844 16.878906 26.835938 C 17.054688 26.835938 17.261719 26.878906 17.480469 26.941406 C 17.695312 27.007812 17.921875 27.09375 18.140625 27.175781 C 18.691406 27.382812 19.289062 27.546875 19.90625 27.546875 C 20.46875 27.546875 21.050781 27.402344 21.574219 27.027344 C 22.015625 26.710938 22.367188 26.347656 22.71875 26.097656 L 22.445312 25.722656 L 22.171875 26.09375 C 22.324219 26.207031 22.449219 26.328125 22.546875 26.457031 C 22.644531 26.585938 22.714844 26.726562 22.753906 26.898438 L 22.753906 26.894531 C 22.773438 26.984375 22.785156 27.066406 22.785156 27.152344 C 22.785156 27.453125 22.660156 27.761719 22.4375 28.03125 C 22.214844 28.300781 21.902344 28.519531 21.589844 28.625 L 21.542969 28.644531 L 21.644531 28.863281 L 21.546875 28.644531 L 21.542969 28.644531 L 21.644531 28.863281 L 21.546875 28.644531 C 21.546875 28.644531 21.53125 28.648438 21.5 28.664062 C 21.402344 28.695312 21.175781 28.765625 20.863281 28.765625 C 20.605469 28.761719 20.285156 28.71875 19.925781 28.5625 C 19.5625 28.410156 19.15625 28.144531 18.730469 27.691406 C 18.550781 27.503906 18.257812 27.5 18.070312 27.675781 C 17.886719 27.851562 17.878906 28.144531 18.054688 28.332031 " fill-opacity="1" fill-rule="nonzero"/><path fill="#070808" d="M 33.667969 45.703125 L 27.28125 45.703125 C 27.03125 45.703125 25.511719 45.667969 24.121094 45.046875 C 23.421875 44.738281 22.761719 44.289062 22.28125 43.648438 C 21.796875 43.003906 21.472656 42.160156 21.472656 40.984375 C 21.472656 40.761719 21.484375 40.527344 21.507812 40.285156 C 21.535156 40.027344 21.351562 39.800781 21.09375 39.773438 C 20.839844 39.75 20.609375 39.933594 20.585938 40.1875 C 20.558594 40.464844 20.542969 40.730469 20.542969 40.984375 C 20.542969 42.335938 20.929688 43.40625 21.539062 44.207031 C 21.992188 44.808594 22.554688 45.257812 23.144531 45.597656 C 24.035156 46.101562 24.976562 46.355469 25.746094 46.488281 C 26.511719 46.621094 27.101562 46.632812 27.28125 46.632812 C 27.3125 46.632812 27.332031 46.632812 27.335938 46.632812 L 27.328125 46.167969 L 27.328125 46.632812 L 33.667969 46.632812 C 33.921875 46.632812 34.132812 46.421875 34.132812 46.167969 C 34.132812 45.910156 33.921875 45.703125 33.667969 45.703125 " fill-opacity="1" fill-rule="nonzero"/></g></g></g></g><g fill="#000000" fill-opacity="1"><g transform="translate(63.306075, 38.091237)"><g><path d="M 18.125 0 L 23.652344 0 L 13.675781 -21.261719 L 9.257812 -21.261719 L -0.6875 0 L 4.925781 0 L 6.808594 -4.390625 L 16.246094 -4.390625 Z M 8.628906 -8.601562 L 11.527344 -15.320312 L 14.421875 -8.601562 Z M 8.628906 -8.601562 "/></g></g></g><g fill="#000000" fill-opacity="1"><g transform="translate(86.267761, 38.091237)"><g><path d="M 6.6875 0 L 12.363281 0 L 12.363281 -16.722656 L 18.695312 -16.722656 L 18.695312 -21.261719 L 0.359375 -21.261719 L 0.359375 -16.722656 L 6.6875 -16.722656 Z M 6.6875 0 "/></g></g></g><g fill="#000000" fill-opacity="1"><g transform="translate(105.317894, 38.091237)"><g><path d="M 12.242188 0.269531 C 15.019531 0.269531 17.859375 -0.628906 19.441406 -2.058594 L 17.738281 -6.03125 C 16.007812 -4.777344 14.214844 -4.152344 12.363281 -4.152344 C 8.929688 -4.152344 7.046875 -6.359375 7.046875 -10.660156 C 7.046875 -14.929688 8.929688 -17.109375 12.363281 -17.109375 C 14.214844 -17.109375 16.007812 -16.484375 17.738281 -15.230469 L 19.441406 -19.203125 C 17.859375 -20.636719 15.019531 -21.53125 12.242188 -21.53125 C 7.824219 -21.53125 4.449219 -19.648438 2.6875 -16.363281 C 1.792969 -14.722656 1.34375 -12.8125 1.34375 -10.660156 C 1.34375 -6.332031 3.195312 -2.898438 6.480469 -1.105469 C 8.121094 -0.179688 10.035156 0.269531 12.242188 0.269531 Z M 12.242188 0.269531 "/></g></g></g><g fill="#000000" fill-opacity="1"><g transform="translate(125.771409, 38.091237)"><g/></g></g><g fill="#19baaa" fill-opacity="1"><g transform="translate(134.425881, 38.091237)"><g><path d="M 9.617188 0.269531 C 15.46875 0.269531 18.84375 -2.238281 18.84375 -6.390625 C 18.84375 -8.570312 18.035156 -10.09375 15.828125 -11.289062 C 14.722656 -11.855469 13.199219 -12.363281 11.257812 -12.78125 C 9.40625 -13.199219 7.824219 -13.675781 7.347656 -14.214844 C 7.136719 -14.453125 7.019531 -14.753906 7.019531 -15.109375 C 7.019531 -16.425781 8.363281 -17.261719 10.390625 -17.261719 C 12.453125 -17.261719 14.574219 -16.542969 16.453125 -15.230469 L 18.1875 -19.203125 C 16.542969 -20.605469 13.410156 -21.53125 10.332031 -21.53125 C 6.898438 -21.53125 4.121094 -20.304688 2.65625 -18.214844 C 1.910156 -17.171875 1.554688 -15.976562 1.554688 -14.691406 C 1.554688 -12.421875 2.328125 -10.898438 4.570312 -9.734375 C 5.675781 -9.136719 7.257812 -8.628906 9.257812 -8.242188 C 10.839844 -7.914062 11.945312 -7.554688 12.511719 -7.226562 C 13.078125 -6.867188 13.378906 -6.421875 13.378906 -5.882812 C 13.378906 -4.6875 12.0625 -4 9.675781 -4 C 7.316406 -4 4.925781 -4.71875 2.867188 -6.03125 L 1.105469 -2.058594 C 3.046875 -0.628906 6.421875 0.269531 9.617188 0.269531 Z M 9.617188 0.269531 "/></g></g></g><g fill="#19baaa" fill-opacity="1"><g transform="translate(154.491228, 38.091237)"><g><path d="M 12.242188 0.269531 C 15.019531 0.269531 17.859375 -0.628906 19.441406 -2.058594 L 17.738281 -6.03125 C 16.007812 -4.777344 14.214844 -4.152344 12.363281 -4.152344 C 8.929688 -4.152344 7.046875 -6.359375 7.046875 -10.660156 C 7.046875 -14.929688 8.929688 -17.109375 12.363281 -17.109375 C 14.214844 -17.109375 16.007812 -16.484375 17.738281 -15.230469 L 19.441406 -19.203125 C 17.859375 -20.636719 15.019531 -21.53125 12.242188 -21.53125 C 7.824219 -21.53125 4.449219 -19.648438 2.6875 -16.363281 C 1.792969 -14.722656 1.34375 -12.8125 1.34375 -10.660156 C 1.34375 -6.332031 3.195312 -2.898438 6.480469 -1.105469 C 8.121094 -0.179688 10.035156 0.269531 12.242188 0.269531 Z M 12.242188 0.269531 "/></g></g></g></svg>