<svg xmlns="http://www.w3.org/2000/svg" xmlns:xlink="http://www.w3.org/1999/xlink" width="350" zoomAndPan="magnify" viewBox="0 0 262.5 74.999997" height="100" preserveAspectRatio="xMidYMid meet" version="1.0"><defs><filter x="0%" y="0%" width="100%" height="100%" id="id1"><feColorMatrix values="0 0 0 0 1 0 0 0 0 1 0 0 0 0 1 0 0 0 1 0" color-interpolation-filters="sRGB"/></filter><g/><clipPath id="id2"><path d="M 0 0.0703125 L 166 0.0703125 L 166 74.925781 L 0 74.925781 Z M 0 0.0703125 " clip-rule="nonzero"/></clipPath><mask id="id3"><g filter="url(#id1)"><rect x="-26.25" width="315" fill="#000000" y="-7.5" height="89.999996" fill-opacity="0.6863"/></g></mask><clipPath id="id4"><path d="M 0.480469 0.0703125 L 153 0.0703125 L 153 74.925781 L 0.480469 74.925781 Z M 0.480469 0.0703125 " clip-rule="nonzero"/></clipPath><clipPath id="id5"><path d="M 28 0.0703125 L 125 0.0703125 L 125 74.925781 L 28 74.925781 Z M 28 0.0703125 " clip-rule="nonzero"/></clipPath><clipPath id="id6"><path d="M 117 0.0703125 L 127 0.0703125 L 127 13 L 117 13 Z M 117 0.0703125 " clip-rule="nonzero"/></clipPath><clipPath id="id7"><path d="M 108 71 L 121 71 L 121 74.925781 L 108 74.925781 Z M 108 71 " clip-rule="nonzero"/></clipPath><clipPath id="id8"><path d="M 33 72 L 44 72 L 44 74.925781 L 33 74.925781 Z M 33 72 " clip-rule="nonzero"/></clipPath><clipPath id="id9"><path d="M 30 0.0703125 L 44 0.0703125 L 44 6 L 30 6 Z M 30 0.0703125 " clip-rule="nonzero"/></clipPath><clipPath id="id10"><path d="M 161 9 L 165.664062 9 L 165.664062 11 L 161 11 Z M 161 9 " clip-rule="nonzero"/></clipPath><clipPath id="id11"><path d="M 43 1 L 111 1 L 111 74.925781 L 43 74.925781 Z M 43 1 " clip-rule="nonzero"/></clipPath><clipPath id="id12"><rect x="0" width="166" y="0" height="75"/></clipPath></defs><g clip-path="url(#id2)"><g mask="url(#id3)"><g transform="matrix(1, 0, 0, 1, 0, 0.000000000000008313)"><g clip-path="url(#id12)"><g clip-path="url(#id4)"><path fill="#19baaa" d="M 76.609375 113.179688 C 34.625 113.179688 0.589844 79.261719 0.589844 37.425781 C 0.589844 -4.414062 34.625 -38.332031 76.609375 -38.332031 C 118.589844 -38.332031 152.625 -4.414062 152.625 37.425781 C 152.625 79.261719 118.589844 113.179688 76.609375 113.179688 " fill-opacity="1" fill-rule="nonzero"/></g><g clip-path="url(#id5)"><path fill="#fafafa" d="M 124.695312 37.425781 C 124.695312 63.890625 103.164062 85.347656 76.609375 85.347656 C 50.050781 85.347656 28.523438 63.890625 28.523438 37.425781 C 28.523438 10.957031 50.050781 -10.496094 76.609375 -10.496094 C 103.164062 -10.496094 124.695312 10.957031 124.695312 37.425781 " fill-opacity="1" fill-rule="nonzero"/></g><g clip-path="url(#id6)"><path fill="#070808" d="M 126.746094 11.605469 C 124.59375 7.445312 121.910156 3.5625 118.796875 0.0625 L 117.488281 1.222656 C 120.507812 4.617188 123.105469 8.378906 125.1875 12.40625 L 126.746094 11.605469 " fill-opacity="1" fill-rule="nonzero"/></g><path fill="#070808" d="M 130.160156 19.699219 C 129.898438 18.910156 129.617188 18.125 129.320312 17.347656 L 127.683594 17.96875 C 127.96875 18.722656 128.242188 19.484375 128.496094 20.253906 L 130.160156 19.699219 " fill-opacity="1" fill-rule="nonzero"/><path fill="#070808" d="M 133.011719 40.066406 C 133.046875 39.253906 133.066406 38.4375 133.066406 37.628906 C 133.066406 32.152344 132.265625 26.683594 130.707031 21.4375 L 129.027344 21.933594 C 130.535156 27.019531 131.3125 32.324219 131.3125 37.628906 C 131.3125 38.414062 131.292969 39.203125 131.261719 39.988281 L 133.011719 40.066406 " fill-opacity="1" fill-rule="nonzero"/><path fill="#070808" d="M 128.21875 60.292969 C 130.242188 55.761719 131.671875 50.960938 132.425781 46.054688 L 130.695312 45.789062 C 129.964844 50.539062 128.578125 55.191406 126.617188 59.585938 L 128.21875 60.292969 " fill-opacity="1" fill-rule="nonzero"/><path fill="#070808" d="M 126.566406 63.695312 C 126.773438 63.296875 126.976562 62.902344 127.175781 62.507812 L 125.609375 61.726562 C 125.414062 62.113281 125.21875 62.5 125.015625 62.878906 L 126.566406 63.695312 " fill-opacity="1" fill-rule="nonzero"/><path fill="#070808" d="M 121.929688 71.054688 C 122.339844 70.503906 122.738281 69.949219 123.125 69.386719 L 121.679688 68.398438 C 121.304688 68.945312 120.917969 69.484375 120.523438 70.011719 L 121.929688 71.054688 " fill-opacity="1" fill-rule="nonzero"/><g clip-path="url(#id7)"><path fill="#070808" d="M 109.617188 83.085938 C 113.640625 80.214844 117.289062 76.816406 120.414062 72.992188 L 119.054688 71.890625 C 116.027344 75.589844 112.496094 78.886719 108.59375 81.667969 L 109.617188 83.085938 " fill-opacity="1" fill-rule="nonzero"/></g><g clip-path="url(#id8)"><path fill="#070808" d="M 33.660156 74 C 36.3125 77.097656 39.304688 79.898438 42.566406 82.347656 L 43.621094 80.953125 C 40.460938 78.578125 37.5625 75.863281 34.992188 72.867188 L 33.660156 74 " fill-opacity="1" fill-rule="nonzero"/></g><path fill="#070808" d="M 27.175781 64.679688 C 27.949219 66.074219 28.785156 67.4375 29.675781 68.757812 L 31.128906 67.785156 C 30.269531 66.503906 29.460938 65.183594 28.707031 63.832031 L 27.175781 64.679688 " fill-opacity="1" fill-rule="nonzero"/><path fill="#070808" d="M 25.316406 61.023438 C 25.601562 61.644531 25.902344 62.257812 26.210938 62.867188 L 27.773438 62.082031 C 27.472656 61.488281 27.183594 60.890625 26.90625 60.292969 L 25.316406 61.023438 " fill-opacity="1" fill-rule="nonzero"/><path fill="#070808" d="M 22.609375 54.003906 C 22.726562 54.378906 22.847656 54.75 22.96875 55.117188 L 24.632812 54.566406 C 24.511719 54.207031 24.394531 53.847656 24.285156 53.492188 L 22.609375 54.003906 " fill-opacity="1" fill-rule="nonzero"/><path fill="#070808" d="M 20.433594 43.488281 C 20.71875 46.203125 21.214844 48.894531 21.902344 51.53125 L 23.601562 51.09375 C 22.929688 48.535156 22.453125 45.933594 22.175781 43.304688 L 20.433594 43.488281 " fill-opacity="1" fill-rule="nonzero"/><path fill="#070808" d="M 20.542969 30.800781 C 20.28125 33.023438 20.152344 35.261719 20.152344 37.496094 L 20.152344 37.546875 L 21.90625 37.496094 L 21.414062 37.507812 L 21.90625 37.507812 L 21.90625 37.496094 L 21.414062 37.507812 L 21.90625 37.507812 L 21.90625 37.496094 C 21.90625 35.328125 22.03125 33.160156 22.285156 31.003906 L 20.546875 30.800781 " fill-opacity="1" fill-rule="nonzero"/><path fill="#070808" d="M 21.167969 26.761719 C 21.050781 27.390625 20.9375 28.023438 20.839844 28.65625 L 22.570312 28.925781 C 22.667969 28.3125 22.773438 27.699219 22.890625 27.085938 L 21.167969 26.761719 " fill-opacity="1" fill-rule="nonzero"/><path fill="#070808" d="M 25.210938 14.109375 C 24.234375 16.226562 23.398438 18.410156 22.703125 20.636719 L 24.378906 21.15625 C 25.050781 19 25.859375 16.886719 26.804688 14.835938 L 25.210938 14.109375 " fill-opacity="1" fill-rule="nonzero"/><path fill="#070808" d="M 29.042969 7.136719 C 28.785156 7.539062 28.53125 7.941406 28.28125 8.347656 L 29.777344 9.257812 C 30.019531 8.863281 30.265625 8.46875 30.519531 8.082031 L 29.042969 7.136719 " fill-opacity="1" fill-rule="nonzero"/><g clip-path="url(#id9)"><path fill="#070808" d="M 42.359375 -7.3125 C 37.820312 -3.851562 33.816406 0.292969 30.503906 4.929688 L 31.933594 5.941406 C 35.144531 1.445312 39.027344 -2.570312 43.425781 -5.925781 L 42.359375 -7.3125 " fill-opacity="1" fill-rule="nonzero"/></g><path fill="#070808" d="M 133.753906 72.269531 L 135.503906 72.269531 L 135.503906 67.878906 L 133.753906 67.878906 Z M 133.753906 72.269531 " fill-opacity="1" fill-rule="nonzero"/><path fill="#070808" d="M 132.425781 70.945312 L 136.832031 70.945312 L 136.832031 69.199219 L 132.425781 69.199219 Z M 132.425781 70.945312 " fill-opacity="1" fill-rule="nonzero"/><path fill="#070808" d="M 162.441406 12.285156 L 164.191406 12.285156 L 164.191406 7.898438 L 162.441406 7.898438 Z M 162.441406 12.285156 " fill-opacity="1" fill-rule="nonzero"/><g clip-path="url(#id10)"><path fill="#070808" d="M 161.113281 10.964844 L 165.519531 10.964844 L 165.519531 9.21875 L 161.113281 9.21875 Z M 161.113281 10.964844 " fill-opacity="1" fill-rule="nonzero"/></g><path fill="#070808" d="M 10.984375 58.023438 L 12.738281 58.023438 L 12.738281 53.632812 L 10.984375 53.632812 Z M 10.984375 58.023438 " fill-opacity="1" fill-rule="nonzero"/><path fill="#070808" d="M 9.660156 56.703125 L 14.0625 56.703125 L 14.0625 54.953125 L 9.660156 54.953125 Z M 9.660156 56.703125 " fill-opacity="1" fill-rule="nonzero"/><path fill="#070808" d="M 135.476562 3.703125 L 142.53125 3.703125 L 142.53125 1.957031 L 135.476562 1.957031 Z M 135.476562 3.703125 " fill-opacity="1" fill-rule="nonzero"/><path fill="#070808" d="M 136.800781 50.308594 L 143.859375 50.308594 L 143.859375 48.5625 L 136.800781 48.5625 Z M 136.800781 50.308594 " fill-opacity="1" fill-rule="nonzero"/><path fill="#070808" d="M 156.257812 69.136719 L 163.316406 69.136719 L 163.316406 67.390625 L 156.257812 67.390625 Z M 156.257812 69.136719 " fill-opacity="1" fill-rule="nonzero"/><path fill="#070808" d="M 154.054688 30.753906 L 153.179688 30.753906 C 153.179688 31.175781 153.007812 31.550781 152.730469 31.832031 C 152.453125 32.105469 152.074219 32.277344 151.648438 32.277344 C 151.226562 32.277344 150.847656 32.105469 150.570312 31.832031 C 150.289062 31.550781 150.121094 31.175781 150.121094 30.753906 C 150.121094 30.328125 150.289062 29.953125 150.566406 29.675781 C 150.847656 29.398438 151.226562 29.230469 151.648438 29.230469 C 152.074219 29.230469 152.453125 29.398438 152.730469 29.675781 C 153.007812 29.953125 153.179688 30.328125 153.179688 30.753906 L 154.933594 30.753906 C 154.933594 28.945312 153.464844 27.480469 151.648438 27.480469 C 149.835938 27.480469 148.367188 28.945312 148.367188 30.753906 C 148.367188 32.558594 149.835938 34.023438 151.648438 34.023438 C 153.464844 34.023438 154.933594 32.558594 154.933594 30.753906 L 154.054688 30.753906 " fill-opacity="1" fill-rule="nonzero"/><g clip-path="url(#id11)"><path fill="#070808" d="M 54.175781 79.753906 C 56.570312 74.09375 57.34375 69.320312 57.339844 65.539062 C 57.339844 59 55.042969 55.453125 54.992188 55.378906 C 54.960938 55.328125 54.917969 55.277344 54.867188 55.238281 C 50.476562 51.492188 47.871094 47.019531 46.355469 42.613281 C 44.84375 38.207031 44.425781 33.871094 44.425781 30.453125 C 44.425781 28.398438 44.574219 26.675781 44.726562 25.472656 C 44.800781 24.871094 44.875 24.398438 44.929688 24.078125 C 44.957031 23.921875 44.980469 23.796875 44.996094 23.71875 C 45.003906 23.675781 45.011719 23.644531 45.015625 23.625 L 45.019531 23.597656 L 45.027344 23.566406 C 45.847656 18.476562 47.6875 14.640625 50.03125 11.714844 C 53.542969 7.332031 58.230469 4.992188 62.417969 3.746094 C 66.601562 2.503906 70.265625 2.363281 71.65625 2.363281 C 71.851562 2.363281 72.003906 2.367188 72.105469 2.371094 C 72.15625 2.371094 72.191406 2.375 72.214844 2.375 L 72.355469 2.375 L 72.375 2.371094 C 72.480469 2.363281 73 2.3125 73.832031 2.316406 C 76.234375 2.3125 81.199219 2.699219 86.207031 5.378906 C 88.710938 6.71875 91.226562 8.625 93.460938 11.355469 C 95.695312 14.085938 97.648438 17.636719 99.003906 22.28125 L 99.636719 22.097656 L 98.988281 22.21875 L 100.664062 31.03125 L 100.6875 31.117188 C 100.722656 31.21875 100.945312 31.8125 102.050781 33.238281 C 103.160156 34.664062 105.15625 36.917969 108.765625 40.316406 L 109.21875 39.839844 L 108.679688 40.21875 L 109.015625 39.984375 L 108.675781 40.214844 L 108.679688 40.21875 L 109.015625 39.984375 L 108.675781 40.214844 C 108.679688 40.21875 108.714844 40.273438 108.746094 40.347656 C 108.773438 40.417969 108.792969 40.5 108.792969 40.5625 C 108.789062 40.613281 108.785156 40.648438 108.757812 40.691406 L 109.328125 41.023438 L 109.027344 40.4375 L 103.003906 43.46875 C 102.910156 43.515625 102.824219 43.589844 102.761719 43.675781 C 102.742188 43.707031 102.648438 43.84375 102.558594 44.070312 C 102.46875 44.296875 102.378906 44.617188 102.378906 45.011719 C 102.378906 45.367188 102.457031 45.785156 102.664062 46.214844 C 102.871094 46.644531 103.207031 47.082031 103.695312 47.511719 L 103.699219 47.511719 L 105 48.625 L 105.425781 48.128906 L 104.914062 48.535156 C 104.945312 48.582031 104.949219 48.589844 104.949219 48.648438 C 104.957031 48.734375 104.890625 48.949219 104.734375 49.191406 C 104.503906 49.558594 104.101562 49.96875 103.769531 50.269531 C 103.601562 50.421875 103.449219 50.546875 103.339844 50.636719 C 103.285156 50.679688 103.242188 50.710938 103.214844 50.734375 L 103.179688 50.761719 L 103.171875 50.765625 C 103.011719 50.882812 102.914062 51.066406 102.90625 51.261719 C 102.898438 51.457031 102.976562 51.648438 103.125 51.78125 L 104.789062 53.269531 L 105.226562 52.78125 L 104.664062 53.121094 L 104.824219 53.023438 L 104.648438 53.089844 L 104.664062 53.121094 L 104.824219 53.023438 L 104.648438 53.089844 L 104.683594 53.074219 L 104.644531 53.074219 L 104.648438 53.089844 L 104.683594 53.074219 L 104.644531 53.074219 L 104.769531 53.074219 L 104.664062 53.011719 L 104.644531 53.074219 L 104.769531 53.074219 L 104.664062 53.011719 L 104.644531 53.042969 L 103.230469 55.742188 C 103.160156 55.878906 103.136719 56.039062 103.171875 56.1875 C 103.171875 56.1875 103.183594 56.242188 103.203125 56.34375 C 103.28125 56.707031 103.472656 57.65625 103.644531 58.769531 C 103.820312 59.878906 103.972656 61.160156 103.96875 62.15625 C 103.96875 62.460938 103.957031 62.742188 103.925781 62.972656 L 104.578125 63.054688 L 103.957031 62.84375 L 104 62.859375 L 103.957031 62.84375 L 104 62.859375 L 103.957031 62.84375 C 103.945312 62.875 103.75 63.417969 103.355469 63.949219 C 103.160156 64.214844 102.917969 64.476562 102.632812 64.683594 C 102.347656 64.890625 102.027344 65.042969 101.648438 65.105469 L 101.757812 65.753906 L 101.789062 65.097656 L 88.777344 64.496094 C 88.707031 64.496094 88.636719 64.503906 88.570312 64.519531 C 88.519531 64.539062 87.507812 64.8125 86.445312 65.679688 C 85.914062 66.113281 85.371094 66.703125 84.949219 67.476562 C 84.53125 68.25 84.238281 69.210938 84.191406 70.359375 L 84.191406 70.367188 L 83.804688 84.660156 C 83.792969 85.023438 84.082031 85.324219 84.445312 85.332031 C 84.808594 85.34375 85.109375 85.058594 85.117188 84.695312 L 85.507812 70.402344 L 84.851562 70.386719 L 85.507812 70.414062 C 85.546875 69.453125 85.78125 68.703125 86.109375 68.097656 C 86.597656 67.195312 87.304688 66.613281 87.898438 66.253906 C 88.195312 66.078125 88.457031 65.957031 88.644531 65.882812 C 88.738281 65.84375 88.8125 65.816406 88.859375 65.804688 L 88.910156 65.785156 L 88.921875 65.785156 L 88.878906 65.632812 L 88.917969 65.785156 L 88.921875 65.785156 L 88.878906 65.632812 L 88.917969 65.785156 L 88.746094 65.152344 L 88.714844 65.804688 L 101.726562 66.40625 C 101.773438 66.410156 101.816406 66.40625 101.867188 66.398438 C 102.492188 66.296875 103.019531 66.035156 103.449219 65.710938 C 104.09375 65.230469 104.519531 64.625 104.792969 64.140625 C 105.070312 63.65625 105.191406 63.289062 105.203125 63.257812 C 105.21875 63.214844 105.222656 63.179688 105.230469 63.132812 C 105.269531 62.828125 105.285156 62.5 105.285156 62.15625 C 105.285156 60.878906 105.074219 59.332031 104.867188 58.085938 C 104.660156 56.84375 104.457031 55.914062 104.453125 55.90625 L 103.8125 56.046875 L 104.394531 56.351562 L 105.8125 53.648438 L 105.226562 53.347656 L 105.792969 53.683594 C 105.917969 53.476562 105.960938 53.257812 105.960938 53.074219 C 105.957031 52.710938 105.820312 52.5 105.792969 52.445312 C 105.757812 52.390625 105.71875 52.339844 105.667969 52.296875 L 104.003906 50.804688 L 103.5625 51.292969 L 103.953125 51.820312 C 103.96875 51.808594 104.503906 51.417969 105.054688 50.855469 C 105.332031 50.574219 105.613281 50.25 105.84375 49.890625 C 106.070312 49.53125 106.261719 49.128906 106.265625 48.648438 C 106.269531 48.335938 106.160156 47.988281 105.941406 47.71875 L 105.855469 47.632812 L 104.558594 46.519531 L 104.558594 46.523438 C 104.183594 46.191406 103.96875 45.894531 103.847656 45.644531 C 103.726562 45.394531 103.695312 45.1875 103.691406 45.011719 C 103.691406 44.816406 103.738281 44.660156 103.78125 44.554688 C 103.800781 44.5 103.820312 44.460938 103.832031 44.4375 L 103.84375 44.417969 L 103.8125 44.398438 L 103.84375 44.421875 L 103.84375 44.417969 L 103.8125 44.398438 L 103.84375 44.421875 L 103.484375 44.179688 L 103.839844 44.429688 L 103.84375 44.421875 L 103.484375 44.179688 L 103.839844 44.429688 L 103.300781 44.050781 L 103.597656 44.636719 L 109.621094 41.609375 C 109.734375 41.550781 109.828125 41.464844 109.894531 41.355469 C 110.046875 41.089844 110.105469 40.808594 110.105469 40.5625 C 110.105469 40.234375 110.015625 39.976562 109.9375 39.789062 C 109.851562 39.605469 109.773438 39.492188 109.757812 39.464844 L 109.671875 39.367188 C 106.09375 36 104.140625 33.789062 103.089844 32.4375 C 102.5625 31.761719 102.265625 31.300781 102.105469 31.023438 C 102.023438 30.886719 101.976562 30.792969 101.953125 30.738281 L 101.933594 30.691406 L 101.929688 30.6875 L 101.632812 30.804688 L 101.9375 30.703125 L 101.929688 30.6875 L 101.632812 30.804688 L 101.9375 30.703125 L 101.3125 30.910156 L 101.957031 30.785156 L 100.28125 21.976562 L 100.265625 21.914062 C 98.867188 17.121094 96.832031 13.398438 94.480469 10.527344 C 90.957031 6.21875 86.726562 3.832031 82.925781 2.53125 C 79.121094 1.230469 75.734375 1.003906 73.832031 1.003906 C 72.824219 1.003906 72.234375 1.070312 72.214844 1.070312 L 72.285156 1.722656 L 72.316406 1.066406 C 72.308594 1.066406 72.074219 1.054688 71.65625 1.054688 C 69.6875 1.058594 63.621094 1.304688 57.554688 4.210938 C 54.519531 5.667969 51.488281 7.796875 49.003906 10.898438 C 46.511719 14 44.582031 18.070312 43.726562 23.359375 L 44.378906 23.460938 L 43.734375 23.324219 C 43.726562 23.355469 43.113281 26.21875 43.109375 30.453125 C 43.113281 33.976562 43.539062 38.449219 45.113281 43.035156 C 46.6875 47.621094 49.417969 52.320312 54.015625 56.234375 L 54.441406 55.738281 L 53.890625 56.097656 L 54.074219 55.976562 L 53.890625 56.09375 L 53.890625 56.097656 L 54.074219 55.976562 L 53.890625 56.09375 C 53.910156 56.125 56.027344 59.410156 56.027344 65.539062 C 56.027344 69.144531 55.296875 73.734375 52.964844 79.242188 C 52.824219 79.574219 52.980469 79.960938 53.3125 80.101562 C 53.648438 80.242188 54.035156 80.085938 54.175781 79.753906 " fill-opacity="1" fill-rule="nonzero"/></g><path fill="#070808" d="M 70.597656 9.933594 C 70.734375 10.171875 70.871094 10.402344 70.964844 10.613281 C 71.054688 10.828125 71.105469 11.019531 71.105469 11.191406 L 71.101562 11.289062 C 71.0625 11.648438 71.324219 11.972656 71.683594 12.011719 C 72.046875 12.046875 72.367188 11.789062 72.40625 11.425781 C 72.414062 11.347656 72.421875 11.269531 72.421875 11.191406 C 72.417969 10.773438 72.304688 10.402344 72.167969 10.089844 C 72.03125 9.777344 71.867188 9.507812 71.738281 9.28125 C 71.558594 8.96875 71.15625 8.859375 70.839844 9.039062 C 70.523438 9.21875 70.414062 9.617188 70.597656 9.933594 " fill-opacity="1" fill-rule="nonzero"/><path fill="#070808" d="M 51.261719 37.839844 C 51.359375 37.847656 51.457031 37.851562 51.554688 37.851562 C 52.402344 37.847656 53.238281 37.511719 53.839844 36.921875 C 54.097656 36.664062 54.097656 36.25 53.839844 35.996094 C 53.585938 35.738281 53.167969 35.738281 52.910156 35.996094 C 52.59375 36.320312 52.035156 36.546875 51.554688 36.542969 C 51.496094 36.542969 51.441406 36.539062 51.390625 36.535156 C 51.027344 36.5 50.707031 36.761719 50.671875 37.121094 C 50.636719 37.480469 50.898438 37.804688 51.261719 37.839844 " fill-opacity="1" fill-rule="nonzero"/><path fill="#070808" d="M 57.152344 39.609375 L 57.609375 40.078125 C 57.832031 39.855469 58 39.714844 58.113281 39.648438 C 58.230469 39.585938 58.277344 39.570312 58.414062 39.566406 C 58.5 39.5625 58.621094 39.578125 58.785156 39.617188 C 59.398438 39.765625 60.066406 39.875 60.753906 39.875 C 61.375 39.875 62.007812 39.789062 62.609375 39.550781 C 62.867188 39.449219 63.082031 39.308594 63.257812 39.15625 C 63.519531 38.933594 63.710938 38.695312 63.882812 38.507812 C 64.054688 38.3125 64.199219 38.167969 64.339844 38.082031 C 64.527344 37.96875 64.722656 37.921875 64.972656 37.917969 C 65.222656 37.917969 65.515625 37.976562 65.824219 38.066406 C 66.132812 38.15625 66.449219 38.28125 66.765625 38.398438 C 67.542969 38.683594 68.386719 38.917969 69.261719 38.917969 C 70.054688 38.921875 70.886719 38.714844 71.625 38.1875 C 72.226562 37.753906 72.714844 37.265625 73.1875 36.914062 C 73.425781 36.738281 73.65625 36.59375 73.890625 36.496094 C 74.128906 36.394531 74.363281 36.335938 74.640625 36.332031 L 74.714844 36.332031 C 75.359375 36.328125 76.007812 36.527344 76.707031 36.792969 C 77.40625 37.058594 78.148438 37.390625 78.984375 37.566406 C 79.382812 37.652344 79.808594 37.6875 80.25 37.6875 C 80.921875 37.6875 81.621094 37.601562 82.289062 37.441406 C 82.957031 37.277344 83.589844 37.042969 84.125 36.722656 C 84.609375 36.433594 85.011719 36.101562 85.328125 35.726562 C 85.808594 35.167969 86.089844 34.527344 86.253906 33.867188 C 86.421875 33.207031 86.480469 32.519531 86.519531 31.808594 L 85.863281 31.773438 L 85.917969 32.425781 C 86.21875 32.398438 86.519531 32.390625 86.824219 32.390625 C 87.554688 32.390625 88.296875 32.445312 89.042969 32.445312 C 89.882812 32.445312 90.738281 32.375 91.5625 32.023438 C 92.386719 31.671875 93.140625 31.023438 93.742188 30.011719 C 94.308594 29.066406 94.582031 28.039062 94.582031 27.027344 C 94.582031 25.417969 93.894531 23.851562 92.667969 22.644531 L 92.207031 23.109375 L 92.761719 23.457031 C 93.074219 22.960938 93.195312 22.386719 93.195312 21.816406 C 93.191406 21.066406 92.988281 20.304688 92.597656 19.660156 L 92.597656 19.65625 C 92.457031 19.421875 92.265625 19.238281 92.078125 19.121094 C 91.9375 19.035156 91.808594 18.980469 91.710938 18.945312 C 91.558594 18.886719 91.480469 18.855469 91.460938 18.839844 C 91.441406 18.824219 91.449219 18.84375 91.410156 18.769531 C 91.292969 18.515625 91.253906 18.210938 91.214844 17.816406 C 91.167969 17.429688 91.117188 16.949219 90.871094 16.449219 C 90.644531 15.992188 90.351562 15.601562 89.996094 15.292969 C 89.644531 14.980469 89.234375 14.753906 88.789062 14.609375 C 88.515625 14.523438 88.335938 14.449219 88.242188 14.390625 C 88.164062 14.351562 88.136719 14.324219 88.113281 14.300781 C 88.082031 14.265625 88.039062 14.203125 87.964844 14.035156 C 87.890625 13.871094 87.796875 13.625 87.648438 13.304688 C 87.292969 12.5625 86.730469 11.839844 86 11.328125 C 85.746094 11.144531 85.476562 11.042969 85.226562 10.980469 C 84.855469 10.882812 84.527344 10.859375 84.273438 10.816406 C 84.015625 10.773438 83.851562 10.71875 83.734375 10.628906 C 83.386719 10.371094 83.054688 10.0625 82.679688 9.753906 C 82.300781 9.441406 81.871094 9.125 81.332031 8.894531 C 80.671875 8.613281 79.980469 8.484375 79.296875 8.484375 C 78.902344 8.484375 78.507812 8.527344 78.125 8.605469 C 77.714844 8.683594 77.414062 8.84375 77.222656 8.941406 C 77.125 8.988281 77.050781 9.023438 77.003906 9.039062 C 76.953125 9.054688 76.921875 9.058594 76.882812 9.0625 C 76.835938 9.058594 76.769531 9.050781 76.648438 9.011719 C 76.367188 8.90625 76.101562 8.75 75.757812 8.570312 C 75.414062 8.394531 74.988281 8.214844 74.445312 8.128906 C 74.203125 8.089844 73.984375 8.070312 73.78125 8.070312 C 73.347656 8.066406 72.976562 8.167969 72.679688 8.292969 C 72.375 8.417969 72.128906 8.546875 71.777344 8.675781 C 71.496094 8.78125 71.28125 8.8125 71.074219 8.8125 C 70.871094 8.8125 70.667969 8.78125 70.417969 8.726562 C 70.171875 8.667969 69.878906 8.589844 69.535156 8.519531 C 69.113281 8.429688 68.671875 8.378906 68.222656 8.378906 C 67.574219 8.378906 66.902344 8.488281 66.269531 8.777344 C 65.777344 9.003906 65.46875 9.355469 65.222656 9.632812 C 64.980469 9.917969 64.789062 10.136719 64.609375 10.238281 C 64.511719 10.296875 64.472656 10.300781 64.398438 10.304688 C 64.320312 10.304688 64.191406 10.277344 64.007812 10.214844 C 63.824219 10.15625 63.597656 10.066406 63.3125 10.003906 C 63.113281 9.960938 62.917969 9.941406 62.730469 9.941406 C 62.382812 9.941406 62.066406 10.007812 61.777344 10.09375 C 61.488281 10.183594 61.226562 10.289062 60.972656 10.386719 C 60.367188 10.625 59.945312 11.09375 59.652344 11.59375 C 59.359375 12.101562 59.1875 12.65625 59.144531 13.1875 L 59.800781 13.242188 L 59.925781 12.597656 C 59.320312 12.484375 58.800781 12.394531 58.28125 12.394531 C 57.839844 12.394531 57.398438 12.464844 56.964844 12.640625 C 56.53125 12.8125 56.117188 13.082031 55.683594 13.449219 C 55.320312 13.757812 55.050781 14.058594 54.847656 14.347656 C 54.542969 14.785156 54.402344 15.195312 54.296875 15.503906 C 54.183594 15.824219 54.105469 16.035156 53.9375 16.257812 C 53.878906 16.339844 53.730469 16.449219 53.488281 16.566406 C 53.253906 16.683594 52.953125 16.804688 52.640625 17.019531 C 52.054688 17.4375 51.476562 18.015625 51.175781 18.789062 C 51 19.253906 51 19.671875 50.972656 19.988281 C 50.953125 20.316406 50.917969 20.53125 50.816406 20.71875 C 50.691406 20.949219 50.496094 21.179688 50.265625 21.441406 C 50.035156 21.703125 49.765625 21.996094 49.542969 22.382812 C 49.105469 23.148438 48.816406 24.03125 48.753906 24.929688 L 49.40625 24.976562 L 48.753906 24.917969 L 48.75 24.996094 C 48.75 25.058594 48.753906 25.113281 48.757812 25.1875 C 48.78125 25.4375 48.824219 25.851562 48.898438 26.238281 C 48.933594 26.433594 48.976562 26.617188 49.039062 26.792969 C 49.074219 26.882812 49.105469 26.96875 49.183594 27.082031 C 49.222656 27.136719 49.273438 27.203125 49.367188 27.273438 C 49.457031 27.34375 49.613281 27.417969 49.792969 27.417969 C 49.925781 27.417969 50.054688 27.375 50.140625 27.328125 L 49.820312 26.753906 L 49.492188 26.183594 C 49.460938 26.203125 49.429688 26.222656 49.378906 26.265625 C 49.351562 26.289062 49.316406 26.316406 49.265625 26.378906 C 49.242188 26.410156 49.210938 26.453125 49.183594 26.515625 C 49.15625 26.578125 49.128906 26.667969 49.128906 26.785156 C 49.125 26.929688 49.195312 27.117188 49.296875 27.222656 C 49.367188 27.304688 49.445312 27.347656 49.503906 27.378906 C 49.59375 27.417969 49.652344 27.429688 49.695312 27.4375 C 49.742188 27.441406 49.773438 27.441406 49.796875 27.441406 C 49.886719 27.441406 49.921875 27.433594 49.960938 27.425781 C 50.015625 27.414062 50.054688 27.402344 50.109375 27.382812 C 50.140625 27.371094 50.167969 27.363281 50.222656 27.332031 C 50.253906 27.3125 50.292969 27.292969 50.351562 27.238281 C 50.386719 27.207031 50.425781 27.167969 50.46875 27.097656 C 50.511719 27.027344 50.566406 26.910156 50.566406 26.753906 C 50.566406 26.632812 50.527344 26.5 50.46875 26.410156 C 50.359375 26.242188 50.246094 26.1875 50.179688 26.15625 C 50.070312 26.109375 50.019531 26.105469 49.976562 26.097656 C 49.9375 26.09375 49.910156 26.09375 49.886719 26.09375 C 49.824219 26.09375 49.789062 26.097656 49.738281 26.105469 C 49.617188 26.121094 49.503906 26.167969 49.40625 26.25 C 49.019531 26.566406 48.757812 26.996094 48.589844 27.460938 C 48.417969 27.925781 48.335938 28.4375 48.335938 28.953125 C 48.335938 29.621094 48.472656 30.308594 48.785156 30.917969 C 49.09375 31.523438 49.601562 32.0625 50.3125 32.335938 L 50.550781 31.726562 L 50.273438 31.132812 C 49.753906 31.371094 49.371094 31.78125 49.148438 32.246094 C 48.921875 32.710938 48.832031 33.222656 48.832031 33.734375 C 48.835938 34.578125 49.070312 35.4375 49.476562 36.171875 C 49.675781 36.539062 49.925781 36.875 50.222656 37.152344 C 50.519531 37.429688 50.871094 37.65625 51.277344 37.769531 L 51.457031 37.140625 L 51.035156 36.640625 C 50.71875 36.902344 50.484375 37.222656 50.335938 37.5625 C 50.1875 37.902344 50.125 38.261719 50.125 38.613281 C 50.125 39.113281 50.25 39.597656 50.4375 40.042969 C 50.625 40.488281 50.882812 40.898438 51.175781 41.257812 L 51.253906 41.335938 C 51.28125 41.359375 51.566406 41.605469 52.050781 41.855469 C 52.527344 42.105469 53.207031 42.367188 54.015625 42.367188 C 54.605469 42.371094 55.265625 42.21875 55.902344 41.835938 C 56.542969 41.449219 57.152344 40.839844 57.707031 39.957031 L 57.152344 39.609375 L 57.609375 40.078125 L 57.152344 39.609375 L 56.59375 39.261719 C 56.121094 40.011719 55.652344 40.453125 55.222656 40.714844 C 54.792969 40.972656 54.394531 41.054688 54.015625 41.058594 C 53.503906 41.058594 53.015625 40.882812 52.660156 40.695312 C 52.480469 40.605469 52.339844 40.511719 52.242188 40.441406 C 52.195312 40.410156 52.160156 40.378906 52.136719 40.363281 L 52.113281 40.347656 L 52.109375 40.34375 L 51.921875 40.566406 L 52.113281 40.34375 L 52.109375 40.34375 L 51.921875 40.566406 L 52.113281 40.34375 L 51.683594 40.839844 L 52.191406 40.425781 C 51.976562 40.164062 51.78125 39.851562 51.648438 39.53125 C 51.511719 39.214844 51.4375 38.890625 51.4375 38.613281 C 51.4375 38.414062 51.472656 38.242188 51.539062 38.085938 C 51.609375 37.925781 51.710938 37.785156 51.882812 37.644531 C 52.066406 37.484375 52.152344 37.238281 52.101562 37.003906 C 52.050781 36.765625 51.871094 36.578125 51.636719 36.511719 C 51.476562 36.464844 51.300781 36.363281 51.125 36.199219 C 50.855469 35.949219 50.601562 35.558594 50.425781 35.113281 C 50.246094 34.671875 50.144531 34.175781 50.148438 33.734375 C 50.144531 33.375 50.210938 33.054688 50.328125 32.820312 C 50.449219 32.585938 50.597656 32.429688 50.828125 32.320312 C 51.066406 32.210938 51.214844 31.96875 51.207031 31.707031 C 51.199219 31.441406 51.03125 31.210938 50.789062 31.117188 C 50.425781 30.976562 50.15625 30.707031 49.953125 30.320312 C 49.753906 29.933594 49.648438 29.441406 49.652344 28.953125 C 49.648438 28.578125 49.714844 28.207031 49.824219 27.910156 C 49.933594 27.605469 50.089844 27.382812 50.242188 27.261719 L 49.824219 26.753906 L 49.90625 27.402344 L 49.914062 27.402344 L 49.886719 27.074219 L 49.886719 27.402344 L 49.914062 27.402344 L 49.886719 27.074219 L 49.886719 27.402344 L 49.886719 26.816406 L 49.75 27.386719 C 49.835938 27.40625 49.863281 27.402344 49.886719 27.402344 L 49.886719 26.816406 L 49.75 27.386719 L 49.902344 26.761719 L 49.527344 27.285156 C 49.636719 27.359375 49.703125 27.375 49.75 27.386719 L 49.902344 26.761719 L 49.527344 27.285156 L 49.90625 26.753906 L 49.347656 27.097656 C 49.40625 27.191406 49.476562 27.25 49.527344 27.285156 L 49.90625 26.753906 L 49.347656 27.097656 L 49.90625 26.753906 L 49.25 26.753906 C 49.25 26.871094 49.289062 27.003906 49.347656 27.097656 L 49.90625 26.753906 L 49.25 26.753906 L 49.90625 26.753906 L 49.304688 26.496094 C 49.277344 26.5625 49.25 26.648438 49.25 26.753906 L 49.90625 26.753906 L 49.304688 26.496094 L 49.902344 26.75 L 49.457031 26.28125 C 49.417969 26.320312 49.359375 26.371094 49.304688 26.496094 L 49.902344 26.75 L 49.457031 26.28125 L 49.882812 26.734375 L 49.589844 26.183594 C 49.5625 26.199219 49.53125 26.210938 49.457031 26.28125 L 49.882812 26.734375 L 49.589844 26.183594 L 49.824219 26.621094 L 49.65625 26.152344 C 49.644531 26.160156 49.632812 26.160156 49.589844 26.183594 L 49.824219 26.621094 L 49.65625 26.152344 L 49.75 26.414062 L 49.6875 26.144531 L 49.65625 26.152344 L 49.75 26.414062 L 49.6875 26.144531 L 49.796875 26.617188 L 49.796875 26.132812 C 49.710938 26.132812 49.703125 26.144531 49.6875 26.144531 L 49.796875 26.617188 L 49.796875 26.132812 L 49.796875 26.765625 L 50.019531 26.171875 C 49.886719 26.128906 49.835938 26.136719 49.796875 26.132812 L 49.796875 26.765625 L 50.019531 26.171875 L 49.789062 26.78125 L 50.277344 26.347656 C 50.179688 26.242188 50.082031 26.199219 50.019531 26.171875 L 49.789062 26.78125 L 50.277344 26.347656 L 49.789062 26.78125 L 50.441406 26.785156 C 50.445312 26.636719 50.375 26.453125 50.277344 26.347656 L 49.789062 26.78125 L 50.441406 26.785156 L 49.789062 26.785156 L 50.386719 27.046875 C 50.414062 26.984375 50.441406 26.898438 50.441406 26.785156 L 49.789062 26.785156 L 50.386719 27.046875 L 49.800781 26.789062 L 50.261719 27.230469 C 50.292969 27.199219 50.335938 27.15625 50.386719 27.046875 L 49.800781 26.789062 L 50.261719 27.230469 L 49.847656 26.832031 L 50.175781 27.304688 C 50.195312 27.292969 50.21875 27.277344 50.261719 27.230469 L 49.847656 26.832031 L 50.175781 27.304688 L 49.96875 27.007812 L 50.152344 27.320312 L 50.175781 27.304688 L 49.96875 27.007812 L 50.152344 27.320312 C 50.460938 27.140625 50.570312 26.746094 50.394531 26.433594 C 50.21875 26.117188 49.820312 26.007812 49.503906 26.179688 L 49.792969 26.703125 L 49.792969 26.105469 C 49.679688 26.105469 49.570312 26.144531 49.503906 26.179688 L 49.792969 26.703125 L 49.792969 26.105469 L 49.792969 26.695312 L 50.175781 26.242188 C 50.113281 26.1875 49.976562 26.105469 49.792969 26.105469 L 49.792969 26.695312 L 50.175781 26.242188 L 49.875 26.601562 L 50.273438 26.351562 C 50.261719 26.332031 50.238281 26.296875 50.175781 26.242188 L 49.875 26.601562 L 50.273438 26.351562 L 50.066406 26.480469 L 50.285156 26.371094 L 50.273438 26.351562 L 50.066406 26.480469 L 50.285156 26.371094 L 50.199219 26.414062 L 50.285156 26.375 L 50.285156 26.371094 L 50.199219 26.414062 L 50.285156 26.375 L 50.277344 26.355469 C 50.261719 26.304688 50.226562 26.1875 50.203125 26.054688 C 50.160156 25.847656 50.125 25.601562 50.097656 25.390625 C 50.085938 25.285156 50.078125 25.191406 50.070312 25.121094 L 50.066406 25.027344 L 50.066406 24.996094 L 49.601562 24.996094 L 50.0625 25.035156 L 50.0625 24.996094 L 49.601562 24.996094 L 50.0625 25.035156 L 50.0625 25.023438 C 50.113281 24.347656 50.339844 23.632812 50.6875 23.03125 C 50.816406 22.800781 51.015625 22.570312 51.25 22.304688 C 51.484375 22.039062 51.753906 21.738281 51.96875 21.347656 C 52.222656 20.882812 52.261719 20.429688 52.285156 20.078125 C 52.308594 19.722656 52.324219 19.457031 52.40625 19.253906 C 52.5625 18.828125 52.953125 18.398438 53.402344 18.085938 C 53.535156 17.988281 53.785156 17.878906 54.074219 17.738281 C 54.363281 17.59375 54.710938 17.410156 54.988281 17.046875 C 55.1875 16.777344 55.320312 16.511719 55.414062 16.273438 C 55.554688 15.914062 55.628906 15.632812 55.765625 15.367188 C 55.902344 15.101562 56.097656 14.820312 56.53125 14.449219 C 56.898438 14.144531 57.195312 13.960938 57.460938 13.851562 C 57.726562 13.746094 57.96875 13.703125 58.28125 13.703125 C 58.640625 13.703125 59.09375 13.769531 59.675781 13.882812 C 59.859375 13.917969 60.046875 13.875 60.199219 13.761719 C 60.34375 13.648438 60.4375 13.480469 60.453125 13.296875 C 60.480469 12.976562 60.601562 12.574219 60.789062 12.25 C 60.976562 11.921875 61.226562 11.691406 61.449219 11.609375 C 61.714844 11.503906 61.949219 11.410156 62.160156 11.347656 C 62.371094 11.285156 62.554688 11.25 62.730469 11.25 C 62.828125 11.25 62.925781 11.261719 63.027344 11.285156 L 63.03125 11.285156 C 63.191406 11.316406 63.375 11.382812 63.59375 11.460938 C 63.816406 11.53125 64.078125 11.613281 64.398438 11.613281 C 64.6875 11.617188 65.007812 11.535156 65.296875 11.355469 C 65.726562 11.089844 65.992188 10.75 66.21875 10.492188 C 66.445312 10.226562 66.628906 10.050781 66.8125 9.96875 C 67.242188 9.773438 67.71875 9.6875 68.222656 9.6875 C 68.566406 9.6875 68.921875 9.730469 69.269531 9.800781 C 69.566406 9.859375 69.839844 9.9375 70.128906 10.003906 C 70.417969 10.066406 70.726562 10.125 71.074219 10.125 C 71.433594 10.125 71.824219 10.058594 72.238281 9.902344 C 72.664062 9.746094 72.957031 9.59375 73.171875 9.507812 C 73.394531 9.421875 73.519531 9.386719 73.78125 9.382812 C 73.902344 9.382812 74.050781 9.394531 74.242188 9.421875 C 74.609375 9.480469 74.867188 9.589844 75.15625 9.738281 C 75.445312 9.882812 75.769531 10.078125 76.195312 10.238281 C 76.429688 10.324219 76.660156 10.371094 76.882812 10.371094 C 77.082031 10.371094 77.269531 10.332031 77.421875 10.277344 C 77.65625 10.199219 77.820312 10.101562 77.960938 10.035156 C 78.105469 9.96875 78.222656 9.921875 78.378906 9.890625 C 78.6875 9.828125 78.992188 9.796875 79.296875 9.796875 C 79.824219 9.796875 80.328125 9.890625 80.8125 10.097656 C 81.183594 10.257812 81.503906 10.484375 81.839844 10.761719 C 82.175781 11.039062 82.523438 11.367188 82.949219 11.679688 C 83.199219 11.867188 83.464844 11.972656 83.707031 12.035156 C 84.074219 12.128906 84.394531 12.152344 84.65625 12.195312 C 84.917969 12.238281 85.101562 12.296875 85.246094 12.398438 C 85.75 12.746094 86.207031 13.324219 86.457031 13.863281 C 86.570312 14.109375 86.652344 14.308594 86.730469 14.492188 C 86.792969 14.632812 86.851562 14.769531 86.941406 14.914062 C 87.066406 15.128906 87.269531 15.339844 87.515625 15.484375 C 87.757812 15.636719 88.027344 15.742188 88.382812 15.859375 C 88.671875 15.953125 88.914062 16.085938 89.128906 16.273438 C 89.34375 16.460938 89.53125 16.707031 89.691406 17.03125 C 89.820312 17.285156 89.863281 17.574219 89.90625 17.960938 C 89.949219 18.339844 89.988281 18.804688 90.210938 19.304688 C 90.320312 19.554688 90.496094 19.765625 90.683594 19.898438 C 90.824219 19.996094 90.957031 20.058594 91.0625 20.097656 C 91.222656 20.160156 91.3125 20.191406 91.359375 20.21875 C 91.40625 20.25 91.421875 20.253906 91.472656 20.335938 C 91.726562 20.75 91.878906 21.316406 91.878906 21.816406 C 91.878906 22.199219 91.792969 22.539062 91.648438 22.761719 C 91.484375 23.019531 91.523438 23.359375 91.742188 23.574219 C 92.742188 24.5625 93.265625 25.792969 93.265625 27.027344 C 93.265625 27.804688 93.058594 28.59375 92.613281 29.339844 C 92.117188 30.160156 91.605469 30.570312 91.039062 30.820312 C 90.472656 31.066406 89.808594 31.136719 89.042969 31.136719 C 88.367188 31.136719 87.621094 31.082031 86.824219 31.078125 C 86.492188 31.078125 86.15625 31.089844 85.808594 31.117188 C 85.480469 31.144531 85.226562 31.410156 85.207031 31.738281 C 85.160156 32.648438 85.070312 33.421875 84.824219 34.039062 C 84.703125 34.347656 84.542969 34.625 84.328125 34.878906 C 84.109375 35.132812 83.828125 35.371094 83.449219 35.597656 C 83.066406 35.828125 82.542969 36.03125 81.976562 36.167969 C 81.414062 36.304688 80.804688 36.378906 80.25 36.378906 C 79.886719 36.378906 79.546875 36.347656 79.253906 36.285156 C 78.597656 36.148438 77.917969 35.855469 77.175781 35.570312 C 76.4375 35.292969 75.628906 35.019531 74.714844 35.019531 L 74.605469 35.019531 C 74.15625 35.03125 73.742188 35.132812 73.378906 35.289062 C 72.828125 35.519531 72.386719 35.863281 71.984375 36.195312 C 71.582031 36.53125 71.222656 36.863281 70.859375 37.117188 C 70.359375 37.472656 69.84375 37.605469 69.261719 37.609375 C 68.625 37.609375 67.921875 37.429688 67.222656 37.171875 C 66.925781 37.058594 66.578125 36.921875 66.199219 36.808594 C 65.820312 36.699219 65.410156 36.609375 64.972656 36.609375 C 64.539062 36.605469 64.066406 36.707031 63.640625 36.972656 C 63.210938 37.246094 62.949219 37.589844 62.71875 37.839844 C 62.605469 37.96875 62.5 38.078125 62.40625 38.15625 C 62.308594 38.242188 62.222656 38.296875 62.128906 38.332031 C 61.71875 38.492188 61.25 38.5625 60.753906 38.5625 C 60.207031 38.5625 59.632812 38.476562 59.09375 38.34375 C 58.859375 38.289062 58.636719 38.253906 58.414062 38.253906 C 58.058594 38.25 57.710938 38.359375 57.433594 38.527344 C 57.152344 38.695312 56.933594 38.90625 56.691406 39.140625 C 56.652344 39.179688 56.621094 39.214844 56.59375 39.261719 L 57.152344 39.609375 " fill-opacity="1" fill-rule="nonzero"/><path fill="#070808" d="M 59.015625 13.277344 C 59.027344 13.640625 59.117188 13.984375 59.261719 14.285156 C 59.519531 14.820312 59.925781 15.21875 60.363281 15.558594 C 61.027344 16.0625 61.789062 16.453125 62.445312 16.859375 C 63.105469 17.261719 63.628906 17.675781 63.859375 18.097656 L 63.878906 18.136719 C 64.328125 18.824219 64.59375 19.679688 64.59375 20.523438 C 64.59375 21 64.511719 21.46875 64.332031 21.914062 L 64.324219 21.9375 C 64.234375 22.199219 63.964844 22.613281 63.648438 22.910156 C 63.488281 23.058594 63.320312 23.183594 63.167969 23.261719 C 63.015625 23.339844 62.882812 23.371094 62.792969 23.371094 C 62.738281 23.371094 62.691406 23.363281 62.644531 23.34375 C 62.597656 23.324219 62.546875 23.289062 62.480469 23.226562 C 62.222656 22.96875 61.808594 22.96875 61.550781 23.226562 C 61.292969 23.480469 61.292969 23.894531 61.550781 24.152344 C 61.722656 24.324219 61.921875 24.460938 62.136719 24.550781 C 62.347656 24.640625 62.574219 24.679688 62.792969 24.679688 C 63.152344 24.679688 63.480469 24.574219 63.769531 24.425781 C 64.207031 24.199219 64.574219 23.871094 64.878906 23.515625 C 65.179688 23.15625 65.421875 22.769531 65.5625 22.375 L 64.941406 22.15625 L 65.554688 22.398438 C 65.800781 21.789062 65.910156 21.152344 65.910156 20.523438 C 65.910156 19.410156 65.566406 18.324219 64.980469 17.421875 L 64.429688 17.777344 L 65.003906 17.460938 C 64.667969 16.867188 64.167969 16.4375 63.640625 16.074219 C 62.847656 15.527344 61.964844 15.097656 61.324219 14.632812 C 61.003906 14.40625 60.746094 14.175781 60.585938 13.945312 C 60.421875 13.714844 60.339844 13.507812 60.328125 13.234375 C 60.316406 12.871094 60.011719 12.589844 59.648438 12.601562 C 59.285156 12.613281 59.003906 12.917969 59.015625 13.277344 " fill-opacity="1" fill-rule="nonzero"/><path fill="#070808" d="M 58.464844 17.195312 C 57.734375 17.238281 57.074219 17.421875 56.5 17.722656 C 55.636719 18.175781 54.976562 18.878906 54.5 19.691406 C 54.019531 20.511719 53.710938 21.441406 53.535156 22.402344 L 53.535156 22.398438 C 53.441406 22.890625 53.441406 23.34375 53.441406 23.757812 C 53.441406 23.808594 53.441406 23.863281 53.441406 23.921875 C 53.441406 24.25 53.4375 24.550781 53.398438 24.820312 C 53.359375 25.09375 53.289062 25.328125 53.160156 25.566406 C 52.992188 25.882812 52.804688 26.089844 52.589844 26.226562 C 52.371094 26.363281 52.101562 26.449219 51.679688 26.453125 C 51.269531 26.453125 50.722656 26.359375 50.027344 26.132812 C 49.683594 26.019531 49.308594 26.207031 49.199219 26.550781 C 49.085938 26.894531 49.273438 27.265625 49.617188 27.375 C 50.402344 27.632812 51.074219 27.761719 51.679688 27.761719 C 52.289062 27.761719 52.84375 27.621094 53.292969 27.335938 C 53.742188 27.050781 54.074219 26.644531 54.320312 26.1875 C 54.535156 25.792969 54.644531 25.386719 54.699219 25.003906 C 54.753906 24.621094 54.753906 24.257812 54.753906 23.921875 C 54.753906 23.867188 54.753906 23.8125 54.753906 23.757812 C 54.753906 23.355469 54.761719 22.988281 54.828125 22.640625 C 55.03125 21.511719 55.445312 20.484375 56.050781 19.753906 C 56.355469 19.390625 56.707031 19.097656 57.109375 18.882812 C 57.519531 18.671875 57.984375 18.539062 58.539062 18.503906 C 58.902344 18.484375 59.175781 18.175781 59.15625 17.8125 C 59.136719 17.453125 58.828125 17.175781 58.464844 17.195312 " fill-opacity="1" fill-rule="nonzero"/><path fill="#070808" d="M 50.597656 32.351562 C 50.972656 32.265625 51.425781 32.257812 51.945312 32.242188 C 52.460938 32.222656 53.050781 32.1875 53.671875 31.96875 L 53.71875 31.945312 C 54.558594 31.570312 55.316406 30.964844 55.945312 30.25 C 56.578125 29.53125 57.078125 28.699219 57.367188 27.835938 C 57.566406 27.234375 57.660156 26.539062 57.789062 25.808594 C 57.96875 24.714844 58.21875 23.566406 58.761719 22.765625 C 59.027344 22.363281 59.359375 22.042969 59.804688 21.808594 C 60.25 21.574219 60.828125 21.425781 61.617188 21.425781 L 61.710938 21.425781 C 62.070312 21.433594 62.371094 21.144531 62.378906 20.78125 C 62.386719 20.421875 62.097656 20.121094 61.734375 20.117188 C 61.695312 20.113281 61.65625 20.113281 61.617188 20.113281 C 60.34375 20.109375 59.332031 20.457031 58.585938 21.039062 C 58.027344 21.472656 57.625 22.027344 57.335938 22.609375 C 56.902344 23.488281 56.695312 24.441406 56.539062 25.304688 C 56.390625 26.164062 56.28125 26.953125 56.121094 27.421875 C 55.898438 28.089844 55.480469 28.789062 54.957031 29.386719 C 54.4375 29.984375 53.804688 30.472656 53.179688 30.753906 L 53.449219 31.347656 L 53.226562 30.734375 C 52.820312 30.878906 52.386719 30.914062 51.898438 30.933594 C 51.410156 30.953125 50.875 30.945312 50.300781 31.078125 C 49.945312 31.15625 49.726562 31.511719 49.808594 31.859375 C 49.890625 32.214844 50.242188 32.433594 50.597656 32.351562 " fill-opacity="1" fill-rule="nonzero"/><path fill="#070808" d="M 54.386719 30.175781 C 54.363281 30.390625 54.351562 30.605469 54.351562 30.816406 C 54.351562 31.664062 54.539062 32.492188 54.960938 33.210938 C 55.382812 33.933594 56.050781 34.523438 56.933594 34.855469 C 57.601562 35.105469 58.289062 35.191406 58.953125 35.191406 C 59.210938 35.191406 59.460938 35.179688 59.710938 35.160156 C 61.601562 34.988281 63.433594 34.652344 65.191406 34.652344 C 66.332031 34.652344 67.4375 34.789062 68.523438 35.1875 C 68.863281 35.3125 69.242188 35.140625 69.367188 34.800781 C 69.492188 34.460938 69.320312 34.085938 68.976562 33.960938 C 67.710938 33.492188 66.4375 33.34375 65.191406 33.34375 C 63.269531 33.34375 61.398438 33.691406 59.589844 33.855469 C 59.378906 33.871094 59.164062 33.882812 58.953125 33.882812 C 58.40625 33.882812 57.878906 33.808594 57.398438 33.628906 C 56.789062 33.394531 56.378906 33.027344 56.09375 32.546875 C 55.8125 32.074219 55.667969 31.472656 55.667969 30.816406 C 55.667969 30.652344 55.675781 30.484375 55.695312 30.316406 C 55.734375 29.957031 55.472656 29.636719 55.109375 29.597656 C 54.75 29.558594 54.425781 29.820312 54.386719 30.175781 " fill-opacity="1" fill-rule="nonzero"/><path fill="#070808" d="M 66.707031 22.441406 C 66.6875 22.597656 66.679688 22.746094 66.679688 22.898438 C 66.671875 23.707031 66.976562 24.421875 67.460938 24.957031 C 67.824219 25.359375 68.277344 25.667969 68.773438 25.914062 C 69.519531 26.277344 70.375 26.503906 71.257812 26.644531 C 72.140625 26.785156 73.050781 26.835938 73.898438 26.835938 C 74.578125 26.835938 75.214844 26.804688 75.769531 26.75 L 75.707031 26.097656 L 75.757812 26.75 C 76.089844 26.722656 76.414062 26.710938 76.734375 26.710938 C 78.257812 26.710938 79.652344 27.011719 80.910156 27.621094 C 82.164062 28.230469 83.289062 29.152344 84.261719 30.429688 L 84.257812 30.429688 C 84.492188 30.738281 84.734375 31.035156 84.917969 31.320312 C 85.101562 31.605469 85.210938 31.863281 85.226562 32.070312 C 85.265625 32.429688 85.585938 32.695312 85.949219 32.65625 C 86.308594 32.621094 86.570312 32.300781 86.535156 31.941406 C 86.484375 31.421875 86.261719 30.984375 86.023438 30.613281 C 85.785156 30.242188 85.519531 29.917969 85.3125 29.644531 L 85.308594 29.640625 C 84.226562 28.214844 82.933594 27.144531 81.484375 26.441406 C 80.035156 25.738281 78.429688 25.398438 76.734375 25.402344 C 76.375 25.402344 76.015625 25.414062 75.652344 25.445312 L 75.640625 25.445312 C 75.132812 25.496094 74.53125 25.527344 73.898438 25.527344 C 72.492188 25.527344 70.910156 25.359375 69.761719 24.914062 C 69.1875 24.691406 68.734375 24.40625 68.441406 24.082031 C 68.152344 23.753906 68 23.402344 67.992188 22.898438 C 67.992188 22.804688 68 22.707031 68.011719 22.601562 C 68.058594 22.242188 67.800781 21.914062 67.441406 21.871094 C 67.078125 21.828125 66.753906 22.082031 66.707031 22.441406 " fill-opacity="1" fill-rule="nonzero"/><path fill="#070808" d="M 56.578125 25.203125 L 56.574219 25.300781 C 56.570312 26.183594 56.855469 26.953125 57.320312 27.546875 C 58.011719 28.4375 59.039062 28.953125 60.078125 29.269531 C 61.117188 29.582031 62.1875 29.691406 63.042969 29.691406 C 63.269531 29.691406 63.480469 29.683594 63.671875 29.667969 C 63.898438 29.652344 64.128906 29.644531 64.363281 29.644531 C 65.707031 29.644531 67.191406 29.910156 68.597656 30.390625 C 70.003906 30.867188 71.332031 31.558594 72.371094 32.375 L 72.777344 31.859375 L 72.355469 32.363281 C 72.527344 32.503906 72.761719 32.753906 73.027344 33.007812 C 73.292969 33.261719 73.585938 33.527344 73.984375 33.703125 C 74.316406 33.84375 74.703125 33.691406 74.847656 33.359375 C 74.988281 33.027344 74.835938 32.640625 74.5 32.5 C 74.386719 32.453125 74.164062 32.285156 73.9375 32.0625 C 73.707031 31.84375 73.46875 31.582031 73.199219 31.359375 L 73.1875 31.347656 C 72.003906 30.417969 70.550781 29.671875 69.019531 29.152344 C 67.488281 28.628906 65.878906 28.335938 64.363281 28.332031 C 64.097656 28.332031 63.835938 28.34375 63.578125 28.363281 C 63.417969 28.371094 63.238281 28.382812 63.042969 28.382812 C 62.050781 28.382812 60.667969 28.195312 59.617188 27.695312 C 59.09375 27.449219 58.65625 27.128906 58.359375 26.746094 C 58.066406 26.359375 57.894531 25.914062 57.890625 25.300781 L 57.890625 25.234375 C 57.898438 24.875 57.613281 24.574219 57.25 24.566406 C 56.886719 24.554688 56.585938 24.84375 56.578125 25.203125 " fill-opacity="1" fill-rule="nonzero"/><path fill="#070808" d="M 70.539062 31.101562 C 70.867188 31.199219 71.230469 31.253906 71.621094 31.253906 C 72.351562 31.253906 73.179688 31.058594 73.902344 30.527344 C 74.628906 29.992188 75.214844 29.125 75.472656 27.910156 C 75.546875 27.558594 75.320312 27.210938 74.964844 27.132812 C 74.609375 27.058594 74.257812 27.285156 74.183594 27.640625 C 73.976562 28.59375 73.574219 29.132812 73.121094 29.472656 C 72.667969 29.808594 72.121094 29.941406 71.621094 29.941406 C 71.355469 29.941406 71.109375 29.90625 70.914062 29.84375 C 70.566406 29.742188 70.199219 29.941406 70.097656 30.289062 C 69.996094 30.636719 70.191406 31 70.539062 31.101562 " fill-opacity="1" fill-rule="nonzero"/><path fill="#070808" d="M 64.429688 29.742188 C 64.621094 29.746094 64.742188 29.789062 64.859375 29.863281 C 65.03125 29.972656 65.199219 30.191406 65.316406 30.511719 C 65.433594 30.824219 65.496094 31.21875 65.496094 31.589844 C 65.496094 31.949219 65.433594 32.292969 65.351562 32.507812 C 65.226562 32.84375 65.398438 33.222656 65.738281 33.351562 C 66.078125 33.476562 66.457031 33.304688 66.585938 32.964844 C 66.738281 32.554688 66.808594 32.082031 66.808594 31.589844 C 66.804688 30.914062 66.675781 30.195312 66.324219 29.574219 C 66.144531 29.265625 65.902344 28.976562 65.578125 28.765625 C 65.257812 28.554688 64.855469 28.433594 64.429688 28.433594 C 64.066406 28.433594 63.773438 28.726562 63.773438 29.089844 C 63.773438 29.449219 64.066406 29.742188 64.429688 29.742188 " fill-opacity="1" fill-rule="nonzero"/><path fill="#070808" d="M 65.78125 12.753906 C 67.1875 14.261719 68.195312 15.574219 68.859375 17.003906 C 69.519531 18.433594 69.847656 20 69.851562 22.085938 C 69.851562 22.445312 70.144531 22.738281 70.507812 22.738281 C 70.871094 22.738281 71.164062 22.445312 71.164062 22.085938 C 71.167969 19.863281 70.800781 18.070312 70.054688 16.457031 C 69.304688 14.839844 68.191406 13.414062 66.742188 11.859375 C 66.496094 11.59375 66.078125 11.582031 65.8125 11.828125 C 65.546875 12.070312 65.53125 12.488281 65.78125 12.753906 " fill-opacity="1" fill-rule="nonzero"/><path fill="#070808" d="M 70.421875 20.769531 C 72.34375 20.804688 74.042969 20.769531 75.652344 20.972656 C 77.261719 21.175781 78.785156 21.601562 80.421875 22.574219 C 80.734375 22.757812 81.136719 22.65625 81.320312 22.347656 C 81.507812 22.035156 81.40625 21.632812 81.09375 21.449219 C 79.292969 20.375 77.554688 19.890625 75.816406 19.675781 C 74.074219 19.457031 72.335938 19.496094 70.449219 19.457031 C 70.085938 19.453125 69.785156 19.738281 69.777344 20.101562 C 69.769531 20.460938 70.058594 20.761719 70.421875 20.769531 " fill-opacity="1" fill-rule="nonzero"/><path fill="#070808" d="M 68.886719 15.429688 C 70.300781 15.132812 71.773438 14.929688 73.210938 14.929688 C 74.390625 14.929688 75.539062 15.0625 76.617188 15.386719 C 77.695312 15.707031 78.699219 16.214844 79.605469 16.96875 C 79.882812 17.199219 80.296875 17.164062 80.53125 16.886719 C 80.761719 16.609375 80.726562 16.195312 80.445312 15.964844 C 79.398438 15.085938 78.222656 14.496094 76.996094 14.132812 C 75.765625 13.765625 74.488281 13.617188 73.210938 13.617188 C 71.648438 13.617188 70.089844 13.835938 68.613281 14.148438 C 68.257812 14.222656 68.03125 14.570312 68.105469 14.921875 C 68.183594 15.277344 68.53125 15.503906 68.886719 15.429688 " fill-opacity="1" fill-rule="nonzero"/><path fill="#070808" d="M 77.097656 12.597656 C 77.746094 12.597656 78.269531 12.617188 78.765625 12.703125 C 79.257812 12.796875 79.734375 12.949219 80.304688 13.25 L 80.316406 13.257812 C 80.882812 13.539062 81.289062 13.90625 81.785156 14.316406 C 82.277344 14.722656 82.867188 15.164062 83.71875 15.414062 L 83.90625 14.789062 L 83.699219 15.410156 C 84.730469 15.75 85.761719 16.480469 86.507812 17.40625 C 87.261719 18.332031 87.722656 19.4375 87.722656 20.523438 C 87.722656 20.589844 87.71875 20.664062 87.714844 20.738281 C 87.695312 21.097656 87.972656 21.40625 88.335938 21.425781 C 88.699219 21.441406 89.011719 21.167969 89.027344 20.804688 C 89.035156 20.710938 89.035156 20.617188 89.039062 20.523438 C 89.035156 19.066406 88.429688 17.695312 87.53125 16.582031 C 86.628906 15.46875 85.421875 14.601562 84.113281 14.167969 L 84.09375 14.160156 C 83.480469 13.972656 83.085938 13.6875 82.621094 13.308594 C 82.164062 12.933594 81.65625 12.460938 80.90625 12.085938 L 80.613281 12.671875 L 80.917969 12.09375 C 80.246094 11.734375 79.621094 11.527344 79 11.417969 C 78.375 11.304688 77.769531 11.289062 77.097656 11.289062 C 76.734375 11.289062 76.441406 11.582031 76.441406 11.941406 C 76.441406 12.304688 76.734375 12.597656 77.097656 12.597656 " fill-opacity="1" fill-rule="nonzero"/><path fill="#070808" d="M 91.761719 22.476562 C 91.191406 22.828125 90.261719 23.070312 89.371094 23.066406 C 88.625 23.070312 87.914062 22.902344 87.441406 22.597656 C 87.207031 22.449219 87.027344 22.273438 86.902344 22.058594 C 86.777344 21.847656 86.695312 21.597656 86.6875 21.265625 C 86.675781 20.902344 86.375 20.617188 86.011719 20.628906 C 85.648438 20.636719 85.363281 20.9375 85.371094 21.296875 C 85.386719 21.832031 85.527344 22.320312 85.769531 22.730469 C 86.136719 23.34375 86.710938 23.757812 87.34375 24.015625 C 87.976562 24.269531 88.675781 24.378906 89.371094 24.378906 C 90.484375 24.375 91.597656 24.109375 92.449219 23.589844 C 92.761719 23.402344 92.855469 22.996094 92.667969 22.691406 C 92.476562 22.382812 92.074219 22.285156 91.761719 22.476562 " fill-opacity="1" fill-rule="nonzero"/><path fill="#070808" d="M 83.738281 29.496094 C 84.660156 29.496094 85.648438 29.664062 86.617188 29.667969 C 87.015625 29.667969 87.414062 29.636719 87.808594 29.535156 C 88.398438 29.390625 88.976562 29.054688 89.390625 28.484375 C 89.808594 27.921875 90.066406 27.167969 90.195312 26.183594 C 90.242188 25.820312 89.988281 25.496094 89.628906 25.449219 C 89.265625 25.402344 88.9375 25.65625 88.890625 26.011719 C 88.816406 26.578125 88.699219 27.007812 88.554688 27.316406 C 88.339844 27.789062 88.105469 28 87.808594 28.148438 C 87.515625 28.292969 87.113281 28.359375 86.617188 28.355469 C 85.8125 28.359375 84.808594 28.191406 83.738281 28.1875 C 83.375 28.1875 83.082031 28.480469 83.082031 28.839844 C 83.082031 29.203125 83.375 29.496094 83.738281 29.496094 " fill-opacity="1" fill-rule="nonzero"/><path fill="#070808" d="M 88.820312 26.527344 C 88.871094 26.523438 88.917969 26.519531 88.96875 26.519531 C 89.300781 26.515625 89.703125 26.660156 90.09375 26.886719 C 90.410156 27.0625 90.8125 26.953125 90.992188 26.640625 C 91.171875 26.328125 91.0625 25.925781 90.75 25.746094 C 90.25 25.464844 89.652344 25.210938 88.96875 25.207031 C 88.867188 25.207031 88.761719 25.214844 88.65625 25.226562 C 88.296875 25.273438 88.042969 25.601562 88.085938 25.960938 C 88.132812 26.320312 88.460938 26.574219 88.820312 26.527344 " fill-opacity="1" fill-rule="nonzero"/><path fill="#070808" d="M 81.613281 19.472656 C 82.117188 19.84375 82.484375 20.277344 82.730469 20.757812 C 82.976562 21.238281 83.101562 21.773438 83.101562 22.347656 C 83.101562 22.582031 83.082031 22.820312 83.039062 23.066406 L 83.039062 23.082031 C 82.953125 23.652344 82.667969 24.503906 82.25 25.140625 C 82.042969 25.460938 81.808594 25.726562 81.570312 25.898438 C 81.332031 26.066406 81.113281 26.144531 80.878906 26.148438 C 80.796875 26.148438 80.710938 26.136719 80.617188 26.117188 C 80.265625 26.03125 79.910156 26.25 79.824219 26.601562 C 79.742188 26.953125 79.960938 27.304688 80.3125 27.390625 C 80.503906 27.4375 80.691406 27.457031 80.878906 27.457031 C 81.4375 27.460938 81.941406 27.253906 82.347656 26.953125 C 82.960938 26.503906 83.394531 25.863281 83.71875 25.203125 C 84.042969 24.539062 84.246094 23.855469 84.335938 23.273438 L 83.6875 23.179688 L 84.335938 23.289062 C 84.390625 22.972656 84.417969 22.660156 84.417969 22.347656 C 84.417969 21.578125 84.242188 20.832031 83.898438 20.164062 C 83.558594 19.492188 83.046875 18.898438 82.390625 18.417969 C 82.101562 18.203125 81.6875 18.265625 81.472656 18.558594 C 81.257812 18.851562 81.320312 19.257812 81.613281 19.472656 " fill-opacity="1" fill-rule="nonzero"/><path fill="#070808" d="M 77.335938 31.785156 C 78.570312 31.746094 79.757812 31.539062 80.792969 30.953125 C 81.824219 30.367188 82.660156 29.390625 83.136719 27.988281 C 83.253906 27.644531 83.070312 27.273438 82.730469 27.15625 C 82.386719 27.039062 82.011719 27.222656 81.894531 27.5625 C 81.492188 28.714844 80.898438 29.378906 80.140625 29.8125 C 79.378906 30.25 78.410156 30.441406 77.296875 30.476562 C 76.933594 30.488281 76.648438 30.789062 76.660156 31.152344 C 76.671875 31.511719 76.972656 31.796875 77.335938 31.785156 " fill-opacity="1" fill-rule="nonzero"/><path fill="#070808" d="M 51.054688 21.105469 C 51.140625 21.25 51.242188 21.34375 51.34375 21.421875 C 51.519531 21.550781 51.695312 21.628906 51.875 21.691406 C 52.148438 21.785156 52.425781 21.839844 52.691406 21.878906 C 52.953125 21.917969 53.1875 21.9375 53.375 21.9375 C 53.738281 21.9375 54.035156 21.640625 54.035156 21.28125 C 54.035156 20.917969 53.738281 20.625 53.375 20.625 C 53.222656 20.628906 52.855469 20.59375 52.5625 20.523438 C 52.414062 20.492188 52.277344 20.445312 52.199219 20.410156 L 52.136719 20.375 L 52.078125 20.449219 L 52.144531 20.382812 L 52.136719 20.375 L 52.078125 20.449219 L 52.144531 20.382812 L 51.941406 20.578125 L 52.183594 20.433594 L 52.144531 20.382812 L 51.941406 20.578125 L 52.183594 20.433594 C 51.996094 20.125 51.59375 20.023438 51.28125 20.207031 C 50.96875 20.394531 50.867188 20.796875 51.054688 21.105469 " fill-opacity="1" fill-rule="nonzero"/><path fill="#070808" d="M 83.035156 11.511719 C 83.042969 11.582031 83.046875 11.648438 83.046875 11.714844 C 83.046875 11.882812 83.019531 12.035156 82.96875 12.160156 C 82.917969 12.285156 82.847656 12.382812 82.753906 12.460938 C 82.472656 12.691406 82.4375 13.105469 82.667969 13.382812 C 82.902344 13.660156 83.316406 13.699219 83.59375 13.464844 C 83.867188 13.242188 84.0625 12.953125 84.1875 12.652344 C 84.308594 12.347656 84.363281 12.03125 84.363281 11.714844 C 84.363281 11.59375 84.355469 11.472656 84.339844 11.351562 C 84.292969 10.992188 83.964844 10.738281 83.605469 10.78125 C 83.246094 10.828125 82.988281 11.15625 83.035156 11.511719 " fill-opacity="1" fill-rule="nonzero"/><path fill="#070808" d="M 89.304688 20.035156 C 89.414062 20.050781 89.523438 20.054688 89.636719 20.054688 C 89.945312 20.054688 90.28125 19.996094 90.59375 19.8125 C 90.75 19.722656 90.898438 19.59375 91.019531 19.4375 C 91.140625 19.277344 91.226562 19.089844 91.28125 18.886719 C 91.367188 18.539062 91.15625 18.179688 90.800781 18.09375 C 90.453125 18.003906 90.09375 18.21875 90.003906 18.570312 C 89.992188 18.613281 89.980469 18.632812 89.96875 18.648438 C 89.953125 18.664062 89.933594 18.6875 89.878906 18.707031 C 89.824219 18.730469 89.734375 18.746094 89.636719 18.746094 C 89.589844 18.746094 89.539062 18.742188 89.488281 18.734375 C 89.128906 18.683594 88.796875 18.933594 88.746094 19.292969 C 88.695312 19.652344 88.945312 19.984375 89.304688 20.035156 " fill-opacity="1" fill-rule="nonzero"/><path fill="#070808" d="M 84.875 15.15625 C 84.648438 15.417969 84.347656 15.699219 84.066406 16.050781 C 83.789062 16.402344 83.523438 16.855469 83.472656 17.429688 C 83.4375 17.789062 83.703125 18.109375 84.066406 18.140625 C 84.429688 18.171875 84.746094 17.90625 84.78125 17.546875 C 84.800781 17.316406 84.902344 17.113281 85.101562 16.863281 C 85.296875 16.613281 85.578125 16.34375 85.867188 16.019531 C 86.105469 15.75 86.074219 15.335938 85.804688 15.097656 C 85.53125 14.859375 85.117188 14.886719 84.875 15.15625 " fill-opacity="1" fill-rule="nonzero"/><path fill="#070808" d="M 79.308594 12.054688 C 79.179688 12.28125 78.992188 12.566406 78.8125 12.894531 C 78.640625 13.222656 78.472656 13.609375 78.421875 14.058594 C 78.382812 14.417969 78.640625 14.742188 79.003906 14.78125 C 79.363281 14.820312 79.6875 14.5625 79.726562 14.203125 C 79.75 14 79.835938 13.761719 79.976562 13.507812 C 80.109375 13.253906 80.285156 12.988281 80.449219 12.703125 C 80.628906 12.390625 80.519531 11.988281 80.203125 11.8125 C 79.890625 11.632812 79.488281 11.742188 79.308594 12.054688 " fill-opacity="1" fill-rule="nonzero"/><path fill="#070808" d="M 72.132812 14.921875 C 72.421875 15.167969 72.570312 15.523438 72.574219 15.929688 C 72.574219 15.984375 72.570312 16.042969 72.5625 16.105469 C 72.523438 16.464844 72.785156 16.789062 73.148438 16.824219 C 73.507812 16.863281 73.832031 16.601562 73.871094 16.242188 C 73.882812 16.140625 73.886719 16.035156 73.886719 15.929688 C 73.890625 15.1875 73.59375 14.441406 72.984375 13.925781 C 72.710938 13.6875 72.296875 13.722656 72.058594 13.996094 C 71.824219 14.273438 71.855469 14.6875 72.132812 14.921875 " fill-opacity="1" fill-rule="nonzero"/><path fill="#070808" d="M 77.425781 17.925781 C 77.148438 18.34375 76.996094 18.792969 76.902344 19.230469 C 76.808594 19.664062 76.773438 20.089844 76.734375 20.492188 C 76.703125 20.851562 76.96875 21.171875 77.328125 21.203125 C 77.691406 21.238281 78.011719 20.972656 78.046875 20.613281 C 78.082031 20.210938 78.117188 19.835938 78.1875 19.503906 C 78.257812 19.171875 78.363281 18.890625 78.523438 18.652344 C 78.722656 18.351562 78.640625 17.945312 78.339844 17.746094 C 78.035156 17.542969 77.628906 17.625 77.425781 17.925781 " fill-opacity="1" fill-rule="nonzero"/><path fill="#070808" d="M 75.289062 33.746094 C 75.230469 33.980469 75.199219 34.21875 75.199219 34.460938 C 75.199219 34.910156 75.304688 35.363281 75.542969 35.761719 C 75.773438 36.160156 76.148438 36.5 76.625 36.699219 C 76.960938 36.835938 77.34375 36.679688 77.484375 36.34375 C 77.621094 36.011719 77.464844 35.625 77.128906 35.488281 C 76.914062 35.394531 76.777344 35.265625 76.671875 35.097656 C 76.570312 34.925781 76.511719 34.703125 76.511719 34.460938 C 76.511719 34.332031 76.53125 34.195312 76.5625 34.0625 C 76.652344 33.710938 76.4375 33.355469 76.085938 33.269531 C 75.734375 33.179688 75.375 33.394531 75.289062 33.746094 " fill-opacity="1" fill-rule="nonzero"/><path fill="#070808" d="M 57.222656 34.554688 C 57.070312 34.984375 57.003906 35.449219 57.003906 35.917969 C 57.007812 36.570312 57.125 37.21875 57.398438 37.773438 C 57.5625 38.09375 57.957031 38.226562 58.28125 38.066406 C 58.605469 37.902344 58.738281 37.507812 58.574219 37.1875 C 58.421875 36.890625 58.316406 36.390625 58.316406 35.917969 C 58.316406 35.578125 58.371094 35.246094 58.460938 35 C 58.582031 34.664062 58.40625 34.285156 58.066406 34.164062 C 57.726562 34.039062 57.347656 34.214844 57.222656 34.554688 " fill-opacity="1" fill-rule="nonzero"/><path fill="#070808" d="M 51.851562 34.976562 C 52.308594 34.863281 52.695312 34.796875 52.996094 34.796875 C 53.3125 34.800781 53.523438 34.855469 53.734375 34.988281 C 53.941406 35.121094 54.167969 35.363281 54.40625 35.8125 L 54.421875 35.847656 C 54.644531 36.214844 54.792969 36.710938 54.789062 37.164062 C 54.789062 37.460938 54.730469 37.738281 54.617188 37.960938 C 54.5 38.183594 54.339844 38.367188 54.082031 38.511719 C 53.761719 38.6875 53.648438 39.085938 53.828125 39.402344 C 54.003906 39.71875 54.402344 39.832031 54.71875 39.65625 C 55.207031 39.386719 55.570312 38.992188 55.792969 38.550781 C 56.015625 38.109375 56.105469 37.628906 56.105469 37.164062 C 56.101562 36.449219 55.898438 35.753906 55.550781 35.171875 L 54.988281 35.507812 L 55.570312 35.203125 C 55.265625 34.625 54.898438 34.179688 54.449219 33.890625 C 54 33.597656 53.492188 33.484375 52.996094 33.488281 C 52.511719 33.488281 52.035156 33.582031 51.53125 33.707031 C 51.179688 33.792969 50.964844 34.148438 51.054688 34.5 C 51.140625 34.851562 51.5 35.066406 51.851562 34.976562 " fill-opacity="1" fill-rule="nonzero"/><path fill="#070808" d="M 72.78125 22.742188 C 72.785156 23.503906 72.933594 24.121094 72.925781 24.609375 C 72.925781 24.820312 72.90625 25.007812 72.851562 25.191406 C 72.792969 25.375 72.703125 25.5625 72.546875 25.777344 C 72.328125 26.066406 72.386719 26.476562 72.675781 26.695312 C 72.964844 26.910156 73.378906 26.851562 73.597656 26.5625 C 73.839844 26.238281 74.011719 25.902344 74.109375 25.566406 C 74.210938 25.234375 74.242188 24.910156 74.242188 24.609375 C 74.238281 23.902344 74.089844 23.308594 74.09375 22.742188 C 74.09375 22.378906 73.800781 22.085938 73.4375 22.085938 C 73.074219 22.085938 72.78125 22.378906 72.78125 22.742188 " fill-opacity="1" fill-rule="nonzero"/><path fill="#070808" d="M 80.207031 30.917969 C 80.683594 31.289062 81.023438 31.636719 81.25 32.007812 C 81.472656 32.382812 81.605469 32.789062 81.640625 33.355469 C 81.660156 33.71875 81.96875 33.992188 82.332031 33.976562 C 82.695312 33.953125 82.972656 33.644531 82.953125 33.285156 C 82.914062 32.539062 82.714844 31.886719 82.371094 31.328125 C 82.03125 30.769531 81.566406 30.316406 81.015625 29.886719 C 80.734375 29.664062 80.320312 29.710938 80.09375 29.996094 C 79.871094 30.28125 79.921875 30.691406 80.207031 30.917969 " fill-opacity="1" fill-rule="nonzero"/><path fill="#070808" d="M 63.355469 35.667969 C 63.449219 36.035156 63.597656 36.316406 63.695312 36.554688 C 63.800781 36.792969 63.855469 36.980469 63.855469 37.167969 L 63.847656 37.269531 C 63.816406 37.632812 64.082031 37.953125 64.441406 37.984375 C 64.804688 38.019531 65.125 37.753906 65.160156 37.394531 C 65.164062 37.320312 65.167969 37.246094 65.167969 37.167969 C 65.167969 36.714844 65.03125 36.335938 64.910156 36.042969 C 64.78125 35.75 64.667969 35.519531 64.628906 35.351562 C 64.539062 35 64.183594 34.785156 63.832031 34.875 C 63.480469 34.960938 63.265625 35.316406 63.355469 35.667969 " fill-opacity="1" fill-rule="nonzero"/><path fill="#070808" d="M 73.933594 37.851562 L 74.574219 37.699219 C 74.472656 37.277344 74.285156 36.902344 74.050781 36.59375 C 73.816406 36.28125 73.539062 36.03125 73.246094 35.816406 C 73.015625 35.648438 72.699219 35.648438 72.46875 35.816406 C 71.859375 36.261719 71.363281 36.765625 70.859375 37.117188 C 70.359375 37.472656 69.84375 37.605469 69.261719 37.609375 C 68.625 37.609375 67.921875 37.429688 67.222656 37.171875 C 66.925781 37.058594 66.578125 36.921875 66.199219 36.808594 C 65.824219 36.699219 65.410156 36.609375 64.972656 36.609375 C 64.539062 36.605469 64.066406 36.703125 63.640625 36.972656 C 63.210938 37.246094 62.949219 37.589844 62.71875 37.839844 C 62.605469 37.96875 62.5 38.078125 62.40625 38.15625 C 62.308594 38.242188 62.222656 38.296875 62.128906 38.332031 C 61.722656 38.492188 61.253906 38.5625 60.757812 38.5625 C 60.335938 38.5625 59.898438 38.511719 59.476562 38.429688 C 59.277344 38.390625 59.074219 38.441406 58.921875 38.574219 C 58.769531 38.703125 58.683594 38.898438 58.691406 39.097656 C 58.710938 39.570312 58.820312 40.046875 59.050781 40.488281 C 59.277344 40.929688 59.625 41.328125 60.089844 41.640625 C 60.609375 41.992188 61.191406 42.191406 61.773438 42.308594 C 62.355469 42.425781 62.945312 42.457031 63.511719 42.457031 C 63.929688 42.457031 64.335938 42.4375 64.710938 42.421875 C 65.582031 42.378906 66.535156 42.375 67.511719 42.34375 L 67.488281 41.6875 L 67.011719 42.136719 L 67.046875 42.203125 C 67.0625 42.242188 67.074219 42.3125 67.074219 42.4375 C 67.074219 42.570312 67.058594 42.753906 67.007812 42.996094 C 66.976562 43.167969 66.839844 43.527344 66.671875 43.859375 C 66.507812 44.191406 66.300781 44.527344 66.167969 44.695312 C 66.054688 44.84375 65.855469 45.082031 65.675781 45.355469 C 65.582031 45.492188 65.496094 45.636719 65.421875 45.800781 C 65.347656 45.960938 65.285156 46.140625 65.269531 46.367188 C 65.253906 46.652344 65.425781 46.914062 65.695312 47.011719 C 65.917969 47.097656 66.097656 47.164062 66.269531 47.21875 C 66.4375 47.273438 66.609375 47.320312 66.820312 47.320312 C 66.972656 47.320312 67.140625 47.285156 67.277344 47.226562 C 67.492188 47.136719 67.636719 47.015625 67.785156 46.890625 C 67.933594 46.757812 68.089844 46.609375 68.300781 46.421875 C 68.746094 46.019531 69.097656 45.5625 69.417969 45.125 C 69.738281 44.679688 70.03125 44.25 70.332031 43.890625 C 70.941406 43.15625 71.484375 42.457031 72.113281 41.824219 L 72.109375 41.828125 C 72.199219 41.742188 72.34375 41.605469 72.496094 41.4375 L 72.007812 41 L 72.257812 41.605469 C 72.898438 41.34375 73.480469 40.914062 73.917969 40.359375 C 74.355469 39.804688 74.652344 39.117188 74.652344 38.359375 C 74.652344 38.140625 74.625 37.921875 74.574219 37.699219 L 73.933594 37.851562 L 73.296875 38 C 73.324219 38.121094 73.339844 38.242188 73.339844 38.359375 C 73.339844 38.765625 73.175781 39.179688 72.882812 39.546875 C 72.597656 39.917969 72.183594 40.222656 71.761719 40.394531 C 71.667969 40.429688 71.589844 40.484375 71.523438 40.558594 C 71.421875 40.671875 71.300781 40.785156 71.179688 40.902344 L 71.175781 40.90625 C 70.480469 41.609375 69.914062 42.34375 69.320312 43.054688 C 68.960938 43.484375 68.65625 43.9375 68.351562 44.355469 C 68.050781 44.773438 67.75 45.152344 67.414062 45.453125 C 67.125 45.71875 66.933594 45.898438 66.832031 45.976562 L 66.78125 46.015625 L 66.769531 46.019531 L 66.820312 46.128906 L 66.820312 46.007812 L 66.769531 46.019531 L 66.820312 46.128906 L 66.820312 46.007812 L 66.820312 46.03125 L 66.820312 46.007812 L 66.820312 46.03125 L 66.820312 46.007812 C 66.820312 46.011719 66.757812 46 66.644531 45.964844 C 66.53125 45.925781 66.367188 45.867188 66.15625 45.785156 L 65.925781 46.398438 L 66.582031 46.433594 L 66.523438 46.429688 L 66.582031 46.441406 L 66.582031 46.433594 L 66.523438 46.429688 L 66.582031 46.441406 C 66.582031 46.433594 66.597656 46.375 66.636719 46.300781 C 66.695312 46.1875 66.792969 46.039062 66.898438 45.894531 C 67.003906 45.753906 67.113281 45.617188 67.203125 45.5 L 67.203125 45.503906 C 67.425781 45.214844 67.648438 44.839844 67.851562 44.441406 C 68.046875 44.039062 68.214844 43.636719 68.296875 43.257812 C 68.359375 42.953125 68.390625 42.6875 68.390625 42.4375 C 68.390625 42.203125 68.363281 41.984375 68.289062 41.777344 C 68.222656 41.574219 68.105469 41.386719 67.96875 41.242188 C 67.839844 41.105469 67.660156 41.027344 67.46875 41.035156 C 66.519531 41.066406 65.5625 41.066406 64.644531 41.113281 C 64.277344 41.128906 63.890625 41.148438 63.511719 41.148438 C 63 41.148438 62.492188 41.117188 62.03125 41.023438 C 61.570312 40.933594 61.160156 40.78125 60.824219 40.554688 C 60.535156 40.359375 60.347656 40.136719 60.214844 39.886719 C 60.085938 39.636719 60.019531 39.355469 60.007812 39.046875 L 59.347656 39.074219 L 59.222656 39.714844 C 59.710938 39.8125 60.230469 39.875 60.757812 39.875 C 61.375 39.875 62.007812 39.789062 62.613281 39.550781 C 62.867188 39.449219 63.082031 39.308594 63.257812 39.15625 C 63.519531 38.933594 63.710938 38.695312 63.882812 38.507812 C 64.054688 38.3125 64.199219 38.167969 64.339844 38.082031 C 64.523438 37.96875 64.722656 37.921875 64.972656 37.917969 C 65.222656 37.917969 65.515625 37.976562 65.824219 38.066406 C 66.132812 38.15625 66.449219 38.28125 66.765625 38.398438 C 67.542969 38.683594 68.386719 38.917969 69.261719 38.917969 C 70.054688 38.921875 70.886719 38.714844 71.625 38.183594 C 72.246094 37.738281 72.75 37.230469 73.242188 36.875 L 72.855469 36.347656 L 72.46875 36.875 C 72.683594 37.03125 72.863281 37.199219 73 37.382812 C 73.140625 37.566406 73.238281 37.761719 73.296875 38.003906 L 73.296875 38 L 73.933594 37.851562 " fill-opacity="1" fill-rule="nonzero"/><path fill="#070808" d="M 66.640625 40.023438 C 67.359375 40.78125 68.085938 41.265625 68.773438 41.554688 C 69.457031 41.847656 70.09375 41.945312 70.621094 41.945312 C 71.511719 41.941406 72.085938 41.675781 72.144531 41.648438 L 71.863281 41.058594 L 72.078125 41.675781 C 72.761719 41.4375 73.382812 41.003906 73.855469 40.4375 C 74.328125 39.871094 74.652344 39.152344 74.652344 38.363281 C 74.652344 38.140625 74.625 37.921875 74.574219 37.699219 C 74.472656 37.277344 74.285156 36.902344 74.050781 36.59375 C 73.816406 36.28125 73.539062 36.03125 73.246094 35.816406 C 73.015625 35.648438 72.699219 35.648438 72.46875 35.816406 C 71.859375 36.261719 71.363281 36.765625 70.859375 37.117188 C 70.359375 37.472656 69.84375 37.605469 69.261719 37.609375 C 68.625 37.609375 67.921875 37.429688 67.222656 37.171875 C 66.925781 37.058594 66.578125 36.921875 66.199219 36.808594 C 65.824219 36.699219 65.410156 36.609375 64.972656 36.609375 C 64.539062 36.605469 64.066406 36.703125 63.640625 36.972656 C 63.210938 37.246094 62.949219 37.589844 62.71875 37.839844 C 62.605469 37.96875 62.5 38.078125 62.40625 38.15625 C 62.308594 38.242188 62.222656 38.296875 62.128906 38.332031 C 61.722656 38.492188 61.253906 38.5625 60.757812 38.5625 C 60.335938 38.5625 59.898438 38.511719 59.476562 38.429688 C 59.277344 38.390625 59.074219 38.441406 58.921875 38.574219 C 58.769531 38.703125 58.683594 38.898438 58.691406 39.097656 C 58.710938 39.570312 58.820312 40.046875 59.050781 40.488281 C 59.277344 40.929688 59.625 41.328125 60.089844 41.640625 C 60.609375 41.992188 61.191406 42.191406 61.773438 42.308594 C 62.355469 42.425781 62.945312 42.457031 63.511719 42.457031 C 63.929688 42.457031 64.335938 42.4375 64.710938 42.421875 C 65.582031 42.378906 66.539062 42.375 67.515625 42.34375 C 67.878906 42.335938 68.160156 42.03125 68.148438 41.667969 C 68.136719 41.308594 67.835938 41.023438 67.472656 41.035156 C 66.519531 41.066406 65.5625 41.066406 64.644531 41.113281 C 64.277344 41.128906 63.890625 41.148438 63.511719 41.148438 C 63 41.148438 62.492188 41.117188 62.03125 41.023438 C 61.570312 40.933594 61.160156 40.78125 60.824219 40.554688 C 60.535156 40.359375 60.347656 40.136719 60.214844 39.886719 C 60.085938 39.636719 60.019531 39.355469 60.007812 39.046875 L 59.347656 39.074219 L 59.222656 39.714844 C 59.710938 39.8125 60.230469 39.875 60.757812 39.875 C 61.375 39.875 62.007812 39.789062 62.613281 39.550781 C 62.867188 39.449219 63.082031 39.308594 63.257812 39.15625 C 63.519531 38.933594 63.710938 38.695312 63.882812 38.507812 C 64.054688 38.3125 64.199219 38.167969 64.339844 38.082031 C 64.523438 37.96875 64.722656 37.921875 64.972656 37.917969 C 65.222656 37.917969 65.515625 37.976562 65.824219 38.066406 C 66.132812 38.15625 66.449219 38.28125 66.765625 38.398438 C 67.542969 38.683594 68.386719 38.917969 69.261719 38.917969 C 70.054688 38.921875 70.886719 38.714844 71.625 38.183594 C 72.246094 37.738281 72.75 37.230469 73.242188 36.875 L 72.855469 36.347656 L 72.46875 36.875 C 72.683594 37.03125 72.863281 37.199219 73 37.382812 C 73.140625 37.566406 73.238281 37.761719 73.296875 38.003906 L 73.296875 38 C 73.324219 38.125 73.339844 38.242188 73.339844 38.363281 C 73.339844 38.785156 73.160156 39.222656 72.84375 39.601562 C 72.53125 39.980469 72.085938 40.285156 71.644531 40.4375 L 71.578125 40.464844 L 71.726562 40.769531 L 71.585938 40.464844 L 71.578125 40.464844 L 71.726562 40.769531 L 71.585938 40.464844 C 71.585938 40.464844 71.5625 40.472656 71.519531 40.488281 C 71.382812 40.539062 71.058594 40.632812 70.621094 40.632812 C 70.25 40.632812 69.796875 40.570312 69.289062 40.351562 C 68.777344 40.132812 68.203125 39.761719 67.59375 39.125 C 67.34375 38.859375 66.929688 38.851562 66.664062 39.097656 C 66.402344 39.347656 66.390625 39.761719 66.640625 40.027344 " fill-opacity="1" fill-rule="nonzero"/><path fill="#070808" d="M 88.746094 64.496094 L 79.703125 64.496094 C 79.351562 64.5 77.199219 64.449219 75.226562 63.574219 C 74.238281 63.136719 73.304688 62.507812 72.621094 61.601562 C 71.9375 60.695312 71.480469 59.507812 71.480469 57.851562 C 71.480469 57.539062 71.496094 57.210938 71.53125 56.863281 C 71.570312 56.503906 71.304688 56.183594 70.945312 56.144531 C 70.582031 56.109375 70.261719 56.371094 70.222656 56.730469 C 70.183594 57.117188 70.164062 57.492188 70.164062 57.851562 C 70.164062 59.753906 70.714844 61.261719 71.570312 62.390625 C 72.214844 63.242188 73.015625 63.875 73.851562 64.347656 C 75.105469 65.058594 76.441406 65.417969 77.527344 65.605469 C 78.613281 65.792969 79.449219 65.808594 79.703125 65.808594 C 79.75 65.808594 79.777344 65.808594 79.78125 65.808594 L 79.769531 65.152344 L 79.769531 65.808594 L 88.746094 65.808594 C 89.109375 65.808594 89.402344 65.515625 89.402344 65.152344 C 89.402344 64.792969 89.109375 64.496094 88.746094 64.496094 " fill-opacity="1" fill-rule="nonzero"/></g></g></g></g><g fill="#000000" fill-opacity="1"><g transform="translate(111.942149, 52.271282)"><g><path d="M 23.964844 0 L 31.269531 0 L 18.082031 -28.109375 L 12.238281 -28.109375 L -0.90625 0 L 6.515625 0 L 9 -5.804688 L 21.476562 -5.804688 Z M 11.410156 -11.371094 L 15.238281 -20.253906 L 19.070312 -11.371094 Z M 11.410156 -11.371094 "/></g></g></g><g fill="#000000" fill-opacity="1"><g transform="translate(142.297295, 52.271282)"><g><path d="M 8.84375 0 L 16.34375 0 L 16.34375 -22.109375 L 24.714844 -22.109375 L 24.714844 -28.109375 L 0.472656 -28.109375 L 0.472656 -22.109375 L 8.84375 -22.109375 Z M 8.84375 0 "/></g></g></g><g fill="#000000" fill-opacity="1"><g transform="translate(167.481413, 52.271282)"><g><path d="M 16.1875 0.355469 C 19.859375 0.355469 23.609375 -0.828125 25.703125 -2.722656 L 23.449219 -7.976562 C 21.160156 -6.316406 18.792969 -5.488281 16.34375 -5.488281 C 11.804688 -5.488281 9.316406 -8.410156 9.316406 -14.09375 C 9.316406 -19.738281 11.804688 -22.621094 16.34375 -22.621094 C 18.792969 -22.621094 21.160156 -21.792969 23.449219 -20.136719 L 25.703125 -25.386719 C 23.609375 -27.28125 19.859375 -28.464844 16.1875 -28.464844 C 10.34375 -28.464844 5.882812 -25.976562 3.554688 -21.636719 C 2.367188 -19.464844 1.777344 -16.9375 1.777344 -14.09375 C 1.777344 -8.371094 4.222656 -3.828125 8.566406 -1.460938 C 10.738281 -0.238281 13.265625 0.355469 16.1875 0.355469 Z M 16.1875 0.355469 "/></g></g></g><g fill="#000000" fill-opacity="1"><g transform="translate(194.520782, 52.271282)"><g/></g></g><g fill="#19baaa" fill-opacity="1"><g transform="translate(205.96635, 52.271282)"><g><path d="M 12.710938 0.355469 C 20.449219 0.355469 24.910156 -2.960938 24.910156 -8.449219 C 24.910156 -11.332031 23.847656 -13.34375 20.925781 -14.921875 C 19.464844 -15.671875 17.449219 -16.34375 14.882812 -16.898438 C 12.4375 -17.449219 10.34375 -18.082031 9.710938 -18.792969 C 9.4375 -19.109375 9.277344 -19.503906 9.277344 -19.976562 C 9.277344 -21.714844 11.054688 -22.820312 13.738281 -22.820312 C 16.464844 -22.820312 19.265625 -21.871094 21.753906 -20.136719 L 24.042969 -25.386719 C 21.871094 -27.242188 17.726562 -28.464844 13.660156 -28.464844 C 9.121094 -28.464844 5.449219 -26.847656 3.515625 -24.082031 C 2.527344 -22.699219 2.054688 -21.121094 2.054688 -19.425781 C 2.054688 -16.421875 3.078125 -14.410156 6.039062 -12.871094 C 7.5 -12.082031 9.59375 -11.410156 12.238281 -10.894531 C 14.332031 -10.460938 15.792969 -9.988281 16.542969 -9.554688 C 17.292969 -9.082031 17.6875 -8.488281 17.6875 -7.777344 C 17.6875 -6.199219 15.949219 -5.289062 12.792969 -5.289062 C 9.671875 -5.289062 6.515625 -6.238281 3.789062 -7.976562 L 1.460938 -2.722656 C 4.027344 -0.828125 8.488281 0.355469 12.710938 0.355469 Z M 12.710938 0.355469 "/></g></g></g><g fill="#19baaa" fill-opacity="1"><g transform="translate(232.49256, 52.271282)"><g><path d="M 16.1875 0.355469 C 19.859375 0.355469 23.609375 -0.828125 25.703125 -2.722656 L 23.449219 -7.976562 C 21.160156 -6.316406 18.792969 -5.488281 16.34375 -5.488281 C 11.804688 -5.488281 9.316406 -8.410156 9.316406 -14.09375 C 9.316406 -19.738281 11.804688 -22.621094 16.34375 -22.621094 C 18.792969 -22.621094 21.160156 -21.792969 23.449219 -20.136719 L 25.703125 -25.386719 C 23.609375 -27.28125 19.859375 -28.464844 16.1875 -28.464844 C 10.34375 -28.464844 5.882812 -25.976562 3.554688 -21.636719 C 2.367188 -19.464844 1.777344 -16.9375 1.777344 -14.09375 C 1.777344 -8.371094 4.222656 -3.828125 8.566406 -1.460938 C 10.738281 -0.238281 13.265625 0.355469 16.1875 0.355469 Z M 16.1875 0.355469 "/></g></g></g></svg>