<svg xmlns="http://www.w3.org/2000/svg" xmlns:xlink="http://www.w3.org/1999/xlink" width="992" zoomAndPan="magnify" viewBox="0 0 744 749.999995" height="1000" preserveAspectRatio="xMidYMid meet" version="1.0"><defs><clipPath id="id1"><path d="M 358.34375 24.429688 L 466.863281 24.429688 L 466.863281 124.496094 L 358.34375 124.496094 Z M 358.34375 24.429688 " clip-rule="nonzero"/></clipPath><clipPath id="id2"><path d="M 277.121094 0 L 382 0 L 382 101 L 277.121094 101 Z M 277.121094 0 " clip-rule="nonzero"/></clipPath></defs><rect x="-74.4" width="892.8" fill="#ffffff" y="-74.999999" height="899.999994" fill-opacity="1"/><rect x="-74.4" width="892.8" fill="#ffffff" y="-74.999999" height="899.999994" fill-opacity="1"/><rect x="-74.4" width="892.8" fill="#fafafa" y="-74.999999" height="899.999994" fill-opacity="1"/><path fill="#19baaa" d="M 427.621094 70.011719 C 427.070312 68.695312 425.554688 68.082031 424.242188 68.636719 C 422.929688 69.195312 422.3125 70.710938 422.867188 72.023438 C 423.425781 73.335938 424.9375 73.953125 426.25 73.394531 C 427.566406 72.839844 428.179688 71.324219 427.621094 70.011719 " fill-opacity="1" fill-rule="nonzero"/><path fill="#19baaa" d="M 414.4375 83.886719 C 412.851562 84.9375 412.421875 87.074219 413.46875 88.65625 C 414.519531 90.242188 416.65625 90.675781 418.238281 89.625 C 419.820312 88.574219 420.253906 86.4375 419.203125 84.855469 C 418.15625 83.269531 416.019531 82.835938 414.4375 83.886719 " fill-opacity="1" fill-rule="nonzero"/><path fill="#19baaa" d="M 405.121094 51.859375 C 406.515625 51.554688 407.394531 50.175781 407.089844 48.78125 C 406.785156 47.390625 405.410156 46.507812 404.015625 46.8125 C 402.625 47.121094 401.742188 48.496094 402.046875 49.890625 C 402.355469 51.28125 403.730469 52.164062 405.121094 51.859375 " fill-opacity="1" fill-rule="nonzero"/><path fill="#19baaa" d="M 393.394531 58.441406 C 394.40625 58.367188 395.160156 57.484375 395.082031 56.472656 C 395.003906 55.464844 394.125 54.707031 393.113281 54.785156 C 392.105469 54.863281 391.351562 55.746094 391.425781 56.753906 C 391.503906 57.765625 392.386719 58.519531 393.394531 58.441406 " fill-opacity="1" fill-rule="nonzero"/><path fill="#19baaa" d="M 379.683594 66.820312 C 377.367188 67.964844 376.417969 70.769531 377.558594 73.085938 C 378.703125 75.40625 381.507812 76.355469 383.824219 75.214844 C 386.140625 74.070312 387.089844 71.265625 385.949219 68.945312 C 384.804688 66.628906 382 65.675781 379.683594 66.820312 " fill-opacity="1" fill-rule="nonzero"/><path fill="#19baaa" d="M 408.511719 70.878906 C 409.78125 69.21875 409.464844 66.839844 407.804688 65.566406 C 406.144531 64.296875 403.765625 64.613281 402.492188 66.273438 C 401.222656 67.933594 401.539062 70.3125 403.199219 71.585938 C 404.859375 72.859375 407.238281 72.542969 408.511719 70.878906 " fill-opacity="1" fill-rule="nonzero"/><path fill="#19baaa" d="M 441.542969 58.679688 C 439.386719 58.957031 437.867188 60.925781 438.144531 63.082031 C 438.421875 65.234375 440.390625 66.757812 442.542969 66.480469 C 444.695312 66.203125 446.21875 64.230469 445.941406 62.078125 C 445.664062 59.921875 443.691406 58.402344 441.542969 58.679688 " fill-opacity="1" fill-rule="nonzero"/><path fill="#19baaa" d="M 422.769531 56.863281 C 424.503906 56.085938 425.277344 54.046875 424.5 52.3125 C 423.726562 50.578125 421.6875 49.804688 419.957031 50.582031 C 418.222656 51.359375 417.445312 53.394531 418.222656 55.128906 C 419 56.863281 421.035156 57.640625 422.769531 56.863281 " fill-opacity="1" fill-rule="nonzero"/><g clip-path="url(#id1)"><path fill="#19baaa" d="M 452.542969 62.765625 L 450.699219 63.410156 C 450.347656 63.535156 450.085938 63.832031 450.011719 64.195312 C 449.941406 64.539062 449.847656 64.878906 449.734375 65.207031 C 449.613281 65.5625 449.691406 65.953125 449.933594 66.238281 L 451.199219 67.722656 C 451.527344 68.105469 451.539062 68.664062 451.230469 69.0625 L 450.640625 69.832031 C 450.332031 70.230469 449.789062 70.359375 449.332031 70.140625 L 447.578125 69.289062 C 447.242188 69.128906 446.84375 69.152344 446.53125 69.359375 C 446.242188 69.550781 445.941406 69.726562 445.625 69.878906 C 445.289062 70.042969 445.070312 70.375 445.039062 70.746094 L 444.882812 72.691406 C 444.84375 73.195312 444.457031 73.601562 443.957031 73.664062 L 442.996094 73.789062 C 442.496094 73.851562 442.019531 73.558594 441.855469 73.082031 L 441.210938 71.238281 C 441.089844 70.886719 440.792969 70.625 440.425781 70.550781 C 440.082031 70.480469 439.742188 70.386719 439.417969 70.273438 C 439.0625 70.152344 438.671875 70.230469 438.386719 70.472656 L 436.902344 71.738281 C 436.519531 72.066406 435.960938 72.078125 435.5625 71.773438 L 434.796875 71.179688 C 434.398438 70.871094 434.265625 70.328125 434.488281 69.871094 L 435.335938 68.117188 C 435.496094 67.78125 435.472656 67.382812 435.265625 67.070312 C 435.074219 66.78125 434.898438 66.476562 434.746094 66.160156 C 434.582031 65.828125 434.25 65.605469 433.878906 65.578125 L 431.933594 65.421875 C 431.429688 65.378906 431.027344 64.992188 430.964844 64.496094 L 430.839844 63.53125 C 430.773438 63.03125 431.070312 62.554688 431.542969 62.390625 L 433.386719 61.746094 C 433.738281 61.621094 434.003906 61.324219 434.078125 60.960938 C 434.144531 60.617188 434.238281 60.277344 434.351562 59.949219 C 434.472656 59.597656 434.394531 59.203125 434.152344 58.921875 L 432.886719 57.4375 C 432.558594 57.050781 432.546875 56.492188 432.855469 56.09375 L 433.445312 55.328125 C 433.753906 54.929688 434.296875 54.800781 434.753906 55.019531 L 436.507812 55.867188 C 436.84375 56.03125 437.242188 56.007812 437.554688 55.800781 C 437.84375 55.605469 438.148438 55.433594 438.460938 55.277344 C 438.796875 55.113281 439.015625 54.78125 439.046875 54.410156 L 439.203125 52.464844 C 439.242188 51.960938 439.628906 51.558594 440.128906 51.492188 L 441.089844 51.367188 C 441.589844 51.304688 442.066406 51.597656 442.230469 52.074219 L 442.875 53.917969 C 443 54.269531 443.296875 54.535156 443.660156 54.609375 C 444.003906 54.679688 444.34375 54.769531 444.671875 54.882812 C 445.023438 55.003906 445.414062 54.925781 445.699219 54.683594 L 447.183594 53.417969 C 447.566406 53.089844 448.125 53.078125 448.523438 53.386719 L 449.292969 53.976562 C 449.6875 54.285156 449.820312 54.832031 449.597656 55.285156 L 448.75 57.039062 C 448.589844 57.375 448.613281 57.773438 448.820312 58.085938 C 449.011719 58.375 449.1875 58.679688 449.339844 58.996094 C 449.503906 59.328125 449.835938 59.550781 450.207031 59.582031 L 452.152344 59.738281 C 452.652344 59.777344 453.058594 60.164062 453.125 60.664062 L 453.246094 61.625 C 453.3125 62.125 453.019531 62.601562 452.542969 62.765625 Z M 448.742188 88.882812 L 448.5 89.820312 C 448.378906 90.308594 447.929688 90.640625 447.425781 90.621094 L 445.476562 90.535156 C 445.105469 90.519531 444.75 90.703125 444.542969 91.015625 C 444.355469 91.304688 444.144531 91.585938 443.917969 91.855469 C 443.675781 92.136719 443.605469 92.527344 443.722656 92.878906 L 444.351562 94.730469 C 444.511719 95.207031 444.320312 95.730469 443.886719 95.988281 L 443.050781 96.484375 C 442.617188 96.742188 442.066406 96.660156 441.726562 96.289062 L 440.402344 94.851562 C 440.152344 94.578125 439.773438 94.453125 439.410156 94.527344 C 439.066406 94.601562 438.71875 94.648438 438.371094 94.675781 C 438 94.707031 437.671875 94.933594 437.503906 95.269531 L 436.644531 97.019531 C 436.421875 97.46875 435.914062 97.703125 435.425781 97.578125 L 434.488281 97.339844 C 434 97.214844 433.667969 96.765625 433.6875 96.261719 L 433.769531 94.3125 C 433.789062 93.941406 433.605469 93.585938 433.292969 93.378906 C 433.003906 93.191406 432.722656 92.980469 432.457031 92.753906 C 432.171875 92.507812 431.78125 92.4375 431.429688 92.558594 L 429.582031 93.1875 C 429.105469 93.347656 428.578125 93.152344 428.324219 92.722656 L 427.828125 91.886719 C 427.570312 91.453125 427.652344 90.898438 428.023438 90.558594 L 429.460938 89.234375 C 429.730469 88.984375 429.859375 88.605469 429.78125 88.242188 C 429.707031 87.898438 429.660156 87.550781 429.632812 87.203125 C 429.605469 86.832031 429.378906 86.503906 429.042969 86.339844 L 427.292969 85.476562 C 426.84375 85.253906 426.609375 84.746094 426.734375 84.257812 L 426.972656 83.320312 C 427.097656 82.832031 427.546875 82.496094 428.046875 82.519531 L 429.996094 82.601562 C 430.371094 82.617188 430.726562 82.4375 430.929688 82.125 C 431.117188 81.832031 431.328125 81.554688 431.558594 81.285156 C 431.800781 81.003906 431.871094 80.609375 431.75 80.257812 L 431.125 78.410156 C 430.960938 77.933594 431.15625 77.40625 431.589844 77.148438 L 432.421875 76.65625 C 432.855469 76.398438 433.410156 76.480469 433.75 76.851562 L 435.070312 78.289062 C 435.324219 78.5625 435.699219 78.6875 436.066406 78.609375 C 436.410156 78.539062 436.753906 78.488281 437.101562 78.460938 C 437.472656 78.433594 437.804688 78.207031 437.96875 77.871094 L 438.828125 76.121094 C 439.050781 75.667969 439.558594 75.433594 440.046875 75.558594 L 440.988281 75.800781 C 441.472656 75.925781 441.808594 76.375 441.785156 76.875 L 441.703125 78.824219 C 441.6875 79.199219 441.867188 79.554688 442.179688 79.757812 C 442.46875 79.949219 442.753906 80.160156 443.019531 80.386719 C 443.300781 80.628906 443.691406 80.699219 444.046875 80.582031 L 445.894531 79.953125 C 446.371094 79.792969 446.894531 79.984375 447.152344 80.417969 L 447.644531 81.253906 C 447.90625 81.6875 447.820312 82.238281 447.453125 82.582031 L 446.015625 83.902344 C 445.742188 84.15625 445.617188 84.53125 445.691406 84.898438 C 445.765625 85.242188 445.8125 85.585938 445.839844 85.933594 C 445.871094 86.308594 446.097656 86.636719 446.429688 86.800781 L 448.179688 87.664062 C 448.632812 87.882812 448.867188 88.394531 448.742188 88.882812 Z M 425.738281 76.335938 C 425.433594 76.363281 425.132812 76.367188 424.832031 76.34375 C 424.660156 76.328125 424.496094 76.40625 424.398438 76.550781 L 423.507812 77.871094 C 423.382812 78.058594 423.144531 78.128906 422.9375 78.046875 L 422.007812 77.667969 C 421.800781 77.585938 421.679688 77.367188 421.722656 77.148438 L 422.003906 75.578125 C 422.03125 75.40625 421.96875 75.234375 421.835938 75.125 C 421.601562 74.933594 421.386719 74.722656 421.191406 74.492188 C 421.078125 74.359375 420.90625 74.296875 420.738281 74.332031 L 419.171875 74.636719 C 418.953125 74.679688 418.734375 74.5625 418.644531 74.355469 L 418.253906 73.429688 C 418.167969 73.222656 418.234375 72.984375 418.417969 72.855469 L 419.730469 71.945312 C 419.871094 71.847656 419.945312 71.679688 419.929688 71.507812 C 419.902344 71.203125 419.898438 70.902344 419.921875 70.605469 C 419.9375 70.433594 419.859375 70.265625 419.714844 70.167969 L 418.394531 69.277344 C 418.207031 69.152344 418.136719 68.914062 418.21875 68.707031 L 418.597656 67.777344 C 418.679688 67.570312 418.898438 67.449219 419.117188 67.488281 L 420.6875 67.773438 C 420.859375 67.800781 421.03125 67.738281 421.136719 67.605469 C 421.332031 67.375 421.542969 67.15625 421.773438 66.960938 C 421.902344 66.847656 421.964844 66.675781 421.933594 66.507812 L 421.628906 64.941406 C 421.585938 64.71875 421.703125 64.5 421.910156 64.414062 L 422.835938 64.023438 C 423.039062 63.933594 423.28125 64.003906 423.40625 64.1875 L 424.320312 65.496094 C 424.417969 65.640625 424.582031 65.714844 424.753906 65.699219 C 425.058594 65.671875 425.359375 65.667969 425.660156 65.691406 C 425.832031 65.707031 425.996094 65.628906 426.09375 65.484375 L 426.984375 64.160156 C 427.109375 63.976562 427.347656 63.902344 427.554688 63.988281 L 428.484375 64.363281 C 428.691406 64.449219 428.8125 64.667969 428.769531 64.886719 L 428.488281 66.457031 C 428.457031 66.625 428.523438 66.796875 428.65625 66.910156 C 428.886719 67.097656 429.105469 67.3125 429.300781 67.542969 C 429.414062 67.671875 429.585938 67.734375 429.753906 67.703125 L 431.320312 67.398438 C 431.539062 67.355469 431.757812 67.472656 431.84375 67.679688 L 432.238281 68.605469 C 432.324219 68.808594 432.253906 69.050781 432.070312 69.175781 L 430.761719 70.089844 C 430.621094 70.1875 430.546875 70.355469 430.5625 70.527344 C 430.589844 70.828125 430.589844 71.132812 430.570312 71.429688 C 430.554688 71.601562 430.632812 71.769531 430.777344 71.863281 L 432.097656 72.753906 C 432.285156 72.878906 432.355469 73.117188 432.273438 73.328125 L 431.894531 74.257812 C 431.808594 74.464844 431.59375 74.582031 431.371094 74.542969 L 429.804688 74.261719 C 429.632812 74.230469 429.460938 74.296875 429.351562 74.429688 C 429.160156 74.660156 428.949219 74.875 428.71875 75.074219 C 428.589844 75.1875 428.527344 75.359375 428.558594 75.527344 L 428.863281 77.09375 C 428.90625 77.3125 428.789062 77.53125 428.582031 77.621094 L 427.65625 78.011719 C 427.453125 78.097656 427.214844 78.03125 427.085938 77.847656 L 426.171875 76.535156 C 426.074219 76.394531 425.90625 76.320312 425.738281 76.335938 Z M 426.105469 88.054688 L 425.839844 89.367188 C 425.78125 89.65625 425.527344 89.867188 425.226562 89.871094 L 423.101562 89.886719 C 422.875 89.886719 422.664062 90.015625 422.554688 90.21875 C 422.359375 90.566406 422.132812 90.902344 421.882812 91.214844 C 421.738281 91.394531 421.699219 91.636719 421.78125 91.847656 L 422.5625 93.828125 C 422.675781 94.105469 422.574219 94.421875 422.328125 94.585938 L 421.210938 95.324219 C 420.964844 95.488281 420.632812 95.457031 420.421875 95.25 L 418.90625 93.757812 C 418.742188 93.597656 418.503906 93.539062 418.285156 93.601562 C 417.894531 93.714844 417.5 93.789062 417.101562 93.832031 C 416.875 93.855469 416.675781 94 416.582031 94.210938 L 415.742188 96.160156 C 415.625 96.433594 415.332031 96.589844 415.039062 96.53125 L 413.730469 96.261719 C 413.4375 96.203125 413.226562 95.949219 413.222656 95.648438 L 413.207031 93.523438 C 413.207031 93.296875 413.078125 93.085938 412.878906 92.976562 C 412.527344 92.78125 412.195312 92.558594 411.878906 92.304688 C 411.699219 92.160156 411.460938 92.117188 411.246094 92.203125 L 409.269531 92.984375 C 408.992188 93.097656 408.675781 92.996094 408.511719 92.75 L 407.773438 91.632812 C 407.605469 91.382812 407.640625 91.054688 407.847656 90.84375 L 409.339844 89.324219 C 409.5 89.160156 409.558594 88.925781 409.492188 88.703125 C 409.382812 88.316406 409.308594 87.917969 409.265625 87.523438 C 409.238281 87.292969 409.097656 87.09375 408.886719 87.003906 L 406.9375 86.160156 C 406.664062 86.042969 406.507812 85.75 406.566406 85.457031 L 406.832031 84.144531 C 406.894531 83.855469 407.148438 83.644531 407.445312 83.640625 L 409.570312 83.625 C 409.800781 83.625 410.007812 83.496094 410.121094 83.292969 C 410.3125 82.945312 410.539062 82.609375 410.792969 82.296875 C 410.9375 82.117188 410.976562 81.875 410.890625 81.664062 L 410.109375 79.683594 C 410 79.40625 410.097656 79.089844 410.347656 78.925781 L 411.460938 78.1875 C 411.710938 78.023438 412.039062 78.054688 412.25 78.261719 L 413.765625 79.753906 C 413.929688 79.914062 414.167969 79.972656 414.390625 79.910156 C 414.777344 79.796875 415.171875 79.722656 415.570312 79.679688 C 415.800781 79.65625 416 79.511719 416.089844 79.300781 L 416.929688 77.351562 C 417.050781 77.078125 417.34375 76.921875 417.636719 76.980469 L 418.945312 77.246094 C 419.238281 77.308594 419.449219 77.5625 419.449219 77.863281 L 419.464844 79.984375 C 419.46875 80.214844 419.597656 80.425781 419.796875 80.535156 C 420.144531 80.730469 420.480469 80.953125 420.796875 81.207031 C 420.972656 81.351562 421.214844 81.394531 421.429688 81.308594 L 423.40625 80.523438 C 423.679688 80.414062 423.996094 80.515625 424.164062 80.761719 L 424.902344 81.878906 C 425.066406 82.125 425.035156 82.457031 424.824219 82.667969 L 423.335938 84.1875 C 423.171875 84.347656 423.117188 84.585938 423.179688 84.808594 C 423.292969 85.195312 423.367188 85.59375 423.410156 85.988281 C 423.433594 86.21875 423.578125 86.417969 423.789062 86.507812 L 425.738281 87.351562 C 426.011719 87.46875 426.164062 87.761719 426.105469 88.054688 Z M 405.453125 78.953125 L 404.675781 76.746094 C 404.589844 76.507812 404.378906 76.335938 404.132812 76.292969 C 403.699219 76.214844 403.269531 76.101562 402.851562 75.953125 C 402.613281 75.867188 402.347656 75.910156 402.15625 76.074219 L 400.378906 77.601562 C 400.132812 77.816406 399.765625 77.824219 399.503906 77.625 L 398.335938 76.730469 C 398.074219 76.53125 397.992188 76.175781 398.132812 75.878906 L 399.140625 73.765625 C 399.25 73.539062 399.222656 73.269531 399.078125 73.0625 C 398.820312 72.695312 398.601562 72.3125 398.414062 71.914062 C 398.308594 71.683594 398.085938 71.53125 397.835938 71.511719 L 395.503906 71.335938 C 395.175781 71.308594 394.910156 71.058594 394.867188 70.734375 L 394.671875 69.273438 C 394.628906 68.949219 394.820312 68.636719 395.128906 68.527344 L 397.335938 67.746094 C 397.574219 67.664062 397.746094 67.457031 397.789062 67.207031 C 397.867188 66.773438 397.980469 66.34375 398.128906 65.925781 C 398.214844 65.6875 398.171875 65.421875 398.007812 65.230469 L 396.480469 63.453125 C 396.269531 63.203125 396.257812 62.839844 396.457031 62.578125 L 397.351562 61.40625 C 397.550781 61.148438 397.90625 61.0625 398.203125 61.203125 L 400.316406 62.210938 C 400.542969 62.320312 400.808594 62.292969 401.019531 62.148438 C 401.382812 61.894531 401.765625 61.671875 402.164062 61.484375 C 402.394531 61.378906 402.550781 61.160156 402.570312 60.90625 L 402.746094 58.574219 C 402.769531 58.246094 403.019531 57.980469 403.347656 57.9375 L 404.804688 57.742188 C 405.128906 57.699219 405.441406 57.890625 405.550781 58.199219 L 406.332031 60.40625 C 406.414062 60.644531 406.621094 60.816406 406.871094 60.859375 C 407.304688 60.9375 407.734375 61.050781 408.152344 61.203125 C 408.390625 61.285156 408.65625 61.242188 408.847656 61.078125 L 410.621094 59.550781 C 410.871094 59.339844 411.238281 59.328125 411.496094 59.527344 L 412.667969 60.421875 C 412.929688 60.625 413.011719 60.976562 412.871094 61.273438 L 411.863281 63.386719 C 411.753906 63.617188 411.78125 63.882812 411.925781 64.089844 C 412.179688 64.457031 412.402344 64.839844 412.589844 65.238281 C 412.695312 65.46875 412.917969 65.625 413.167969 65.644531 L 415.5 65.820312 C 415.828125 65.84375 416.09375 66.09375 416.136719 66.421875 L 416.332031 67.878906 C 416.375 68.207031 416.183594 68.515625 415.875 68.625 L 413.667969 69.40625 C 413.429688 69.488281 413.257812 69.699219 413.214844 69.949219 C 413.136719 70.378906 413.023438 70.808594 412.875 71.230469 C 412.789062 71.464844 412.832031 71.730469 413 71.921875 L 414.523438 73.699219 C 414.734375 73.949219 414.746094 74.316406 414.546875 74.574219 L 413.652344 75.746094 C 413.453125 76.007812 413.097656 76.089844 412.800781 75.949219 L 410.6875 74.941406 C 410.460938 74.832031 410.191406 74.859375 409.984375 75.003906 C 409.621094 75.257812 409.234375 75.480469 408.839844 75.667969 C 408.609375 75.773438 408.453125 75.996094 408.433594 76.246094 L 408.257812 78.582031 C 408.234375 78.910156 407.980469 79.171875 407.65625 79.21875 L 406.199219 79.410156 C 405.871094 79.453125 405.5625 79.261719 405.453125 78.953125 Z M 404.851562 86.015625 L 403.320312 86.464844 C 403.152344 86.511719 403.03125 86.648438 402.992188 86.816406 C 402.921875 87.113281 402.828125 87.398438 402.710938 87.675781 C 402.640625 87.832031 402.664062 88.015625 402.769531 88.152344 L 403.738281 89.417969 C 403.875 89.59375 403.867188 89.84375 403.722656 90.015625 L 403.070312 90.777344 C 402.925781 90.945312 402.679688 90.992188 402.484375 90.882812 L 401.085938 90.117188 C 400.933594 90.035156 400.75 90.042969 400.605469 90.132812 C 400.347656 90.289062 400.082031 90.429688 399.800781 90.542969 C 399.640625 90.605469 399.523438 90.75 399.503906 90.921875 L 399.292969 92.503906 C 399.265625 92.722656 399.085938 92.894531 398.859375 92.914062 L 397.859375 92.988281 C 397.636719 93.007812 397.433594 92.867188 397.367188 92.652344 L 396.921875 91.121094 C 396.871094 90.953125 396.738281 90.832031 396.570312 90.789062 C 396.273438 90.722656 395.988281 90.625 395.710938 90.507812 C 395.550781 90.441406 395.371094 90.460938 395.234375 90.566406 L 393.96875 91.539062 C 393.792969 91.675781 393.542969 91.667969 393.375 91.523438 L 392.613281 90.871094 C 392.441406 90.722656 392.398438 90.480469 392.503906 90.28125 L 393.269531 88.882812 C 393.351562 88.734375 393.34375 88.550781 393.253906 88.402344 C 393.097656 88.148438 392.960938 87.878906 392.847656 87.597656 C 392.78125 87.4375 392.636719 87.324219 392.46875 87.300781 L 390.886719 87.089844 C 390.664062 87.0625 390.492188 86.882812 390.476562 86.660156 L 390.398438 85.65625 C 390.382812 85.433594 390.523438 85.230469 390.738281 85.167969 L 392.269531 84.71875 C 392.433594 84.667969 392.558594 84.535156 392.597656 84.367188 C 392.667969 84.070312 392.761719 83.785156 392.878906 83.507812 C 392.945312 83.347656 392.925781 83.167969 392.820312 83.03125 L 391.847656 81.765625 C 391.710938 81.585938 391.71875 81.339844 391.867188 81.167969 L 392.519531 80.40625 C 392.664062 80.238281 392.910156 80.191406 393.105469 80.300781 L 394.503906 81.066406 C 394.652344 81.148438 394.835938 81.140625 394.984375 81.050781 C 395.238281 80.890625 395.507812 80.753906 395.789062 80.640625 C 395.949219 80.574219 396.0625 80.433594 396.085938 80.261719 L 396.296875 78.679688 C 396.324219 78.457031 396.503906 78.285156 396.726562 78.269531 L 397.726562 78.191406 C 397.953125 78.175781 398.15625 78.316406 398.21875 78.53125 L 398.667969 80.0625 C 398.714844 80.230469 398.851562 80.351562 399.015625 80.390625 C 399.316406 80.460938 399.601562 80.554688 399.878906 80.671875 C 400.035156 80.742188 400.21875 80.71875 400.355469 80.613281 L 401.617188 79.644531 C 401.796875 79.507812 402.046875 79.515625 402.214844 79.660156 L 402.976562 80.3125 C 403.148438 80.457031 403.191406 80.703125 403.085938 80.898438 L 402.316406 82.296875 C 402.234375 82.449219 402.242188 82.632812 402.332031 82.78125 C 402.492188 83.035156 402.628906 83.304688 402.742188 83.585938 C 402.808594 83.746094 402.949219 83.859375 403.121094 83.882812 L 404.703125 84.089844 C 404.925781 84.121094 405.09375 84.300781 405.113281 84.523438 L 405.191406 85.527344 C 405.207031 85.75 405.0625 85.953125 404.851562 86.015625 Z M 389.421875 76.914062 C 389.171875 77.242188 388.898438 77.558594 388.601562 77.855469 C 388.289062 78.167969 388.167969 78.625 388.277344 79.054688 L 388.851562 81.308594 C 389 81.886719 388.722656 82.492188 388.1875 82.757812 L 387.148438 83.269531 C 386.613281 83.53125 385.964844 83.386719 385.59375 82.914062 L 384.15625 81.089844 C 383.882812 80.738281 383.445312 80.554688 383.007812 80.613281 C 382.59375 80.667969 382.175781 80.695312 381.765625 80.695312 C 381.320312 80.695312 380.910156 80.933594 380.683594 81.316406 L 379.5 83.3125 C 379.195312 83.828125 378.570312 84.0625 378.003906 83.867188 L 376.910156 83.496094 C 376.34375 83.304688 375.988281 82.742188 376.0625 82.144531 L 376.339844 79.84375 C 376.390625 79.398438 376.210938 78.960938 375.859375 78.691406 C 375.53125 78.4375 375.21875 78.164062 374.921875 77.867188 C 374.605469 77.554688 374.148438 77.433594 373.71875 77.542969 L 371.46875 78.121094 C 370.890625 78.265625 370.285156 77.988281 370.019531 77.453125 L 369.507812 76.417969 C 369.242188 75.878906 369.390625 75.230469 369.863281 74.859375 L 371.6875 73.421875 C 372.035156 73.148438 372.21875 72.710938 372.160156 72.273438 C 372.105469 71.855469 372.082031 71.441406 372.082031 71.027344 C 372.082031 70.582031 371.84375 70.171875 371.460938 69.945312 L 369.460938 68.761719 C 368.949219 68.457031 368.714844 67.832031 368.90625 67.265625 L 369.277344 66.171875 C 369.472656 65.605469 370.035156 65.25 370.628906 65.320312 L 372.933594 65.597656 C 373.375 65.652344 373.8125 65.472656 374.082031 65.117188 C 374.335938 64.789062 374.609375 64.476562 374.90625 64.179688 C 375.21875 63.867188 375.339844 63.410156 375.230469 62.980469 L 374.65625 60.726562 C 374.507812 60.148438 374.785156 59.542969 375.320312 59.277344 L 376.355469 58.765625 C 376.894531 58.5 377.542969 58.648438 377.914062 59.117188 L 379.351562 60.945312 C 379.625 61.292969 380.058594 61.476562 380.5 61.421875 C 380.914062 61.367188 381.328125 61.339844 381.742188 61.339844 C 382.1875 61.339844 382.597656 61.101562 382.824219 60.71875 L 384.007812 58.71875 C 384.3125 58.203125 384.9375 57.972656 385.503906 58.164062 L 386.59375 58.535156 C 387.164062 58.730469 387.519531 59.292969 387.445312 59.886719 L 387.167969 62.191406 C 387.117188 62.632812 387.296875 63.074219 387.648438 63.34375 C 387.976562 63.597656 388.289062 63.871094 388.585938 64.164062 C 388.898438 64.480469 389.359375 64.597656 389.789062 64.488281 L 392.039062 63.914062 C 392.617188 63.765625 393.222656 64.042969 393.488281 64.582031 L 394 65.617188 C 394.261719 66.15625 394.117188 66.804688 393.644531 67.175781 L 391.820312 68.613281 C 391.472656 68.886719 391.289062 69.324219 391.347656 69.761719 C 391.402344 70.175781 391.425781 70.59375 391.425781 71.007812 C 391.425781 71.453125 391.664062 71.863281 392.046875 72.089844 L 394.046875 73.269531 C 394.558594 73.578125 394.792969 74.203125 394.597656 74.769531 L 394.230469 75.859375 C 394.035156 76.429688 393.472656 76.785156 392.878906 76.710938 L 390.574219 76.433594 C 390.132812 76.382812 389.695312 76.5625 389.421875 76.914062 Z M 388.246094 56.3125 L 389.332031 55.996094 C 389.449219 55.960938 389.535156 55.863281 389.566406 55.746094 C 389.613281 55.535156 389.683594 55.332031 389.765625 55.136719 C 389.8125 55.023438 389.796875 54.894531 389.722656 54.796875 L 389.035156 53.898438 C 388.9375 53.773438 388.941406 53.59375 389.046875 53.472656 L 389.507812 52.933594 C 389.613281 52.8125 389.785156 52.78125 389.925781 52.855469 L 390.917969 53.402344 C 391.027344 53.460938 391.15625 53.453125 391.257812 53.390625 C 391.441406 53.277344 391.632812 53.179688 391.832031 53.097656 C 391.945312 53.054688 392.027344 52.953125 392.042969 52.832031 L 392.191406 51.707031 C 392.210938 51.550781 392.339844 51.429688 392.496094 51.417969 L 393.207031 51.363281 C 393.367188 51.347656 393.511719 51.449219 393.554688 51.601562 L 393.875 52.691406 C 393.910156 52.808594 394.003906 52.894531 394.125 52.921875 C 394.335938 52.972656 394.539062 53.039062 394.734375 53.121094 C 394.847656 53.171875 394.976562 53.15625 395.074219 53.082031 L 395.972656 52.390625 C 396.097656 52.292969 396.273438 52.300781 396.394531 52.402344 L 396.9375 52.867188 C 397.054688 52.96875 397.085938 53.144531 397.011719 53.285156 L 396.46875 54.277344 C 396.40625 54.382812 396.414062 54.515625 396.476562 54.617188 C 396.589844 54.800781 396.6875 54.992188 396.769531 55.191406 C 396.816406 55.304688 396.914062 55.386719 397.035156 55.402344 L 398.160156 55.550781 C 398.316406 55.570312 398.4375 55.699219 398.453125 55.855469 L 398.503906 56.566406 C 398.519531 56.726562 398.417969 56.871094 398.265625 56.917969 L 397.179688 57.234375 C 397.0625 57.269531 396.972656 57.363281 396.945312 57.484375 C 396.894531 57.695312 396.828125 57.898438 396.746094 58.09375 C 396.699219 58.207031 396.710938 58.335938 396.785156 58.433594 L 397.476562 59.332031 C 397.574219 59.457031 397.566406 59.632812 397.464844 59.753906 L 397 60.296875 C 396.898438 60.417969 396.722656 60.449219 396.585938 60.371094 L 395.59375 59.828125 C 395.484375 59.769531 395.355469 59.773438 395.25 59.839844 C 395.070312 59.953125 394.878906 60.050781 394.679688 60.128906 C 394.566406 60.175781 394.484375 60.277344 394.46875 60.398438 L 394.320312 61.523438 C 394.296875 61.679688 394.171875 61.800781 394.011719 61.8125 L 393.300781 61.867188 C 393.144531 61.878906 393 61.78125 392.953125 61.628906 L 392.632812 60.539062 C 392.601562 60.421875 392.503906 60.335938 392.386719 60.304688 C 392.175781 60.257812 391.972656 60.191406 391.777344 60.105469 C 391.664062 60.058594 391.535156 60.074219 391.4375 60.148438 L 390.539062 60.839844 C 390.414062 60.933594 390.238281 60.929688 390.117188 60.828125 L 389.574219 60.363281 C 389.453125 60.257812 389.421875 60.085938 389.5 59.945312 L 390.042969 58.953125 C 390.101562 58.84375 390.097656 58.714844 390.03125 58.609375 C 389.917969 58.429688 389.820312 58.238281 389.742188 58.039062 C 389.695312 57.925781 389.59375 57.84375 389.472656 57.828125 L 388.351562 57.679688 C 388.191406 57.660156 388.070312 57.53125 388.058594 57.371094 L 388.003906 56.660156 C 387.992188 56.503906 388.09375 56.359375 388.246094 56.3125 Z M 397.523438 49.894531 L 398.976562 49.238281 C 399.132812 49.167969 399.238281 49.015625 399.253906 48.84375 C 399.28125 48.542969 399.335938 48.246094 399.414062 47.957031 C 399.457031 47.789062 399.414062 47.609375 399.289062 47.488281 L 398.152344 46.371094 C 397.992188 46.214844 397.964844 45.96875 398.085938 45.777344 L 398.625 44.933594 C 398.746094 44.746094 398.980469 44.667969 399.191406 44.746094 L 400.683594 45.3125 C 400.84375 45.371094 401.023438 45.339844 401.15625 45.230469 C 401.386719 45.035156 401.632812 44.863281 401.898438 44.710938 C 402.046875 44.625 402.140625 44.46875 402.140625 44.296875 L 402.128906 42.699219 C 402.125 42.476562 402.28125 42.28125 402.5 42.234375 L 403.480469 42.019531 C 403.699219 41.96875 403.917969 42.082031 404.011719 42.285156 L 404.667969 43.742188 C 404.738281 43.898438 404.890625 44 405.0625 44.019531 C 405.363281 44.046875 405.660156 44.097656 405.949219 44.175781 C 406.117188 44.222656 406.292969 44.175781 406.417969 44.054688 L 407.53125 42.914062 C 407.691406 42.757812 407.9375 42.726562 408.125 42.847656 L 408.972656 43.390625 C 409.160156 43.511719 409.238281 43.746094 409.15625 43.957031 L 408.59375 45.449219 C 408.53125 45.609375 408.566406 45.789062 408.675781 45.921875 C 408.867188 46.152344 409.039062 46.402344 409.191406 46.664062 C 409.277344 46.8125 409.4375 46.90625 409.609375 46.90625 L 411.203125 46.890625 C 411.425781 46.890625 411.621094 47.046875 411.667969 47.265625 L 411.882812 48.246094 C 411.933594 48.464844 411.820312 48.6875 411.617188 48.777344 L 410.160156 49.433594 C 410.003906 49.507812 409.902344 49.65625 409.886719 49.828125 C 409.859375 50.132812 409.804688 50.429688 409.726562 50.71875 C 409.683594 50.882812 409.726562 51.0625 409.851562 51.183594 L 410.988281 52.300781 C 411.148438 52.457031 411.175781 52.707031 411.054688 52.894531 L 410.511719 53.738281 C 410.390625 53.925781 410.15625 54.007812 409.945312 53.925781 L 408.457031 53.363281 C 408.296875 53.300781 408.113281 53.332031 407.980469 53.445312 C 407.75 53.636719 407.503906 53.808594 407.242188 53.960938 C 407.089844 54.046875 407 54.203125 407 54.378906 L 407.011719 55.972656 C 407.015625 56.195312 406.859375 56.390625 406.640625 56.441406 L 405.660156 56.65625 C 405.441406 56.703125 405.21875 56.589844 405.128906 56.386719 L 404.46875 54.933594 C 404.398438 54.773438 404.25 54.671875 404.078125 54.65625 C 403.777344 54.628906 403.480469 54.574219 403.1875 54.496094 C 403.023438 54.449219 402.84375 54.496094 402.722656 54.621094 L 401.605469 55.757812 C 401.449219 55.917969 401.203125 55.945312 401.011719 55.824219 L 400.167969 55.28125 C 399.980469 55.160156 399.902344 54.925781 399.980469 54.714844 L 400.546875 53.226562 C 400.605469 53.0625 400.574219 52.882812 400.464844 52.75 C 400.273438 52.519531 400.097656 52.273438 399.945312 52.007812 C 399.859375 51.859375 399.703125 51.765625 399.53125 51.769531 L 397.933594 51.78125 C 397.710938 51.78125 397.519531 51.628906 397.46875 51.410156 L 397.253906 50.425781 C 397.207031 50.210938 397.320312 49.988281 397.523438 49.894531 Z M 411.9375 50.84375 L 412.414062 49.59375 C 412.519531 49.316406 412.804688 49.148438 413.097656 49.195312 L 415.199219 49.527344 C 415.425781 49.5625 415.652344 49.472656 415.792969 49.289062 C 416.042969 48.976562 416.320312 48.683594 416.621094 48.414062 C 416.792969 48.261719 416.871094 48.03125 416.820312 47.808594 L 416.371094 45.726562 C 416.308594 45.4375 416.457031 45.140625 416.730469 45.019531 L 417.953125 44.472656 C 418.222656 44.347656 418.542969 44.433594 418.71875 44.675781 L 419.972656 46.394531 C 420.105469 46.578125 420.332031 46.675781 420.558594 46.648438 C 420.960938 46.601562 421.363281 46.59375 421.761719 46.613281 C 421.992188 46.628906 422.210938 46.519531 422.335938 46.328125 L 423.484375 44.539062 C 423.644531 44.289062 423.960938 44.183594 424.238281 44.289062 L 425.488281 44.765625 C 425.765625 44.871094 425.929688 45.160156 425.886719 45.453125 L 425.554688 47.554688 C 425.519531 47.78125 425.609375 48.007812 425.789062 48.152344 C 426.105469 48.398438 426.398438 48.675781 426.667969 48.976562 C 426.816406 49.148438 427.050781 49.226562 427.273438 49.179688 L 429.351562 48.726562 C 429.644531 48.664062 429.9375 48.816406 430.0625 49.085938 L 430.609375 50.308594 C 430.730469 50.578125 430.644531 50.898438 430.402344 51.074219 L 428.6875 52.328125 C 428.5 52.464844 428.40625 52.6875 428.433594 52.917969 C 428.476562 53.320312 428.488281 53.722656 428.464844 54.121094 C 428.453125 54.351562 428.558594 54.570312 428.753906 54.695312 L 430.539062 55.84375 C 430.792969 56.003906 430.894531 56.320312 430.789062 56.597656 L 430.3125 57.847656 C 430.207031 58.125 429.921875 58.292969 429.625 58.246094 L 427.527344 57.914062 C 427.300781 57.878906 427.074219 57.972656 426.929688 58.152344 C 426.683594 58.464844 426.40625 58.757812 426.105469 59.027344 C 425.933594 59.179688 425.855469 59.410156 425.902344 59.636719 L 426.355469 61.714844 C 426.417969 62.007812 426.265625 62.300781 425.996094 62.421875 L 424.773438 62.972656 C 424.503906 63.09375 424.183594 63.007812 424.003906 62.765625 L 422.753906 61.046875 C 422.621094 60.863281 422.394531 60.769531 422.167969 60.792969 C 421.765625 60.839844 421.363281 60.851562 420.964844 60.828125 C 420.734375 60.8125 420.515625 60.921875 420.390625 61.117188 L 419.242188 62.902344 C 419.078125 63.152344 418.765625 63.257812 418.484375 63.152344 L 417.238281 62.675781 C 416.960938 62.570312 416.792969 62.28125 416.839844 61.988281 L 417.171875 59.890625 C 417.207031 59.660156 417.113281 59.433594 416.933594 59.292969 C 416.621094 59.042969 416.328125 58.769531 416.058594 58.464844 C 415.90625 58.296875 415.675781 58.214844 415.449219 58.265625 L 413.375 58.714844 C 413.082031 58.777344 412.785156 58.628906 412.664062 58.355469 L 412.117188 57.136719 C 411.996094 56.863281 412.078125 56.542969 412.320312 56.367188 L 414.039062 55.113281 C 414.222656 54.980469 414.320312 54.753906 414.292969 54.527344 C 414.246094 54.125 414.238281 53.722656 414.257812 53.324219 C 414.273438 53.09375 414.164062 52.875 413.972656 52.75 L 412.183594 51.601562 C 411.933594 51.4375 411.832031 51.121094 411.9375 50.84375 Z M 450.683594 37.695312 C 440.476562 29.152344 426.957031 24.445312 412.613281 24.445312 C 398.265625 24.445312 384.746094 29.152344 374.542969 37.695312 C 364.109375 46.429688 358.363281 58.113281 358.363281 70.585938 C 358.363281 83.0625 364.109375 94.746094 374.542969 103.480469 C 384.746094 112.023438 398.269531 116.730469 412.613281 116.730469 C 418.742188 116.730469 424.753906 115.867188 430.492188 114.167969 L 456.738281 124.019531 C 457.585938 124.335938 458.464844 124.496094 459.355469 124.496094 C 461.726562 124.496094 463.976562 123.335938 465.375 121.390625 C 466.78125 119.433594 467.144531 117 466.375 114.707031 L 459.40625 93.96875 C 464.289062 86.902344 466.863281 78.835938 466.863281 70.585938 C 466.863281 58.113281 461.117188 46.429688 450.683594 37.695312 " fill-opacity="1" fill-rule="nonzero"/></g><path fill="#19baaa" d="M 397.597656 83.015625 C 396.175781 83.125 395.109375 84.367188 395.21875 85.789062 C 395.328125 87.210938 396.570312 88.277344 397.992188 88.167969 C 399.414062 88.054688 400.476562 86.816406 400.367188 85.394531 C 400.257812 83.972656 399.019531 82.90625 397.597656 83.015625 " fill-opacity="1" fill-rule="nonzero"/><path fill="#19baaa" d="M 435.730469 83.1875 C 433.867188 84.296875 433.25 86.707031 434.355469 88.574219 C 435.464844 90.445312 437.875 91.058594 439.742188 89.953125 C 441.609375 88.84375 442.226562 86.429688 441.117188 84.5625 C 440.007812 82.695312 437.597656 82.078125 435.730469 83.1875 " fill-opacity="1" fill-rule="nonzero"/><path fill="#19baaa" d="M 306.664062 33.355469 C 308.816406 33.078125 310.339844 31.109375 310.0625 28.953125 C 309.785156 26.800781 307.816406 25.28125 305.660156 25.554688 C 303.507812 25.832031 301.988281 27.804688 302.265625 29.957031 C 302.542969 32.113281 304.511719 33.632812 306.664062 33.355469 " fill-opacity="1" fill-rule="nonzero"/><path fill="#19baaa" d="M 305.792969 54.5 C 303.476562 55.640625 302.523438 58.449219 303.667969 60.765625 C 304.8125 63.082031 307.613281 64.035156 309.933594 62.890625 C 312.25 61.75 313.199219 58.941406 312.058594 56.625 C 310.914062 54.308594 308.109375 53.355469 305.792969 54.5 " fill-opacity="1" fill-rule="nonzero"/><path fill="#19baaa" d="M 323.136719 73.78125 C 321.714844 73.890625 320.652344 75.132812 320.761719 76.554688 C 320.871094 77.976562 322.113281 79.039062 323.535156 78.929688 C 324.953125 78.820312 326.019531 77.578125 325.910156 76.15625 C 325.800781 74.734375 324.558594 73.671875 323.136719 73.78125 " fill-opacity="1" fill-rule="nonzero"/><path fill="#19baaa" d="M 327.289062 45.800781 C 328.949219 47.074219 331.328125 46.757812 332.601562 45.097656 C 333.871094 43.433594 333.554688 41.054688 331.894531 39.785156 C 330.234375 38.511719 327.855469 38.828125 326.585938 40.488281 C 325.3125 42.152344 325.628906 44.53125 327.289062 45.800781 " fill-opacity="1" fill-rule="nonzero"/><path fill="#19baaa" d="M 363.925781 34.140625 C 362.613281 34.699219 361.996094 36.214844 362.550781 37.527344 C 363.109375 38.839844 364.621094 39.453125 365.9375 38.898438 C 367.25 38.34375 367.863281 36.828125 367.308594 35.515625 C 366.753906 34.199219 365.238281 33.585938 363.925781 34.140625 " fill-opacity="1" fill-rule="nonzero"/><path fill="#19baaa" d="M 350.523438 26.179688 C 352.257812 25.402344 353.035156 23.367188 352.257812 21.632812 C 351.480469 19.898438 349.445312 19.121094 347.710938 19.898438 C 345.976562 20.675781 345.203125 22.714844 345.980469 24.449219 C 346.757812 26.183594 348.792969 26.957031 350.523438 26.179688 " fill-opacity="1" fill-rule="nonzero"/><path fill="#19baaa" d="M 327.164062 19.214844 C 328.558594 18.910156 329.4375 17.535156 329.132812 16.140625 C 328.828125 14.746094 327.449219 13.867188 326.058594 14.171875 C 324.664062 14.476562 323.785156 15.855469 324.089844 17.246094 C 324.394531 18.640625 325.773438 19.523438 327.164062 19.214844 " fill-opacity="1" fill-rule="nonzero"/><path fill="#19baaa" d="M 348.976562 47.699219 C 347.96875 47.777344 347.210938 48.660156 347.289062 49.667969 C 347.367188 50.679688 348.25 51.433594 349.257812 51.355469 C 350.269531 51.277344 351.023438 50.394531 350.945312 49.386719 C 350.867188 48.375 349.988281 47.621094 348.976562 47.699219 " fill-opacity="1" fill-rule="nonzero"/><path fill="#19baaa" d="M 337.75 62.570312 C 336.167969 63.621094 335.734375 65.757812 336.78125 67.339844 C 337.832031 68.925781 339.96875 69.359375 341.550781 68.308594 C 343.132812 67.257812 343.566406 65.121094 342.519531 63.539062 C 341.46875 61.953125 339.332031 61.519531 337.75 62.570312 " fill-opacity="1" fill-rule="nonzero"/><path fill="#19baaa" d="M 370.25 35.929688 C 370.605469 35.609375 370.964844 35.289062 371.332031 34.976562 L 370.445312 35.59375 C 370.332031 35.671875 370.265625 35.796875 370.25 35.929688 " fill-opacity="1" fill-rule="nonzero"/><g clip-path="url(#id2)"><path fill="#19baaa" d="M 352.648438 51.347656 L 353.339844 52.246094 C 353.4375 52.371094 353.429688 52.546875 353.328125 52.667969 L 352.863281 53.207031 C 352.761719 53.328125 352.585938 53.359375 352.449219 53.285156 L 351.453125 52.742188 C 351.347656 52.679688 351.21875 52.6875 351.113281 52.75 C 350.933594 52.863281 350.742188 52.960938 350.542969 53.042969 C 350.429688 53.089844 350.347656 53.191406 350.332031 53.3125 L 350.183594 54.433594 C 350.160156 54.59375 350.035156 54.714844 349.875 54.726562 L 349.164062 54.78125 C 349.007812 54.792969 348.859375 54.691406 348.816406 54.539062 L 348.496094 53.453125 C 348.464844 53.335938 348.367188 53.246094 348.25 53.21875 C 348.039062 53.167969 347.835938 53.101562 347.640625 53.019531 C 347.527344 52.972656 347.398438 52.984375 347.300781 53.0625 L 346.402344 53.75 C 346.277344 53.847656 346.097656 53.84375 345.980469 53.738281 L 345.4375 53.273438 C 345.316406 53.171875 345.285156 52.996094 345.363281 52.859375 L 345.90625 51.867188 C 345.964844 51.757812 345.960938 51.628906 345.894531 51.523438 C 345.78125 51.34375 345.683594 51.152344 345.605469 50.953125 C 345.558594 50.839844 345.457031 50.757812 345.335938 50.742188 L 344.210938 50.59375 C 344.054688 50.570312 343.933594 50.441406 343.921875 50.285156 L 343.867188 49.574219 C 343.855469 49.414062 343.953125 49.269531 344.105469 49.226562 L 345.195312 48.90625 C 345.3125 48.871094 345.398438 48.777344 345.425781 48.65625 C 345.476562 48.449219 345.542969 48.242188 345.628906 48.046875 C 345.675781 47.933594 345.660156 47.804688 345.585938 47.707031 L 344.898438 46.808594 C 344.800781 46.683594 344.804688 46.507812 344.90625 46.386719 L 345.371094 45.847656 C 345.476562 45.726562 345.648438 45.691406 345.789062 45.769531 L 346.78125 46.3125 C 346.886719 46.371094 347.019531 46.367188 347.121094 46.300781 C 347.304688 46.191406 347.492188 46.09375 347.695312 46.011719 C 347.808594 45.964844 347.886719 45.863281 347.902344 45.742188 L 348.054688 44.621094 C 348.074219 44.460938 348.203125 44.339844 348.359375 44.328125 L 349.070312 44.273438 C 349.230469 44.261719 349.375 44.363281 349.417969 44.515625 L 349.738281 45.601562 C 349.773438 45.71875 349.867188 45.808594 349.988281 45.835938 C 350.195312 45.886719 350.402344 45.953125 350.597656 46.035156 C 350.710938 46.082031 350.839844 46.070312 350.9375 45.992188 L 351.832031 45.304688 C 351.960938 45.207031 352.136719 45.210938 352.257812 45.316406 L 352.796875 45.78125 C 352.917969 45.882812 352.949219 46.054688 352.875 46.195312 L 352.328125 47.1875 C 352.269531 47.296875 352.277344 47.425781 352.339844 47.53125 C 352.453125 47.710938 352.550781 47.902344 352.632812 48.101562 C 352.675781 48.214844 352.777344 48.296875 352.898438 48.3125 L 354.023438 48.460938 C 354.179688 48.484375 354.300781 48.609375 354.3125 48.769531 L 354.367188 49.480469 C 354.382812 49.640625 354.28125 49.785156 354.128906 49.828125 L 353.042969 50.148438 C 352.921875 50.183594 352.835938 50.277344 352.808594 50.398438 C 352.757812 50.605469 352.691406 50.8125 352.609375 51.007812 C 352.5625 51.121094 352.574219 51.25 352.648438 51.347656 Z M 349.417969 66.738281 L 349.152344 68.050781 C 349.09375 68.34375 348.839844 68.554688 348.539062 68.554688 L 346.417969 68.570312 C 346.1875 68.574219 345.976562 68.699219 345.867188 68.902344 C 345.671875 69.25 345.449219 69.585938 345.195312 69.902344 C 345.050781 70.078125 345.011719 70.320312 345.09375 70.535156 L 345.878906 72.511719 C 345.988281 72.789062 345.886719 73.105469 345.640625 73.269531 L 344.527344 74.007812 C 344.277344 74.171875 343.949219 74.140625 343.734375 73.933594 L 342.21875 72.441406 C 342.054688 72.28125 341.816406 72.222656 341.597656 72.285156 C 341.207031 72.398438 340.8125 72.472656 340.417969 72.515625 C 340.1875 72.539062 339.988281 72.683594 339.898438 72.894531 L 339.054688 74.84375 C 338.9375 75.121094 338.644531 75.273438 338.351562 75.214844 L 337.042969 74.949219 C 336.75 74.890625 336.539062 74.632812 336.535156 74.335938 L 336.519531 72.210938 C 336.519531 71.980469 336.390625 71.769531 336.191406 71.660156 C 335.839844 71.464844 335.507812 71.242188 335.191406 70.988281 C 335.011719 70.84375 334.773438 70.804688 334.558594 70.886719 L 332.582031 71.671875 C 332.304688 71.78125 331.988281 71.679688 331.824219 71.433594 L 331.085938 70.316406 C 330.921875 70.070312 330.953125 69.738281 331.160156 69.527344 L 332.652344 68.011719 C 332.8125 67.847656 332.871094 67.609375 332.808594 67.386719 C 332.695312 67 332.621094 66.601562 332.578125 66.207031 C 332.554688 65.976562 332.410156 65.777344 332.199219 65.6875 L 330.25 64.84375 C 329.976562 64.726562 329.820312 64.433594 329.882812 64.140625 L 330.148438 62.832031 C 330.207031 62.539062 330.460938 62.328125 330.761719 62.324219 L 332.882812 62.308594 C 333.113281 62.308594 333.324219 62.179688 333.433594 61.976562 C 333.628906 61.628906 333.851562 61.296875 334.105469 60.980469 C 334.25 60.800781 334.289062 60.558594 334.207031 60.347656 L 333.421875 58.367188 C 333.3125 58.089844 333.410156 57.773438 333.660156 57.609375 L 334.773438 56.871094 C 335.023438 56.707031 335.351562 56.738281 335.566406 56.949219 L 337.082031 58.4375 C 337.246094 58.601562 337.480469 58.65625 337.703125 58.59375 C 338.09375 58.484375 338.488281 58.40625 338.882812 58.363281 C 339.113281 58.339844 339.3125 58.195312 339.402344 57.984375 L 340.246094 56.035156 C 340.363281 55.761719 340.65625 55.605469 340.949219 55.667969 L 342.257812 55.933594 C 342.550781 55.992188 342.761719 56.246094 342.765625 56.546875 L 342.78125 58.671875 C 342.78125 58.902344 342.910156 59.109375 343.109375 59.222656 C 343.457031 59.414062 343.792969 59.640625 344.109375 59.894531 C 344.289062 60.035156 344.527344 60.078125 344.742188 59.992188 L 346.71875 59.210938 C 346.996094 59.097656 347.3125 59.199219 347.476562 59.445312 L 348.214844 60.5625 C 348.378906 60.8125 348.347656 61.140625 348.140625 61.355469 L 346.648438 62.871094 C 346.488281 63.035156 346.429688 63.269531 346.492188 63.492188 C 346.605469 63.882812 346.679688 64.277344 346.722656 64.671875 C 346.746094 64.902344 346.890625 65.101562 347.101562 65.191406 L 349.050781 66.035156 C 349.324219 66.152344 349.480469 66.445312 349.417969 66.738281 Z M 330.390625 76.78125 L 328.859375 77.226562 C 328.695312 77.277344 328.570312 77.410156 328.53125 77.578125 C 328.460938 77.875 328.367188 78.164062 328.25 78.4375 C 328.183594 78.597656 328.203125 78.78125 328.308594 78.917969 L 329.28125 80.179688 C 329.417969 80.359375 329.410156 80.609375 329.265625 80.777344 L 328.613281 81.539062 C 328.464844 81.710938 328.222656 81.753906 328.023438 81.648438 L 326.625 80.878906 C 326.476562 80.796875 326.292969 80.804688 326.144531 80.894531 C 325.890625 81.054688 325.621094 81.191406 325.339844 81.304688 C 325.179688 81.371094 325.066406 81.511719 325.042969 81.683594 L 324.835938 83.265625 C 324.804688 83.488281 324.625 83.660156 324.402344 83.675781 L 323.402344 83.753906 C 323.179688 83.769531 322.972656 83.628906 322.910156 83.414062 L 322.460938 81.882812 C 322.414062 81.71875 322.277344 81.59375 322.109375 81.554688 C 321.816406 81.484375 321.527344 81.390625 321.253906 81.273438 C 321.09375 81.207031 320.910156 81.226562 320.773438 81.332031 L 319.511719 82.300781 C 319.332031 82.4375 319.085938 82.433594 318.914062 82.285156 L 318.152344 81.632812 C 317.984375 81.488281 317.9375 81.242188 318.046875 81.046875 L 318.8125 79.648438 C 318.894531 79.496094 318.886719 79.3125 318.796875 79.164062 C 318.636719 78.910156 318.5 78.640625 318.386719 78.359375 C 318.324219 78.199219 318.179688 78.085938 318.007812 78.0625 L 316.425781 77.855469 C 316.207031 77.824219 316.035156 77.644531 316.015625 77.421875 L 315.941406 76.421875 C 315.921875 76.199219 316.0625 75.992188 316.277344 75.929688 L 317.808594 75.480469 C 317.976562 75.433594 318.097656 75.296875 318.136719 75.128906 C 318.207031 74.835938 318.300781 74.546875 318.417969 74.273438 C 318.488281 74.113281 318.46875 73.929688 318.363281 73.792969 L 317.390625 72.527344 C 317.253906 72.351562 317.261719 72.101562 317.40625 71.933594 L 318.058594 71.171875 C 318.203125 71 318.449219 70.953125 318.644531 71.0625 L 320.042969 71.828125 C 320.195312 71.910156 320.378906 71.902344 320.527344 71.8125 C 320.78125 71.65625 321.050781 71.519531 321.332031 71.402344 C 321.488281 71.339844 321.605469 71.195312 321.625 71.027344 L 321.835938 69.441406 C 321.867188 69.222656 322.046875 69.050781 322.269531 69.03125 L 323.269531 68.957031 C 323.492188 68.9375 323.695312 69.082031 323.761719 69.292969 L 324.207031 70.828125 C 324.257812 70.992188 324.390625 71.117188 324.558594 71.15625 C 324.855469 71.226562 325.140625 71.320312 325.417969 71.4375 C 325.578125 71.503906 325.757812 71.484375 325.894531 71.378906 L 327.160156 70.40625 C 327.335938 70.269531 327.585938 70.277344 327.757812 70.421875 L 328.515625 71.078125 C 328.6875 71.222656 328.734375 71.46875 328.625 71.664062 L 327.859375 73.0625 C 327.777344 73.214844 327.785156 73.398438 327.875 73.542969 C 328.03125 73.796875 328.167969 74.066406 328.285156 74.347656 C 328.347656 74.507812 328.492188 74.621094 328.660156 74.644531 L 330.242188 74.855469 C 330.464844 74.882812 330.636719 75.0625 330.652344 75.289062 L 330.730469 76.289062 C 330.746094 76.511719 330.605469 76.714844 330.390625 76.78125 Z M 315.53125 64.59375 C 315.28125 64.921875 315.007812 65.234375 314.710938 65.53125 C 314.398438 65.84375 314.277344 66.304688 314.386719 66.734375 L 314.960938 68.984375 C 315.109375 69.566406 314.832031 70.171875 314.292969 70.433594 L 313.257812 70.945312 C 312.722656 71.210938 312.074219 71.0625 311.703125 70.59375 L 310.265625 68.765625 C 309.992188 68.417969 309.554688 68.234375 309.117188 68.292969 C 308.703125 68.347656 308.285156 68.371094 307.875 68.371094 C 307.429688 68.371094 307.019531 68.613281 306.792969 68.996094 L 305.609375 70.992188 C 305.304688 71.507812 304.679688 71.738281 304.113281 71.546875 L 303.019531 71.175781 C 302.453125 70.984375 302.097656 70.417969 302.171875 69.824219 L 302.449219 67.519531 C 302.5 67.078125 302.320312 66.640625 301.96875 66.367188 C 301.640625 66.117188 301.324219 65.839844 301.03125 65.546875 C 300.714844 65.234375 300.257812 65.113281 299.828125 65.222656 L 297.578125 65.796875 C 296.996094 65.945312 296.394531 65.667969 296.128906 65.128906 L 295.617188 64.09375 C 295.351562 63.558594 295.5 62.90625 295.96875 62.535156 L 297.796875 61.101562 C 298.144531 60.824219 298.328125 60.390625 298.269531 59.949219 C 298.214844 59.535156 298.1875 59.117188 298.1875 58.703125 C 298.1875 58.261719 297.949219 57.847656 297.566406 57.625 L 295.570312 56.441406 C 295.054688 56.136719 294.824219 55.511719 295.015625 54.941406 L 295.386719 53.851562 C 295.582031 53.28125 296.144531 52.929688 296.738281 53 L 299.042969 53.277344 C 299.484375 53.332031 299.921875 53.148438 300.191406 52.796875 C 300.445312 52.46875 300.71875 52.15625 301.015625 51.859375 C 301.328125 51.542969 301.449219 51.085938 301.339844 50.65625 L 300.761719 48.40625 C 300.617188 47.824219 300.894531 47.21875 301.429688 46.953125 L 302.464844 46.445312 C 303.003906 46.179688 303.652344 46.324219 304.023438 46.796875 L 305.457031 48.625 C 305.734375 48.972656 306.167969 49.15625 306.609375 49.097656 C 307.023438 49.042969 307.4375 49.015625 307.851562 49.015625 C 308.296875 49.015625 308.707031 48.777344 308.933594 48.394531 L 310.117188 46.398438 C 310.421875 45.882812 311.046875 45.652344 311.613281 45.84375 L 312.703125 46.214844 C 313.273438 46.40625 313.628906 46.96875 313.554688 47.566406 L 313.277344 49.871094 C 313.226562 50.3125 313.40625 50.75 313.757812 51.023438 C 314.085938 51.273438 314.398438 51.546875 314.695312 51.84375 C 315.007812 52.15625 315.46875 52.277344 315.898438 52.167969 L 318.148438 51.59375 C 318.726562 51.445312 319.332031 51.722656 319.597656 52.257812 L 320.109375 53.296875 C 320.371094 53.832031 320.226562 54.484375 319.753906 54.851562 L 317.929688 56.289062 C 317.582031 56.5625 317.398438 57 317.453125 57.441406 C 317.507812 57.855469 317.535156 58.269531 317.535156 58.683594 C 317.535156 59.128906 317.773438 59.539062 318.15625 59.765625 L 320.152344 60.949219 C 320.667969 61.253906 320.902344 61.878906 320.707031 62.449219 L 320.335938 63.539062 C 320.144531 64.105469 319.582031 64.460938 318.988281 64.390625 L 316.683594 64.113281 C 316.242188 64.058594 315.804688 64.238281 315.53125 64.59375 Z M 295.664062 29.269531 L 297.507812 28.625 C 297.859375 28.5 298.121094 28.203125 298.195312 27.839844 C 298.265625 27.492188 298.359375 27.15625 298.472656 26.828125 C 298.59375 26.472656 298.515625 26.082031 298.273438 25.796875 L 297.007812 24.3125 C 296.679688 23.929688 296.667969 23.371094 296.972656 22.972656 L 297.566406 22.203125 C 297.875 21.804688 298.417969 21.675781 298.871094 21.898438 L 300.628906 22.746094 C 300.964844 22.90625 301.363281 22.882812 301.671875 22.675781 C 301.960938 22.484375 302.265625 22.308594 302.582031 22.15625 C 302.917969 21.992188 303.136719 21.660156 303.167969 21.289062 L 303.324219 19.34375 C 303.363281 18.839844 303.75 18.433594 304.246094 18.371094 L 305.210938 18.246094 C 305.710938 18.183594 306.183594 18.476562 306.351562 18.953125 L 306.996094 20.796875 C 307.117188 21.148438 307.414062 21.410156 307.78125 21.484375 C 308.125 21.554688 308.460938 21.648438 308.792969 21.761719 C 309.144531 21.882812 309.535156 21.804688 309.820312 21.5625 L 311.304688 20.296875 C 311.6875 19.96875 312.246094 19.957031 312.644531 20.261719 L 313.410156 20.855469 C 313.808594 21.164062 313.9375 21.707031 313.71875 22.160156 L 312.871094 23.917969 C 312.707031 24.253906 312.734375 24.652344 312.9375 24.964844 C 313.132812 25.253906 313.304688 25.558594 313.460938 25.875 C 313.625 26.207031 313.957031 26.429688 314.328125 26.457031 L 316.273438 26.613281 C 316.773438 26.65625 317.179688 27.042969 317.242188 27.539062 L 317.367188 28.503906 C 317.429688 29.003906 317.136719 29.480469 316.664062 29.644531 L 314.820312 30.289062 C 314.46875 30.414062 314.203125 30.710938 314.128906 31.074219 C 314.058594 31.417969 313.96875 31.757812 313.855469 32.085938 C 313.734375 32.4375 313.8125 32.832031 314.054688 33.113281 L 315.320312 34.597656 C 315.644531 34.984375 315.660156 35.542969 315.351562 35.941406 L 314.761719 36.707031 C 314.453125 37.105469 313.90625 37.234375 313.453125 37.015625 L 311.699219 36.167969 C 311.363281 36.003906 310.964844 36.027344 310.652344 36.234375 C 310.363281 36.429688 310.058594 36.601562 309.746094 36.757812 C 309.410156 36.921875 309.191406 37.253906 309.160156 37.625 L 309.003906 39.570312 C 308.964844 40.074219 308.578125 40.476562 308.078125 40.542969 L 307.117188 40.667969 C 306.617188 40.730469 306.140625 40.4375 305.976562 39.960938 L 305.332031 38.117188 C 305.207031 37.765625 304.910156 37.5 304.546875 37.425781 C 304.203125 37.355469 303.863281 37.265625 303.535156 37.152344 C 303.183594 37.03125 302.789062 37.109375 302.507812 37.351562 L 301.023438 38.617188 C 300.640625 38.945312 300.078125 38.957031 299.679688 38.648438 L 298.914062 38.058594 C 298.515625 37.75 298.386719 37.203125 298.605469 36.75 L 299.453125 34.996094 C 299.617188 34.65625 299.59375 34.261719 299.386719 33.949219 C 299.195312 33.660156 299.019531 33.355469 298.863281 33.039062 C 298.703125 32.707031 298.371094 32.484375 298 32.453125 L 296.054688 32.296875 C 295.550781 32.257812 295.148438 31.871094 295.082031 31.371094 L 294.957031 30.410156 C 294.894531 29.910156 295.1875 29.433594 295.664062 29.269531 Z M 319.21875 42.742188 L 321.425781 41.964844 C 321.664062 41.878906 321.835938 41.671875 321.878906 41.421875 C 321.957031 40.988281 322.070312 40.5625 322.21875 40.140625 C 322.304688 39.902344 322.261719 39.636719 322.097656 39.445312 L 320.570312 37.667969 C 320.359375 37.417969 320.347656 37.054688 320.546875 36.792969 L 321.441406 35.625 C 321.640625 35.363281 321.996094 35.277344 322.292969 35.417969 L 324.40625 36.429688 C 324.632812 36.535156 324.902344 36.511719 325.109375 36.367188 C 325.472656 36.109375 325.859375 35.890625 326.253906 35.703125 C 326.484375 35.59375 326.640625 35.375 326.660156 35.121094 L 326.835938 32.789062 C 326.859375 32.460938 327.109375 32.195312 327.4375 32.152344 L 328.894531 31.957031 C 329.222656 31.914062 329.53125 32.105469 329.640625 32.414062 L 330.421875 34.621094 C 330.503906 34.863281 330.710938 35.03125 330.960938 35.078125 C 331.394531 35.152344 331.824219 35.265625 332.242188 35.417969 C 332.480469 35.503906 332.746094 35.457031 332.9375 35.292969 L 334.714844 33.769531 C 334.960938 33.554688 335.328125 33.542969 335.589844 33.742188 L 336.757812 34.640625 C 337.019531 34.839844 337.101562 35.195312 336.960938 35.492188 L 335.953125 37.605469 C 335.84375 37.832031 335.871094 38.101562 336.015625 38.308594 C 336.273438 38.671875 336.492188 39.058594 336.679688 39.453125 C 336.789062 39.683594 337.007812 39.839844 337.257812 39.859375 L 339.589844 40.035156 C 339.917969 40.058594 340.183594 40.3125 340.226562 40.636719 L 340.421875 42.097656 C 340.464844 42.421875 340.273438 42.734375 339.964844 42.84375 L 337.757812 43.621094 C 337.519531 43.707031 337.347656 43.914062 337.304688 44.164062 C 337.226562 44.597656 337.113281 45.027344 336.964844 45.445312 C 336.878906 45.683594 336.921875 45.949219 337.085938 46.140625 L 338.613281 47.917969 C 338.824219 48.167969 338.835938 48.53125 338.636719 48.792969 L 337.742188 49.960938 C 337.542969 50.222656 337.1875 50.308594 336.890625 50.167969 L 334.777344 49.160156 C 334.550781 49.050781 334.28125 49.074219 334.074219 49.21875 C 333.710938 49.476562 333.324219 49.695312 332.929688 49.882812 C 332.699219 49.992188 332.542969 50.210938 332.523438 50.464844 L 332.347656 52.796875 C 332.324219 53.125 332.074219 53.390625 331.746094 53.433594 L 330.289062 53.628906 C 329.960938 53.671875 329.652344 53.480469 329.542969 53.171875 L 328.761719 50.964844 C 328.679688 50.722656 328.472656 50.554688 328.222656 50.507812 C 327.789062 50.433594 327.359375 50.320312 326.941406 50.167969 C 326.703125 50.082031 326.4375 50.128906 326.246094 50.292969 L 324.46875 51.816406 C 324.222656 52.03125 323.855469 52.042969 323.597656 51.839844 L 322.425781 50.945312 C 322.167969 50.746094 322.082031 50.390625 322.222656 50.09375 L 323.230469 47.980469 C 323.339844 47.753906 323.3125 47.484375 323.167969 47.277344 C 322.914062 46.914062 322.691406 46.527344 322.503906 46.132812 C 322.398438 45.902344 322.175781 45.746094 321.925781 45.726562 L 319.59375 45.550781 C 319.265625 45.527344 319 45.273438 318.957031 44.949219 L 318.761719 43.488281 C 318.71875 43.164062 318.910156 42.851562 319.21875 42.742188 Z M 319.5625 17.253906 L 321.019531 16.59375 C 321.175781 16.523438 321.277344 16.375 321.292969 16.203125 C 321.324219 15.898438 321.375 15.601562 321.453125 15.3125 C 321.5 15.144531 321.453125 14.96875 321.332031 14.847656 L 320.195312 13.730469 C 320.035156 13.570312 320.007812 13.324219 320.125 13.136719 L 320.667969 12.292969 C 320.789062 12.101562 321.023438 12.023438 321.234375 12.105469 L 322.722656 12.667969 C 322.886719 12.730469 323.066406 12.695312 323.199219 12.585938 C 323.429688 12.394531 323.675781 12.222656 323.941406 12.070312 C 324.089844 11.984375 324.183594 11.824219 324.179688 11.652344 L 324.167969 10.058594 C 324.167969 9.832031 324.320312 9.636719 324.539062 9.589844 L 325.519531 9.375 C 325.738281 9.328125 325.960938 9.441406 326.054688 9.644531 L 326.710938 11.097656 C 326.78125 11.253906 326.933594 11.359375 327.101562 11.375 C 327.40625 11.402344 327.703125 11.457031 327.992188 11.535156 C 328.160156 11.578125 328.335938 11.535156 328.457031 11.410156 L 329.574219 10.273438 C 329.730469 10.113281 329.980469 10.085938 330.167969 10.207031 L 331.011719 10.746094 C 331.199219 10.867188 331.277344 11.105469 331.199219 11.3125 L 330.636719 12.804688 C 330.574219 12.964844 330.605469 13.148438 330.71875 13.28125 C 330.910156 13.511719 331.082031 13.757812 331.234375 14.019531 C 331.320312 14.167969 331.476562 14.261719 331.648438 14.261719 L 333.246094 14.25 C 333.46875 14.25 333.664062 14.402344 333.710938 14.621094 L 333.925781 15.601562 C 333.972656 15.820312 333.863281 16.042969 333.660156 16.136719 L 332.203125 16.792969 C 332.046875 16.863281 331.945312 17.015625 331.929688 17.1875 C 331.898438 17.488281 331.847656 17.785156 331.769531 18.074219 C 331.722656 18.242188 331.769531 18.417969 331.890625 18.542969 L 333.027344 19.660156 C 333.1875 19.816406 333.214844 20.0625 333.097656 20.253906 L 332.554688 21.097656 C 332.433594 21.285156 332.199219 21.363281 331.988281 21.285156 L 330.5 20.71875 C 330.335938 20.65625 330.15625 20.691406 330.023438 20.800781 C 329.792969 20.992188 329.546875 21.167969 329.28125 21.316406 C 329.132812 21.40625 329.039062 21.5625 329.042969 21.734375 L 329.054688 23.332031 C 329.054688 23.554688 328.902344 23.75 328.683594 23.796875 L 327.703125 24.011719 C 327.484375 24.058594 327.261719 23.949219 327.167969 23.742188 L 326.511719 22.289062 C 326.441406 22.132812 326.292969 22.027344 326.121094 22.011719 C 325.816406 21.984375 325.519531 21.929688 325.230469 21.851562 C 325.0625 21.808594 324.886719 21.855469 324.765625 21.976562 L 323.648438 23.113281 C 323.492188 23.273438 323.242188 23.300781 323.054688 23.179688 L 322.210938 22.640625 C 322.023438 22.519531 321.945312 22.285156 322.023438 22.074219 L 322.589844 20.582031 C 322.648438 20.421875 322.617188 20.242188 322.503906 20.109375 C 322.3125 19.878906 322.140625 19.628906 321.988281 19.367188 C 321.902344 19.21875 321.746094 19.125 321.574219 19.125 L 319.976562 19.136719 C 319.753906 19.140625 319.558594 18.984375 319.511719 18.765625 L 319.296875 17.785156 C 319.25 17.566406 319.359375 17.34375 319.5625 17.253906 Z M 339.691406 20.160156 L 340.167969 18.914062 C 340.273438 18.632812 340.558594 18.46875 340.855469 18.515625 L 342.953125 18.847656 C 343.179688 18.882812 343.40625 18.789062 343.550781 18.609375 C 343.796875 18.296875 344.074219 18.003906 344.375 17.734375 C 344.546875 17.582031 344.625 17.351562 344.578125 17.125 L 344.128906 15.046875 C 344.0625 14.753906 344.214844 14.460938 344.484375 14.335938 L 345.707031 13.789062 C 345.976562 13.667969 346.296875 13.753906 346.472656 13.992188 L 347.726562 15.714844 C 347.859375 15.898438 348.085938 15.992188 348.3125 15.96875 C 348.714844 15.921875 349.117188 15.910156 349.515625 15.933594 C 349.746094 15.945312 349.964844 15.839844 350.089844 15.644531 L 351.238281 13.859375 C 351.398438 13.605469 351.714844 13.503906 351.992188 13.609375 L 353.242188 14.085938 C 353.519531 14.191406 353.6875 14.480469 353.640625 14.773438 L 353.308594 16.871094 C 353.273438 17.101562 353.367188 17.324219 353.546875 17.46875 C 353.859375 17.71875 354.152344 17.992188 354.421875 18.296875 C 354.574219 18.464844 354.804688 18.546875 355.03125 18.496094 L 357.109375 18.046875 C 357.398438 17.984375 357.695312 18.132812 357.816406 18.40625 L 358.363281 19.625 C 358.484375 19.898438 358.398438 20.21875 358.160156 20.394531 L 356.441406 21.648438 C 356.253906 21.78125 356.160156 22.007812 356.1875 22.234375 C 356.234375 22.636719 356.242188 23.039062 356.21875 23.4375 C 356.207031 23.667969 356.316406 23.886719 356.507812 24.011719 L 358.296875 25.160156 C 358.546875 25.320312 358.648438 25.636719 358.542969 25.917969 L 358.066406 27.167969 C 357.960938 27.445312 357.675781 27.613281 357.378906 27.566406 L 355.28125 27.234375 C 355.054688 27.199219 354.828125 27.289062 354.6875 27.46875 C 354.4375 27.78125 354.160156 28.074219 353.859375 28.34375 C 353.6875 28.5 353.609375 28.730469 353.660156 28.953125 L 354.109375 31.03125 C 354.171875 31.324219 354.023438 31.621094 353.75 31.742188 L 352.53125 32.289062 C 352.257812 32.410156 351.9375 32.328125 351.761719 32.085938 L 350.507812 30.367188 C 350.375 30.179688 350.148438 30.085938 349.921875 30.113281 C 349.519531 30.15625 349.117188 30.167969 348.71875 30.148438 C 348.488281 30.132812 348.269531 30.242188 348.144531 30.433594 L 346.996094 32.222656 C 346.835938 32.472656 346.519531 32.578125 346.242188 32.46875 L 344.992188 31.996094 C 344.714844 31.886719 344.546875 31.601562 344.59375 31.304688 L 344.925781 29.207031 C 344.960938 28.980469 344.871094 28.753906 344.6875 28.609375 C 344.378906 28.363281 344.082031 28.085938 343.8125 27.785156 C 343.660156 27.613281 343.429688 27.535156 343.207031 27.582031 L 341.128906 28.03125 C 340.835938 28.097656 340.542969 27.945312 340.417969 27.675781 L 339.871094 26.453125 C 339.75 26.179688 339.835938 25.859375 340.074219 25.683594 L 341.792969 24.433594 C 341.980469 24.296875 342.074219 24.074219 342.046875 23.84375 C 342.003906 23.441406 341.992188 23.039062 342.015625 22.640625 C 342.027344 22.410156 341.921875 22.191406 341.726562 22.066406 L 339.941406 20.917969 C 339.6875 20.757812 339.585938 20.441406 339.691406 20.160156 Z M 354.164062 54.660156 C 354.289062 54.171875 354.738281 53.839844 355.242188 53.859375 L 357.191406 53.945312 C 357.28125 53.949219 357.375 53.9375 357.460938 53.921875 C 357.855469 52.945312 358.285156 51.976562 358.75 51.023438 L 358.316406 49.75 C 358.15625 49.273438 358.347656 48.75 358.78125 48.492188 L 359.617188 47.996094 C 359.871094 47.847656 360.164062 47.816406 360.433594 47.886719 C 361.660156 45.800781 363.058594 43.785156 364.625 41.851562 C 364.589844 41.851562 364.554688 41.847656 364.519531 41.847656 C 364.34375 41.832031 364.179688 41.910156 364.082031 42.054688 L 363.191406 43.375 C 363.066406 43.5625 362.828125 43.632812 362.621094 43.550781 L 361.691406 43.171875 C 361.484375 43.089844 361.363281 42.871094 361.402344 42.652344 L 361.6875 41.082031 C 361.71875 40.910156 361.652344 40.738281 361.519531 40.628906 C 361.289062 40.4375 361.074219 40.226562 360.875 39.996094 C 360.761719 39.863281 360.589844 39.800781 360.421875 39.835938 L 358.855469 40.140625 C 358.636719 40.183594 358.417969 40.066406 358.328125 39.859375 L 357.9375 38.933594 C 357.851562 38.726562 357.921875 38.488281 358.105469 38.359375 L 359.414062 37.449219 C 359.554688 37.351562 359.628906 37.183594 359.613281 37.011719 C 359.585938 36.707031 359.585938 36.40625 359.605469 36.109375 C 359.621094 35.9375 359.542969 35.769531 359.402344 35.671875 L 358.078125 34.78125 C 357.894531 34.65625 357.820312 34.417969 357.902344 34.210938 L 358.28125 33.28125 C 358.363281 33.074219 358.582031 32.953125 358.804688 32.992188 L 360.371094 33.277344 C 360.542969 33.308594 360.714844 33.242188 360.824219 33.109375 C 361.015625 32.878906 361.226562 32.660156 361.457031 32.464844 C 361.585938 32.351562 361.648438 32.179688 361.617188 32.011719 L 361.3125 30.445312 C 361.269531 30.222656 361.386719 30.003906 361.59375 29.917969 L 362.519531 29.527344 C 362.722656 29.4375 362.960938 29.507812 363.089844 29.691406 L 364.003906 31 C 364.101562 31.144531 364.269531 31.21875 364.441406 31.203125 C 364.742188 31.171875 365.042969 31.171875 365.34375 31.195312 C 365.515625 31.210938 365.679688 31.132812 365.777344 30.988281 L 366.667969 29.664062 C 366.792969 29.480469 367.03125 29.40625 367.238281 29.492188 L 368.167969 29.867188 C 368.375 29.953125 368.496094 30.171875 368.457031 30.390625 L 368.171875 31.960938 C 368.144531 32.128906 368.207031 32.300781 368.339844 32.414062 C 368.570312 32.605469 368.789062 32.816406 368.984375 33.046875 C 369.097656 33.175781 369.269531 33.238281 369.4375 33.207031 L 371.003906 32.902344 C 371.222656 32.859375 371.445312 32.976562 371.53125 33.183594 L 371.921875 34.109375 C 371.972656 34.226562 371.96875 34.359375 371.921875 34.472656 C 374.894531 31.988281 378.125 29.808594 381.5625 27.953125 C 378.824219 22.515625 374.84375 17.527344 369.734375 13.25 C 359.527344 4.707031 346.007812 0 331.664062 0 C 317.316406 0 303.796875 4.707031 293.589844 13.25 C 283.160156 21.984375 277.414062 33.667969 277.414062 46.144531 C 277.414062 54.390625 279.988281 62.460938 284.867188 69.523438 L 277.902344 90.261719 C 277.132812 92.550781 277.496094 94.988281 278.902344 96.945312 C 280.296875 98.890625 282.546875 100.050781 284.917969 100.050781 C 285.808594 100.050781 286.691406 99.890625 287.539062 99.574219 L 313.78125 89.722656 C 319.519531 91.421875 325.535156 92.285156 331.664062 92.285156 C 340.75 92.285156 349.5 90.394531 357.292969 86.839844 C 355.265625 81.683594 354.210938 76.214844 354.210938 70.585938 C 354.210938 67.972656 354.4375 65.390625 354.886719 62.855469 C 354.847656 62.613281 354.894531 62.359375 355.019531 62.144531 C 355.316406 60.621094 355.691406 59.117188 356.144531 57.636719 L 354.488281 56.820312 C 354.035156 56.597656 353.800781 56.085938 353.925781 55.601562 L 354.164062 54.660156 " fill-opacity="1" fill-rule="nonzero"/></g></svg>