<svg xmlns="http://www.w3.org/2000/svg" xmlns:xlink="http://www.w3.org/1999/xlink" width="992" zoomAndPan="magnify" viewBox="0 0 744 749.999995" height="1000" preserveAspectRatio="xMidYMid meet" version="1.0"><defs><clipPath id="id1"><path d="M 363.753906 14.570312 L 428.519531 14.570312 L 428.519531 74.246094 L 363.753906 74.246094 Z M 363.753906 14.570312 " clip-rule="nonzero"/></clipPath><clipPath id="id2"><path d="M 315.277344 0 L 378 0 L 378 60 L 315.277344 60 Z M 315.277344 0 " clip-rule="nonzero"/></clipPath></defs><rect x="-74.4" width="892.8" fill="#ffffff" y="-74.999999" height="899.999994" fill-opacity="1"/><rect x="-74.4" width="892.8" fill="#ffffff" y="-74.999999" height="899.999994" fill-opacity="1"/><rect x="-74.4" width="892.8" fill="#fafafa" y="-74.999999" height="899.999994" fill-opacity="1"/><path fill="#19baaa" d="M 405.101562 41.753906 C 404.769531 40.96875 403.867188 40.601562 403.082031 40.933594 C 402.296875 41.265625 401.933594 42.171875 402.261719 42.953125 C 402.59375 43.738281 403.5 44.101562 404.28125 43.773438 C 405.066406 43.441406 405.433594 42.535156 405.101562 41.753906 " fill-opacity="1" fill-rule="nonzero"/><path fill="#19baaa" d="M 397.230469 50.027344 C 396.285156 50.65625 396.027344 51.929688 396.652344 52.875 C 397.28125 53.820312 398.554688 54.078125 399.5 53.449219 C 400.445312 52.824219 400.703125 51.550781 400.078125 50.605469 C 399.449219 49.660156 398.175781 49.402344 397.230469 50.027344 " fill-opacity="1" fill-rule="nonzero"/><path fill="#19baaa" d="M 391.671875 30.929688 C 392.503906 30.746094 393.027344 29.925781 392.847656 29.09375 C 392.664062 28.261719 391.84375 27.738281 391.011719 27.917969 C 390.179688 28.101562 389.65625 28.921875 389.835938 29.753906 C 390.019531 30.585938 390.839844 31.109375 391.671875 30.929688 " fill-opacity="1" fill-rule="nonzero"/><path fill="#19baaa" d="M 384.671875 34.855469 C 385.277344 34.808594 385.726562 34.28125 385.679688 33.679688 C 385.632812 33.078125 385.109375 32.628906 384.503906 32.675781 C 383.902344 32.71875 383.453125 33.246094 383.5 33.847656 C 383.546875 34.449219 384.070312 34.902344 384.671875 34.855469 " fill-opacity="1" fill-rule="nonzero"/><path fill="#19baaa" d="M 376.492188 39.851562 C 375.109375 40.53125 374.539062 42.207031 375.222656 43.589844 C 375.902344 44.96875 377.578125 45.539062 378.960938 44.855469 C 380.34375 44.175781 380.910156 42.5 380.230469 41.117188 C 379.546875 39.738281 377.875 39.167969 376.492188 39.851562 " fill-opacity="1" fill-rule="nonzero"/><path fill="#19baaa" d="M 393.695312 42.273438 C 394.453125 41.28125 394.265625 39.863281 393.273438 39.105469 C 392.28125 38.34375 390.863281 38.535156 390.101562 39.523438 C 389.34375 40.515625 389.53125 41.933594 390.523438 42.691406 C 391.515625 43.453125 392.933594 43.261719 393.695312 42.273438 " fill-opacity="1" fill-rule="nonzero"/><path fill="#19baaa" d="M 413.40625 34.996094 C 412.121094 35.160156 411.214844 36.335938 411.378906 37.621094 C 411.546875 38.90625 412.722656 39.8125 414.003906 39.648438 C 415.289062 39.480469 416.199219 38.304688 416.03125 37.023438 C 415.867188 35.738281 414.691406 34.828125 413.40625 34.996094 " fill-opacity="1" fill-rule="nonzero"/><path fill="#19baaa" d="M 402.203125 33.910156 C 403.238281 33.449219 403.703125 32.234375 403.238281 31.199219 C 402.773438 30.164062 401.558594 29.703125 400.523438 30.164062 C 399.492188 30.628906 399.027344 31.84375 399.492188 32.878906 C 399.957031 33.914062 401.167969 34.375 402.203125 33.910156 " fill-opacity="1" fill-rule="nonzero"/><g clip-path="url(#id1)"><path fill="#19baaa" d="M 419.972656 37.433594 L 418.871094 37.816406 C 418.664062 37.890625 418.507812 38.066406 418.460938 38.285156 C 418.421875 38.492188 418.363281 38.691406 418.296875 38.890625 C 418.226562 39.101562 418.273438 39.332031 418.417969 39.503906 L 419.171875 40.386719 C 419.367188 40.617188 419.375 40.949219 419.191406 41.1875 L 418.835938 41.644531 C 418.652344 41.882812 418.328125 41.960938 418.058594 41.828125 L 417.011719 41.324219 C 416.808594 41.226562 416.570312 41.242188 416.386719 41.363281 C 416.214844 41.480469 416.03125 41.582031 415.84375 41.675781 C 415.644531 41.773438 415.511719 41.972656 415.496094 42.191406 L 415.402344 43.351562 C 415.378906 43.652344 415.148438 43.894531 414.851562 43.933594 L 414.277344 44.007812 C 413.976562 44.042969 413.695312 43.867188 413.59375 43.585938 L 413.210938 42.484375 C 413.136719 42.277344 412.960938 42.117188 412.742188 42.074219 C 412.535156 42.03125 412.335938 41.976562 412.140625 41.910156 C 411.925781 41.839844 411.695312 41.886719 411.523438 42.03125 L 410.640625 42.785156 C 410.410156 42.980469 410.078125 42.988281 409.839844 42.804688 L 409.382812 42.449219 C 409.144531 42.265625 409.066406 41.941406 409.195312 41.671875 L 409.703125 40.625 C 409.800781 40.421875 409.785156 40.1875 409.664062 40 C 409.546875 39.828125 409.445312 39.644531 409.351562 39.457031 C 409.253906 39.257812 409.054688 39.128906 408.835938 39.109375 L 407.671875 39.015625 C 407.375 38.992188 407.132812 38.761719 407.09375 38.464844 L 407.019531 37.890625 C 406.980469 37.589844 407.15625 37.308594 407.441406 37.207031 L 408.539062 36.824219 C 408.75 36.75 408.90625 36.574219 408.953125 36.355469 C 408.992188 36.152344 409.050781 35.949219 409.117188 35.753906 C 409.1875 35.542969 409.140625 35.308594 408.996094 35.140625 L 408.242188 34.253906 C 408.046875 34.023438 408.039062 33.691406 408.222656 33.453125 L 408.574219 32.996094 C 408.757812 32.757812 409.085938 32.683594 409.355469 32.8125 L 410.402344 33.320312 C 410.605469 33.414062 410.84375 33.402344 411.027344 33.277344 C 411.199219 33.164062 411.382812 33.058594 411.570312 32.964844 C 411.769531 32.867188 411.898438 32.671875 411.917969 32.449219 L 412.011719 31.289062 C 412.035156 30.988281 412.265625 30.746094 412.5625 30.710938 L 413.136719 30.636719 C 413.4375 30.597656 413.71875 30.773438 413.820312 31.054688 L 414.203125 32.15625 C 414.277344 32.367188 414.453125 32.523438 414.671875 32.566406 C 414.878906 32.609375 415.078125 32.664062 415.273438 32.730469 C 415.484375 32.804688 415.71875 32.757812 415.890625 32.613281 L 416.773438 31.859375 C 417.003906 31.664062 417.335938 31.65625 417.574219 31.839844 L 418.03125 32.191406 C 418.269531 32.375 418.347656 32.699219 418.214844 32.96875 L 417.710938 34.019531 C 417.613281 34.21875 417.628906 34.457031 417.75 34.640625 C 417.867188 34.816406 417.96875 34.996094 418.0625 35.183594 C 418.160156 35.382812 418.359375 35.515625 418.578125 35.53125 L 419.738281 35.625 C 420.039062 35.648438 420.28125 35.878906 420.320312 36.179688 L 420.394531 36.753906 C 420.433594 37.050781 420.257812 37.335938 419.972656 37.433594 Z M 417.703125 53.007812 L 417.5625 53.566406 C 417.488281 53.859375 417.21875 54.058594 416.917969 54.046875 L 415.757812 53.996094 C 415.535156 53.984375 415.320312 54.09375 415.199219 54.28125 C 415.085938 54.453125 414.960938 54.621094 414.824219 54.78125 C 414.679688 54.949219 414.636719 55.183594 414.710938 55.394531 L 415.085938 56.496094 C 415.179688 56.78125 415.066406 57.09375 414.804688 57.246094 L 414.308594 57.542969 C 414.050781 57.695312 413.71875 57.644531 413.515625 57.425781 L 412.726562 56.566406 C 412.578125 56.40625 412.351562 56.328125 412.132812 56.375 C 411.929688 56.417969 411.722656 56.449219 411.515625 56.464844 C 411.292969 56.480469 411.097656 56.617188 411 56.816406 L 410.484375 57.859375 C 410.351562 58.128906 410.050781 58.269531 409.757812 58.195312 L 409.199219 58.050781 C 408.90625 57.976562 408.707031 57.710938 408.71875 57.410156 L 408.769531 56.246094 C 408.78125 56.023438 408.671875 55.8125 408.484375 55.691406 C 408.3125 55.578125 408.144531 55.453125 407.984375 55.316406 C 407.816406 55.171875 407.582031 55.128906 407.371094 55.199219 L 406.269531 55.574219 C 405.984375 55.671875 405.671875 55.554688 405.519531 55.296875 L 405.222656 54.800781 C 405.070312 54.542969 405.117188 54.210938 405.339844 54.007812 L 406.195312 53.21875 C 406.359375 53.070312 406.433594 52.84375 406.390625 52.625 C 406.34375 52.421875 406.316406 52.214844 406.300781 52.007812 C 406.28125 51.785156 406.148438 51.589844 405.949219 51.492188 L 404.90625 50.976562 C 404.632812 50.84375 404.496094 50.542969 404.570312 50.25 L 404.710938 49.691406 C 404.785156 49.398438 405.054688 49.199219 405.355469 49.214844 L 406.519531 49.261719 C 406.742188 49.273438 406.953125 49.164062 407.074219 48.976562 C 407.1875 48.804688 407.3125 48.636719 407.449219 48.476562 C 407.59375 48.308594 407.636719 48.074219 407.566406 47.863281 L 407.191406 46.761719 C 407.09375 46.476562 407.210938 46.164062 407.46875 46.011719 L 407.964844 45.714844 C 408.222656 45.5625 408.554688 45.609375 408.757812 45.832031 L 409.546875 46.691406 C 409.695312 46.851562 409.921875 46.929688 410.140625 46.882812 C 410.34375 46.839844 410.550781 46.808594 410.757812 46.792969 C 410.980469 46.777344 411.175781 46.640625 411.273438 46.441406 L 411.789062 45.398438 C 411.921875 45.128906 412.222656 44.988281 412.515625 45.0625 L 413.074219 45.207031 C 413.367188 45.28125 413.566406 45.546875 413.554688 45.847656 L 413.503906 47.011719 C 413.492188 47.234375 413.601562 47.445312 413.789062 47.566406 C 413.960938 47.679688 414.128906 47.804688 414.289062 47.941406 C 414.457031 48.085938 414.691406 48.128906 414.902344 48.058594 L 416.003906 47.683594 C 416.289062 47.585938 416.601562 47.703125 416.753906 47.960938 L 417.050781 48.457031 C 417.203125 48.714844 417.15625 49.046875 416.933594 49.25 L 416.078125 50.039062 C 415.914062 50.1875 415.839844 50.414062 415.882812 50.632812 C 415.929688 50.835938 415.957031 51.042969 415.972656 51.25 C 415.992188 51.472656 416.125 51.667969 416.324219 51.765625 L 417.371094 52.28125 C 417.640625 52.414062 417.777344 52.714844 417.703125 53.007812 Z M 403.976562 45.527344 C 403.792969 45.542969 403.613281 45.542969 403.4375 45.53125 C 403.332031 45.519531 403.234375 45.566406 403.175781 45.652344 L 402.644531 46.441406 C 402.570312 46.550781 402.429688 46.597656 402.304688 46.546875 L 401.75 46.320312 C 401.625 46.269531 401.554688 46.140625 401.578125 46.007812 L 401.746094 45.074219 C 401.765625 44.972656 401.726562 44.871094 401.644531 44.804688 C 401.507812 44.691406 401.378906 44.5625 401.261719 44.425781 C 401.195312 44.347656 401.09375 44.308594 400.992188 44.328125 L 400.054688 44.511719 C 399.925781 44.535156 399.792969 44.46875 399.742188 44.34375 L 399.511719 43.792969 C 399.457031 43.667969 399.5 43.527344 399.609375 43.449219 L 400.390625 42.90625 C 400.472656 42.847656 400.519531 42.75 400.507812 42.644531 C 400.492188 42.464844 400.492188 42.285156 400.503906 42.105469 C 400.511719 42.003906 400.46875 41.90625 400.382812 41.847656 L 399.59375 41.316406 C 399.480469 41.242188 399.4375 41.101562 399.488281 40.976562 L 399.714844 40.421875 C 399.765625 40.296875 399.894531 40.226562 400.023438 40.25 L 400.960938 40.417969 C 401.0625 40.4375 401.164062 40.398438 401.230469 40.316406 C 401.34375 40.179688 401.472656 40.050781 401.609375 39.933594 C 401.6875 39.867188 401.722656 39.765625 401.707031 39.664062 L 401.523438 38.730469 C 401.496094 38.597656 401.566406 38.46875 401.691406 38.414062 L 402.242188 38.183594 C 402.367188 38.128906 402.507812 38.171875 402.585938 38.28125 L 403.128906 39.0625 C 403.1875 39.144531 403.285156 39.191406 403.390625 39.179688 C 403.570312 39.164062 403.75 39.164062 403.929688 39.175781 C 404.03125 39.1875 404.132812 39.140625 404.1875 39.054688 L 404.71875 38.265625 C 404.792969 38.15625 404.933594 38.109375 405.058594 38.160156 L 405.613281 38.386719 C 405.738281 38.4375 405.808594 38.566406 405.785156 38.699219 L 405.617188 39.632812 C 405.597656 39.734375 405.636719 39.835938 405.71875 39.902344 C 405.855469 40.015625 405.984375 40.144531 406.101562 40.28125 C 406.167969 40.359375 406.269531 40.398438 406.371094 40.378906 L 407.308594 40.195312 C 407.4375 40.171875 407.570312 40.238281 407.621094 40.363281 L 407.855469 40.914062 C 407.90625 41.039062 407.863281 41.179688 407.753906 41.257812 L 406.972656 41.800781 C 406.890625 41.859375 406.84375 41.957031 406.855469 42.0625 C 406.871094 42.242188 406.871094 42.421875 406.859375 42.601562 C 406.851562 42.703125 406.898438 42.800781 406.980469 42.859375 L 407.769531 43.390625 C 407.882812 43.464844 407.925781 43.605469 407.875 43.730469 L 407.652344 44.285156 C 407.601562 44.410156 407.46875 44.480469 407.339844 44.457031 L 406.402344 44.289062 C 406.300781 44.269531 406.199219 44.308594 406.132812 44.390625 C 406.019531 44.527344 405.890625 44.65625 405.753906 44.773438 C 405.675781 44.839844 405.640625 44.941406 405.660156 45.042969 L 405.839844 45.976562 C 405.867188 46.109375 405.796875 46.238281 405.671875 46.292969 L 405.121094 46.523438 C 405 46.578125 404.855469 46.535156 404.78125 46.425781 L 404.234375 45.644531 C 404.175781 45.5625 404.078125 45.515625 403.976562 45.527344 Z M 404.195312 52.515625 L 404.035156 53.296875 C 404 53.46875 403.847656 53.597656 403.671875 53.597656 L 402.402344 53.605469 C 402.265625 53.609375 402.140625 53.683594 402.074219 53.804688 C 401.960938 54.011719 401.824219 54.210938 401.675781 54.398438 C 401.585938 54.507812 401.5625 54.648438 401.613281 54.777344 L 402.082031 55.957031 C 402.148438 56.121094 402.089844 56.3125 401.941406 56.410156 L 401.273438 56.851562 C 401.125 56.949219 400.929688 56.929688 400.800781 56.804688 L 399.898438 55.914062 C 399.800781 55.820312 399.660156 55.785156 399.527344 55.824219 C 399.292969 55.890625 399.058594 55.933594 398.824219 55.960938 C 398.6875 55.972656 398.566406 56.058594 398.511719 56.183594 L 398.011719 57.347656 C 397.941406 57.511719 397.765625 57.605469 397.589844 57.570312 L 396.808594 57.410156 C 396.632812 57.375 396.507812 57.222656 396.507812 57.042969 L 396.496094 55.777344 C 396.496094 55.640625 396.421875 55.515625 396.300781 55.449219 C 396.09375 55.332031 395.890625 55.199219 395.703125 55.046875 C 395.597656 54.960938 395.453125 54.9375 395.328125 54.988281 L 394.148438 55.457031 C 393.980469 55.519531 393.792969 55.460938 393.695312 55.3125 L 393.253906 54.648438 C 393.15625 54.5 393.175781 54.304688 393.300781 54.175781 L 394.1875 53.273438 C 394.285156 53.175781 394.320312 53.035156 394.28125 52.902344 C 394.214844 52.667969 394.167969 52.433594 394.144531 52.199219 C 394.128906 52.058594 394.042969 51.941406 393.917969 51.886719 L 392.753906 51.386719 C 392.589844 51.316406 392.5 51.140625 392.535156 50.964844 L 392.691406 50.183594 C 392.730469 50.007812 392.882812 49.882812 393.058594 49.882812 L 394.328125 49.871094 C 394.464844 49.871094 394.589844 49.796875 394.65625 49.675781 C 394.769531 49.46875 394.90625 49.269531 395.054688 49.078125 C 395.140625 48.972656 395.164062 48.828125 395.117188 48.703125 L 394.648438 47.523438 C 394.582031 47.359375 394.640625 47.167969 394.789062 47.070312 L 395.457031 46.628906 C 395.605469 46.53125 395.800781 46.550781 395.925781 46.675781 L 396.832031 47.566406 C 396.929688 47.660156 397.070312 47.695312 397.203125 47.65625 C 397.433594 47.589844 397.671875 47.546875 397.90625 47.519531 C 398.042969 47.503906 398.164062 47.421875 398.21875 47.292969 L 398.71875 46.128906 C 398.789062 45.96875 398.964844 45.875 399.140625 45.910156 L 399.921875 46.070312 C 400.097656 46.105469 400.222656 46.257812 400.222656 46.433594 L 400.234375 47.703125 C 400.234375 47.839844 400.308594 47.964844 400.429688 48.03125 C 400.636719 48.144531 400.835938 48.28125 401.027344 48.429688 C 401.132812 48.515625 401.277344 48.542969 401.402344 48.492188 L 402.582031 48.023438 C 402.75 47.957031 402.9375 48.015625 403.035156 48.164062 L 403.476562 48.832031 C 403.574219 48.980469 403.554688 49.175781 403.429688 49.304688 L 402.542969 50.207031 C 402.445312 50.304688 402.410156 50.445312 402.449219 50.578125 C 402.515625 50.808594 402.558594 51.046875 402.585938 51.28125 C 402.601562 51.417969 402.6875 51.539062 402.8125 51.59375 L 403.976562 52.09375 C 404.140625 52.164062 404.230469 52.339844 404.195312 52.515625 Z M 391.871094 47.085938 L 391.40625 45.769531 C 391.355469 45.628906 391.230469 45.527344 391.082031 45.5 C 390.824219 45.453125 390.566406 45.386719 390.316406 45.296875 C 390.175781 45.246094 390.015625 45.273438 389.902344 45.371094 L 388.84375 46.28125 C 388.695312 46.40625 388.476562 46.414062 388.320312 46.292969 L 387.621094 45.761719 C 387.464844 45.640625 387.417969 45.429688 387.5 45.253906 L 388.101562 43.992188 C 388.167969 43.855469 388.152344 43.695312 388.066406 43.574219 C 387.910156 43.355469 387.78125 43.125 387.667969 42.890625 C 387.605469 42.753906 387.472656 42.660156 387.324219 42.648438 L 385.929688 42.542969 C 385.734375 42.527344 385.578125 42.378906 385.550781 42.183594 L 385.4375 41.3125 C 385.410156 41.121094 385.523438 40.933594 385.707031 40.867188 L 387.023438 40.402344 C 387.167969 40.355469 387.269531 40.230469 387.296875 40.082031 C 387.339844 39.824219 387.410156 39.566406 387.5 39.316406 C 387.550781 39.175781 387.523438 39.015625 387.425781 38.902344 L 386.515625 37.84375 C 386.386719 37.695312 386.382812 37.476562 386.5 37.320312 L 387.035156 36.621094 C 387.152344 36.46875 387.367188 36.417969 387.542969 36.5 L 388.804688 37.101562 C 388.941406 37.167969 389.097656 37.152344 389.222656 37.066406 C 389.441406 36.914062 389.667969 36.78125 389.90625 36.667969 C 390.042969 36.605469 390.136719 36.472656 390.148438 36.324219 L 390.253906 34.933594 C 390.269531 34.738281 390.417969 34.578125 390.613281 34.550781 L 391.484375 34.4375 C 391.675781 34.410156 391.863281 34.523438 391.929688 34.710938 L 392.394531 36.027344 C 392.441406 36.167969 392.566406 36.269531 392.714844 36.296875 C 392.972656 36.34375 393.230469 36.410156 393.480469 36.5 C 393.621094 36.550781 393.78125 36.523438 393.894531 36.425781 L 394.953125 35.515625 C 395.105469 35.390625 395.320312 35.382812 395.476562 35.5 L 396.175781 36.035156 C 396.332031 36.15625 396.382812 36.367188 396.296875 36.542969 L 395.695312 37.804688 C 395.628906 37.941406 395.644531 38.097656 395.734375 38.222656 C 395.882812 38.441406 396.015625 38.671875 396.128906 38.90625 C 396.191406 39.042969 396.324219 39.136719 396.472656 39.148438 L 397.867188 39.253906 C 398.0625 39.269531 398.21875 39.417969 398.246094 39.613281 L 398.363281 40.484375 C 398.386719 40.675781 398.273438 40.863281 398.089844 40.929688 L 396.773438 41.390625 C 396.628906 41.441406 396.527344 41.566406 396.5 41.714844 C 396.457031 41.972656 396.386719 42.230469 396.296875 42.480469 C 396.246094 42.621094 396.273438 42.78125 396.371094 42.894531 L 397.28125 43.953125 C 397.410156 44.101562 397.414062 44.320312 397.296875 44.476562 L 396.761719 45.171875 C 396.644531 45.328125 396.429688 45.378906 396.253906 45.296875 L 394.992188 44.695312 C 394.855469 44.628906 394.699219 44.644531 394.574219 44.730469 C 394.355469 44.882812 394.128906 45.015625 393.890625 45.128906 C 393.753906 45.191406 393.660156 45.320312 393.648438 45.472656 L 393.542969 46.863281 C 393.527344 47.058594 393.378906 47.21875 393.183594 47.242188 L 392.3125 47.359375 C 392.121094 47.386719 391.933594 47.273438 391.871094 47.085938 Z M 391.511719 51.296875 L 390.597656 51.566406 C 390.496094 51.59375 390.421875 51.675781 390.398438 51.777344 C 390.359375 51.953125 390.300781 52.125 390.234375 52.289062 C 390.191406 52.382812 390.203125 52.492188 390.265625 52.574219 L 390.847656 53.328125 C 390.929688 53.433594 390.925781 53.582031 390.835938 53.683594 L 390.449219 54.136719 C 390.359375 54.238281 390.214844 54.265625 390.097656 54.203125 L 389.261719 53.746094 C 389.171875 53.695312 389.0625 53.699219 388.976562 53.753906 C 388.824219 53.847656 388.664062 53.929688 388.496094 54 C 388.398438 54.035156 388.332031 54.121094 388.320312 54.222656 L 388.195312 55.167969 C 388.175781 55.300781 388.070312 55.402344 387.933594 55.410156 L 387.339844 55.457031 C 387.203125 55.46875 387.082031 55.382812 387.042969 55.253906 L 386.777344 54.34375 C 386.75 54.242188 386.667969 54.171875 386.566406 54.144531 C 386.390625 54.105469 386.21875 54.046875 386.054688 53.976562 C 385.960938 53.9375 385.851562 53.949219 385.769531 54.011719 L 385.015625 54.59375 C 384.910156 54.671875 384.761719 54.671875 384.660156 54.582031 L 384.207031 54.195312 C 384.105469 54.105469 384.078125 53.960938 384.140625 53.84375 L 384.597656 53.007812 C 384.648438 52.917969 384.644531 52.808594 384.589844 52.722656 C 384.496094 52.570312 384.414062 52.410156 384.34375 52.242188 C 384.308594 52.148438 384.222656 52.078125 384.121094 52.066406 L 383.175781 51.941406 C 383.042969 51.921875 382.941406 51.816406 382.929688 51.683594 L 382.886719 51.085938 C 382.875 50.953125 382.960938 50.828125 383.085938 50.792969 L 384 50.523438 C 384.101562 50.496094 384.171875 50.414062 384.195312 50.316406 C 384.238281 50.136719 384.292969 49.96875 384.363281 49.804688 C 384.40625 49.707031 384.394531 49.597656 384.332031 49.519531 L 383.75 48.761719 C 383.667969 48.65625 383.671875 48.507812 383.761719 48.40625 L 384.148438 47.953125 C 384.238281 47.851562 384.382812 47.824219 384.5 47.890625 L 385.335938 48.347656 C 385.425781 48.394531 385.535156 48.390625 385.621094 48.335938 C 385.773438 48.242188 385.933594 48.160156 386.101562 48.09375 C 386.195312 48.054688 386.265625 47.96875 386.277344 47.867188 L 386.402344 46.921875 C 386.421875 46.792969 386.527344 46.6875 386.660156 46.679688 L 387.257812 46.632812 C 387.390625 46.621094 387.515625 46.707031 387.550781 46.835938 L 387.820312 47.75 C 387.847656 47.847656 387.929688 47.921875 388.027344 47.945312 C 388.207031 47.984375 388.375 48.042969 388.542969 48.113281 C 388.636719 48.152344 388.746094 48.140625 388.828125 48.078125 L 389.582031 47.5 C 389.6875 47.417969 389.835938 47.421875 389.9375 47.507812 L 390.390625 47.898438 C 390.492188 47.984375 390.519531 48.128906 390.457031 48.246094 L 390 49.082031 C 389.949219 49.171875 389.953125 49.28125 390.007812 49.367188 C 390.101562 49.519531 390.183594 49.679688 390.25 49.847656 C 390.289062 49.945312 390.375 50.011719 390.476562 50.027344 L 391.421875 50.152344 C 391.554688 50.167969 391.65625 50.277344 391.664062 50.410156 L 391.710938 51.007812 C 391.722656 51.140625 391.636719 51.261719 391.511719 51.296875 Z M 382.300781 45.871094 C 382.152344 46.066406 381.988281 46.253906 381.8125 46.429688 C 381.625 46.617188 381.554688 46.890625 381.621094 47.148438 L 381.960938 48.488281 C 382.050781 48.835938 381.882812 49.195312 381.566406 49.355469 L 380.945312 49.660156 C 380.625 49.816406 380.238281 49.730469 380.015625 49.449219 L 379.160156 48.359375 C 378.996094 48.152344 378.734375 48.042969 378.472656 48.078125 C 378.226562 48.109375 377.976562 48.125 377.730469 48.125 C 377.464844 48.125 377.222656 48.269531 377.085938 48.496094 L 376.382812 49.6875 C 376.199219 49.996094 375.828125 50.132812 375.488281 50.019531 L 374.835938 49.796875 C 374.496094 49.683594 374.285156 49.34375 374.328125 48.992188 L 374.492188 47.617188 C 374.527344 47.351562 374.417969 47.089844 374.207031 46.929688 C 374.011719 46.78125 373.824219 46.617188 373.648438 46.441406 C 373.460938 46.253906 373.1875 46.179688 372.929688 46.246094 L 371.585938 46.589844 C 371.242188 46.675781 370.878906 46.511719 370.722656 46.191406 L 370.417969 45.574219 C 370.257812 45.253906 370.347656 44.867188 370.628906 44.644531 L 371.71875 43.789062 C 371.925781 43.625 372.035156 43.363281 372 43.101562 C 371.96875 42.855469 371.953125 42.605469 371.953125 42.359375 C 371.953125 42.09375 371.808594 41.847656 371.582031 41.714844 L 370.390625 41.007812 C 370.082031 40.828125 369.945312 40.453125 370.058594 40.117188 L 370.28125 39.464844 C 370.394531 39.125 370.730469 38.914062 371.085938 38.957031 L 372.460938 39.121094 C 372.726562 39.152344 372.988281 39.046875 373.148438 38.835938 C 373.296875 38.640625 373.460938 38.453125 373.636719 38.277344 C 373.824219 38.089844 373.898438 37.816406 373.832031 37.558594 L 373.488281 36.21875 C 373.398438 35.871094 373.566406 35.511719 373.886719 35.351562 L 374.503906 35.046875 C 374.824219 34.890625 375.210938 34.976562 375.433594 35.257812 L 376.289062 36.347656 C 376.453125 36.554688 376.714844 36.664062 376.976562 36.628906 C 377.222656 36.597656 377.472656 36.582031 377.71875 36.582031 C 377.984375 36.582031 378.230469 36.4375 378.363281 36.210938 L 379.070312 35.019531 C 379.253906 34.710938 379.625 34.574219 379.964844 34.6875 L 380.613281 34.910156 C 380.953125 35.023438 381.164062 35.363281 381.125 35.714844 L 380.957031 37.089844 C 380.925781 37.355469 381.035156 37.617188 381.242188 37.777344 C 381.441406 37.925781 381.625 38.089844 381.804688 38.265625 C 381.992188 38.453125 382.265625 38.527344 382.519531 38.460938 L 383.863281 38.117188 C 384.210938 38.03125 384.570312 38.195312 384.730469 38.515625 L 385.035156 39.132812 C 385.191406 39.453125 385.101562 39.839844 384.824219 40.0625 L 383.734375 40.917969 C 383.527344 41.082031 383.417969 41.34375 383.449219 41.605469 C 383.484375 41.851562 383.5 42.101562 383.5 42.347656 C 383.5 42.613281 383.640625 42.859375 383.871094 42.992188 L 385.0625 43.699219 C 385.367188 43.878906 385.507812 44.253906 385.390625 44.589844 L 385.171875 45.242188 C 385.054688 45.582031 384.71875 45.792969 384.363281 45.75 L 382.988281 45.585938 C 382.726562 45.554688 382.464844 45.660156 382.300781 45.871094 Z M 381.597656 33.585938 L 382.25 33.394531 C 382.316406 33.375 382.371094 33.316406 382.386719 33.246094 C 382.417969 33.121094 382.457031 33 382.507812 32.882812 C 382.535156 32.816406 382.527344 32.738281 382.480469 32.679688 L 382.070312 32.144531 C 382.011719 32.070312 382.015625 31.964844 382.078125 31.890625 L 382.355469 31.570312 C 382.414062 31.496094 382.519531 31.476562 382.601562 31.523438 L 383.195312 31.847656 C 383.257812 31.882812 383.335938 31.878906 383.398438 31.839844 C 383.507812 31.773438 383.621094 31.714844 383.738281 31.667969 C 383.808594 31.640625 383.855469 31.578125 383.867188 31.507812 L 383.953125 30.835938 C 383.964844 30.742188 384.042969 30.671875 384.136719 30.664062 L 384.5625 30.632812 C 384.65625 30.625 384.742188 30.683594 384.769531 30.773438 L 384.960938 31.421875 C 384.980469 31.492188 385.035156 31.546875 385.109375 31.5625 C 385.234375 31.59375 385.355469 31.632812 385.472656 31.679688 C 385.539062 31.710938 385.617188 31.703125 385.675781 31.65625 L 386.210938 31.246094 C 386.285156 31.1875 386.390625 31.191406 386.464844 31.253906 L 386.785156 31.527344 C 386.859375 31.589844 386.875 31.695312 386.832031 31.777344 L 386.507812 32.371094 C 386.472656 32.433594 386.476562 32.511719 386.511719 32.574219 C 386.582031 32.679688 386.636719 32.796875 386.6875 32.914062 C 386.714844 32.984375 386.773438 33.03125 386.847656 33.039062 L 387.515625 33.128906 C 387.609375 33.140625 387.683594 33.21875 387.691406 33.3125 L 387.722656 33.738281 C 387.730469 33.832031 387.671875 33.917969 387.578125 33.945312 L 386.929688 34.132812 C 386.859375 34.15625 386.808594 34.210938 386.792969 34.28125 C 386.761719 34.40625 386.722656 34.53125 386.671875 34.644531 C 386.644531 34.714844 386.652344 34.789062 386.699219 34.847656 L 387.109375 35.382812 C 387.167969 35.460938 387.164062 35.566406 387.101562 35.636719 L 386.824219 35.960938 C 386.761719 36.03125 386.660156 36.050781 386.578125 36.003906 L 385.984375 35.679688 C 385.921875 35.644531 385.84375 35.648438 385.78125 35.6875 C 385.671875 35.753906 385.558594 35.8125 385.4375 35.859375 C 385.371094 35.886719 385.324219 35.949219 385.3125 36.019531 L 385.226562 36.691406 C 385.210938 36.785156 385.136719 36.859375 385.042969 36.863281 L 384.617188 36.898438 C 384.523438 36.90625 384.4375 36.84375 384.410156 36.753906 L 384.21875 36.105469 C 384.199219 36.035156 384.140625 35.984375 384.070312 35.964844 C 383.945312 35.9375 383.824219 35.894531 383.707031 35.847656 C 383.640625 35.816406 383.5625 35.828125 383.503906 35.871094 L 382.96875 36.28125 C 382.894531 36.339844 382.789062 36.335938 382.714844 36.277344 L 382.394531 36 C 382.320312 35.9375 382.300781 35.835938 382.347656 35.75 L 382.671875 35.160156 C 382.707031 35.09375 382.703125 35.015625 382.664062 34.953125 C 382.597656 34.847656 382.539062 34.734375 382.492188 34.613281 C 382.464844 34.546875 382.40625 34.496094 382.332031 34.488281 L 381.664062 34.398438 C 381.566406 34.386719 381.496094 34.3125 381.488281 34.214844 L 381.457031 33.792969 C 381.449219 33.699219 381.507812 33.609375 381.597656 33.585938 Z M 387.136719 29.757812 L 388.003906 29.363281 C 388.097656 29.320312 388.160156 29.230469 388.167969 29.128906 C 388.1875 28.949219 388.21875 28.773438 388.265625 28.601562 C 388.292969 28.5 388.265625 28.394531 388.191406 28.320312 L 387.511719 27.65625 C 387.417969 27.5625 387.398438 27.414062 387.472656 27.300781 L 387.796875 26.796875 C 387.867188 26.683594 388.007812 26.640625 388.132812 26.6875 L 389.023438 27.023438 C 389.117188 27.058594 389.226562 27.039062 389.304688 26.972656 C 389.441406 26.859375 389.589844 26.757812 389.746094 26.664062 C 389.835938 26.613281 389.890625 26.519531 389.890625 26.417969 L 389.882812 25.464844 C 389.882812 25.332031 389.976562 25.214844 390.105469 25.1875 L 390.691406 25.058594 C 390.820312 25.03125 390.953125 25.097656 391.007812 25.21875 L 391.402344 26.085938 C 391.441406 26.179688 391.535156 26.242188 391.636719 26.25 C 391.816406 26.269531 391.992188 26.300781 392.167969 26.347656 C 392.265625 26.375 392.371094 26.347656 392.445312 26.273438 L 393.109375 25.59375 C 393.203125 25.5 393.351562 25.484375 393.464844 25.554688 L 393.96875 25.878906 C 394.082031 25.949219 394.128906 26.089844 394.082031 26.214844 L 393.742188 27.105469 C 393.707031 27.199219 393.726562 27.308594 393.792969 27.386719 C 393.90625 27.523438 394.011719 27.671875 394.101562 27.828125 C 394.152344 27.917969 394.246094 27.972656 394.347656 27.972656 L 395.300781 27.964844 C 395.433594 27.964844 395.550781 28.058594 395.578125 28.1875 L 395.707031 28.773438 C 395.734375 28.902344 395.667969 29.035156 395.546875 29.089844 L 394.679688 29.480469 C 394.585938 29.523438 394.523438 29.613281 394.515625 29.71875 C 394.5 29.898438 394.464844 30.074219 394.417969 30.246094 C 394.394531 30.347656 394.421875 30.453125 394.492188 30.523438 L 395.171875 31.191406 C 395.265625 31.285156 395.285156 31.433594 395.210938 31.546875 L 394.890625 32.050781 C 394.816406 32.160156 394.675781 32.207031 394.550781 32.160156 L 393.664062 31.824219 C 393.566406 31.789062 393.457031 31.808594 393.378906 31.875 C 393.242188 31.988281 393.09375 32.089844 392.9375 32.179688 C 392.847656 32.234375 392.792969 32.328125 392.792969 32.429688 L 392.800781 33.382812 C 392.800781 33.515625 392.707031 33.632812 392.578125 33.660156 L 391.992188 33.789062 C 391.863281 33.816406 391.730469 33.75 391.675781 33.628906 L 391.28125 32.761719 C 391.242188 32.667969 391.152344 32.605469 391.046875 32.59375 C 390.867188 32.578125 390.691406 32.546875 390.519531 32.5 C 390.417969 32.472656 390.3125 32.5 390.242188 32.574219 L 389.574219 33.253906 C 389.480469 33.347656 389.332031 33.363281 389.21875 33.292969 L 388.714844 32.96875 C 388.605469 32.898438 388.554688 32.757812 388.605469 32.632812 L 388.941406 31.742188 C 388.976562 31.644531 388.957031 31.539062 388.890625 31.460938 C 388.777344 31.320312 388.675781 31.175781 388.582031 31.019531 C 388.53125 30.929688 388.4375 30.875 388.335938 30.875 L 387.382812 30.882812 C 387.25 30.882812 387.132812 30.789062 387.105469 30.660156 L 386.976562 30.074219 C 386.949219 29.945312 387.015625 29.8125 387.136719 29.757812 Z M 395.738281 30.324219 L 396.023438 29.578125 C 396.085938 29.410156 396.257812 29.3125 396.433594 29.339844 L 397.683594 29.539062 C 397.820312 29.558594 397.957031 29.503906 398.042969 29.394531 C 398.191406 29.210938 398.355469 29.035156 398.535156 28.875 C 398.636719 28.78125 398.683594 28.644531 398.65625 28.511719 L 398.386719 27.273438 C 398.347656 27.097656 398.4375 26.921875 398.601562 26.847656 L 399.328125 26.523438 C 399.492188 26.449219 399.683594 26.5 399.785156 26.644531 L 400.535156 27.667969 C 400.613281 27.78125 400.75 27.835938 400.882812 27.820312 C 401.125 27.792969 401.363281 27.785156 401.601562 27.800781 C 401.738281 27.808594 401.871094 27.742188 401.945312 27.628906 L 402.628906 26.5625 C 402.726562 26.414062 402.914062 26.351562 403.082031 26.414062 L 403.828125 26.699219 C 403.992188 26.761719 404.089844 26.933594 404.0625 27.109375 L 403.867188 28.359375 C 403.84375 28.496094 403.898438 28.632812 404.007812 28.714844 C 404.195312 28.863281 404.367188 29.027344 404.53125 29.210938 C 404.621094 29.3125 404.757812 29.359375 404.890625 29.328125 L 406.132812 29.0625 C 406.308594 29.023438 406.484375 29.113281 406.554688 29.273438 L 406.882812 30.003906 C 406.957031 30.164062 406.902344 30.355469 406.761719 30.460938 L 405.734375 31.207031 C 405.625 31.289062 405.566406 31.421875 405.582031 31.558594 C 405.609375 31.796875 405.617188 32.039062 405.601562 32.277344 C 405.597656 32.414062 405.660156 32.542969 405.777344 32.617188 L 406.839844 33.304688 C 406.992188 33.398438 407.054688 33.589844 406.988281 33.753906 L 406.707031 34.5 C 406.644531 34.664062 406.472656 34.765625 406.296875 34.738281 L 405.042969 34.539062 C 404.910156 34.519531 404.773438 34.574219 404.6875 34.679688 C 404.539062 34.867188 404.375 35.042969 404.195312 35.203125 C 404.09375 35.292969 404.046875 35.433594 404.074219 35.566406 L 404.34375 36.804688 C 404.378906 36.980469 404.292969 37.15625 404.128906 37.230469 L 403.402344 37.554688 C 403.238281 37.628906 403.046875 37.578125 402.941406 37.433594 L 402.195312 36.40625 C 402.113281 36.296875 401.980469 36.242188 401.84375 36.257812 C 401.605469 36.285156 401.363281 36.289062 401.125 36.277344 C 400.988281 36.269531 400.859375 36.332031 400.785156 36.449219 L 400.097656 37.515625 C 400.003906 37.664062 399.816406 37.726562 399.648438 37.664062 L 398.902344 37.378906 C 398.738281 37.316406 398.636719 37.144531 398.664062 36.96875 L 398.863281 35.714844 C 398.886719 35.582031 398.828125 35.445312 398.722656 35.359375 C 398.535156 35.210938 398.359375 35.046875 398.199219 34.867188 C 398.109375 34.765625 397.96875 34.71875 397.835938 34.746094 L 396.597656 35.015625 C 396.421875 35.054688 396.246094 34.964844 396.171875 34.800781 L 395.847656 34.074219 C 395.773438 33.910156 395.824219 33.722656 395.96875 33.617188 L 396.992188 32.871094 C 397.105469 32.789062 397.160156 32.65625 397.144531 32.519531 C 397.117188 32.277344 397.113281 32.039062 397.125 31.800781 C 397.132812 31.664062 397.070312 31.53125 396.953125 31.457031 L 395.886719 30.773438 C 395.738281 30.675781 395.675781 30.488281 395.738281 30.324219 Z M 418.863281 22.480469 C 412.773438 17.386719 404.703125 14.578125 396.144531 14.578125 C 387.582031 14.578125 379.511719 17.386719 373.421875 22.480469 C 367.195312 27.691406 363.765625 34.65625 363.765625 42.097656 C 363.765625 49.539062 367.195312 56.503906 373.421875 61.714844 C 379.511719 66.808594 387.582031 69.617188 396.144531 69.617188 C 399.800781 69.617188 403.386719 69.101562 406.8125 68.089844 L 422.476562 73.960938 C 422.980469 74.152344 423.507812 74.246094 424.039062 74.246094 C 425.453125 74.246094 426.796875 73.554688 427.632812 72.394531 C 428.46875 71.230469 428.6875 69.777344 428.226562 68.410156 L 424.070312 56.039062 C 426.980469 51.828125 428.519531 47.015625 428.519531 42.097656 C 428.519531 34.65625 425.089844 27.691406 418.863281 22.480469 " fill-opacity="1" fill-rule="nonzero"/></g><path fill="#19baaa" d="M 387.179688 49.507812 C 386.332031 49.574219 385.695312 50.316406 385.761719 51.164062 C 385.828125 52.011719 386.566406 52.644531 387.417969 52.582031 C 388.265625 52.515625 388.898438 51.773438 388.835938 50.925781 C 388.769531 50.078125 388.027344 49.445312 387.179688 49.507812 " fill-opacity="1" fill-rule="nonzero"/><path fill="#19baaa" d="M 409.941406 49.613281 C 408.828125 50.273438 408.457031 51.710938 409.121094 52.824219 C 409.78125 53.9375 411.21875 54.308594 412.332031 53.644531 C 413.449219 52.984375 413.816406 51.546875 413.15625 50.433594 C 412.492188 49.320312 411.054688 48.949219 409.941406 49.613281 " fill-opacity="1" fill-rule="nonzero"/><path fill="#19baaa" d="M 332.910156 19.894531 C 334.195312 19.726562 335.105469 18.554688 334.9375 17.269531 C 334.773438 15.984375 333.597656 15.078125 332.3125 15.242188 C 331.027344 15.40625 330.121094 16.582031 330.285156 17.867188 C 330.453125 19.152344 331.625 20.058594 332.910156 19.894531 " fill-opacity="1" fill-rule="nonzero"/><path fill="#19baaa" d="M 332.390625 32.5 C 331.007812 33.183594 330.441406 34.855469 331.125 36.238281 C 331.804688 37.621094 333.480469 38.191406 334.863281 37.507812 C 336.246094 36.824219 336.8125 35.152344 336.128906 33.769531 C 335.449219 32.386719 333.773438 31.820312 332.390625 32.5 " fill-opacity="1" fill-rule="nonzero"/><path fill="#19baaa" d="M 342.742188 44 C 341.894531 44.066406 341.257812 44.808594 341.324219 45.65625 C 341.390625 46.503906 342.128906 47.136719 342.980469 47.074219 C 343.828125 47.007812 344.460938 46.265625 344.398438 45.417969 C 344.332031 44.570312 343.589844 43.9375 342.742188 44 " fill-opacity="1" fill-rule="nonzero"/><path fill="#19baaa" d="M 345.222656 27.316406 C 346.210938 28.074219 347.632812 27.886719 348.390625 26.894531 C 349.148438 25.902344 348.960938 24.484375 347.96875 23.726562 C 346.976562 22.96875 345.558594 23.15625 344.800781 24.148438 C 344.042969 25.136719 344.230469 26.558594 345.222656 27.316406 " fill-opacity="1" fill-rule="nonzero"/><path fill="#19baaa" d="M 367.085938 20.363281 C 366.300781 20.691406 365.933594 21.597656 366.265625 22.378906 C 366.597656 23.164062 367.5 23.53125 368.285156 23.199219 C 369.070312 22.867188 369.4375 21.964844 369.105469 21.179688 C 368.773438 20.398438 367.867188 20.03125 367.085938 20.363281 " fill-opacity="1" fill-rule="nonzero"/><path fill="#19baaa" d="M 359.085938 15.613281 C 360.121094 15.148438 360.585938 13.933594 360.121094 12.902344 C 359.65625 11.867188 358.441406 11.402344 357.410156 11.867188 C 356.375 12.332031 355.910156 13.546875 356.375 14.578125 C 356.839844 15.613281 358.054688 16.078125 359.085938 15.613281 " fill-opacity="1" fill-rule="nonzero"/><path fill="#19baaa" d="M 345.144531 11.460938 C 345.976562 11.277344 346.503906 10.457031 346.320312 9.625 C 346.136719 8.796875 345.316406 8.269531 344.484375 8.453125 C 343.65625 8.632812 343.128906 9.453125 343.3125 10.285156 C 343.492188 11.117188 344.316406 11.640625 345.144531 11.460938 " fill-opacity="1" fill-rule="nonzero"/><path fill="#19baaa" d="M 358.164062 28.445312 C 357.5625 28.492188 357.109375 29.019531 357.15625 29.621094 C 357.203125 30.222656 357.730469 30.675781 358.332031 30.628906 C 358.933594 30.582031 359.386719 30.054688 359.339844 29.453125 C 359.292969 28.851562 358.765625 28.402344 358.164062 28.445312 " fill-opacity="1" fill-rule="nonzero"/><path fill="#19baaa" d="M 351.464844 37.316406 C 350.519531 37.941406 350.261719 39.214844 350.886719 40.160156 C 351.511719 41.105469 352.789062 41.363281 353.730469 40.738281 C 354.675781 40.113281 354.933594 38.839844 354.308594 37.894531 C 353.683594 36.949219 352.410156 36.691406 351.464844 37.316406 " fill-opacity="1" fill-rule="nonzero"/><path fill="#19baaa" d="M 370.859375 21.429688 C 371.070312 21.238281 371.285156 21.046875 371.503906 20.859375 L 370.976562 21.226562 C 370.910156 21.273438 370.871094 21.347656 370.859375 21.429688 " fill-opacity="1" fill-rule="nonzero"/><g clip-path="url(#id2)"><path fill="#19baaa" d="M 360.355469 30.621094 L 360.765625 31.15625 C 360.824219 31.234375 360.824219 31.339844 360.761719 31.410156 L 360.484375 31.734375 C 360.421875 31.804688 360.320312 31.824219 360.234375 31.777344 L 359.644531 31.453125 C 359.578125 31.417969 359.5 31.421875 359.4375 31.460938 C 359.332031 31.527344 359.21875 31.585938 359.097656 31.632812 C 359.03125 31.660156 358.980469 31.722656 358.972656 31.792969 L 358.882812 32.464844 C 358.871094 32.558594 358.792969 32.628906 358.699219 32.636719 L 358.277344 32.671875 C 358.179688 32.679688 358.09375 32.617188 358.066406 32.527344 L 357.878906 31.878906 C 357.855469 31.808594 357.800781 31.753906 357.730469 31.738281 C 357.605469 31.710938 357.484375 31.667969 357.367188 31.621094 C 357.296875 31.589844 357.222656 31.601562 357.164062 31.644531 L 356.628906 32.054688 C 356.550781 32.113281 356.445312 32.109375 356.375 32.050781 L 356.050781 31.773438 C 355.980469 31.710938 355.960938 31.605469 356.007812 31.523438 L 356.332031 30.933594 C 356.367188 30.867188 356.363281 30.789062 356.324219 30.726562 C 356.257812 30.621094 356.199219 30.507812 356.152344 30.386719 C 356.125 30.320312 356.0625 30.269531 355.992188 30.261719 L 355.320312 30.171875 C 355.226562 30.160156 355.15625 30.082031 355.148438 29.988281 L 355.113281 29.566406 C 355.105469 29.472656 355.167969 29.382812 355.257812 29.355469 L 355.90625 29.167969 C 355.976562 29.148438 356.027344 29.089844 356.046875 29.019531 C 356.074219 28.894531 356.117188 28.773438 356.164062 28.65625 C 356.195312 28.585938 356.183594 28.511719 356.140625 28.453125 L 355.730469 27.917969 C 355.671875 27.84375 355.675781 27.738281 355.734375 27.664062 L 356.011719 27.34375 C 356.074219 27.269531 356.179688 27.25 356.261719 27.296875 L 356.851562 27.621094 C 356.917969 27.65625 356.996094 27.652344 357.058594 27.613281 C 357.164062 27.546875 357.277344 27.488281 357.398438 27.441406 C 357.464844 27.414062 357.515625 27.351562 357.523438 27.28125 L 357.613281 26.609375 C 357.625 26.515625 357.703125 26.445312 357.796875 26.4375 L 358.21875 26.40625 C 358.316406 26.398438 358.402344 26.457031 358.429688 26.546875 L 358.617188 27.195312 C 358.640625 27.265625 358.695312 27.320312 358.765625 27.335938 C 358.890625 27.363281 359.015625 27.40625 359.128906 27.453125 C 359.199219 27.484375 359.273438 27.476562 359.332031 27.429688 L 359.867188 27.019531 C 359.945312 26.960938 360.050781 26.964844 360.121094 27.027344 L 360.445312 27.300781 C 360.515625 27.363281 360.535156 27.46875 360.488281 27.550781 L 360.164062 28.144531 C 360.128906 28.207031 360.132812 28.285156 360.171875 28.347656 C 360.238281 28.453125 360.296875 28.570312 360.34375 28.6875 C 360.371094 28.753906 360.433594 28.804688 360.503906 28.8125 L 361.175781 28.902344 C 361.269531 28.914062 361.34375 28.992188 361.347656 29.085938 L 361.382812 29.507812 C 361.390625 29.605469 361.328125 29.691406 361.238281 29.71875 L 360.589844 29.90625 C 360.519531 29.929688 360.46875 29.984375 360.449219 30.054688 C 360.421875 30.179688 360.382812 30.304688 360.332031 30.417969 C 360.304688 30.488281 360.3125 30.5625 360.355469 30.621094 Z M 358.429688 39.800781 L 358.269531 40.582031 C 358.234375 40.757812 358.082031 40.882812 357.902344 40.886719 L 356.636719 40.894531 C 356.5 40.894531 356.375 40.972656 356.308594 41.09375 C 356.191406 41.300781 356.058594 41.5 355.90625 41.6875 C 355.820312 41.792969 355.796875 41.9375 355.847656 42.066406 L 356.316406 43.246094 C 356.378906 43.410156 356.320312 43.597656 356.171875 43.695312 L 355.507812 44.136719 C 355.359375 44.234375 355.164062 44.21875 355.035156 44.09375 L 354.132812 43.203125 C 354.035156 43.105469 353.890625 43.074219 353.761719 43.109375 C 353.527344 43.175781 353.292969 43.222656 353.054688 43.246094 C 352.917969 43.261719 352.800781 43.347656 352.746094 43.472656 L 352.242188 44.636719 C 352.171875 44.800781 351.996094 44.890625 351.824219 44.855469 L 351.042969 44.699219 C 350.867188 44.664062 350.742188 44.511719 350.738281 44.332031 L 350.730469 43.066406 C 350.730469 42.925781 350.652344 42.804688 350.53125 42.734375 C 350.324219 42.621094 350.125 42.488281 349.9375 42.335938 C 349.832031 42.25 349.6875 42.226562 349.558594 42.277344 L 348.378906 42.742188 C 348.214844 42.808594 348.027344 42.75 347.925781 42.601562 L 347.488281 41.9375 C 347.386719 41.789062 347.40625 41.589844 347.53125 41.464844 L 348.421875 40.558594 C 348.515625 40.460938 348.550781 40.320312 348.515625 40.1875 C 348.449219 39.957031 348.402344 39.722656 348.375 39.484375 C 348.363281 39.347656 348.277344 39.230469 348.152344 39.175781 L 346.988281 38.671875 C 346.824219 38.601562 346.730469 38.425781 346.769531 38.253906 L 346.925781 37.472656 C 346.960938 37.296875 347.113281 37.171875 347.292969 37.167969 L 348.558594 37.160156 C 348.695312 37.160156 348.820312 37.082031 348.886719 36.964844 C 349.003906 36.753906 349.136719 36.554688 349.289062 36.367188 C 349.375 36.261719 349.398438 36.117188 349.347656 35.988281 L 348.882812 34.808594 C 348.816406 34.644531 348.875 34.457031 349.023438 34.359375 L 349.6875 33.917969 C 349.835938 33.820312 350.035156 33.835938 350.160156 33.960938 L 351.066406 34.851562 C 351.164062 34.949219 351.304688 34.980469 351.4375 34.945312 C 351.667969 34.878906 351.902344 34.832031 352.140625 34.808594 C 352.277344 34.792969 352.394531 34.707031 352.449219 34.582031 L 352.953125 33.417969 C 353.023438 33.253906 353.199219 33.164062 353.371094 33.199219 L 354.15625 33.355469 C 354.328125 33.390625 354.453125 33.546875 354.457031 33.722656 L 354.464844 34.992188 C 354.464844 35.128906 354.542969 35.25 354.664062 35.320312 C 354.871094 35.433594 355.070312 35.566406 355.257812 35.71875 C 355.367188 35.804688 355.507812 35.828125 355.636719 35.777344 L 356.816406 35.3125 C 356.980469 35.246094 357.171875 35.304688 357.269531 35.453125 L 357.710938 36.117188 C 357.808594 36.265625 357.789062 36.464844 357.664062 36.589844 L 356.773438 37.496094 C 356.679688 37.59375 356.644531 37.734375 356.683594 37.867188 C 356.75 38.097656 356.792969 38.332031 356.820312 38.570312 C 356.832031 38.707031 356.917969 38.824219 357.042969 38.878906 L 358.207031 39.382812 C 358.371094 39.453125 358.464844 39.628906 358.429688 39.800781 Z M 347.074219 45.789062 L 346.160156 46.058594 C 346.058594 46.085938 345.984375 46.167969 345.960938 46.265625 C 345.921875 46.445312 345.863281 46.613281 345.796875 46.777344 C 345.753906 46.875 345.765625 46.984375 345.828125 47.066406 L 346.410156 47.820312 C 346.488281 47.925781 346.484375 48.074219 346.398438 48.175781 L 346.011719 48.628906 C 345.921875 48.730469 345.777344 48.757812 345.660156 48.691406 L 344.824219 48.234375 C 344.734375 48.1875 344.625 48.191406 344.539062 48.246094 C 344.386719 48.339844 344.226562 48.421875 344.058594 48.488281 C 343.960938 48.527344 343.894531 48.613281 343.878906 48.714844 L 343.757812 49.660156 C 343.738281 49.792969 343.628906 49.894531 343.496094 49.902344 L 342.902344 49.949219 C 342.765625 49.960938 342.644531 49.875 342.609375 49.746094 L 342.339844 48.832031 C 342.3125 48.734375 342.230469 48.660156 342.128906 48.636719 C 341.953125 48.597656 341.78125 48.539062 341.617188 48.46875 C 341.523438 48.429688 341.414062 48.441406 341.332031 48.503906 L 340.578125 49.082031 C 340.472656 49.164062 340.324219 49.160156 340.222656 49.074219 L 339.769531 48.683594 C 339.667969 48.597656 339.640625 48.453125 339.703125 48.335938 L 340.160156 47.5 C 340.210938 47.410156 340.207031 47.300781 340.152344 47.214844 C 340.058594 47.0625 339.976562 46.902344 339.90625 46.734375 C 339.871094 46.636719 339.785156 46.570312 339.683594 46.554688 L 338.738281 46.433594 C 338.605469 46.414062 338.503906 46.304688 338.492188 46.171875 L 338.449219 45.574219 C 338.4375 45.441406 338.523438 45.320312 338.648438 45.285156 L 339.5625 45.015625 C 339.660156 44.988281 339.734375 44.90625 339.757812 44.804688 C 339.800781 44.628906 339.855469 44.457031 339.925781 44.292969 C 339.96875 44.199219 339.957031 44.089844 339.890625 44.007812 L 339.3125 43.253906 C 339.230469 43.148438 339.234375 43 339.324219 42.898438 L 339.710938 42.445312 C 339.800781 42.34375 339.945312 42.316406 340.0625 42.378906 L 340.898438 42.839844 C 340.988281 42.886719 341.097656 42.882812 341.183594 42.828125 C 341.335938 42.734375 341.496094 42.652344 341.664062 42.585938 C 341.757812 42.546875 341.828125 42.460938 341.839844 42.359375 L 341.964844 41.414062 C 341.984375 41.28125 342.089844 41.179688 342.222656 41.171875 L 342.820312 41.125 C 342.953125 41.113281 343.078125 41.199219 343.113281 41.328125 L 343.382812 42.238281 C 343.410156 42.339844 343.492188 42.414062 343.589844 42.4375 C 343.769531 42.476562 343.9375 42.535156 344.105469 42.605469 C 344.199219 42.644531 344.308594 42.632812 344.390625 42.570312 L 345.144531 41.988281 C 345.25 41.910156 345.398438 41.914062 345.5 42 L 345.953125 42.390625 C 346.054688 42.476562 346.082031 42.621094 346.019531 42.738281 L 345.5625 43.574219 C 345.511719 43.664062 345.515625 43.773438 345.570312 43.859375 C 345.664062 44.011719 345.746094 44.171875 345.8125 44.339844 C 345.851562 44.4375 345.9375 44.503906 346.039062 44.515625 L 346.984375 44.640625 C 347.117188 44.660156 347.21875 44.765625 347.230469 44.902344 L 347.273438 45.496094 C 347.285156 45.628906 347.199219 45.753906 347.074219 45.789062 Z M 338.203125 38.523438 C 338.054688 38.71875 337.890625 38.90625 337.714844 39.082031 C 337.527344 39.269531 337.457031 39.542969 337.519531 39.796875 L 337.863281 41.140625 C 337.953125 41.488281 337.785156 41.847656 337.464844 42.007812 L 336.847656 42.3125 C 336.527344 42.46875 336.140625 42.382812 335.917969 42.101562 L 335.0625 41.011719 C 334.898438 40.804688 334.636719 40.695312 334.375 40.726562 C 334.128906 40.761719 333.878906 40.777344 333.632812 40.777344 C 333.367188 40.777344 333.121094 40.917969 332.988281 41.148438 L 332.28125 42.339844 C 332.101562 42.644531 331.726562 42.785156 331.386719 42.667969 L 330.738281 42.449219 C 330.398438 42.332031 330.1875 41.996094 330.230469 41.640625 L 330.394531 40.269531 C 330.425781 40.003906 330.320312 39.742188 330.109375 39.582031 C 329.914062 39.429688 329.726562 39.265625 329.546875 39.089844 C 329.363281 38.902344 329.089844 38.832031 328.832031 38.898438 L 327.488281 39.242188 C 327.144531 39.328125 326.78125 39.164062 326.625 38.84375 L 326.320312 38.226562 C 326.160156 37.90625 326.25 37.515625 326.527344 37.296875 L 327.617188 36.4375 C 327.828125 36.277344 327.9375 36.015625 327.902344 35.753906 C 327.871094 35.503906 327.855469 35.257812 327.855469 35.011719 C 327.855469 34.746094 327.710938 34.5 327.484375 34.367188 L 326.292969 33.660156 C 325.984375 33.476562 325.84375 33.105469 325.960938 32.765625 L 326.179688 32.117188 C 326.296875 31.777344 326.632812 31.566406 326.988281 31.609375 L 328.363281 31.773438 C 328.625 31.804688 328.886719 31.699219 329.050781 31.488281 C 329.199219 31.292969 329.363281 31.105469 329.539062 30.925781 C 329.726562 30.742188 329.796875 30.46875 329.734375 30.210938 L 329.390625 28.867188 C 329.300781 28.523438 329.46875 28.160156 329.789062 28.003906 L 330.40625 27.699219 C 330.726562 27.539062 331.113281 27.628906 331.335938 27.910156 L 332.191406 29 C 332.355469 29.207031 332.617188 29.316406 332.878906 29.28125 C 333.125 29.25 333.375 29.234375 333.621094 29.234375 C 333.886719 29.234375 334.132812 29.089844 334.265625 28.863281 L 334.972656 27.671875 C 335.152344 27.363281 335.527344 27.226562 335.863281 27.339844 L 336.515625 27.5625 C 336.855469 27.675781 337.066406 28.011719 337.023438 28.367188 L 336.859375 29.742188 C 336.828125 30.003906 336.933594 30.265625 337.144531 30.429688 C 337.339844 30.578125 337.527344 30.742188 337.707031 30.917969 C 337.890625 31.105469 338.164062 31.175781 338.421875 31.113281 L 339.765625 30.769531 C 340.109375 30.679688 340.472656 30.847656 340.628906 31.167969 L 340.933594 31.785156 C 341.09375 32.105469 341.003906 32.492188 340.722656 32.714844 L 339.632812 33.570312 C 339.425781 33.734375 339.316406 33.992188 339.351562 34.257812 C 339.382812 34.503906 339.398438 34.75 339.398438 35 C 339.398438 35.265625 339.542969 35.507812 339.769531 35.644531 L 340.960938 36.347656 C 341.269531 36.53125 341.40625 36.902344 341.292969 37.242188 L 341.070312 37.894531 C 340.957031 38.230469 340.621094 38.445312 340.265625 38.402344 L 338.890625 38.234375 C 338.628906 38.203125 338.367188 38.3125 338.203125 38.523438 Z M 326.347656 17.457031 L 327.445312 17.070312 C 327.65625 16.996094 327.8125 16.820312 327.859375 16.601562 C 327.898438 16.398438 327.953125 16.195312 328.023438 16 C 328.09375 15.789062 328.046875 15.554688 327.902344 15.386719 L 327.148438 14.5 C 326.953125 14.273438 326.945312 13.9375 327.128906 13.699219 L 327.480469 13.242188 C 327.664062 13.003906 327.992188 12.929688 328.261719 13.058594 L 329.308594 13.566406 C 329.507812 13.660156 329.746094 13.648438 329.933594 13.523438 C 330.105469 13.410156 330.285156 13.304688 330.476562 13.214844 C 330.675781 13.113281 330.804688 12.917969 330.824219 12.695312 L 330.917969 11.535156 C 330.941406 11.234375 331.171875 10.996094 331.46875 10.957031 L 332.042969 10.882812 C 332.339844 10.84375 332.625 11.019531 332.726562 11.304688 L 333.109375 12.402344 C 333.183594 12.613281 333.359375 12.769531 333.578125 12.8125 C 333.78125 12.855469 333.984375 12.910156 334.179688 12.976562 C 334.390625 13.050781 334.625 13.003906 334.792969 12.859375 L 335.679688 12.105469 C 335.910156 11.910156 336.242188 11.902344 336.480469 12.085938 L 336.9375 12.4375 C 337.175781 12.621094 337.253906 12.945312 337.121094 13.21875 L 336.617188 14.265625 C 336.519531 14.464844 336.535156 14.703125 336.65625 14.886719 C 336.769531 15.0625 336.875 15.242188 336.96875 15.429688 C 337.066406 15.628906 337.261719 15.761719 337.484375 15.777344 L 338.644531 15.871094 C 338.945312 15.898438 339.1875 16.128906 339.226562 16.425781 L 339.300781 17 C 339.335938 17.296875 339.164062 17.582031 338.878906 17.679688 L 337.777344 18.0625 C 337.570312 18.136719 337.410156 18.316406 337.367188 18.53125 C 337.324219 18.738281 337.269531 18.941406 337.203125 19.136719 C 337.132812 19.347656 337.175781 19.582031 337.320312 19.75 L 338.078125 20.632812 C 338.273438 20.863281 338.28125 21.195312 338.097656 21.433594 L 337.742188 21.890625 C 337.558594 22.128906 337.234375 22.207031 336.964844 22.078125 L 335.917969 21.570312 C 335.714844 21.472656 335.476562 21.488281 335.292969 21.609375 C 335.121094 21.726562 334.9375 21.828125 334.75 21.921875 C 334.550781 22.019531 334.417969 22.21875 334.402344 22.4375 L 334.308594 23.601562 C 334.285156 23.898438 334.054688 24.140625 333.753906 24.179688 L 333.179688 24.253906 C 332.882812 24.292969 332.597656 24.117188 332.5 23.832031 L 332.117188 22.734375 C 332.042969 22.523438 331.863281 22.367188 331.648438 22.320312 C 331.441406 22.28125 331.242188 22.222656 331.042969 22.15625 C 330.832031 22.085938 330.597656 22.132812 330.429688 22.277344 L 329.542969 23.03125 C 329.316406 23.226562 328.980469 23.234375 328.742188 23.050781 L 328.285156 22.695312 C 328.046875 22.511719 327.972656 22.1875 328.101562 21.917969 L 328.609375 20.871094 C 328.707031 20.667969 328.691406 20.433594 328.570312 20.246094 C 328.453125 20.074219 328.347656 19.894531 328.257812 19.703125 C 328.160156 19.503906 327.960938 19.375 327.738281 19.355469 L 326.578125 19.261719 C 326.28125 19.238281 326.039062 19.007812 326 18.710938 L 325.925781 18.136719 C 325.886719 17.839844 326.0625 17.554688 326.347656 17.457031 Z M 340.40625 25.492188 L 341.722656 25.027344 C 341.863281 24.976562 341.964844 24.851562 341.992188 24.703125 C 342.039062 24.445312 342.105469 24.191406 342.195312 23.9375 C 342.246094 23.796875 342.21875 23.640625 342.121094 23.523438 L 341.210938 22.464844 C 341.085938 22.316406 341.078125 22.097656 341.195312 21.945312 L 341.730469 21.246094 C 341.851562 21.089844 342.0625 21.039062 342.238281 21.125 L 343.5 21.726562 C 343.636719 21.789062 343.796875 21.773438 343.917969 21.6875 C 344.136719 21.535156 344.367188 21.402344 344.605469 21.292969 C 344.742188 21.226562 344.832031 21.097656 344.84375 20.945312 L 344.949219 19.554688 C 344.964844 19.359375 345.113281 19.203125 345.308594 19.175781 L 346.179688 19.058594 C 346.375 19.035156 346.558594 19.148438 346.625 19.332031 L 347.089844 20.648438 C 347.140625 20.789062 347.265625 20.894531 347.414062 20.917969 C 347.671875 20.964844 347.925781 21.03125 348.175781 21.121094 C 348.320312 21.171875 348.476562 21.148438 348.589844 21.046875 L 349.652344 20.140625 C 349.800781 20.011719 350.019531 20.003906 350.171875 20.125 L 350.871094 20.660156 C 351.027344 20.777344 351.078125 20.988281 350.992188 21.167969 L 350.390625 22.425781 C 350.328125 22.5625 350.34375 22.722656 350.429688 22.847656 C 350.582031 23.0625 350.714844 23.292969 350.824219 23.53125 C 350.890625 23.667969 351.019531 23.761719 351.171875 23.773438 L 352.5625 23.875 C 352.757812 23.890625 352.917969 24.039062 352.941406 24.234375 L 353.058594 25.105469 C 353.082031 25.300781 352.96875 25.484375 352.785156 25.550781 L 351.46875 26.015625 C 351.328125 26.066406 351.222656 26.191406 351.199219 26.339844 C 351.152344 26.597656 351.085938 26.851562 350.996094 27.101562 C 350.945312 27.246094 350.96875 27.402344 351.070312 27.515625 L 351.976562 28.578125 C 352.105469 28.726562 352.113281 28.941406 351.992188 29.097656 L 351.457031 29.796875 C 351.339844 29.953125 351.128906 30.003906 350.949219 29.917969 L 349.691406 29.316406 C 349.554688 29.253906 349.394531 29.269531 349.269531 29.355469 C 349.050781 29.507812 348.824219 29.636719 348.585938 29.75 C 348.449219 29.8125 348.355469 29.945312 348.34375 30.09375 L 348.238281 31.488281 C 348.226562 31.683594 348.074219 31.839844 347.882812 31.867188 L 347.011719 31.980469 C 346.816406 32.007812 346.628906 31.894531 346.566406 31.710938 L 346.101562 30.394531 C 346.050781 30.25 345.925781 30.148438 345.777344 30.125 C 345.519531 30.078125 345.261719 30.011719 345.011719 29.917969 C 344.871094 29.867188 344.714844 29.894531 344.597656 29.992188 L 343.539062 30.902344 C 343.390625 31.03125 343.171875 31.035156 343.015625 30.917969 L 342.320312 30.382812 C 342.164062 30.265625 342.113281 30.054688 342.195312 29.875 L 342.796875 28.617188 C 342.863281 28.480469 342.847656 28.320312 342.761719 28.195312 C 342.609375 27.976562 342.476562 27.75 342.363281 27.511719 C 342.300781 27.375 342.167969 27.28125 342.019531 27.269531 L 340.628906 27.164062 C 340.433594 27.152344 340.273438 27 340.246094 26.808594 L 340.132812 25.9375 C 340.105469 25.742188 340.21875 25.554688 340.40625 25.492188 Z M 340.609375 10.289062 L 341.476562 9.898438 C 341.570312 9.855469 341.632812 9.765625 341.644531 9.664062 C 341.660156 9.480469 341.691406 9.304688 341.738281 9.132812 C 341.765625 9.03125 341.738281 8.925781 341.664062 8.855469 L 340.984375 8.1875 C 340.890625 8.09375 340.875 7.945312 340.945312 7.835938 L 341.269531 7.332031 C 341.339844 7.21875 341.480469 7.171875 341.605469 7.21875 L 342.496094 7.554688 C 342.59375 7.59375 342.699219 7.570312 342.78125 7.507812 C 342.917969 7.390625 343.066406 7.289062 343.222656 7.199219 C 343.308594 7.148438 343.367188 7.050781 343.367188 6.949219 L 343.359375 5.996094 C 343.355469 5.863281 343.449219 5.75 343.578125 5.71875 L 344.164062 5.59375 C 344.296875 5.5625 344.429688 5.628906 344.484375 5.75 L 344.875 6.617188 C 344.917969 6.710938 345.007812 6.773438 345.109375 6.785156 C 345.289062 6.800781 345.46875 6.832031 345.640625 6.878906 C 345.738281 6.90625 345.84375 6.878906 345.917969 6.804688 L 346.585938 6.125 C 346.679688 6.03125 346.824219 6.015625 346.9375 6.085938 L 347.441406 6.410156 C 347.554688 6.480469 347.601562 6.621094 347.554688 6.746094 L 347.21875 7.636719 C 347.179688 7.734375 347.199219 7.839844 347.265625 7.917969 C 347.378906 8.058594 347.484375 8.203125 347.574219 8.363281 C 347.625 8.449219 347.71875 8.507812 347.824219 8.503906 L 348.773438 8.5 C 348.910156 8.496094 349.023438 8.589844 349.054688 8.71875 L 349.179688 9.304688 C 349.210938 9.4375 349.144531 9.566406 349.023438 9.621094 L 348.152344 10.015625 C 348.058594 10.058594 348 10.148438 347.988281 10.25 C 347.972656 10.429688 347.941406 10.605469 347.894531 10.78125 C 347.867188 10.878906 347.894531 10.984375 347.96875 11.058594 L 348.644531 11.722656 C 348.742188 11.816406 348.757812 11.964844 348.6875 12.078125 L 348.363281 12.582031 C 348.292969 12.695312 348.148438 12.742188 348.023438 12.695312 L 347.136719 12.355469 C 347.039062 12.320312 346.933594 12.339844 346.851562 12.40625 C 346.714844 12.519531 346.566406 12.625 346.410156 12.714844 C 346.320312 12.765625 346.265625 12.859375 346.265625 12.960938 L 346.273438 13.914062 C 346.273438 14.046875 346.183594 14.164062 346.050781 14.191406 L 345.46875 14.320312 C 345.335938 14.347656 345.203125 14.28125 345.148438 14.160156 L 344.757812 13.292969 C 344.714844 13.199219 344.625 13.136719 344.523438 13.128906 C 344.34375 13.113281 344.164062 13.078125 343.992188 13.03125 C 343.894531 13.007812 343.785156 13.035156 343.714844 13.105469 L 343.046875 13.785156 C 342.953125 13.878906 342.804688 13.898438 342.695312 13.824219 L 342.191406 13.503906 C 342.078125 13.429688 342.03125 13.289062 342.078125 13.164062 L 342.414062 12.273438 C 342.453125 12.179688 342.433594 12.070312 342.367188 11.992188 C 342.25 11.855469 342.148438 11.707031 342.058594 11.550781 C 342.007812 11.460938 341.910156 11.40625 341.808594 11.40625 L 340.855469 11.414062 C 340.722656 11.414062 340.609375 11.320312 340.578125 11.191406 L 340.449219 10.605469 C 340.421875 10.476562 340.488281 10.34375 340.609375 10.289062 Z M 352.621094 12.023438 L 352.90625 11.28125 C 352.96875 11.113281 353.140625 11.015625 353.316406 11.042969 L 354.570312 11.238281 C 354.703125 11.261719 354.839844 11.207031 354.925781 11.097656 C 355.074219 10.910156 355.238281 10.738281 355.417969 10.574219 C 355.519531 10.484375 355.566406 10.347656 355.539062 10.214844 L 355.269531 8.972656 C 355.230469 8.800781 355.320312 8.625 355.484375 8.550781 L 356.210938 8.222656 C 356.375 8.152344 356.566406 8.203125 356.671875 8.34375 L 357.417969 9.371094 C 357.496094 9.480469 357.632812 9.539062 357.769531 9.523438 C 358.007812 9.496094 358.25 9.488281 358.484375 9.503906 C 358.621094 9.511719 358.753906 9.445312 358.828125 9.332031 L 359.515625 8.265625 C 359.609375 8.113281 359.796875 8.054688 359.964844 8.117188 L 360.710938 8.398438 C 360.875 8.464844 360.976562 8.636719 360.949219 8.8125 L 360.75 10.0625 C 360.726562 10.199219 360.785156 10.332031 360.890625 10.417969 C 361.078125 10.566406 361.253906 10.730469 361.414062 10.910156 C 361.503906 11.011719 361.640625 11.058594 361.777344 11.03125 L 363.015625 10.761719 C 363.191406 10.726562 363.367188 10.816406 363.441406 10.976562 L 363.765625 11.703125 C 363.839844 11.867188 363.789062 12.058594 363.644531 12.164062 L 362.617188 12.910156 C 362.507812 12.992188 362.453125 13.125 362.46875 13.261719 C 362.496094 13.5 362.5 13.742188 362.488281 13.976562 C 362.480469 14.117188 362.542969 14.246094 362.660156 14.320312 L 363.726562 15.007812 C 363.875 15.101562 363.9375 15.289062 363.875 15.457031 L 363.589844 16.203125 C 363.527344 16.367188 363.355469 16.46875 363.179688 16.4375 L 361.925781 16.242188 C 361.792969 16.21875 361.65625 16.273438 361.570312 16.382812 C 361.421875 16.570312 361.257812 16.746094 361.078125 16.90625 C 360.976562 16.996094 360.929688 17.132812 360.957031 17.269531 L 361.226562 18.507812 C 361.265625 18.679688 361.175781 18.859375 361.011719 18.929688 L 360.285156 19.257812 C 360.121094 19.328125 359.929688 19.28125 359.824219 19.136719 L 359.078125 18.109375 C 359 18 358.863281 17.941406 358.726562 17.957031 C 358.488281 17.984375 358.246094 17.992188 358.011719 17.980469 C 357.875 17.96875 357.742188 18.035156 357.667969 18.152344 L 356.984375 19.21875 C 356.886719 19.367188 356.699219 19.429688 356.53125 19.363281 L 355.785156 19.082031 C 355.621094 19.015625 355.519531 18.847656 355.546875 18.671875 L 355.746094 17.417969 C 355.769531 17.285156 355.710938 17.148438 355.605469 17.0625 C 355.417969 16.914062 355.242188 16.75 355.082031 16.570312 C 354.992188 16.46875 354.855469 16.421875 354.71875 16.449219 L 353.480469 16.71875 C 353.304688 16.757812 353.128906 16.667969 353.058594 16.503906 L 352.730469 15.777344 C 352.65625 15.613281 352.707031 15.421875 352.851562 15.316406 L 353.878906 14.570312 C 353.988281 14.492188 354.042969 14.355469 354.027344 14.21875 C 354 13.980469 353.996094 13.742188 354.007812 13.503906 C 354.015625 13.367188 353.953125 13.234375 353.835938 13.160156 L 352.769531 12.476562 C 352.621094 12.378906 352.558594 12.191406 352.621094 12.023438 Z M 361.261719 32.597656 C 361.335938 32.308594 361.601562 32.109375 361.902344 32.121094 L 363.066406 32.171875 C 363.121094 32.171875 363.175781 32.167969 363.226562 32.15625 C 363.464844 31.574219 363.71875 31 363.996094 30.429688 L 363.738281 29.671875 C 363.640625 29.386719 363.757812 29.074219 364.015625 28.921875 L 364.511719 28.625 C 364.664062 28.535156 364.839844 28.515625 365.003906 28.558594 C 365.734375 27.3125 366.570312 26.113281 367.503906 24.960938 C 367.480469 24.957031 367.460938 24.957031 367.4375 24.957031 C 367.335938 24.949219 367.238281 24.996094 367.179688 25.078125 L 366.648438 25.867188 C 366.574219 25.980469 366.429688 26.023438 366.308594 25.972656 L 365.753906 25.746094 C 365.628906 25.699219 365.558594 25.566406 365.582031 25.4375 L 365.75 24.5 C 365.769531 24.398438 365.726562 24.296875 365.648438 24.230469 C 365.511719 24.117188 365.382812 23.992188 365.265625 23.851562 C 365.199219 23.773438 365.09375 23.738281 364.996094 23.757812 L 364.058594 23.9375 C 363.929688 23.964844 363.796875 23.894531 363.746094 23.769531 L 363.511719 23.21875 C 363.460938 23.097656 363.5 22.953125 363.613281 22.878906 L 364.394531 22.332031 C 364.476562 22.273438 364.523438 22.175781 364.511719 22.074219 C 364.496094 21.890625 364.496094 21.710938 364.507812 21.535156 C 364.515625 21.429688 364.46875 21.332031 364.386719 21.273438 L 363.597656 20.742188 C 363.484375 20.667969 363.441406 20.527344 363.492188 20.402344 L 363.71875 19.847656 C 363.765625 19.726562 363.898438 19.652344 364.027344 19.675781 L 364.964844 19.84375 C 365.066406 19.863281 365.167969 19.824219 365.234375 19.746094 C 365.347656 19.609375 365.472656 19.480469 365.613281 19.359375 C 365.691406 19.292969 365.726562 19.191406 365.707031 19.089844 L 365.527344 18.15625 C 365.5 18.023438 365.570312 17.894531 365.695312 17.84375 L 366.246094 17.609375 C 366.367188 17.558594 366.511719 17.597656 366.585938 17.707031 L 367.132812 18.488281 C 367.191406 18.574219 367.289062 18.617188 367.390625 18.609375 C 367.574219 18.589844 367.753906 18.589844 367.929688 18.605469 C 368.035156 18.613281 368.132812 18.566406 368.191406 18.480469 L 368.722656 17.691406 C 368.796875 17.582031 368.9375 17.539062 369.0625 17.589844 L 369.617188 17.8125 C 369.742188 17.863281 369.8125 17.992188 369.789062 18.125 L 369.621094 19.0625 C 369.601562 19.164062 369.640625 19.265625 369.722656 19.332031 C 369.859375 19.445312 369.988281 19.570312 370.105469 19.707031 C 370.171875 19.785156 370.273438 19.824219 370.375 19.804688 L 371.308594 19.621094 C 371.441406 19.597656 371.574219 19.667969 371.625 19.789062 L 371.859375 20.339844 C 371.886719 20.414062 371.886719 20.492188 371.859375 20.558594 C 373.632812 19.078125 375.558594 17.777344 377.609375 16.667969 C 375.976562 13.425781 373.601562 10.453125 370.550781 7.902344 C 364.460938 2.804688 356.390625 0 347.832031 0 C 339.269531 0 331.199219 2.804688 325.109375 7.902344 C 318.882812 13.113281 315.453125 20.078125 315.453125 27.519531 C 315.453125 32.4375 316.992188 37.25 319.902344 41.460938 L 315.746094 53.832031 C 315.285156 55.195312 315.503906 56.652344 316.34375 57.816406 C 317.175781 58.976562 318.519531 59.667969 319.933594 59.667969 C 320.464844 59.667969 320.992188 59.574219 321.496094 59.382812 L 337.160156 53.507812 C 340.585938 54.523438 344.171875 55.039062 347.832031 55.039062 C 353.253906 55.039062 358.476562 53.910156 363.128906 51.789062 C 361.917969 48.714844 361.289062 45.453125 361.289062 42.097656 C 361.289062 40.539062 361.425781 38.996094 361.691406 37.488281 C 361.667969 37.339844 361.695312 37.191406 361.769531 37.0625 C 361.949219 36.152344 362.171875 35.257812 362.441406 34.371094 L 361.453125 33.886719 C 361.183594 33.753906 361.042969 33.449219 361.117188 33.160156 L 361.261719 32.597656 " fill-opacity="1" fill-rule="nonzero"/></g></svg>