<?xml version="1.0" standalone="no"?>
<!DOCTYPE svg PUBLIC "-//W3C//DTD SVG 20010904//EN"
 "http://www.w3.org/TR/2001/REC-SVG-20010904/DTD/svg10.dtd">
<svg version="1.0" xmlns="http://www.w3.org/2000/svg"
 width="2000.000000pt" height="1337.000000pt" viewBox="0 0 2000.000000 1337.000000"
 preserveAspectRatio="xMidYMid meet">

<g transform="translate(0.000000,1337.000000) scale(0.100000,-0.100000)"
fill="#000000" stroke="none">
<path d="M18686 12425 c-75 -57 -91 -59 -592 -52 -441 5 -454 5 -494 -15 -22
-11 -52 -35 -66 -53 -33 -43 -69 -53 -98 -26 -29 27 -77 27 -101 1 -18 -20
-18 -20 -46 6 -20 19 -33 24 -46 19 -21 -9 -76 -11 -89 -3 -5 3 -32 9 -59 12
-45 7 -53 5 -73 -17 -25 -26 -52 -26 -73 -1 -15 18 -50 18 -75 -1 -10 -8 -26
-15 -35 -15 -9 0 -22 -7 -29 -15 -7 -8 -19 -15 -28 -15 -8 0 -30 -11 -48 -25
-18 -14 -41 -25 -51 -25 -18 0 -113 -99 -113 -118 0 -16 -46 -52 -67 -52 -34
0 -73 -38 -73 -71 0 -24 -4 -29 -24 -29 -14 0 -45 -16 -70 -35 -26 -19 -50
-35 -54 -35 -4 0 -31 -20 -59 -46 -47 -40 -56 -44 -87 -39 -19 4 -41 3 -48 -1
-7 -5 -23 -7 -34 -6 -14 2 -29 -7 -42 -23 -12 -15 -23 -21 -27 -15 -3 5 -28
10 -55 10 -44 0 -52 -3 -75 -34 -16 -22 -32 -33 -41 -29 -17 6 -54 -23 -54
-43 0 -7 -11 -26 -25 -42 -14 -17 -25 -37 -25 -46 0 -20 -19 -20 -44 -1 -30
23 -59 18 -90 -14 l-28 -29 -27 30 c-25 28 -29 29 -63 20 -28 -8 -40 -7 -48 3
-6 7 -22 16 -35 19 -14 4 -25 12 -25 20 0 25 -38 49 -70 44 -18 -3 -35 1 -41
9 -6 7 -24 13 -39 13 -15 0 -33 7 -40 15 -7 8 -17 15 -23 15 -5 0 -29 18 -53
40 -24 22 -50 40 -57 40 -8 0 -22 9 -31 19 -10 11 -28 21 -39 23 -12 2 -27 13
-33 26 -6 13 -31 43 -55 67 -38 37 -50 44 -94 47 -38 2 -55 9 -69 26 -13 17
-26 22 -42 19 -20 -3 -24 0 -25 22 -1 14 0 34 1 45 2 19 -36 66 -53 66 -6 0
-18 -7 -28 -16 -22 -20 -39 -11 -39 20 0 13 -8 30 -17 38 -20 18 -144 48 -196
48 -25 0 -38 7 -55 30 -27 36 -47 38 -79 9 -22 -22 -23 -22 -76 -5 -81 25
-177 4 -177 -40 0 -10 -7 -11 -30 -2 -24 8 -35 7 -55 -6 -33 -22 -68 -20 -90
4 -34 38 -64 22 -97 -51 -14 -32 -20 -36 -45 -31 -36 6 -53 20 -53 42 0 10
-12 28 -27 40 -55 43 -203 -1 -203 -61 0 -10 15 -29 32 -43 26 -20 30 -28 21
-37 -10 -10 -16 -9 -30 2 -32 26 -62 39 -88 39 -18 0 -25 5 -25 18 0 26 -40
60 -78 68 -25 5 -38 2 -55 -13 -12 -11 -29 -23 -37 -27 -8 -4 -26 -13 -40 -21
-14 -8 -35 -15 -48 -15 -52 0 -175 -117 -172 -163 4 -47 0 -78 -10 -72 -5 3
-10 21 -10 40 0 42 -35 85 -109 134 -29 20 -60 40 -67 46 -8 6 -21 5 -36 -4
-34 -18 -78 0 -71 29 7 27 -9 44 -65 72 -60 29 -192 31 -265 3 -26 -10 -49
-16 -50 -14 -2 2 -15 23 -30 47 -24 36 -59 62 -85 62 -4 0 -31 -21 -60 -46
-50 -44 -52 -48 -52 -96 0 -34 6 -58 17 -70 19 -21 12 -22 -56 -6 -48 11 -52
10 -77 -13 -15 -13 -47 -55 -72 -92 -43 -66 -44 -70 -33 -105 9 -32 9 -38 -5
-47 -42 -25 -75 -59 -110 -114 -21 -33 -56 -70 -79 -84 -61 -39 -79 -62 -71
-92 6 -25 -7 -35 -20 -14 -5 8 -30 10 -78 6 -83 -7 -184 -53 -224 -103 l-25
-31 -30 34 c-42 47 -81 43 -118 -12 -16 -22 -30 -53 -32 -70 -3 -25 -4 -23 -5
11 -2 42 -21 66 -89 112 -67 46 -128 17 -121 -58 2 -22 3 -40 2 -40 -1 0 -11
16 -23 35 -22 38 -103 95 -135 95 -12 0 -63 -10 -113 -22 l-93 -22 -28 27
c-15 15 -37 27 -48 27 -24 0 -64 -39 -64 -62 0 -9 -6 -21 -14 -28 -8 -6 -16
-21 -18 -33 -5 -34 -59 -59 -127 -58 -53 0 -64 -4 -105 -36 -41 -32 -50 -35
-89 -29 -37 6 -46 3 -64 -16 -11 -13 -26 -33 -32 -45 -7 -13 -21 -23 -33 -23
-11 0 -40 -16 -64 -35 -32 -27 -45 -45 -49 -73 -4 -20 -11 -47 -17 -59 -6 -12
-8 -28 -5 -36 3 -8 -15 -30 -49 -56 -33 -25 -54 -50 -54 -62 0 -10 -5 -27 -11
-38 -17 -26 -3 -84 26 -111 14 -13 25 -31 25 -40 0 -19 30 -50 49 -50 15 0 5
-37 -16 -62 -23 -25 -7 -74 38 -119 21 -21 39 -45 39 -52 0 -7 14 -26 30 -42
47 -45 58 -73 45 -117 -5 -20 -16 -43 -23 -50 -6 -6 -12 -22 -12 -35 0 -17 -6
-23 -23 -23 -13 0 -32 -9 -42 -20 -10 -11 -23 -20 -30 -20 -6 0 -24 -13 -39
-29 -24 -25 -35 -29 -70 -27 -22 2 -49 7 -59 11 -24 10 -100 -1 -137 -20 -16
-8 -42 -15 -59 -15 -38 0 -131 -72 -131 -101 0 -11 -4 -17 -10 -14 -5 3 -10
15 -10 25 0 11 -14 35 -30 53 -17 19 -30 43 -30 53 0 28 -50 94 -91 120 -24
15 -39 33 -44 53 -8 35 -29 55 -76 70 -29 9 -43 8 -74 -5 -31 -12 -59 -15
-139 -10 -135 8 -145 8 -187 5 -29 -2 -44 3 -71 27 -19 16 -49 36 -68 44 -32
13 -37 12 -91 -17 -56 -31 -57 -31 -120 -18 -60 13 -70 12 -166 -12 -98 -24
-104 -25 -143 -9 -54 21 -65 20 -107 -9 -24 -16 -45 -22 -59 -19 -12 3 -32 0
-44 -6 -18 -10 -25 -8 -43 8 -33 31 -71 42 -125 35 -40 -4 -55 -2 -78 15 -21
14 -61 24 -137 33 -94 11 -109 16 -123 36 -8 13 -25 28 -37 34 -12 5 -40 21
-62 34 -51 31 -82 45 -101 45 -23 0 -63 52 -64 81 0 38 -60 89 -105 89 -18 0
-37 5 -40 10 -3 6 -26 9 -50 8 -40 -1 -49 3 -94 45 -56 52 -87 59 -117 26 -44
-49 -114 -60 -145 -23 -14 17 -82 19 -108 2 -16 -10 -25 -6 -62 25 -38 33 -48
37 -100 37 -32 0 -61 5 -65 11 -3 6 -17 8 -32 4 -14 -3 -38 -1 -54 6 -22 9
-31 9 -43 -1 -15 -12 -19 -11 -81 35 -9 7 -19 7 -28 0 -54 -40 -71 -47 -119
-52 -54 -5 -56 -5 -87 31 -25 28 -39 36 -67 36 -24 0 -48 11 -81 36 -41 31
-51 34 -87 28 -22 -3 -48 -10 -57 -15 -9 -5 -42 -9 -72 -9 -30 0 -66 -5 -80
-11 -23 -11 -30 -8 -69 27 -23 21 -62 50 -86 64 -24 14 -68 47 -97 73 -42 39
-57 47 -75 42 -43 -14 -108 -6 -137 15 -24 18 -37 20 -76 15 -25 -4 -48 -10
-50 -14 -2 -3 -33 -5 -68 -3 -34 2 -97 5 -138 7 -41 2 -82 6 -91 10 -10 4 -37
-6 -66 -24 -53 -33 -124 -42 -163 -21 -14 8 -33 6 -70 -6 -50 -16 -51 -16
-111 10 -86 37 -107 34 -217 -30 -100 -59 -199 -91 -230 -75 -30 16 -90 41
-99 41 -4 0 -23 21 -42 46 -40 53 -75 71 -106 54 -26 -14 -61 -1 -94 34 -14
14 -32 26 -40 26 -32 0 -171 109 -171 133 0 6 -16 29 -35 53 -19 23 -35 46
-35 51 0 5 -12 20 -26 34 l-25 24 -50 -27 c-27 -14 -52 -22 -55 -17 -3 5 -18
9 -34 9 -16 0 -32 4 -35 10 -3 6 -32 10 -64 10 -31 0 -62 5 -68 11 -20 20 -70
-1 -137 -56 -36 -29 -80 -57 -98 -60 -18 -4 -45 -17 -61 -29 -17 -12 -39 -20
-54 -18 -14 2 -43 -4 -64 -14 -36 -16 -41 -16 -82 0 -23 9 -63 16 -89 16 -29
0 -50 6 -59 16 -7 8 -25 22 -41 30 -15 8 -28 20 -28 28 0 32 -34 43 -147 49
-131 5 -137 2 -147 -82 -5 -36 -16 -65 -32 -84 -13 -15 -24 -33 -24 -37 0 -5
-20 -34 -45 -64 -25 -31 -45 -59 -45 -63 0 -4 -10 -17 -21 -29 -13 -14 -23
-41 -26 -68 -3 -25 -12 -51 -19 -57 -15 -13 -19 -55 -5 -63 4 -3 6 -17 3 -31
-3 -18 2 -33 18 -50 22 -23 22 -26 7 -43 -10 -10 -17 -30 -17 -44 0 -14 -9
-33 -20 -43 -25 -23 -25 -40 1 -76 l21 -30 -24 6 c-40 10 -70 -31 -66 -91 2
-41 -1 -52 -19 -67 -23 -19 -31 -51 -14 -61 4 -3 6 -17 3 -31 -2 -14 2 -32 9
-41 16 -19 20 -94 6 -111 -5 -7 -7 -22 -4 -34 4 -13 0 -22 -11 -26 -33 -12
-82 -54 -82 -72 0 -25 28 -47 77 -62 41 -12 58 -29 30 -29 -26 0 -49 -37 -45
-72 2 -26 -3 -38 -24 -56 -31 -26 -36 -63 -13 -82 9 -7 13 -21 9 -35 -4 -16 1
-28 21 -43 15 -12 21 -23 15 -27 -22 -14 -8 -46 34 -77 51 -38 79 -79 70 -103
-4 -9 2 -25 13 -38 33 -36 43 -63 43 -114 -1 -145 -2 -140 25 -161 14 -11 25
-24 25 -29 0 -12 -43 -53 -57 -53 -18 0 -43 -36 -43 -63 0 -17 -5 -27 -14 -27
-19 0 -88 -84 -85 -102 5 -20 -23 -58 -42 -58 -24 0 -52 -36 -46 -59 4 -17 1
-19 -23 -15 -21 5 -32 0 -47 -20 -12 -14 -25 -26 -30 -26 -6 0 -18 -9 -28 -20
-15 -17 -16 -26 -7 -61 9 -34 8 -47 -4 -63 -8 -11 -14 -29 -14 -40 0 -11 -12
-33 -27 -48 -24 -25 -26 -31 -14 -49 11 -18 10 -24 -9 -44 -12 -13 -20 -32
-18 -43 2 -11 -7 -31 -20 -45 -19 -20 -22 -31 -16 -65 8 -49 29 -71 77 -79 50
-8 76 1 130 42 l48 36 20 -48 c44 -101 92 -117 184 -63 66 39 133 70 151 70
27 0 45 -45 39 -96 -9 -66 18 -104 75 -104 42 0 66 21 90 80 11 27 17 30 55
30 27 0 59 9 86 25 24 14 50 25 57 25 7 0 31 -17 55 -39 58 -52 77 -61 140
-61 70 0 87 17 87 89 0 40 -6 60 -25 85 -23 30 -33 66 -19 66 3 0 28 -19 55
-42 l50 -42 99 33 c108 35 137 58 171 137 9 23 22 45 29 49 6 4 28 -13 51 -39
40 -45 41 -46 104 -46 94 0 98 -10 41 -123 -54 -108 -60 -160 -23 -195 35 -33
70 -28 107 15 20 23 67 54 121 80 l88 43 60 -35 c78 -46 107 -45 153 3 28 28
38 49 44 87 l7 50 9 -35 c11 -41 64 -100 90 -100 11 0 36 9 56 19 21 11 64 27
97 36 84 24 105 46 105 109 0 27 -5 65 -12 83 -14 40 -5 61 36 81 52 26 61 11
22 -40 -31 -41 -36 -54 -36 -102 0 -48 3 -57 31 -80 43 -36 76 -33 121 11 33
32 38 34 44 18 4 -10 2 -25 -5 -34 -48 -66 -52 -77 -48 -119 7 -61 65 -122
118 -122 57 0 89 31 90 88 1 26 5 58 9 72 7 22 8 19 9 -16 1 -61 27 -79 108
-77 48 1 70 6 86 21 28 24 113 82 123 82 3 0 4 -17 0 -38 -5 -34 -2 -42 23
-66 26 -25 34 -27 73 -21 60 9 127 10 168 2 l35 -7 -3 -50 c-3 -42 0 -56 23
-85 22 -29 32 -35 65 -35 30 0 43 6 63 30 14 17 28 30 31 30 3 0 6 -19 6 -43
0 -36 6 -49 33 -75 45 -44 85 -43 125 2 17 19 33 49 37 66 l7 32 35 -34 c31
-30 39 -33 96 -33 50 0 69 5 97 25 25 18 53 26 100 30 59 5 66 4 85 -18 21
-24 101 -41 196 -42 62 0 93 31 84 83 -6 29 -3 37 13 46 30 16 31 15 25 -29
-5 -37 -2 -42 57 -104 60 -62 135 -106 158 -92 5 3 20 -6 32 -19 30 -32 63
-32 105 1 20 15 36 21 40 15 3 -6 30 -26 59 -46 67 -44 115 -47 145 -9 19 25
25 26 73 21 35 -4 55 -12 62 -24 24 -43 65 -73 99 -73 27 0 42 8 66 35 17 20
39 52 48 73 16 36 17 36 20 11 2 -15 13 -35 24 -45 18 -16 26 -17 77 -6 31 7
67 15 80 18 21 6 22 3 22 -44 0 -47 3 -53 36 -78 34 -26 38 -27 77 -15 50 15
67 16 129 6 39 -6 57 -17 96 -56 47 -47 48 -49 30 -65 -25 -24 -23 -46 10 -77
23 -22 43 -29 107 -37 45 -6 86 -17 96 -26 16 -14 14 -18 -27 -56 -51 -47 -57
-82 -21 -116 29 -27 69 -28 122 -2 58 28 65 26 65 -20 0 -40 28 -108 58 -142
19 -23 85 -24 102 -3 12 14 16 13 40 -10 31 -29 47 -31 94 -8 34 16 36 16 74
-10 48 -34 69 -34 104 0 33 32 36 59 8 89 l-21 21 48 6 c46 5 50 4 93 -39 25
-24 55 -44 66 -44 29 0 69 34 95 80 25 44 38 45 31 2 -3 -23 4 -35 38 -66 36
-33 47 -37 81 -34 34 3 39 1 39 -17 0 -12 13 -33 28 -48 34 -32 79 -35 113 -8
l24 19 -3 -43 c-4 -39 0 -47 40 -89 54 -56 85 -60 122 -15 14 17 26 34 26 38
0 5 26 12 58 16 119 15 132 10 132 -48 0 -36 6 -49 33 -75 18 -18 38 -32 43
-32 24 0 64 -57 64 -91 0 -49 33 -79 87 -79 34 0 46 6 72 35 17 20 31 40 31
44 0 5 7 12 16 15 13 5 15 -1 9 -47 -7 -52 -6 -53 34 -90 48 -43 79 -53 122
-38 18 6 37 11 44 11 18 0 38 -50 39 -94 1 -34 6 -44 35 -63 19 -13 45 -23 57
-23 20 0 24 -5 24 -28 0 -32 19 -52 68 -72 17 -7 38 -24 45 -38 18 -38 61 -60
86 -45 13 8 38 10 73 6 42 -5 64 -15 109 -50 31 -24 70 -48 85 -52 21 -5 30
-14 32 -34 2 -15 15 -35 28 -46 22 -17 35 -19 90 -14 l64 6 0 -36 c0 -28 7
-41 35 -66 20 -17 39 -31 43 -31 4 0 7 -21 7 -47 0 -48 0 -48 62 -88 62 -40
62 -40 62 -89 1 -40 6 -56 28 -78 36 -38 93 -39 121 -3 12 16 23 21 27 15 10
-16 102 -60 125 -60 16 0 20 -7 20 -29 0 -17 5 -33 10 -36 6 -3 10 -16 10 -29
0 -29 35 -60 85 -76 80 -25 98 -82 38 -121 -42 -27 -63 -71 -47 -96 12 -19 25
-27 69 -40 29 -9 30 -10 27 -64 -3 -52 -1 -58 28 -82 40 -34 65 -34 113 -1
l38 25 20 -25 c15 -19 30 -26 54 -26 29 0 34 -4 40 -33 3 -17 6 -56 5 -86 -1
-66 17 -91 70 -91 36 0 37 -1 48 -51 7 -28 12 -59 12 -69 0 -26 39 -54 120
-87 58 -23 70 -33 76 -56 4 -19 23 -41 54 -63 53 -38 64 -58 54 -98 -8 -33 5
-49 68 -83 47 -25 49 -29 43 -59 -5 -28 0 -38 33 -73 45 -47 78 -53 123 -21
l28 21 37 -51 c20 -28 49 -57 63 -65 15 -7 33 -21 40 -29 19 -23 93 -21 114 2
10 10 17 27 17 36 0 14 4 16 18 10 9 -4 53 -10 97 -12 69 -3 83 -7 111 -31 25
-22 44 -29 99 -34 48 -5 75 -12 90 -27 26 -24 72 -26 97 -3 17 15 18 15 18 -4
0 -30 38 -73 64 -73 34 0 76 37 76 67 0 22 3 24 27 18 15 -3 39 -17 55 -30 37
-31 104 -41 149 -22 33 14 37 13 63 -9 36 -32 85 -32 115 0 21 22 25 23 54 11
35 -14 57 -47 57 -86 0 -36 39 -69 82 -69 41 0 88 32 88 61 0 26 41 25 65 -1
21 -23 48 -26 63 -7 8 9 40 12 108 12 83 -1 101 2 128 20 17 11 32 30 34 40 2
17 9 20 50 17 34 -3 52 1 60 11 10 12 18 13 37 3 14 -6 28 -19 31 -29 8 -25
54 -77 68 -77 7 0 31 16 55 36 34 30 51 37 89 38 26 1 55 5 64 10 16 7 17 4
12 -23 -5 -25 -2 -37 16 -56 13 -14 34 -25 46 -25 12 0 36 -8 53 -17 30 -18
30 -17 59 10 35 34 71 35 103 1 20 -21 30 -25 61 -21 26 3 41 0 50 -10 6 -8
22 -13 35 -10 37 7 47 -16 18 -43 -43 -41 -29 -103 28 -123 9 -4 20 -15 24
-24 3 -10 16 -29 28 -43 13 -14 25 -41 27 -62 4 -35 3 -36 -35 -42 -29 -5 -44
-2 -57 9 -19 17 -42 19 -56 5 -7 -7 -16 -4 -29 10 -29 33 -53 24 -126 -47 -58
-56 -69 -71 -69 -100 0 -25 -4 -33 -18 -33 -23 0 -62 -40 -62 -63 0 -10 5 -26
12 -37 14 -22 3 -39 -14 -22 -21 21 -49 13 -85 -23 l-36 -36 -22 21 c-27 25
-27 25 -89 -4 -74 -35 -100 -66 -93 -110 5 -30 2 -36 -16 -42 -49 -15 -67 -51
-73 -149 -2 -22 -6 -64 -10 -93 -4 -33 -2 -58 5 -66 13 -15 5 -93 -10 -102
-26 -16 6 -84 39 -84 18 0 15 -21 -6 -44 -10 -12 -25 -36 -32 -54 -11 -29 -10
-35 6 -53 13 -15 17 -33 15 -70 -3 -52 16 -89 45 -89 16 0 7 -39 -17 -65 -10
-11 -22 -31 -28 -45 -6 -14 -16 -33 -23 -42 -10 -14 -8 -21 11 -42 l24 -25
-88 -43 c-48 -24 -93 -51 -99 -60 -14 -23 18 -58 55 -58 15 0 31 -5 35 -11 3
-6 15 -9 25 -6 15 4 19 0 19 -24 0 -18 -5 -29 -14 -29 -7 0 -26 -10 -42 -22
-15 -13 -37 -21 -47 -20 -21 4 -57 -24 -57 -43 0 -7 7 -18 15 -25 13 -11 11
-15 -10 -32 -14 -11 -25 -25 -25 -31 0 -7 -11 -25 -25 -40 -25 -26 -27 -27
-49 -10 -13 10 -21 24 -19 31 13 33 -73 72 -92 42 -3 -5 -19 -10 -34 -10 -54
0 -80 -68 -45 -118 10 -14 12 -27 6 -37 -7 -14 -11 -13 -27 5 -10 11 -28 20
-41 20 -13 0 -26 5 -29 10 -10 17 -37 11 -72 -16 -32 -25 -45 -66 -24 -79 14
-8 -7 -65 -35 -96 -32 -33 -30 -43 11 -74 32 -25 34 -30 29 -68 -5 -39 -3 -45
39 -86 38 -36 50 -43 73 -38 19 3 36 -1 53 -14 13 -10 29 -19 36 -19 7 0 19
-7 26 -16 7 -9 23 -20 36 -25 13 -5 23 -15 23 -22 0 -24 37 -50 64 -45 17 3
31 -1 42 -13 10 -11 25 -19 34 -19 18 0 60 40 60 57 0 6 -29 47 -64 91 -46 57
-73 81 -94 85 -26 5 -112 81 -112 99 0 5 12 8 28 8 28 0 96 21 108 33 4 4 21
7 37 7 17 0 38 6 46 14 9 8 39 20 66 26 113 27 129 33 170 71 l44 40 46 -15
c25 -9 53 -16 63 -16 16 0 107 -32 144 -51 10 -5 24 -9 32 -9 9 0 17 -15 21
-39 4 -22 13 -45 20 -51 8 -6 11 -18 8 -26 -9 -23 36 -64 70 -64 17 0 38 -6
46 -14 18 -15 108 -39 120 -32 4 3 20 -4 37 -15 16 -10 44 -19 62 -19 32 0 33
-1 27 -31 -11 -50 14 -69 94 -69 66 0 68 1 107 43 23 23 87 102 144 175 131
170 566 655 786 877 376 380 885 770 1384 1062 372 217 620 335 729 348 82 9
121 40 118 93 -2 33 2 39 30 53 48 24 63 39 63 63 0 26 18 46 40 46 26 0 52
35 53 72 1 21 10 40 26 52 39 32 18 106 -36 127 -43 16 -18 114 41 160 27 21
34 53 15 65 -34 20 37 160 113 225 51 43 57 59 32 80 -41 33 40 193 137 272
32 26 59 55 59 63 0 9 -13 29 -30 46 -31 30 -38 52 -20 63 13 8 13 52 1 60
-16 9 17 90 49 120 17 16 30 39 30 51 0 13 4 26 10 29 5 3 9 35 8 71 -2 64 -1
65 42 109 33 33 44 52 45 80 1 19 10 44 19 54 22 25 21 32 -20 79 -24 28 -44
42 -60 42 -29 0 -29 1 -3 80 11 34 18 69 15 77 -10 24 24 75 95 145 65 63 69
70 69 111 0 31 -6 49 -20 62 -19 17 -19 19 -4 37 10 10 25 18 34 18 9 0 35 13
56 28 32 24 43 41 62 101 l24 73 22 -21 c12 -12 34 -21 49 -21 28 0 97 53 97
75 0 7 7 18 15 25 8 7 15 21 15 32 0 20 -45 70 -88 98 -19 13 -21 19 -13 47 5
18 25 52 44 75 19 24 38 59 42 78 12 59 40 103 105 167 41 40 61 67 58 79 -2
11 6 26 17 35 11 9 26 38 34 64 14 47 14 49 -10 69 -20 17 -23 27 -19 51 13
60 80 155 138 195 30 21 38 33 40 65 2 26 13 50 33 72 35 41 36 47 3 90 -27
35 -43 40 -73 21 -25 -15 -47 2 -56 42 -3 16 -13 34 -21 41 -8 6 -14 26 -14
44 0 18 -8 39 -18 48 -21 19 -57 22 -67 7 -3 -5 -14 -10 -24 -10 -10 0 -28
-11 -41 -25 -18 -19 -22 -31 -17 -60 7 -42 -10 -55 -74 -55 -26 0 -50 -7 -61
-17 -17 -15 -22 -15 -74 1 -53 17 -57 17 -75 0 -10 -9 -21 -25 -24 -35 -4 -11
-12 -19 -20 -19 -7 0 -27 -17 -45 -37 -17 -21 -44 -52 -59 -69 -37 -40 -49
-99 -25 -125 9 -10 22 -19 29 -19 19 0 45 34 46 61 1 20 2 21 6 4 6 -25 32
-55 48 -55 20 0 27 -31 12 -49 -8 -9 -17 -32 -21 -52 -5 -28 -2 -39 14 -54 24
-21 26 -35 5 -35 -8 0 -30 -13 -48 -30 -41 -35 -44 -36 -71 -12 -12 10 -40 24
-63 31 -39 11 -42 14 -37 40 5 24 0 33 -30 56 -23 17 -36 36 -36 50 0 12 -9
42 -19 66 -17 38 -18 51 -9 94 6 28 16 57 24 66 8 8 14 21 14 28 0 6 11 17 25
23 20 9 28 8 43 -5 10 -10 28 -17 39 -17 51 0 123 61 123 104 0 12 5 27 12 34
9 9 8 17 -2 37 -17 31 -6 44 18 22 26 -23 41 -21 74 10 32 30 35 45 13 63 -19
16 -19 44 -1 59 23 19 28 72 10 93 -10 10 -23 18 -31 18 -9 0 -13 15 -13 48 0
35 -5 54 -18 65 -24 22 -38 21 -69 -3 -14 -11 -36 -20 -49 -20 -12 0 -25 -4
-28 -9 -3 -5 -17 -11 -30 -13 -22 -4 -27 1 -45 46 -25 65 -33 114 -21 121 6 3
10 17 10 31 0 28 44 74 70 74 9 0 25 9 35 20 10 11 24 20 31 20 7 0 25 11 41
24 35 29 72 40 93 27 12 -9 11 -14 -8 -34 -27 -29 -28 -49 -3 -71 46 -41 211
29 211 89 0 25 -29 55 -53 55 -34 0 -25 20 33 76 33 32 60 63 60 70 0 12 -82
84 -96 84 -4 0 -19 -10 -32 -22 -23 -21 -25 -22 -17 -3 17 46 17 57 -5 80 -27
28 -52 32 -70 10 -7 -8 -18 -15 -25 -15 -22 0 -65 -41 -65 -62 0 -11 -8 -30
-17 -42 -14 -17 -24 -21 -48 -16 -49 11 -73 28 -100 74 l-25 43 40 43 c43 46
47 59 28 78 -9 9 -9 15 0 24 7 7 12 22 12 34 0 12 7 27 15 34 8 7 15 21 15 31
0 10 5 21 10 24 6 3 10 15 10 26 0 10 6 28 12 39 12 18 7 26 -40 71 -51 49
-54 50 -95 44 -23 -4 -48 -12 -55 -18 -21 -17 -32 11 -16 42 9 17 12 41 8 69
-4 25 -1 54 6 72 11 26 10 33 -5 50 -10 11 -26 20 -35 20 -34 0 -32 68 5 198
14 47 18 52 44 52 33 0 56 23 72 71 7 19 22 46 35 60 35 37 24 78 -31 124 -24
19 -48 35 -53 35 -6 0 -21 -14 -34 -30 l-24 -30 -37 45 c-37 44 -77 59 -92 35
-13 -22 -24 -8 -35 47 -7 32 -10 78 -7 104 4 32 1 53 -8 65 -59 78 97 537 254
747 45 61 46 63 46 137 0 74 1 78 56 170 31 52 64 120 74 150 32 99 155 328
195 365 11 10 24 33 31 52 10 31 9 37 -12 59 -24 26 -48 31 -67 12 -18 -18
-30 28 -24 90 4 48 2 56 -24 83 -31 32 -55 37 -74 14 -15 -18 -80 -20 -102 -2
-28 22 -56 119 -61 208 -3 47 -10 95 -17 106 -14 21 -3 145 22 260 10 47 9 55
-8 74 -14 16 -27 20 -51 16 -37 -6 -78 11 -113 48 -31 33 -50 32 -104 -10z
m-1031 -115 c3 -5 1 -10 -4 -10 -6 0 -11 5 -11 10 0 6 2 10 4 10 3 0 8 -4 11
-10z m-3525 -204 c0 -2 -8 -10 -17 -17 -16 -13 -17 -12 -4 4 13 16 21 21 21
13z m670 -241 c-7 -8 -14 -15 -15 -15 -2 0 -5 7 -9 15 -4 10 1 15 16 15 17 0
18 -2 8 -15z m-4541 -419 c15 -13 33 -26 41 -27 8 -2 58 8 111 21 l97 23 46
-27 c34 -20 48 -35 53 -57 4 -22 15 -34 39 -44 19 -8 37 -21 40 -30 8 -20 31
-19 43 2 6 12 4 28 -10 55 -44 86 -13 112 66 58 43 -30 44 -31 47 -93 2 -49 7
-62 20 -65 24 -5 68 42 68 72 0 33 31 86 52 86 9 0 32 -22 52 -50 39 -54 58
-57 72 -9 l9 29 1717 -1145 1718 -1145 2112 -2 2113 -3 3 -25 c6 -37 21 -51
49 -44 23 6 24 5 13 -16 -6 -12 -11 -43 -10 -68 4 -70 1 -82 -15 -82 -20 0
-19 -5 6 -50 22 -38 54 -61 76 -53 7 2 10 10 7 17 -4 9 6 15 28 18 43 7 56 1
60 -25 2 -13 13 -23 28 -27 17 -4 21 -8 12 -14 -6 -4 -12 -18 -12 -32 0 -13
-4 -24 -10 -24 -5 0 -10 -11 -10 -24 0 -13 -7 -29 -15 -36 -8 -7 -15 -21 -15
-32 0 -10 -8 -30 -17 -45 -16 -24 -16 -26 0 -38 15 -11 14 -15 -14 -43 -17
-18 -35 -30 -39 -27 -19 12 -20 -17 -2 -57 23 -53 66 -104 101 -122 60 -30
131 -26 131 8 0 7 9 21 19 30 11 10 17 25 14 36 -4 15 2 21 23 26 16 4 34 14
41 23 9 12 15 13 23 5 9 -9 7 -20 -5 -45 -17 -33 -17 -33 10 -56 34 -30 67
-27 76 7 l7 25 7 -22 c5 -14 15 -23 29 -23 18 0 15 -6 -22 -40 -24 -22 -50
-40 -57 -40 -17 0 -26 -53 -14 -88 8 -24 14 -28 39 -24 47 7 38 -24 -12 -47
-86 -39 -145 -35 -83 5 33 22 32 37 -7 69 -39 33 -83 30 -129 -9 -17 -14 -36
-26 -43 -26 -7 0 -21 -9 -31 -20 -10 -11 -23 -20 -28 -20 -6 0 -30 -9 -53 -21
-39 -18 -44 -25 -50 -65 -3 -24 -11 -47 -16 -50 -15 -10 2 -95 33 -160 27 -58
59 -89 67 -65 2 6 11 11 21 11 9 0 23 6 29 12 10 10 14 10 21 0 6 -9 16 -5 42
18 19 16 37 30 42 30 4 0 7 -21 7 -47 1 -51 17 -83 43 -83 19 0 11 -39 -11
-56 -19 -14 -18 -60 2 -83 15 -17 15 -19 0 -32 -14 -12 -20 -9 -45 19 -16 18
-33 32 -37 32 -10 0 -32 -68 -32 -99 0 -11 5 -21 12 -21 6 0 4 -7 -5 -18 -10
-10 -14 -21 -11 -25 13 -12 -9 -47 -38 -62 -39 -19 -52 -19 -68 0 -25 30 -103
5 -115 -37 -4 -13 -13 -30 -20 -38 -7 -8 -17 -33 -21 -55 -4 -22 -11 -43 -16
-46 -5 -3 2 -32 16 -64 14 -31 26 -68 26 -80 0 -14 14 -35 34 -53 26 -22 33
-35 29 -54 -6 -31 32 -64 84 -74 19 -4 37 -14 40 -23 3 -9 13 -24 20 -33 9
-10 12 -22 7 -30 -5 -7 -9 -19 -10 -26 -2 -8 -4 -15 -6 -16 -63 -41 -88 -41
-88 0 0 20 -5 24 -32 24 -47 0 -57 -10 -64 -66 -8 -59 -21 -79 -40 -63 -9 8
-14 8 -14 1 0 -18 51 -51 89 -58 59 -9 61 -11 53 -35 -5 -13 -3 -45 5 -78 7
-31 10 -75 7 -98 -5 -33 -1 -50 17 -79 18 -30 20 -40 11 -55 -7 -10 -12 -28
-12 -38 0 -11 -5 -23 -11 -26 -7 -5 -5 -13 7 -26 11 -12 15 -29 12 -50 -4 -25
0 -37 19 -53 28 -25 47 -110 31 -140 -7 -14 -12 -15 -18 -6 -12 19 -47 2 -58
-28 -14 -41 1 -72 36 -72 15 0 33 5 40 12 9 9 12 4 12 -25 0 -32 -8 -44 -61
-94 -69 -65 -114 -134 -106 -163 3 -10 -4 -44 -14 -76 -24 -72 -24 -85 2 -118
18 -22 24 -25 36 -14 13 10 19 8 39 -17 23 -29 23 -30 5 -45 -14 -10 -19 -26
-18 -51 1 -28 -7 -43 -38 -76 -35 -38 -74 -123 -56 -123 4 0 8 -13 8 -30 0
-17 -6 -30 -13 -30 -17 0 -27 -32 -12 -41 8 -5 3 -17 -20 -40 -40 -41 -73
-136 -52 -149 11 -7 12 -14 3 -32 -19 -40 -23 -59 -17 -85 5 -20 11 -23 29
-19 46 12 35 -21 -20 -64 -30 -23 -68 -64 -85 -91 l-30 -49 -2020 0 -2020 0
-488 -325 c-343 -229 -488 -321 -490 -310 -2 8 8 29 23 46 l26 32 -23 24 c-18
19 -24 21 -26 10 -2 -8 -16 -21 -33 -27 -18 -8 -29 -20 -29 -32 0 -11 -8 -22
-20 -25 -19 -5 -18 -6 5 -38 14 -17 25 -34 25 -38 0 -6 -64 -47 -74 -47 -3 0
-6 12 -6 26 0 43 -40 114 -65 114 -11 0 -30 7 -42 15 -20 14 -23 13 -50 -15
-47 -50 -81 -40 -113 34 -21 46 -22 47 -41 30 -24 -21 -24 -31 -1 -37 12 -3 7
-9 -21 -21 -47 -21 -99 -13 -130 19 -21 22 -103 49 -118 39 -4 -2 -6 10 -4 28
2 18 6 65 9 104 6 90 31 186 61 233 60 96 48 179 -39 266 -59 59 -139 101
-283 147 -54 17 -100 32 -102 34 -9 7 61 57 131 94 63 33 105 46 230 71 168
33 291 71 363 113 49 29 154 152 199 236 23 42 27 66 36 201 6 84 13 165 17
179 9 37 44 104 59 113 28 16 14 29 -23 22 -40 -7 -100 -56 -133 -110 -10 -17
-28 -66 -40 -110 -51 -196 -91 -260 -195 -310 -85 -42 -93 -32 -35 52 58 83
100 185 100 246 0 23 -14 109 -32 191 -31 146 -32 149 -15 196 9 26 17 53 17
59 0 23 -33 9 -80 -35 -53 -50 -90 -127 -90 -189 0 -49 -14 -51 -49 -7 -42 52
-120 110 -178 132 l-48 18 40 7 c66 11 176 45 226 71 26 13 103 61 171 108 67
46 162 105 211 131 48 26 87 50 87 54 0 16 -132 53 -227 63 -57 6 -103 15
-103 19 0 13 78 63 206 132 65 36 120 70 122 75 5 16 -99 26 -273 27 l-160 0
71 70 c39 39 85 93 103 121 32 50 131 134 199 168 17 9 32 20 32 25 0 10 -92
27 -190 36 -64 6 -206 -6 -245 -21 -12 -5 4 20 39 62 112 131 182 264 212 404
26 120 49 189 98 289 51 105 55 121 27 121 -35 0 -186 -60 -266 -105 -43 -25
-80 -45 -82 -45 -2 0 23 39 56 88 72 104 156 201 231 267 30 27 57 52 58 57 7
15 -32 8 -126 -23 -51 -17 -95 -29 -98 -27 -2 3 1 51 6 107 12 126 32 174 106
251 l57 60 -49 0 c-121 0 -250 -58 -358 -160 -40 -39 -78 -70 -85 -70 -6 0
-11 17 -11 39 0 34 4 40 30 51 68 28 94 114 48 158 -27 24 -70 42 -104 42 -24
0 -24 1 -24 90 0 72 3 90 14 90 36 0 175 52 199 74 32 29 33 39 10 62 -15 14
-31 16 -120 10 l-103 -7 0 59 c0 97 -19 171 -77 296 -64 138 -83 189 -83 222
0 69 -57 18 -118 -106 -34 -68 -37 -72 -40 -45 -9 81 -46 234 -65 265 -11 19
-47 70 -79 113 -33 42 -71 100 -85 127 -14 28 -30 50 -34 50 -14 0 -87 -162
-100 -220 -7 -32 -9 -87 -6 -135 l6 -80 -21 25 c-35 42 -85 152 -98 214 -21
101 4 167 85 225 25 18 45 36 45 41 0 4 -17 10 -37 13 -21 2 -53 10 -70 18
-33 13 -37 13 -105 -16 -12 -5 -21 3 -34 30 -11 23 -45 57 -93 93 -47 36 -92
81 -119 120 -24 34 -47 62 -52 62 -14 0 -33 -94 -38 -197 -2 -57 -6 -103 -8
-103 -3 0 -26 11 -52 25 -100 52 -302 70 -461 40 -104 -20 -211 -53 -211 -65
0 -22 282 -195 387 -239 78 -32 194 -61 245 -61 32 0 113 19 151 35 15 6 17 1
17 -38 l0 -44 -77 0 c-212 -1 -334 -155 -243 -308 35 -59 37 -79 10 -123 -23
-37 -26 -72 -6 -72 51 0 170 72 279 169 37 33 87 72 112 87 51 29 154 64 191
64 22 0 24 -3 17 -27 -14 -52 -5 -87 28 -117 29 -25 37 -28 86 -24 l54 5 -6
-27 c-3 -15 -1 -39 5 -54 9 -25 8 -27 -7 -22 -106 41 -208 -12 -288 -148 -15
-26 -25 -49 -22 -52 3 -4 36 -1 74 6 37 6 91 10 118 8 49 -3 50 -4 59 -40 5
-21 7 -41 3 -44 -3 -3 -77 0 -164 7 -101 9 -306 14 -568 14 -406 0 -411 0
-475 -24 -36 -13 -87 -39 -113 -58 -27 -19 -51 -33 -53 -30 -8 7 -160 439
-213 602 -29 88 -56 172 -61 187 -9 27 -7 28 35 39 53 13 94 54 106 105 10 44
6 73 -23 189 -11 44 -24 123 -28 175 -4 52 -20 136 -34 185 -24 79 -26 101
-20 180 5 77 3 98 -15 145 -41 109 -154 221 -294 291 -62 32 -191 60 -275 61
-65 1 -130 -36 -181 -102 -19 -25 -32 -38 -29 -29 5 12 -4 20 -33 29 -34 12
-39 17 -35 35 4 17 -1 25 -19 33 -38 17 -62 92 -30 92 11 0 13 8 9 30 -6 27
-4 30 20 30 18 0 26 5 26 18 0 10 15 26 35 36 36 20 43 34 24 53 -9 9 -6 19
10 42 13 17 17 31 11 31 -19 0 0 43 29 67 14 12 34 22 44 23 32 0 57 20 72 56
12 30 18 34 37 28 13 -4 31 -7 41 -6 29 2 96 36 97 49 0 19 48 27 67 12 13
-11 17 -11 20 -1 3 6 13 12 24 12 33 0 99 24 99 36 0 6 7 17 15 24 8 7 15 21
15 31 0 11 4 19 10 19 5 0 13 12 16 28 13 51 25 55 63 18z m-682 -878 c-3 -8
-6 -5 -6 6 -1 11 2 17 5 13 3 -3 4 -12 1 -19z m-7 -40 c0 -13 2 -32 4 -43 2
-11 1 -14 -1 -7 -3 6 -8 12 -13 12 -10 0 -21 40 -14 52 10 16 24 8 24 -14z
m104 -169 c-2 -5 -14 -1 -24 9 -26 22 -25 24 5 10 13 -6 22 -15 19 -19z
m-8657 -55 c-3 -3 -12 -4 -19 -1 -8 3 -5 6 6 6 11 1 17 -2 13 -5z m7196 -30
c18 -9 44 -28 59 -42 27 -25 39 -27 123 -24 17 1 80 -1 141 -4 83 -4 119 -2
145 8 48 20 96 5 104 -33 4 -15 12 -33 20 -39 7 -6 11 -19 8 -29 -4 -15 0 -18
19 -15 12 3 28 1 33 -3 27 -20 55 -68 55 -94 0 -18 9 -34 26 -46 15 -11 29
-33 32 -53 6 -29 15 -39 55 -59 47 -23 63 -51 29 -51 -10 0 -40 -7 -66 -16
-38 -13 -50 -14 -56 -4 -6 9 -17 6 -46 -14 -22 -15 -46 -23 -58 -20 -12 2 -34
-5 -51 -16 -38 -25 -39 -25 -165 -89 l-105 -54 46 50 c64 68 74 104 73 253 -1
125 -15 193 -35 173 -5 -5 -16 -49 -24 -97 -16 -101 -36 -137 -121 -219 -44
-42 -61 -53 -81 -49 -18 3 -22 9 -17 21 11 27 17 61 10 61 -14 0 -83 -39 -96
-55 -10 -12 -15 -13 -21 -4 -10 17 -49 -9 -86 -57 -15 -20 -45 -55 -65 -77
-21 -22 -38 -43 -38 -48 0 -5 -6 -9 -13 -9 -7 0 -23 -18 -36 -40 -12 -22 -28
-40 -34 -40 -7 0 -17 -8 -22 -19 -11 -20 -104 -160 -133 -200 -9 -13 -30 -37
-47 -53 -26 -26 -30 -39 -32 -89 -2 -76 -5 -84 -65 -187 -51 -89 -66 -111 -55
-80 16 44 26 227 18 303 l-9 80 -57 53 c-31 28 -74 61 -95 72 -42 21 -151 53
-158 46 -13 -14 18 -52 76 -95 74 -55 123 -124 144 -203 14 -54 15 -51 -55
-253 l-45 -130 -17 40 c-28 70 -45 98 -134 219 -80 109 -131 159 -147 144 -11
-11 13 -67 57 -131 45 -66 73 -150 84 -253 l8 -66 -144 2 c-223 5 -259 2 -259
-15 0 -8 15 -24 33 -35 37 -23 213 -83 306 -104 34 -8 65 -17 68 -20 10 -10
-8 -25 -37 -31 -38 -8 -30 -29 21 -56 l39 -19 0 -78 c0 -42 2 -108 5 -147 l5
-70 -23 90 c-27 102 -93 251 -125 279 -22 19 -22 19 -22 -6 0 -14 9 -70 20
-124 41 -197 37 -297 -8 -211 -42 80 -152 156 -300 207 -126 44 -137 31 -33
-39 69 -47 215 -204 238 -257 14 -32 17 -65 16 -178 -2 -125 -8 -171 -20 -140
-10 29 -108 167 -165 234 -60 70 -111 110 -123 98 -3 -3 51 -124 121 -269 153
-320 149 -309 126 -309 -11 0 -24 13 -33 31 -15 33 -37 40 -30 11 3 -15 0 -15
-18 2 -26 24 -27 52 -1 68 36 23 16 56 -23 36 -12 -6 -19 -5 -22 4 -20 56 -26
68 -36 68 -7 0 -9 -10 -4 -27 3 -16 9 -38 12 -50 7 -31 -15 -38 -77 -23 -43
10 -56 10 -92 -5 -34 -13 -46 -14 -65 -4 -20 11 -23 20 -23 69 0 75 -17 84
-109 58 -94 -26 -95 -26 -87 25 3 23 7 50 9 61 1 10 -6 23 -15 29 -24 15 -45
-7 -93 -98 -20 -38 -42 -76 -47 -82 -16 -20 -56 -15 -76 8 -57 70 -56 70 -114
76 -45 5 -58 9 -58 23 0 23 37 55 93 79 26 11 47 24 47 28 0 18 -59 31 -98 22
-22 -5 -52 -5 -68 0 -16 4 -35 6 -41 4 -19 -7 -16 -65 7 -115 10 -24 17 -54
13 -66 -11 -42 -56 -26 -178 62 -9 7 -24 1 -48 -17 -20 -15 -43 -27 -51 -27
-24 0 -46 54 -46 113 0 42 -4 56 -17 61 -26 10 -32 -6 -21 -55 6 -26 8 -54 5
-63 -6 -15 -10 -15 -44 -1 -45 19 -122 91 -129 122 -3 11 3 42 15 67 19 44 19
46 2 55 -13 8 -33 2 -79 -22 -65 -34 -73 -45 -60 -91 12 -45 3 -49 -86 -42
-112 9 -121 13 -139 52 -18 37 -28 42 -47 19 -8 -10 -30 -15 -64 -15 -39 0
-61 -6 -90 -26 -73 -50 -148 -42 -188 20 -37 57 -70 45 -81 -28 -8 -50 -32
-86 -59 -86 -35 0 -58 29 -58 71 0 49 -18 89 -41 89 -10 0 -31 -16 -46 -35
-56 -70 -112 -34 -99 63 6 49 6 50 -30 67 -39 18 -149 24 -215 10 -45 -9 -53
2 -50 65 2 33 -2 50 -14 60 -20 16 -50 3 -131 -59 -51 -38 -109 -56 -151 -45
-20 6 -23 13 -23 54 0 40 -4 50 -25 64 -13 9 -29 16 -34 16 -14 0 -41 -95 -41
-146 0 -44 -10 -54 -54 -54 -29 0 -64 37 -72 77 -6 32 12 79 40 102 24 20 19
64 -10 96 l-26 28 -44 -44 c-39 -39 -47 -42 -71 -33 -25 8 -28 15 -31 57 -3
40 1 53 27 85 16 21 35 51 42 66 11 24 11 30 -4 41 -28 21 -105 1 -145 -38
-30 -29 -33 -36 -27 -72 3 -22 7 -64 8 -94 l2 -55 -60 -17 c-33 -10 -81 -28
-107 -40 -46 -21 -49 -22 -67 -5 -11 10 -25 39 -31 66 -12 52 -30 66 -60 50
-20 -11 -25 -23 -36 -85 -7 -46 -38 -85 -67 -85 -10 0 -46 16 -78 35 -33 19
-65 35 -70 35 -5 0 -53 -21 -105 -46 -64 -31 -103 -57 -121 -81 -35 -46 -67
-43 -71 7 -2 26 9 59 43 125 25 49 45 97 45 107 0 11 -11 30 -25 43 -21 22
-33 25 -89 25 l-66 0 -31 43 c-17 23 -37 46 -45 50 -25 14 -56 -15 -94 -89
l-36 -69 -93 -32 -93 -33 -39 31 c-22 17 -39 35 -39 40 0 12 -47 11 -71 -2
-26 -13 -18 -59 17 -106 17 -23 24 -45 24 -77 l0 -46 -46 0 c-54 0 -75 10
-131 61 -50 46 -72 48 -133 13 -27 -16 -58 -25 -80 -24 -19 1 -41 2 -48 1 -7
-1 -24 -26 -39 -56 -23 -47 -31 -55 -55 -55 -31 0 -30 -2 -32 88 -1 58 -4 66
-31 88 -48 38 -60 36 -215 -49 -77 -42 -98 -36 -130 42 -37 87 -48 91 -110 42
-59 -47 -81 -55 -125 -47 -28 6 -34 12 -38 39 -7 47 15 67 75 67 27 0 48 5 48
10 0 7 -13 9 -32 5 -27 -5 -36 -2 -46 15 -16 26 -10 34 26 35 38 0 43 38 8 60
-14 10 -23 21 -20 26 8 14 36 11 55 -7 12 -11 27 -14 48 -9 17 4 31 10 31 13
0 4 -20 20 -45 35 -50 32 -54 44 -26 78 12 15 16 30 11 39 -4 8 -10 27 -14 43
-10 42 20 35 67 -18 22 -25 47 -45 54 -45 21 0 15 15 -11 29 -13 7 -29 29 -35
50 -7 20 -15 42 -17 49 -9 20 12 14 45 -14 27 -23 33 -24 46 -11 8 9 20 18 27
20 9 4 7 11 -8 24 -12 10 -25 28 -29 41 -5 19 -3 22 22 22 16 0 34 -5 41 -12
9 -9 15 -9 24 0 9 9 8 16 -5 30 -25 27 -21 34 16 31 55 -5 65 11 21 34 -22 11
-33 22 -26 25 7 2 17 15 23 29 8 21 13 23 44 17 28 -5 36 -3 41 11 4 10 2 26
-4 36 -7 10 -12 26 -12 35 0 16 12 16 67 -2 14 -4 12 -1 -5 13 l-24 20 34 28
c18 15 32 34 30 42 -2 11 352 13 2168 13 l2170 0 870 580 c478 319 873 580
876 580 3 0 16 -8 29 -18 19 -16 33 -18 72 -12 57 9 90 -2 119 -37 19 -25 21
-25 51 -10 16 9 40 13 52 10 14 -3 36 4 62 21 l41 27 49 -17 c49 -18 51 -18
152 7 96 23 106 24 169 12 l67 -14 53 30 c29 17 54 31 56 31 2 0 17 -7 35 -16z
m1317 -258 c0 -3 -4 -8 -10 -11 -5 -3 -10 -1 -10 4 0 6 5 11 10 11 6 0 10 -2
10 -4z m-164 -30 c4 -10 12 -12 24 -8 11 4 39 6 63 4 l44 -4 -19 -36 c-45 -89
-4 -142 205 -258 71 -40 91 -56 89 -70 -2 -11 -44 -147 -93 -304 -173 -548
-282 -871 -289 -863 -4 4 -19 26 -34 48 l-26 40 27 6 28 7 -30 1 c-16 1 -43
10 -60 22 -197 134 -456 163 -910 100 -196 -27 -229 -31 -219 -22 45 40 146
108 221 150 108 61 124 77 67 68 -21 -3 -50 -9 -63 -13 -44 -13 -13 13 72 61
98 55 104 57 142 77 17 8 39 19 50 25 11 5 63 32 115 58 52 26 98 53 102 59
13 18 9 26 -12 26 -29 0 -25 13 10 33 48 29 39 47 -23 47 -63 0 -73 7 -50 32
24 27 11 31 -52 17 -51 -11 -58 -11 -66 4 -9 14 -14 15 -57 1 -92 -30 -90 -30
-58 5 17 17 35 31 41 31 7 0 32 15 56 33 24 18 58 39 76 46 18 7 38 19 44 27
6 8 24 14 39 14 15 0 50 15 76 33 27 19 62 37 79 41 16 4 48 22 70 40 22 17
53 40 68 49 15 10 32 30 38 45 6 15 20 35 31 46 l21 19 -24 10 c-13 5 -43 6
-66 3 -49 -6 -53 2 -18 40 31 34 34 84 5 102 -11 7 -20 16 -20 20 0 17 66 56
105 63 22 4 58 14 80 23 51 19 94 20 101 2z m2258 -29 c15 -23 54 -62 87 -86
68 -50 106 -92 115 -126 7 -30 -33 -108 -58 -113 -21 -4 -91 100 -133 198 -31
70 -41 87 -50 78 -10 -10 35 -115 85 -199 28 -45 50 -86 50 -90 0 -4 -16 -16
-35 -28 l-35 -20 -30 59 c-34 68 -60 158 -60 209 0 49 21 161 30 161 4 0 19
-19 34 -43z m-3017 -94 c-8 -139 -20 -171 -91 -245 -39 -42 -84 -77 -125 -97
-35 -18 -79 -49 -99 -69 l-35 -37 28 50 c56 101 110 172 196 260 82 84 89 94
105 158 9 37 19 67 22 67 2 0 2 -39 -1 -87z m2708 -67 c88 -13 184 -44 216
-69 16 -12 72 -127 66 -134 -2 -2 -67 20 -143 48 -76 28 -186 62 -244 75 -123
28 -270 42 -270 26 0 -11 24 -17 110 -27 67 -8 216 -40 285 -61 88 -27 294
-109 295 -117 0 -15 -93 -49 -149 -54 -95 -9 -193 14 -300 68 -120 61 -317
184 -314 195 6 19 213 60 318 63 22 0 81 -5 130 -13z m-1432 -30 c-3 -46 -476
-1517 -485 -1508 -4 4 -2 29 6 55 8 26 12 56 9 66 -5 21 3 49 244 801 85 267
164 516 176 553 15 49 25 67 37 64 10 -2 14 -12 13 -31z m112 2 c1 -2 118
-344 260 -762 208 -612 255 -760 244 -767 -61 -39 -198 -35 -183 6 4 9 -1 17
-12 21 -66 20 -104 45 -109 71 -3 16 -10 43 -16 60 -6 18 -8 37 -5 42 3 5 -5
40 -18 78 l-24 70 29 26 c38 33 39 67 2 67 -15 0 -53 16 -84 35 -105 64 -321
105 -387 71 -15 -7 -44 -16 -64 -20 l-37 -7 19 58 c11 32 83 256 160 498 77
242 143 446 145 454 4 10 16 12 41 8 20 -4 38 -7 39 -9z m-965 -38 c-35 -49
-90 -68 -90 -32 0 31 41 60 88 61 l23 1 -21 -30z m1046 17 c1 -1 103 -312 228
-691 172 -522 226 -698 224 -728 -2 -32 -49 96 -253 688 -137 400 -252 731
-254 737 -2 6 7 7 25 3 16 -4 30 -8 30 -9z m1923 -18 l32 -11 -41 -44 c-22
-24 -45 -56 -50 -70 -18 -47 -11 -140 15 -209 l24 -66 -28 20 c-74 53 -141
164 -141 234 0 59 25 101 78 130 53 30 66 32 111 16z m-3669 -17 c0 -11 -11
-24 -25 -30 -33 -15 -35 -15 -35 3 0 8 12 21 28 29 34 19 32 19 32 -2z m574
-9 c-9 -36 -32 -63 -56 -63 -26 0 -23 36 7 65 34 35 57 33 49 -2z m234 -5 c-3
-7 -17 -20 -33 -28 -21 -12 -29 -12 -32 -2 -3 6 -11 12 -19 12 -17 0 -19 17
-1 23 27 11 89 7 85 -5z m-338 -28 c0 -18 -9 -38 -22 -50 -13 -12 -30 -27 -39
-35 -9 -8 -19 -15 -22 -15 -13 0 -6 55 8 74 12 16 64 56 73 56 1 0 2 -13 2
-30z m-581 -57 c-7 -12 -16 -23 -21 -23 -15 0 -8 63 10 83 17 19 17 19 20 -8
2 -16 -2 -39 -9 -52z m131 49 c0 -17 -26 -40 -52 -46 -35 -8 -38 16 -6 38 24
17 58 21 58 8z m659 -19 c-36 -48 -83 -59 -92 -21 -8 29 7 38 62 38 40 0 42
-1 30 -17z m-333 -56 c-3 -13 -18 -27 -36 -34 -28 -10 -30 -10 -30 11 0 26 16
49 45 64 23 12 31 -3 21 -41z m439 43 c-3 -5 -24 -10 -46 -10 -24 0 -38 4 -34
10 3 6 24 10 46 10 24 0 38 -4 34 -10z m-945 -39 c0 -16 -9 -39 -20 -52 l-19
-24 -1 33 c0 36 15 72 30 72 6 0 10 -13 10 -29z m708 2 c-2 -9 -18 -25 -35
-36 -29 -16 -36 -17 -63 -5 -33 14 -36 21 -17 36 15 13 43 19 85 21 26 1 33
-3 30 -16z m3372 -87 c91 -120 103 -140 128 -210 20 -58 26 -96 29 -201 3 -71
1 -140 -4 -153 -8 -20 -14 -14 -76 73 -59 83 -66 98 -57 116 16 30 4 67 -33
101 -30 29 -32 35 -43 149 -6 71 -16 125 -24 132 -10 10 -11 -10 -7 -103 3
-63 8 -122 12 -131 4 -11 -3 -18 -29 -26 -43 -13 -46 -8 -46 90 0 81 10 126
48 211 26 59 26 59 42 35 8 -13 35 -50 60 -83z m-3220 85 c0 -20 -52 -41 -100
-41 -69 0 -62 23 8 30 28 3 54 9 58 13 10 10 34 9 34 -2z m2763 -47 c6 -59 48
-138 93 -173 33 -26 30 -30 -13 -20 -21 5 -69 9 -106 9 -65 0 -71 2 -103 34
-41 41 -42 65 -8 123 27 47 75 83 110 83 18 0 22 -7 27 -56z m-3208 2 c-6 -27
-13 -38 -32 -42 -30 -8 -37 -1 -29 30 5 22 55 61 64 51 2 -2 0 -19 -3 -39z
m-305 14 c-10 -19 -49 -35 -70 -28 -22 7 21 48 51 48 27 0 29 -2 19 -20z
m-7240 6 c0 -2 -7 -6 -15 -10 -8 -3 -15 -1 -15 4 0 6 7 10 15 10 8 0 15 -2 15
-4z m7700 -33 c0 -3 -9 -18 -21 -34 -24 -35 -77 -43 -59 -10 14 27 13 31 -12
31 -29 0 -16 11 24 19 32 7 68 4 68 -6z m-634 -25 c-4 -18 -13 -39 -21 -48
-13 -13 -15 -11 -15 14 0 32 16 66 32 66 7 0 8 -12 4 -32z m389 10 c-17 -60
-28 -76 -53 -81 -15 -3 -28 -4 -30 -2 -8 8 29 74 49 89 32 22 42 20 34 -6z
m406 -2 c-20 -24 -70 -41 -84 -27 -6 6 -22 11 -36 11 -15 0 -21 4 -15 9 10 10
48 17 108 20 32 1 36 -1 27 -13z m-681 -15 c0 -18 -32 -41 -56 -41 -21 0 -23
3 -14 19 14 27 70 44 70 22z m28 -43 c-25 -45 -115 -148 -129 -148 -19 0 -8
25 24 55 17 17 52 54 77 83 24 29 46 52 48 52 2 0 -7 -19 -20 -42z m382 18 c0
-17 -46 -56 -66 -56 -8 0 -11 6 -8 15 5 11 -1 15 -22 15 l-29 1 24 19 c28 24
101 28 101 6z m-240 -10 c0 -45 -36 -96 -68 -96 -15 0 8 83 26 98 21 16 42 15
42 -2z m390 5 c0 -25 -84 -55 -125 -45 -32 8 -23 24 14 24 15 0 36 7 47 15 21
16 64 20 64 6z m-730 -25 c0 -13 -9 -34 -20 -47 l-19 -24 -1 36 c0 33 14 59
32 59 4 0 8 -11 8 -24z m110 -13 c-1 -20 -18 -32 -55 -38 l-40 -8 24 27 c22
24 71 37 71 19z m353 -30 c-10 -29 -35 -53 -55 -53 -15 0 -17 3 -8 19 15 29
13 32 -17 26 -27 -6 -27 -6 -9 9 11 9 37 16 58 16 31 0 36 -3 31 -17z m-218
-25 c-10 -38 -27 -67 -41 -72 -28 -11 -9 67 20 86 20 14 27 8 21 -14z m371 13
c-13 -20 -75 -41 -105 -35 -36 7 -41 31 -8 37 42 8 118 7 113 -2z m-686 -34
c0 -18 -7 -42 -15 -53 -13 -16 -16 -17 -25 -4 -14 21 -12 42 6 68 22 31 34 27
34 -11z m3669 4 l23 -13 -42 -24 c-89 -50 -118 -83 -171 -184 -27 -54 -68
-118 -89 -142 l-39 -43 11 36 c13 44 6 77 -22 109 -33 38 -45 93 -31 139 14
49 78 106 141 126 53 17 183 15 219 -4z m-3564 -21 c-13 -25 -22 -30 -52 -30
l-36 0 19 21 c19 22 49 37 72 38 9 1 9 -6 -3 -29z m120 -46 c-20 -53 -36 -58
-28 -7 4 26 3 34 -5 29 -7 -4 -12 -3 -12 3 0 15 54 42 59 29 2 -5 -4 -29 -14
-54z m205 53 c0 -18 -21 -43 -42 -50 -12 -4 -18 -1 -18 9 0 11 -6 15 -20 11
-28 -7 -26 21 3 33 34 13 77 12 77 -3z m134 -16 c8 -13 -25 -38 -60 -45 -40
-9 -76 4 -65 23 13 21 115 39 125 22z m-1080 -33 c21 -11 61 -41 89 -66 48
-46 49 -48 44 -94 -10 -83 -21 -87 -48 -16 -24 62 -85 136 -154 186 l-30 22
30 -6 c17 -4 48 -16 69 -26z m4483 -3 c68 -34 62 -38 -76 -54 -128 -16 -162
-33 -347 -181 -45 -36 -96 -73 -114 -83 l-31 -19 35 49 c19 27 51 82 70 122
49 103 100 152 195 188 61 23 199 11 268 -22z m-4037 -30 c0 -28 -20 -75 -32
-75 -13 0 -10 74 4 88 19 19 28 14 28 -13z m135 -4 c-26 -24 -97 -38 -89 -18
7 19 42 35 79 36 29 1 29 1 10 -18z m258 -3 c-7 -29 -30 -48 -59 -48 -18 0
-22 5 -21 28 2 33 13 42 54 42 27 0 30 -3 26 -22z m-163 -12 c0 -17 -9 -27
-30 -36 -17 -7 -35 -20 -40 -29 -8 -13 -9 -12 -10 7 0 24 49 82 69 82 6 0 11
-11 11 -24z m299 15 c11 -7 7 -14 -20 -30 -41 -25 -45 -25 -53 -6 -3 8 -15 15
-27 15 -18 0 -19 2 -9 15 14 17 86 20 109 6z m177 -29 c-27 -52 -86 -82 -86
-44 0 28 24 55 61 68 19 6 35 10 37 9 2 -2 -4 -17 -12 -33z m116 8 c-33 -30
-98 -43 -90 -18 6 17 69 48 98 48 l25 -1 -33 -29z m3848 -31 c0 -12 27 -78 59
-147 70 -150 89 -212 98 -308 l6 -71 -48 -6 c-26 -4 -65 -7 -86 -7 -36 0 -39
2 -40 28 -1 15 -5 119 -8 232 -4 131 -10 203 -16 200 -6 -3 -9 -89 -8 -233 1
-126 -1 -227 -3 -224 -19 18 -94 195 -94 220 0 76 41 205 92 295 29 52 48 60
48 21z m-4260 -4 c-7 -8 -20 -15 -28 -15 -13 0 -12 3 4 15 25 19 40 19 24 0z
m190 5 c0 -36 -51 -80 -93 -80 -17 0 -4 34 22 61 28 28 71 40 71 19z m330 0
c0 -13 -28 -27 -73 -35 -30 -6 -37 -4 -37 8 0 9 8 21 18 26 22 13 92 14 92 1z
m-862 -22 c-16 -23 -78 -39 -78 -19 0 16 42 41 68 41 23 0 24 -1 10 -22z m207
0 c-9 -30 -53 -70 -73 -66 -8 2 -20 11 -26 20 -14 23 9 47 55 58 51 12 51 12
44 -12z m-156 -29 c-13 -39 -83 -135 -105 -143 -22 -8 -17 12 7 26 28 17 92
117 85 134 -3 7 0 15 7 17 18 6 18 3 6 -34z m-169 -18 c0 -9 -4 -22 -9 -30 -8
-12 -12 -12 -25 -2 -19 16 -20 34 -5 63 11 21 12 21 25 3 8 -10 14 -26 14 -34z
m820 32 c0 -16 -45 -53 -65 -53 -15 0 -21 6 -21 23 0 12 5 25 10 29 14 10 76
10 76 1z m-453 -28 c-41 -36 -58 -34 -37 6 7 12 21 19 38 19 l27 -1 -28 -24z
m137 -52 c-21 -16 -64 -17 -64 -2 0 21 21 49 48 63 26 14 27 14 30 -17 3 -21
-2 -35 -14 -44z m456 47 c25 -16 0 -25 -66 -24 -67 1 -80 5 -69 23 8 13 114
14 135 1z m-860 -8 c0 -5 -6 -17 -14 -28 -18 -23 -78 -27 -74 -4 5 25 88 56
88 32z m113 -22 c9 -11 17 -22 17 -24 0 -2 -22 -20 -49 -39 -58 -42 -173 -171
-284 -319 -51 -68 -87 -108 -99 -108 -10 0 -18 3 -18 6 0 20 207 271 327 395
40 42 73 84 73 93 0 22 12 20 33 -4z m453 -15 c-46 -41 -71 -46 -61 -14 6 19
4 21 -19 17 -14 -3 -26 -1 -26 3 0 12 58 27 105 28 l40 0 -39 -34z m-722 -4
c14 -26 14 -30 -5 -47 -17 -16 -22 -16 -29 -4 -11 17 -13 42 -4 64 9 24 22 19
38 -13z m473 -57 c-3 -3 -21 -8 -41 -11 -47 -7 -47 8 2 56 l37 36 3 -39 c2
-21 1 -40 -1 -42z m443 56 l25 -7 -34 -15 c-33 -15 -64 -13 -121 9 -45 16 79
29 130 13z m-1103 -97 c-6 -95 -31 -217 -63 -315 -15 -45 -18 -48 -50 -48 -41
0 -42 6 -13 115 22 84 118 345 127 345 3 0 2 -44 -1 -97z m543 90 c-1 -12 -91
-75 -98 -69 -9 10 60 76 80 76 10 0 18 -3 18 -7z m270 -22 c0 -5 -13 -23 -29
-40 -34 -36 -62 -42 -54 -11 4 15 0 20 -16 20 -26 0 -27 15 -3 29 21 13 102
14 102 2z m-540 -7 c0 -30 -48 -68 -74 -58 -23 9 -20 30 6 48 22 15 68 22 68
10z m718 -10 c26 -7 29 -19 7 -28 -22 -8 -116 14 -109 25 6 10 67 12 102 3z
m3747 -109 c76 -107 160 -272 134 -263 -6 2 -21 28 -33 58 -31 76 -70 135
-132 200 -33 35 -54 68 -59 90 l-7 35 20 -20 c11 -11 46 -56 77 -100z m-4195
61 c0 -29 -4 -35 -27 -41 -16 -3 -36 -14 -45 -22 -36 -33 -11 26 30 70 34 35
42 34 42 -7z m-854 -107 c42 -63 105 -189 119 -236 6 -22 4 -23 -49 -23 -31 0
-56 3 -56 8 0 4 -7 48 -15 99 -17 106 -42 175 -87 242 l-31 46 37 -35 c21 -19
57 -65 82 -101z m744 126 c0 -2 -10 -10 -22 -16 -21 -11 -22 -11 -9 4 13 16
31 23 31 12z m455 -10 c33 -7 32 -20 -3 -34 -26 -11 -70 -8 -95 6 -17 10 26
43 49 38 13 -3 35 -7 49 -10z m-191 -4 c3 -5 -7 -23 -23 -40 -34 -36 -62 -42
-54 -11 4 16 0 20 -21 20 -31 0 -26 16 8 30 28 12 83 12 90 1z m-525 -25 c10
-12 3 -26 -37 -76 -27 -33 -75 -110 -106 -170 -51 -98 -76 -131 -76 -100 0 18
59 130 121 231 32 53 59 103 59 113 0 20 23 21 39 2z m62 -35 c-47 -66 -174
-215 -167 -196 25 71 144 225 173 225 11 0 10 -6 -6 -29z m194 -13 c-5 -26
-14 -37 -38 -46 -37 -14 -41 -11 -33 23 6 22 64 70 74 61 2 -2 0 -19 -3 -38z
m383 13 c15 -8 13 -11 -11 -20 -31 -12 -87 -14 -112 -5 -14 6 -14 8 2 26 15
16 26 19 61 14 24 -3 51 -10 60 -15z m-218 -5 c0 -8 -15 -27 -32 -42 -28 -22
-34 -24 -36 -10 -2 9 -13 16 -27 16 -18 0 -23 4 -18 16 12 31 113 49 113 20z
m4102 -26 c21 -23 38 -45 38 -49 0 -5 -28 -2 -62 5 -35 7 -79 13 -99 14 -20 0
-42 7 -49 15 -10 12 -7 15 17 20 15 4 42 12 58 20 45 21 55 18 97 -25z m-259
14 c67 -34 65 -37 -56 -60 -116 -23 -157 -37 -157 -54 0 -14 22 -12 61 4 39
16 222 40 259 35 22 -4 20 -7 -25 -29 -44 -22 -67 -25 -195 -30 -80 -3 -146
-5 -148 -4 -7 4 38 81 60 101 57 54 139 68 201 37z m-3739 -42 c34 -6 37 -9
23 -20 -16 -13 -143 -19 -155 -8 -3 3 1 12 8 21 13 16 58 19 124 7z m-364 -25
c0 -20 -21 -41 -62 -65 -50 -28 -51 -6 -3 43 36 36 65 46 65 22z m133 -13
c-19 -29 -65 -52 -71 -35 -2 6 -10 11 -18 11 -18 0 -18 15 2 34 9 10 33 16 60
16 l44 0 -17 -26z m117 -24 c21 -12 -33 -33 -79 -31 -45 1 -51 9 -22 32 24 20
63 19 101 -1z m4119 10 c45 -13 89 -55 112 -108 11 -24 19 -46 19 -48 0 -2
-37 -4 -82 -4 l-83 0 -59 50 c-32 28 -67 55 -79 61 -20 11 -20 12 -1 22 21 12
100 35 124 36 8 1 31 -3 49 -9z m-4070 -91 c-57 -39 -111 -78 -120 -85 -18
-16 -114 -20 -104 -4 4 6 25 20 48 31 23 12 49 30 57 40 16 20 173 89 204 89
11 0 -27 -31 -85 -71z m-281 31 c-12 -35 -43 -60 -75 -60 -25 0 -30 19 -12 51
11 22 42 37 76 38 20 1 21 -2 11 -29z m-155 -39 c-5 -3 -16 -18 -26 -33 -9
-15 -27 -32 -38 -39 -26 -13 -23 -8 30 66 28 38 37 45 39 31 2 -10 0 -21 -5
-25z m297 29 c12 -7 7 -12 -22 -25 -53 -22 -108 -20 -108 3 0 10 3 22 7 25 10
10 106 8 123 -3z m1618 -15 c7 -14 19 -28 27 -31 21 -9 19 -25 -2 -17 -26 9
-63 44 -63 60 0 22 26 14 38 -12z m2439 -13 c38 -27 69 -62 55 -62 -7 0 -50
19 -97 42 -61 31 -80 44 -68 49 25 8 77 -5 110 -29z m-2455 -40 c88 -92 111
-154 63 -166 -24 -6 -116 31 -129 53 -8 12 68 -5 105 -24 15 -8 30 -15 34 -15
13 0 3 39 -15 63 -22 28 -139 97 -164 97 -20 0 -20 9 1 32 26 29 47 22 105
-40z m2381 8 l52 -30 -57 0 c-32 0 -58 3 -58 8 0 4 -3 17 -6 30 -8 30 6 28 69
-8z m-4238 -4 c18 -13 16 -16 -30 -45 -70 -44 -85 -39 -39 13 22 24 42 45 45
45 3 1 14 -5 24 -13z m143 -5 c27 -17 -46 -29 -84 -14 -16 6 -16 7 2 14 26 10
66 10 82 0z m1912 -43 l35 -4 -29 -8 c-36 -11 -79 10 -85 39 -3 19 -2 19 20
-2 13 -12 40 -23 59 -25z m-274 11 c10 -11 14 -20 9 -19 -21 5 -36 0 -30 -10
3 -5 -3 -10 -14 -10 -12 0 -21 -4 -21 -8 0 -13 41 -47 93 -77 95 -54 94 -97
-2 -212 -40 -48 -56 -74 -49 -81 7 -7 -3 -14 -29 -22 -21 -7 -44 -17 -51 -23
-14 -11 -99 -4 -112 9 -5 5 20 101 57 219 77 247 102 286 149 234z m-1691 -19
c4 -6 -14 -10 -47 -10 -38 0 -49 3 -38 10 20 13 77 13 85 0z m4792 -205 c-3
-47 -9 -90 -12 -96 -4 -5 -20 2 -39 18 -18 15 -41 33 -51 39 -26 15 -13 41 24
49 42 9 47 22 20 51 l-22 24 43 0 43 0 -6 -85z m-139 -33 c2 -7 -3 -12 -12
-12 -9 0 -16 7 -16 16 0 17 22 14 28 -4z m-54 -8 c6 -17 -9 -44 -25 -44 -12 0
-31 39 -24 50 10 16 42 12 49 -6z m-70 -28 c9 -19 16 -48 16 -66 0 -17 5 -41
11 -52 9 -16 8 -24 -5 -36 -14 -14 -25 -7 -113 73 -54 49 -105 95 -113 102
-12 11 3 13 87 13 l101 0 16 -34z m-5225 -122 c16 -49 33 -110 36 -136 7 -46
6 -48 -18 -48 -29 0 -37 27 -37 120 0 31 -9 83 -20 115 -11 32 -20 63 -20 69
0 26 32 -40 59 -120z m160 100 c5 -5 -38 -206 -45 -213 -9 -10 -12 9 -19 118
l-7 113 33 -7 c19 -4 36 -9 38 -11z m109 -1 c-26 -59 -90 -230 -94 -253 -4
-16 -13 -30 -20 -30 -15 0 -14 10 13 110 30 109 64 180 85 180 11 0 18 -3 16
-7z m62 -8 c-13 -16 -40 -20 -40 -7 0 14 12 22 33 22 16 0 17 -3 7 -15z m4480
-47 c72 -11 78 -15 144 -75 39 -35 102 -79 145 -100 66 -33 72 -38 48 -41 -28
-3 -119 45 -187 100 -19 15 -39 28 -44 28 -8 0 -3 -61 10 -107 l6 -23 -313 0
c-308 0 -314 1 -290 19 l24 19 -56 37 c-64 42 -67 55 -9 32 89 -36 242 -53
242 -28 0 11 -40 46 -80 70 -43 26 -35 26 49 1 147 -43 270 -46 309 -6 15 14
15 18 1 31 -9 9 -42 27 -75 41 -34 15 -46 23 -29 20 17 -3 64 -11 105 -18z
m329 -44 c65 -60 71 -69 71 -105 0 -21 -2 -39 -5 -39 -17 0 -142 64 -194 99
-52 36 -90 77 -79 85 3 3 100 22 124 25 6 0 44 -29 83 -65z m-4384 47 c-6 -5
-44 -23 -85 -40 -41 -17 -91 -41 -110 -53 l-35 -21 40 -18 c67 -30 122 -34
218 -14 49 9 118 28 155 41 36 12 68 21 70 20 2 -2 -32 -23 -75 -46 -43 -23
-82 -45 -87 -50 -4 -5 7 -17 25 -27 34 -18 34 -18 -190 -21 -123 -1 -226 0
-228 2 -7 6 41 91 83 149 28 39 40 47 67 48 17 0 59 9 92 19 33 10 62 18 65
19 2 0 0 -3 -5 -8z m-1034 -53 c67 -33 179 -135 179 -162 0 -9 -8 -16 -20 -16
-11 0 -23 -7 -26 -15 -4 -10 -19 3 -48 43 -24 31 -73 85 -110 120 -37 34 -61
62 -53 62 8 0 43 -14 78 -32z m6244 -9 c-58 -64 -75 -116 -90 -259 -12 -122
-14 -132 -63 -231 -69 -140 -172 -328 -199 -364 l-22 -30 -1 120 c0 255 100
520 261 690 38 39 66 75 63 78 -21 21 -124 -80 -181 -178 -38 -64 -94 -197
-130 -305 l-28 -85 -6 60 c-10 88 -10 165 -1 165 5 0 28 17 51 37 42 35 43 38
37 81 -3 25 -11 51 -17 58 -16 19 4 48 64 93 87 65 194 109 271 110 l28 1 -37
-41z m-5686 12 c13 -8 10 -21 -14 -82 -29 -72 -47 -99 -66 -99 -12 0 -8 16 28
118 27 75 29 78 52 63z m230 -13 c-45 -84 -101 -158 -119 -158 -11 0 -20 2
-20 5 0 3 18 41 40 85 36 71 43 79 72 83 18 2 34 5 36 5 1 1 -3 -8 -9 -20z
m-141 -7 c-14 -37 -74 -160 -78 -161 -3 0 -11 4 -19 9 -12 8 -12 15 2 48 45
111 46 113 73 113 14 0 24 -4 22 -9z m42 -15 c-14 -38 -72 -137 -77 -132 -5 4
52 122 69 144 16 19 18 15 8 -12z m3705 -137 c-66 -11 -102 -1 -110 30 -3 14
-8 33 -11 42 -3 11 20 4 78 -25 l83 -41 -40 -6z m920 17 c19 -14 17 -15 -32
-16 -46 0 -53 3 -53 19 0 11 -3 27 -6 36 -6 15 -2 14 32 -3 21 -11 48 -27 59
-36z m-2460 6 c50 -3 81 0 108 11 34 15 40 15 74 0 46 -19 163 -14 208 9 30
16 30 16 83 -33 l52 -48 -20 -60 c-26 -77 -25 -84 6 -217 23 -100 25 -117 14
-168 -21 -100 -65 -133 -215 -161 -49 -10 -106 -25 -126 -36 -35 -18 -38 -18
-72 0 -20 10 -78 26 -129 35 -118 22 -166 47 -195 106 -29 56 -30 128 -3 230
25 96 25 163 -1 219 l-20 45 52 52 52 53 31 -16 c17 -9 63 -18 101 -21z
m-1402 8 c-18 -11 -33 -24 -33 -30 0 -6 -26 -10 -62 -9 l-63 1 85 28 c103 34
115 36 73 10z m303 -19 c-11 -12 -25 -16 -43 -13 l-26 5 24 13 c13 7 33 13 43
14 18 0 18 -1 2 -19z m4069 -56 c-16 -14 -33 -25 -38 -25 -4 0 -157 -107 -340
-237 -393 -281 -1230 -880 -1304 -935 l-52 -38 224 -662 c123 -365 271 -804
330 -976 58 -172 105 -317 103 -322 -2 -7 -996 697 -1565 1109 l-143 103 -49
-35 c-46 -34 -50 -35 -65 -18 -15 16 -12 20 44 59 32 23 62 42 65 42 3 0 368
-259 811 -575 443 -316 812 -575 821 -575 8 0 13 6 10 13 -2 6 -72 210 -155
452 -283 824 -472 1388 -472 1405 0 10 301 229 820 595 451 318 820 582 820
587 0 4 -315 8 -700 8 -691 0 -700 0 -700 20 0 19 8 20 183 23 100 1 452 3
782 4 l600 2 -30 -24z m-4095 8 c-1 -31 -22 -32 -693 -39 -372 -4 -677 -10
-677 -13 1 -6 1003 -714 1430 -1009 l207 -144 -30 -96 c-17 -54 -31 -98 -32
-100 -1 -1 -9 0 -17 3 -13 5 -12 17 10 86 14 46 21 84 16 88 -5 5 -223 158
-484 341 -261 183 -646 455 -855 604 l-380 271 40 6 c59 9 1465 10 1465 2z
m-20 -104 l0 -52 45 6 c25 4 56 9 69 13 23 5 24 4 28 -65 5 -94 15 -103 77
-68 27 15 51 27 54 27 3 0 8 -17 11 -37 20 -110 37 -123 96 -73 39 34 50 37
50 14 0 -21 41 -114 50 -114 4 0 18 11 31 25 13 13 29 25 35 25 6 0 21 -25 33
-55 13 -30 27 -58 32 -61 5 -3 21 4 36 16 l27 21 20 -43 c12 -23 26 -43 32
-45 6 -2 28 10 49 27 21 16 41 30 45 30 20 0 31 -63 28 -170 -3 -108 -1 -121
31 -215 30 -91 32 -104 22 -143 -12 -45 -55 -82 -95 -82 -11 0 -91 48 -179
106 l-160 105 32 29 c82 76 64 184 -42 240 l-47 25 -47 -18 c-27 -10 -55 -18
-63 -17 -8 1 -43 3 -77 4 -69 1 -100 -15 -141 -75 -30 -43 -26 -111 8 -159 18
-26 23 -44 21 -82 -3 -62 16 -94 76 -120 69 -31 151 -4 191 61 l18 30 141
-100 c140 -98 142 -100 136 -132 -7 -49 19 -105 54 -113 15 -4 40 -17 55 -29
28 -24 127 -41 171 -30 20 5 40 -3 86 -34 33 -23 63 -45 66 -51 6 -10 -305
-220 -326 -220 -6 0 3 17 19 38 47 59 112 164 112 180 0 23 -220 12 -280 -15
-44 -19 -110 -83 -110 -105 0 -9 -3 -9 -11 -1 -9 9 -9 23 0 58 11 43 10 48
-11 65 -13 11 -27 19 -31 20 -20 0 -49 -24 -73 -61 -23 -37 -28 -40 -62 -37
-35 3 -37 5 -40 43 -2 26 -12 49 -29 67 l-25 26 37 112 c20 62 33 115 29 120
-5 4 -191 134 -414 289 -223 155 -518 362 -656 459 -138 97 -316 222 -395 277
l-144 100 415 5 c228 3 522 6 653 8 l237 2 0 -51z m3719 -101 c-118 -83 -477
-338 -798 -567 -321 -229 -586 -416 -589 -416 -3 0 -16 38 -28 84 -21 77 -22
85 -7 107 13 20 21 23 48 18 47 -9 114 13 151 50 82 82 65 225 -36 294 -29 20
-44 23 -93 20 -89 -7 -157 -71 -157 -149 0 -25 -5 -39 -12 -39 -7 1 -49 65
-94 143 l-80 142 -37 -2 c-22 -1 -37 2 -37 9 0 8 52 102 65 116 2 2 20 -15 40
-37 21 -23 41 -41 45 -41 4 0 18 45 30 100 13 55 27 100 32 100 4 0 8 -5 8
-10 0 -6 12 -29 27 -51 37 -56 61 -50 85 21 10 30 22 83 25 118 6 61 6 62 27
47 12 -8 41 -27 64 -41 55 -34 65 -24 59 64 -5 70 -3 71 61 42 l43 -19 9 24
10 25 676 0 677 0 -214 -152z m-5410 -49 c67 -101 196 -378 159 -341 -6 6 -26
12 -43 12 -29 1 -32 5 -145 240 -63 132 -116 245 -118 252 -6 24 104 -99 147
-163z m185 86 c3 -11 7 -87 10 -170 5 -129 22 -276 41 -365 3 -14 -10 20 -29
75 -18 55 -45 128 -60 162 -23 55 -26 76 -26 177 0 62 3 127 6 144 6 31 7 31
30 14 13 -9 26 -26 28 -37z m6050 -37 c-38 -40 -106 -125 -151 -188 -45 -63
-89 -124 -98 -135 -15 -19 -16 -19 -4 5 7 14 32 61 57 105 25 44 60 114 78
155 33 74 34 75 96 102 35 15 69 28 77 28 7 0 -17 -33 -55 -72z m-5992 -208
c2 -115 1 -183 -3 -155 -13 80 -22 392 -11 375 5 -8 11 -107 14 -220z m5548
218 c0 -7 7 -80 15 -163 19 -197 20 -391 1 -398 -10 -4 -14 18 -20 100 -3 59
-6 134 -6 169 0 35 -9 111 -21 171 -20 102 -20 108 -3 120 22 16 34 17 34 1z
m-5478 -64 c10 -38 18 -624 8 -624 -18 0 -45 251 -56 510 l-7 174 24 -15 c13
-9 27 -29 31 -45z m-1270 26 c6 0 3 -9 -7 -20 -14 -16 -20 -17 -27 -8 -13 22
-9 41 8 34 9 -3 20 -6 26 -6z m6654 -32 c-3 -13 -6 -31 -6 -40 0 -26 -19 -22
-32 7 -8 19 -8 28 2 40 20 24 43 19 36 -7z m-5336 -44 c0 -19 -4 -34 -10 -34
-5 0 -10 18 -10 41 0 24 4 38 10 34 6 -3 10 -22 10 -41z m5375 4 c12 -37 19
-428 8 -428 -13 0 -21 78 -29 283 -5 113 -4 167 3 167 6 0 14 -10 18 -22z
m-5315 -9 c6 -11 8 -34 5 -50 -7 -29 -8 -30 -26 -13 -22 20 -22 24 -9 58 12
31 16 32 30 5z m5244 -58 c17 -51 36 -203 36 -295 l0 -59 -38 59 c-21 32 -56
74 -77 93 -41 35 -148 91 -177 91 -35 0 -27 20 24 58 167 122 182 131 200 115
9 -9 24 -36 32 -62z m-5154 -28 c0 -22 -2 -24 -15 -13 -8 7 -15 24 -15 37 0
22 2 24 15 13 8 -7 15 -24 15 -37z m-124 3 c3 -8 4 -27 2 -42 -3 -27 -4 -27
-20 -10 -22 22 -24 66 -3 66 9 0 18 -6 21 -14z m5933 -105 c-27 -61 -55 -137
-64 -170 -8 -34 -22 -89 -31 -123 -21 -86 -91 -230 -148 -305 -63 -83 -129
-140 -213 -186 l-71 -37 14 72 c8 40 17 92 21 116 5 37 11 46 44 63 46 23 72
59 74 102 1 18 11 48 23 67 12 19 22 51 22 70 0 48 88 178 198 292 53 55 79
88 68 88 -23 0 -134 -116 -218 -228 -68 -90 -71 -92 -89 -76 -11 9 -36 20 -57
24 l-37 6 100 100 c73 72 120 110 175 138 72 38 203 93 227 95 6 1 -11 -48
-38 -108z m-5859 76 c0 -25 -26 -67 -41 -67 -14 0 -11 38 7 65 20 31 34 32 34
2z m132 -3 c21 -15 38 -31 38 -37 0 -21 -84 -257 -89 -251 -3 3 -10 47 -16 97
-9 74 -8 104 4 155 8 34 17 62 20 62 3 0 22 -12 43 -26z m2993 -65 c26 -31 26
-32 5 -46 -35 -25 -27 -91 38 -292 l37 -113 -32 -27 c-42 -35 -154 -101 -171
-101 -7 0 -24 11 -37 25 -30 29 -33 80 -10 145 8 23 15 57 15 74 0 18 4 36 9
42 5 5 3 47 -7 104 -17 103 -20 165 -9 176 4 4 17 -2 30 -13 41 -37 46 -37 67
11 10 25 24 46 29 46 5 0 21 -14 36 -31z m-3213 4 c19 -17 25 -73 9 -73 -15 0
-41 42 -41 67 0 27 7 29 32 6z m118 12 c0 -13 -30 -62 -44 -74 -25 -21 -21 20
5 53 19 24 39 34 39 21z m242 -51 l47 -32 -87 -93 c-48 -52 -101 -115 -117
-141 -17 -27 -33 -48 -37 -48 -4 0 13 57 38 128 25 70 52 145 60 167 8 22 16
46 19 53 5 15 8 13 77 -34z m4740 -2 c24 -10 60 -33 80 -51 35 -30 114 -139
106 -145 -1 -2 -17 -11 -35 -20 -17 -9 -34 -25 -38 -36 -3 -11 -10 -20 -14
-20 -4 0 -29 31 -55 70 -51 74 -172 210 -187 210 -20 0 -7 -28 32 -65 57 -56
141 -161 174 -219 28 -48 28 -49 12 -92 -9 -25 -14 -51 -10 -59 3 -9 -31 10
-76 40 l-81 56 -70 140 c-38 77 -70 146 -70 152 0 7 19 25 43 40 36 24 49 27
94 23 28 -2 71 -13 95 -24z m-1767 -12 c8 -13 -54 -40 -90 -40 -35 0 -31 18 8
35 38 17 73 19 82 5z m-3231 -81 c-45 -49 -60 0 -16 52 l27 33 3 -33 c2 -21
-3 -40 -14 -52z m-74 -16 c0 -12 -4 -23 -8 -23 -17 0 -32 25 -32 54 0 28 0 29
20 11 11 -10 20 -29 20 -42z m530 -25 c63 -45 165 -116 225 -158 93 -65 552
-387 564 -397 12 -9 -16 -17 -71 -19 l-63 -3 -17 -40 c-21 -50 -40 -52 -80 -9
-27 29 -29 37 -23 73 18 108 18 105 -2 105 -11 0 -32 -14 -48 -30 -16 -17 -34
-29 -40 -27 -5 2 -20 1 -32 -4 -15 -5 -25 -3 -34 7 -10 13 -9 28 9 82 23 72
18 92 -24 92 -19 0 -24 -7 -30 -37 -4 -21 -11 -44 -17 -50 -14 -19 -51 -16
-81 8 -22 18 -26 26 -20 54 5 27 2 36 -17 49 -38 26 -53 19 -88 -39 -41 -68
-66 -78 -98 -39 -19 24 -22 38 -19 84 2 30 7 70 11 88 6 26 4 32 -9 32 -15 0
-16 8 -10 60 4 39 3 60 -4 60 -6 0 -12 -5 -14 -11 -3 -10 -27 38 -42 84 -3 9
-9 17 -14 17 -9 0 -52 -97 -52 -118 0 -20 -20 -13 -31 12 -9 18 -7 31 9 62 10
21 22 51 26 67 3 15 10 27 14 27 4 0 59 -37 122 -82z m4352 -48 c37 -72 65
-130 63 -130 -3 0 -59 18 -124 40 -156 53 -156 53 -132 -7 10 -27 24 -93 31
-148 14 -117 36 -181 85 -250 34 -47 118 -114 195 -155 42 -23 150 -122 150
-139 0 -6 -9 -11 -20 -11 -28 0 -77 -26 -89 -47 -9 -16 -14 -14 -53 23 -98 93
-147 111 -332 119 l-139 6 6 -42 c7 -53 78 -200 128 -265 21 -28 67 -74 102
-103 34 -29 72 -67 85 -84 64 -91 85 -128 103 -189 17 -57 19 -73 9 -103 -11
-34 -13 -35 -64 -35 -50 0 -54 2 -107 58 -31 31 -68 80 -84 107 -85 153 -257
332 -344 360 -22 7 -23 6 -15 -21 13 -42 11 -131 -6 -284 -13 -122 -17 -137
-40 -157 l-25 -22 35 -1 c34 0 38 -4 64 -57 15 -32 52 -95 82 -141 30 -45 54
-90 54 -100 -1 -12 -7 -9 -23 13 -12 16 -50 62 -83 102 -34 40 -71 85 -82 100
-29 40 -30 39 -62 -120 -6 -31 -15 -55 -20 -52 -15 9 -392 1167 -383 1175 4 4
192 139 417 300 224 160 438 314 475 341 36 27 68 49 71 49 3 0 35 -59 72
-130z m-1514 2 c34 -65 81 -170 106 -233 59 -153 138 -411 128 -421 -4 -4 -22
-10 -39 -14 -31 -6 -34 -4 -86 77 -80 125 -104 171 -90 176 7 2 23 13 37 24
l25 20 -23 62 c-24 66 -22 64 -122 83 -17 3 -29 27 -62 126 -23 68 -44 139
-47 159 -6 32 -4 37 17 42 12 4 29 7 36 7 17 0 132 -241 217 -456 70 -177 72
-180 80 -172 13 13 -89 276 -186 477 -38 79 -69 148 -69 153 0 28 25 -6 78
-110z m8812 69 c0 -24 5 -41 14 -44 7 -3 17 -18 20 -33 18 -69 83 -115 111
-77 13 17 14 17 28 -2 17 -22 6 -55 -17 -55 -15 0 -26 -30 -26 -75 0 -22 -7
-34 -28 -46 -30 -17 -109 -113 -134 -164 -19 -38 -30 -97 -22 -119 3 -9 15
-16 26 -16 15 0 18 -4 13 -17 -4 -10 -10 -28 -12 -40 -3 -13 -10 -23 -17 -23
-18 0 -38 -39 -31 -61 4 -13 2 -19 -9 -19 -8 0 -20 -8 -25 -18 -5 -9 -25 -35
-45 -56 -42 -44 -70 -95 -81 -146 -4 -19 -23 -54 -42 -78 -49 -60 -72 -152
-38 -152 8 0 14 -6 12 -12 -1 -7 6 -12 15 -12 19 2 68 -39 68 -56 0 -5 -9 -10
-20 -10 -17 0 -20 -6 -18 -27 4 -35 -41 -65 -69 -46 -10 6 -17 16 -16 22 2 6
-8 11 -21 11 -32 0 -58 -34 -80 -107 -13 -44 -26 -64 -45 -76 -56 -33 -93 8
-56 61 13 17 13 26 5 43 -6 11 -9 27 -6 35 3 8 -3 23 -14 34 -11 11 -20 30
-20 43 0 13 -5 28 -11 34 -8 8 -1 16 26 29 l37 17 -6 64 c-6 55 -4 68 14 92
17 25 18 30 5 35 -9 3 -15 0 -15 -9 0 -8 -6 -15 -14 -15 -9 0 -12 8 -8 25 2
14 0 25 -6 25 -18 0 -5 54 24 102 30 49 56 63 100 52 l27 -7 -5 52 c-6 60 -20
80 -41 62 -18 -14 -50 -3 -43 15 3 7 -6 20 -20 28 -34 23 -31 53 6 61 17 4 30
10 30 15 0 23 34 41 67 35 32 -6 45 6 22 20 -7 5 -3 15 11 30 l22 24 -36 15
c-32 14 -36 18 -26 35 5 11 9 25 8 30 -2 5 5 16 16 23 18 14 18 16 -3 56 -14
28 -28 42 -41 42 -15 0 -20 7 -20 24 0 26 39 76 59 76 13 0 13 3 5 24 -8 20
-48 21 -64 1 -18 -22 -32 -18 -20 6 7 11 24 25 40 30 16 6 33 22 40 39 12 28
12 28 52 14 52 -18 94 -18 102 1 4 10 20 15 51 15 59 0 129 34 120 58 -18 46
-17 72 1 78 11 3 26 9 34 14 30 18 40 11 40 -29z m-11854 -67 c-18 -43 -55
-125 -80 -181 -25 -57 -53 -130 -63 -163 -16 -61 -30 -72 -53 -45 -10 12 -9
26 8 73 11 31 23 86 27 121 5 47 14 76 35 105 34 49 151 178 157 173 2 -2 -12
-40 -31 -83z m-640 40 c8 -20 13 -39 10 -42 -3 -3 -6 0 -6 6 0 6 -12 24 -26
41 -21 25 -23 31 -9 31 9 0 22 -15 31 -36z m69 26 c20 0 26 -7 35 -42 6 -24
14 -52 17 -63 5 -19 4 -19 -19 3 -13 12 -31 22 -40 22 -10 0 -22 17 -32 46
-14 41 -14 45 0 40 9 -3 26 -6 39 -6z m3995 -16 c67 -57 85 -158 40 -227 -26
-39 -90 -77 -129 -77 -18 0 -21 4 -16 23 4 12 22 36 40 52 57 51 69 99 40 155
-33 64 -106 51 -148 -28 -33 -61 -53 -66 -63 -17 -20 108 148 193 236 119z
m-3650 -6 c0 -21 -35 -68 -52 -68 -16 0 -7 44 14 67 27 29 38 29 38 1z m1668
-23 c54 -59 36 -122 -49 -165 -21 -11 -39 -24 -39 -28 0 -4 81 -61 180 -126
162 -107 198 -136 171 -136 -4 0 -71 42 -147 93 -76 52 -160 106 -186 121
l-47 27 -11 -42 c-16 -58 -35 -84 -75 -103 -47 -22 -79 -20 -113 9 -35 29 -46
63 -32 100 8 22 6 32 -15 60 -87 113 19 254 154 208 39 -13 46 -13 84 7 52 26
82 20 125 -25z m1728 -219 c58 -131 107 -288 128 -406 13 -71 -12 -11 -49 120
-41 146 -100 300 -171 449 -24 51 -44 96 -44 100 1 17 77 -131 136 -263z
m-3846 225 c12 -24 13 -31 2 -31 -5 0 -14 11 -20 25 -14 29 2 34 18 6z m-49
-8 c13 -16 12 -17 -3 -4 -10 7 -18 15 -18 17 0 8 8 3 21 -13z m394 -13 c17
-33 20 -60 6 -60 -15 0 -51 51 -51 71 0 29 28 22 45 -11z m463 -37 c2 -21 -4
-39 -22 -59 l-25 -29 -1 51 c0 72 41 105 48 37z m3242 0 c25 -32 22 -85 -5
-112 -13 -14 -15 -12 -15 13 0 40 -15 62 -51 75 -31 11 -32 12 -14 31 25 28
60 25 85 -7z m-3595 -31 c-6 -29 -41 -62 -66 -62 -18 0 0 52 29 83 30 32 47
23 37 -21z m230 -48 c-3 -19 -10 -34 -16 -34 -19 0 -20 29 -2 67 20 43 30 26
18 -33z m-348 34 c22 -21 33 -78 15 -78 -15 0 -42 36 -52 69 -10 38 3 41 37 9z
m2617 -16 c23 -44 135 -156 158 -157 12 -1 33 -15 47 -32 14 -16 43 -38 63
-48 65 -33 68 -83 7 -115 -10 -6 -19 -21 -19 -34 0 -20 -28 -42 -165 -131 -90
-59 -168 -105 -172 -103 -5 1 -56 35 -113 75 -66 45 -110 82 -118 100 -7 15
-19 39 -27 53 -16 26 -13 81 8 130 l10 25 6 -30 c8 -41 22 -36 51 18 28 53 35
57 44 25 6 -22 7 -22 20 -5 7 9 20 17 28 17 18 0 86 100 123 183 15 31 28 57
30 57 3 0 11 -13 19 -28z m-2150 -100 c-31 -26 -39 -30 -46 -18 -12 21 8 66
45 104 l32 33 3 -43 c3 -39 0 -46 -34 -76z m-64 29 l-1 -56 -19 24 c-30 36
-25 126 6 100 9 -7 14 -32 14 -68z m3220 70 c0 -5 -7 -11 -15 -15 -9 -3 -15 0
-15 9 0 8 7 15 15 15 8 0 15 -4 15 -9z m1218 -27 c108 -40 223 -106 283 -162
98 -90 139 -203 138 -375 l0 -92 -53 111 c-60 126 -93 177 -176 273 -79 92
-258 247 -271 234 -6 -6 26 -42 97 -104 195 -172 278 -276 343 -436 50 -121
48 -137 -7 -58 -58 82 -98 113 -211 160 -105 43 -124 56 -161 107 -38 52 -57
117 -69 233 -5 50 -14 102 -20 118 -10 26 -10 27 17 21 15 -4 55 -17 90 -30z
m-4985 -27 c14 -40 13 -44 -3 -55 -16 -10 -22 -6 -39 24 l-21 36 22 18 c13 11
24 19 25 20 0 0 8 -19 16 -43z m3814 11 c-3 -7 -5 -2 -5 12 0 14 2 19 5 13 2
-7 2 -19 0 -25z m-31 -33 c-4 -19 -11 -37 -17 -40 -9 -6 -9 3 7 73 9 38 17 8
10 -33z m-3516 30 c0 -23 -26 -81 -40 -90 -14 -8 -30 11 -30 36 0 22 38 69 56
69 8 0 14 -7 14 -15z m3424 6 c3 -5 0 -11 -8 -14 -8 -3 -17 1 -20 9 -6 15 19
20 28 5z m-3750 -58 c16 -31 16 -33 -1 -33 -23 0 -45 44 -30 59 6 6 12 10 13
8 1 -1 9 -17 18 -34z m506 -25 l0 -62 -22 21 c-20 21 -21 25 -8 63 7 22 17 40
22 40 4 0 8 -28 8 -62z m-292 32 c12 -12 22 -30 22 -41 0 -19 -2 -19 -30 -4
-21 11 -30 23 -30 40 0 30 9 31 38 5z m368 -61 c19 -38 19 -39 -21 -39 -30 0
-35 3 -35 23 0 12 3 32 6 45 5 18 9 20 21 10 8 -6 21 -24 29 -39z m124 9 l0
-43 -40 0 c-22 -1 -40 2 -40 7 0 8 67 78 75 78 3 0 5 -19 5 -42z m2493 -44
c24 -75 28 -79 128 -114 100 -36 136 -94 87 -140 -30 -28 -35 -26 -43 17 -7
40 -62 103 -89 103 -24 0 -19 -13 12 -31 52 -29 79 -121 46 -154 -24 -24 -37
-14 -49 41 -13 55 -27 85 -49 104 -22 18 -20 5 10 -56 38 -77 22 -126 -37
-111 -23 6 -24 10 -24 87 0 68 -3 84 -19 95 -10 8 -15 19 -11 25 4 6 -1 39
-10 74 -16 57 -16 65 -1 101 9 21 19 36 21 33 3 -3 15 -36 28 -74z m8677 45
c0 -12 -27 -11 -35 1 -11 17 5 32 21 19 8 -6 14 -15 14 -20z m-11661 -25 c37
-31 43 -74 11 -74 -22 0 -60 53 -60 83 0 24 13 21 49 -9z m2271 -27 c0 -10
-10 -51 -22 -90 -16 -54 -19 -76 -11 -96 27 -66 27 -67 12 -53 -24 22 -29 13
-23 -47 6 -51 4 -61 -15 -80 -27 -27 -37 -27 -52 0 -8 16 -8 36 1 79 14 65 9
101 -8 58 -6 -15 -14 -50 -18 -78 -6 -44 -9 -50 -30 -50 -31 0 -58 41 -50 75
4 14 25 44 48 65 22 22 39 43 36 45 -12 12 -39 -10 -78 -62 -40 -52 -42 -54
-61 -37 -25 23 -24 37 5 71 16 20 45 36 85 48 75 23 102 51 131 139 21 63 24
68 36 51 8 -10 14 -27 14 -38z m1070 24 c0 -12 -209 -115 -217 -108 -10 11
162 117 189 117 16 0 28 -4 28 -9z m-3096 -52 c6 -42 5 -46 -19 -57 -28 -13
-29 -12 -14 43 21 82 23 83 33 14z m-141 21 c-3 -12 -8 -19 -11 -16 -5 6 5 36
12 36 2 0 2 -9 -1 -20z m11531 14 c13 -5 14 -9 5 -20 -9 -11 -15 -11 -25 -3
-27 22 -14 36 20 23z m-8289 -75 l-17 -51 -21 32 -21 33 34 29 c19 16 36 24
38 18 2 -5 -4 -33 -13 -61z m-3026 14 c49 -73 36 -109 -23 -62 -21 17 -26 29
-26 65 0 24 4 44 9 44 5 0 23 -21 40 -47z m5015 5 c9 -45 -8 -55 -27 -16 -12
24 -13 34 -4 40 20 13 24 9 31 -24z m-43 -46 c30 -54 31 -59 25 -137 -3 -44
-13 -105 -20 -135 l-14 -55 -1 65 c-2 110 -20 191 -57 257 -19 34 -34 63 -34
65 0 2 16 2 35 0 30 -4 38 -11 66 -60z m-1901 18 c0 -19 -17 -36 -26 -27 -3 2
-2 16 2 31 7 28 24 26 24 -4z m-3330 2 c0 -13 -12 -22 -22 -16 -10 6 -1 24 13
24 5 0 9 -4 9 -8z m3150 -32 c-9 -17 -14 -19 -26 -9 -20 16 -18 24 9 36 26 12
33 2 17 -27z m2183 28 c15 -12 14 -25 -13 -163 -29 -156 -74 -342 -84 -352
-17 -17 -15 17 8 138 22 113 56 347 56 380 0 13 13 11 33 -3z m-2099 -27 c13
-24 13 -30 2 -34 -19 -8 -26 1 -26 35 0 36 6 35 24 -1z m-47 -40 c-15 -6 -20
8 -12 36 l8 28 6 -30 c4 -16 3 -32 -2 -34z m184 -127 c88 -139 101 -147 174
-115 26 12 49 20 50 19 9 -12 567 -1680 563 -1683 -3 -3 -72 43 -154 102 -639
457 -1431 1017 -1444 1020 -8 2 -42 -15 -74 -38 -59 -42 -62 -40 -20 16 35 47
84 157 84 189 l0 29 -122 -6 c-68 -4 -149 -13 -180 -21 -32 -7 -58 -11 -58 -7
0 10 269 181 285 181 7 0 223 -146 480 -325 286 -198 477 -325 491 -325 40 0
71 69 43 97 -17 17 -2 49 65 131 97 120 97 119 45 164 -23 20 -59 45 -79 55
-19 10 -52 32 -74 50 -21 17 -57 41 -80 53 -22 11 -60 36 -84 55 -24 19 -52
35 -63 35 -13 0 -45 -35 -100 -110 -45 -60 -86 -110 -91 -110 -9 0 -318 210
-406 276 l-43 33 58 38 c32 22 93 61 135 87 l77 47 30 -22 c22 -16 37 -20 63
-15 18 3 52 6 75 6 36 -1 45 4 69 35 15 20 43 52 61 70 23 23 33 42 33 63 0
28 4 31 48 40 26 5 52 9 57 7 6 -1 44 -55 86 -121z m-497 65 c-4 -6 -61 -47
-128 -90 -66 -43 -139 -92 -161 -110 -49 -38 -83 -55 -93 -45 -8 10 -5 12 206
148 165 105 190 119 176 97z m6 -43 c0 -31 -120 -139 -137 -123 -5 6 119 137
130 137 4 0 7 -6 7 -14z m2978 -2 c53 -6 67 -18 32 -29 -37 -12 -129 -99 -178
-170 -90 -128 -192 -204 -299 -221 -35 -5 -43 -4 -43 9 0 9 -16 29 -36 45
l-35 29 88 65 c144 107 182 129 301 184 63 29 117 56 120 60 4 3 -15 4 -41 1
-87 -9 -273 -118 -435 -255 -29 -24 -55 -42 -57 -40 -9 9 35 162 52 180 30 33
131 96 190 118 89 33 184 40 341 24z m-2860 -569 c449 -308 452 -310 446 -340
-4 -16 -8 -33 -11 -38 -5 -9 -216 133 -805 542 l-428 296 0 43 0 43 173 -118
c95 -65 376 -257 625 -428z m1989 479 c40 -23 89 -76 129 -139 10 -16 -15 4
-56 46 -41 41 -96 85 -122 98 -27 13 -48 26 -48 29 0 9 57 -10 97 -34z m-3580
15 c13 -13 5 -51 -11 -46 -13 4 -21 57 -9 57 5 0 14 -5 20 -11z m1623 -19 c0
-5 -4 -10 -9 -10 -6 0 -13 5 -16 10 -3 6 1 10 9 10 9 0 16 -4 16 -10z m-310
-20 c-21 -40 -129 -102 -118 -69 4 14 106 88 121 89 4 0 3 -9 -3 -20z m8764
-120 c9 0 34 11 57 25 l40 26 26 -21 c14 -11 35 -20 47 -21 12 0 5 -5 -19 -13
-52 -15 -122 -111 -123 -168 0 -21 3 -40 8 -43 5 -3 7 -12 3 -20 -3 -9 -1 -21
5 -28 9 -12 27 -137 19 -137 -3 0 -13 12 -23 28 -12 18 -19 51 -21 102 -2 41
-5 98 -6 127 -3 61 -25 91 -71 95 -29 3 -31 5 -28 38 6 67 10 71 42 39 15 -16
36 -29 44 -29z m-6794 35 c91 -7 146 -32 216 -97 35 -33 64 -67 64 -76 0 -9
11 -32 24 -51 25 -36 49 -117 61 -201 5 -40 3 -49 -22 -79 l-29 -33 -31 83
c-55 143 -132 244 -230 300 -30 17 -75 47 -100 66 -24 19 -49 33 -55 31 -20
-7 37 -60 110 -103 129 -74 206 -172 257 -326 24 -71 25 -80 12 -105 l-15 -28
-16 56 c-28 99 -68 145 -186 216 -58 35 -120 78 -138 95 -36 36 -122 208 -122
245 0 24 -9 24 200 7z m-2607 -107 c-15 -28 -49 -75 -75 -102 l-47 -51 -7 33
c-9 45 -40 56 -96 36 -33 -12 -48 -12 -70 -3 -34 14 -34 17 -5 59 37 56 106
84 222 90 55 3 101 2 103 -2 2 -4 -9 -31 -25 -60z m267 28 c-27 -26 -373 -246
-378 -241 -7 7 -19 -1 188 134 170 111 227 143 190 107z m95 -47 c-4 -5 -13
-9 -22 -9 -13 0 -13 3 -3 15 13 15 35 11 25 -6z m-150 -55 c-19 -25 -35 -49
-35 -53 0 -8 -104 -81 -115 -81 -3 0 13 27 36 61 35 53 114 119 141 119 4 0
-8 -21 -27 -46z m966 -4 l28 -21 -34 -48 c-41 -56 -45 -87 -13 -97 22 -7 34 3
84 72 l22 29 37 -20 c21 -11 40 -25 42 -32 3 -7 -9 -35 -27 -63 -35 -55 -38
-97 -5 -92 20 3 58 38 86 81 l15 24 42 -25 42 -25 -80 -109 c-44 -60 -87 -109
-94 -109 -21 0 -346 228 -342 240 8 23 149 215 158 215 5 0 23 -9 39 -20z
m2662 -39 c17 -6 3 -17 -83 -62 -128 -67 -194 -126 -245 -218 -45 -83 -129
-167 -203 -205 -28 -14 -55 -26 -59 -26 -5 0 14 69 41 154 l50 154 65 40 c96
59 211 112 244 112 42 0 115 20 128 36 9 12 5 14 -23 14 -62 0 -197 -47 -299
-104 -97 -54 -103 -57 -192 -62 l-92 -6 25 22 c153 129 303 175 528 164 52 -3
103 -9 115 -13z m-776 -43 c-3 -8 -6 -5 -6 6 -1 11 2 17 5 13 3 -3 4 -12 1
-19z m-68 -65 c-1 -51 -2 -54 -8 -23 -4 19 -11 45 -15 58 -6 16 -3 22 8 22 13
0 16 -11 15 -57z m-659 -44 c42 -43 127 -157 176 -233 l19 -30 -25 7 c-14 4
-41 10 -61 13 -32 5 -38 11 -49 48 -16 54 -54 129 -74 146 -27 22 -31 2 -7
-38 29 -49 59 -112 63 -136 2 -16 -10 -25 -67 -48 -110 -43 -109 -44 -101 60
3 48 9 133 12 189 l7 102 30 -15 c17 -9 51 -38 77 -65z m720 41 c6 0 13 7 16
15 10 26 21 16 16 -15 -2 -16 0 -30 5 -30 24 0 -1 -48 -33 -63 l-34 -17 1 78
c0 56 3 71 9 55 5 -13 14 -23 20 -23z m-2640 21 c0 -26 -303 -211 -308 -188
-1 7 -25 22 -52 32 -38 15 -50 24 -50 40 0 46 76 89 195 110 81 15 215 19 215
6z m-470 -21 c-6 -11 -18 -20 -28 -20 -14 1 -13 4 7 20 29 25 34 25 21 0z
m3210 -45 c-13 -14 -27 -25 -32 -25 -4 0 -2 11 4 25 6 15 20 25 31 25 20 0 19
-1 -3 -25z m-396 -76 c26 -29 47 -66 58 -100 25 -85 30 -111 18 -104 -5 3 -10
12 -10 19 0 30 -73 155 -120 206 -27 30 -50 56 -50 58 0 12 69 -41 104 -79z
m-2475 -6 c-50 -45 -67 -57 -94 -66 -23 -8 42 52 95 87 49 33 49 24 -1 -21z
m3023 42 c8 -8 -59 -219 -87 -275 -14 -27 -54 -81 -90 -118 -56 -60 -72 -71
-124 -85 -77 -22 -121 -22 -121 -2 0 8 76 93 168 188 163 166 201 211 185 220
-8 4 -294 -287 -349 -356 l-31 -38 -21 41 c-20 41 -20 43 -2 94 47 138 131
246 226 291 59 28 230 56 246 40z m-2941 -42 c-17 -31 -69 -88 -75 -83 -3 3
13 27 35 53 42 49 57 60 40 30z m3418 -18 c35 -9 68 -18 73 -21 5 -3 -24 -25
-64 -48 -40 -23 -111 -69 -158 -103 -175 -126 -291 -179 -417 -190 l-76 -6 28
35 c19 25 50 44 104 66 46 19 101 52 136 82 76 63 140 95 235 116 107 24 125
30 122 40 -5 15 -77 4 -171 -25 -98 -31 -102 -28 -54 37 24 31 26 32 101 32
42 0 106 -7 141 -15z m-3469 2 c0 -8 -82 -69 -86 -64 -3 2 14 19 38 36 41 30
48 34 48 28z m808 -560 c481 -343 532 -381 519 -396 -8 -9 -31 -49 -51 -89
l-37 -74 -113 109 c-62 61 -138 129 -170 153 -47 36 -56 47 -52 66 10 37 -3
54 -40 54 -42 0 -111 34 -136 66 -23 28 -42 22 -58 -17 -10 -22 -19 -29 -40
-29 -40 0 -53 22 -48 80 l5 50 -69 43 -69 42 6 53 c6 45 4 53 -12 58 -55 16
-68 29 -68 70 0 34 -4 41 -32 55 -24 12 -44 14 -80 9 -59 -9 -73 -4 -73 25 0
25 56 68 75 58 5 -4 250 -177 543 -386z m1396 368 c41 -20 100 -68 124 -103
18 -26 18 -28 2 -54 l-17 -28 -34 46 c-34 46 -66 71 -76 60 -3 -3 10 -23 30
-45 46 -51 62 -83 76 -152 24 -116 -41 -279 -161 -403 -37 -39 -70 -67 -74
-63 -4 4 18 48 49 99 114 189 135 274 90 363 -45 86 -182 194 -279 219 l-47
12 60 27 c110 49 186 56 257 22z m-1138 -84 c-15 -15 -16 -13 -4 19 9 26 13
30 16 16 2 -10 -3 -26 -12 -35z m944 -36 c73 -37 97 -65 105 -123 7 -49 0
-216 -11 -274 -4 -20 -2 -28 9 -28 22 0 28 31 34 177 3 73 10 130 15 127 19
-12 48 -86 48 -124 0 -52 -19 -97 -75 -176 -25 -34 -45 -68 -45 -74 0 -6 -11
-33 -25 -60 -24 -47 -32 -99 -19 -113 13 -13 62 24 135 100 110 115 188 236
208 320 l9 38 1 -40 c1 -34 -10 -56 -65 -139 -38 -57 -68 -113 -71 -134 -5
-31 -30 -60 -145 -176 -108 -108 -142 -136 -149 -125 -13 21 -11 77 5 102 8
12 35 80 61 150 l46 129 -9 108 -9 109 -55 83 c-59 88 -72 111 -88 152 -9 25
-8 26 18 20 15 -4 47 -17 72 -29z m7105 -65 c3 -5 1 -10 -4 -10 -6 0 -11 5
-11 10 0 6 2 10 4 10 3 0 8 -4 11 -10z m-7194 -100 c78 -92 114 -158 124 -232
6 -41 1 -64 -34 -160 -23 -62 -48 -126 -55 -143 l-14 -30 -11 28 c-16 41 -14
83 6 120 13 24 17 55 17 122 0 77 -6 107 -38 203 -24 74 -42 112 -52 112 -19
0 -19 3 23 -124 30 -91 36 -126 36 -191 0 -44 -5 -93 -13 -110 -12 -29 -14
-26 -67 130 -40 118 -53 169 -49 195 12 79 39 181 46 173 4 -4 41 -46 81 -93z
m1022 26 c39 -19 137 -102 137 -116 0 -4 -39 -7 -87 -6 -102 1 -132 -12 -242
-109 -69 -61 -146 -104 -231 -129 -64 -19 -220 -33 -220 -20 0 16 90 168 113
191 l22 23 -3 -50 c-3 -42 0 -53 21 -74 46 -46 108 -46 154 0 23 23 25 31 19
78 -5 49 -4 54 27 84 38 37 65 48 139 57 49 6 170 -5 222 -21 12 -4 17 -2 14
7 -13 40 -210 54 -314 21 l-60 -19 -11 36 c-6 20 -10 37 -9 39 2 1 32 9 67 17
83 19 193 15 242 -9z m-593 -86 l-8 -35 -1 45 c-1 27 3 40 8 35 6 -6 6 -25 1
-45z m87 -17 c-3 -10 -5 -4 -5 12 0 17 2 24 5 18 2 -7 2 -21 0 -30z m639 -55
c32 -6 62 -16 66 -22 4 -6 8 -45 8 -87 0 -68 -3 -80 -29 -115 -67 -93 -111
-116 -307 -159 -330 -73 -467 -139 -569 -272 -70 -93 -65 -91 -139 -47 -36 21
-63 41 -61 44 3 4 26 10 52 14 65 8 155 55 298 155 115 80 166 108 267 145 26
10 50 22 53 26 8 14 -35 38 -80 45 -55 9 -98 26 -88 36 16 16 186 59 232 59
69 0 160 -26 209 -60 50 -35 62 -37 62 -11 0 67 -85 180 -156 207 -48 18 -49
23 -1 41 42 15 110 16 183 1z m-188 -67 c20 -10 48 -30 60 -44 l24 -25 -47 23
c-25 13 -67 27 -92 31 -42 6 -45 8 -28 20 25 18 39 18 83 -5z m21 -71 c44 -21
67 -27 71 -20 4 7 12 -1 20 -20 7 -17 11 -33 8 -35 -2 -2 -26 7 -54 20 -71 34
-140 48 -201 40 -29 -4 -53 -4 -53 -1 0 4 15 15 33 26 46 28 101 25 176 -10z
m-354 -141 c44 -11 83 -23 88 -26 5 -3 -29 -24 -75 -47 -45 -23 -137 -80 -203
-127 -134 -96 -233 -142 -309 -143 -46 -1 -50 1 -59 28 -9 27 -7 32 34 68 24
21 99 66 166 99 108 53 166 73 336 113 35 8 35 26 -1 26 -42 0 -236 -57 -294
-86 -27 -14 -53 -23 -56 -20 -3 3 24 35 60 71 l65 65 84 0 c54 0 114 -8 164
-21z m-1016 -192 c83 -60 83 -60 78 -98 -3 -22 -20 -69 -38 -106 l-33 -68 -6
81 c-8 97 -25 129 -117 226 -110 116 -85 108 116 -35z m-73 -53 c53 -64 68
-181 33 -258 -7 -14 -29 -37 -50 -51 l-39 -25 -16 31 c-8 17 -14 40 -11 50 5
19 -10 245 -19 287 -2 12 -9 22 -16 22 -11 0 -6 -159 8 -229 6 -31 6 -31 -35
-31 -41 0 -41 0 -41 37 0 20 -5 65 -11 100 -11 64 -11 65 26 141 l38 76 49
-54 c27 -30 65 -74 84 -96z m204 -42 c0 -5 -7 -17 -15 -28 -8 -10 -15 -29 -15
-41 0 -13 -16 -43 -35 -69 -39 -51 -45 -52 -15 -2 10 18 26 54 35 78 8 25 17
51 20 58 5 13 25 17 25 4z m435 -166 l20 -15 -20 -7 c-11 -4 -90 -34 -175 -68
l-155 -60 -125 -1 c-115 -1 -129 -3 -177 -28 -61 -31 -83 -34 -83 -9 0 10 35
40 92 77 50 33 94 61 98 63 3 1 11 -8 17 -21 12 -25 68 -57 101 -57 10 0 36
11 56 25 24 16 51 25 77 25 43 0 99 23 99 41 0 8 18 9 56 4 l56 -7 -4 40 c-3
40 -3 40 22 27 14 -7 34 -20 45 -29z m40 -63 c-4 -10 -14 -37 -22 -61 -18 -50
-27 -55 -143 -77 -114 -22 -234 -57 -356 -104 l-102 -38 -19 73 -19 72 42 12
c28 8 73 10 131 6 98 -8 120 -2 338 88 120 50 162 58 150 29z m143 -226 c26
-24 30 -82 8 -112 -12 -17 -12 -22 5 -44 10 -13 19 -36 19 -50 0 -41 19 -55
40 -28 24 30 46 193 29 213 -10 12 -9 18 3 30 13 13 22 14 57 4 42 -11 64 -36
43 -49 -22 -14 -49 -185 -33 -211 17 -25 57 24 82 102 24 75 25 84 15 109 -10
22 16 31 53 18 24 -8 32 -21 51 -77 12 -37 27 -76 33 -86 10 -19 10 -19 24 0
9 12 12 31 8 51 -3 18 -1 34 5 38 15 9 55 -2 74 -20 16 -17 11 -45 -8 -45 -13
0 -30 -28 -41 -68 -15 -54 -66 -152 -79 -152 -14 0 -43 65 -65 148 -7 23 -16
42 -20 42 -15 0 -33 -56 -29 -91 3 -33 2 -34 -30 -32 -18 0 -41 8 -50 16 -12
11 -22 13 -33 6 -11 -6 -32 -4 -60 6 -38 14 -44 14 -60 -1 -23 -21 -62 -12
-76 18 -6 13 -15 41 -19 62 -12 55 -39 63 -30 10 13 -82 15 -79 -30 -82 -50
-4 -73 17 -56 51 6 12 14 59 18 105 5 71 4 86 -11 102 -14 16 -15 23 -6 34 19
23 138 10 169 -17z m-336 -19 c21 -17 80 -113 107 -173 12 -26 29 -53 38 -60
35 -26 -9 -55 -82 -55 -26 0 -39 22 -22 39 18 18 -7 34 -42 26 -28 -6 -45 -35
-21 -35 6 0 10 -9 10 -20 0 -22 -37 -36 -70 -27 -11 3 -22 1 -25 -3 -3 -5 -28
14 -55 41 -27 27 -54 49 -59 49 -6 0 -14 18 -17 41 -4 22 -12 42 -18 43 -86
22 -92 40 -21 66 28 10 65 24 82 31 29 12 34 11 47 -6 40 -54 26 -100 -20 -70
l-27 17 6 -29 c12 -58 49 -143 67 -153 16 -8 22 -6 34 12 16 26 36 143 36 217
0 44 6 57 31 60 3 1 12 -5 21 -11z m990 -278 c1 -77 2 -148 2 -157 1 -24 -29
-28 -70 -8 -41 19 -54 44 -31 57 24 13 21 27 -10 39 -34 13 -60 4 -44 -15 9
-10 7 -17 -5 -27 -13 -11 -20 -11 -42 2 -33 18 -40 45 -14 51 16 5 74 76 157
196 13 18 20 20 36 12 17 -10 19 -23 21 -150z m-797 -142 c11 -52 71 -159 120
-215 25 -28 45 -54 45 -57 0 -3 -16 -6 -35 -6 -19 0 -35 5 -35 10 0 6 -15 18
-34 26 -18 9 -41 30 -51 48 -19 33 -64 75 -80 75 -5 0 -21 -8 -35 -19 -34 -26
-56 -25 -85 6 -19 20 -22 30 -15 54 6 21 4 32 -6 41 -21 18 -7 26 76 48 111
29 127 28 135 -11z m823 -389 c-30 -19 -36 -8 -15 24 22 34 22 34 25 9 2 -14
-2 -29 -10 -33z m1392 -2093 c0 -11 -19 -15 -25 -6 -3 5 1 10 9 10 9 0 16 -2
16 -4z m-163 -258 c-3 -8 -6 -5 -6 6 -1 11 2 17 5 13 3 -3 4 -12 1 -19z m-353
-327 c3 -5 -1 -14 -8 -20 -12 -10 -13 -8 -9 8 6 23 9 25 17 12z m-44 -5 c0 -3
-4 -8 -10 -11 -5 -3 -10 -1 -10 4 0 6 5 11 10 11 6 0 10 -2 10 -4z"/>
<path d="M9661 8056 l-32 -33 17 -58 c18 -65 15 -144 -11 -229 -18 -58 -19
-137 -2 -186 16 -45 75 -78 162 -91 36 -5 90 -17 120 -27 53 -18 57 -18 108
-1 30 10 84 23 121 29 172 27 203 96 151 330 -17 78 -14 160 8 207 9 21 6 28
-26 60 -32 31 -39 34 -53 22 -12 -10 -46 -13 -118 -12 -122 1 -143 1 -271 0
-59 -1 -109 4 -121 10 -18 11 -25 8 -53 -21z m613 -91 c-18 -59 -14 -146 11
-220 12 -34 16 -71 13 -123 -5 -107 -20 -117 -243 -163 -77 -15 -92 -15 -199
6 -148 28 -177 42 -205 100 -25 53 -25 60 9 195 20 82 23 155 7 208 -14 50
-14 51 9 73 21 20 27 21 67 10 27 -8 76 -11 128 -7 101 6 92 6 205 0 66 -4
100 -1 125 9 32 14 35 13 61 -12 l28 -26 -16 -50z"/>
<path d="M9860 7936 c0 -31 5 -56 10 -56 6 0 10 22 10 49 0 28 -4 53 -10 56
-6 4 -10 -15 -10 -49z"/>
<path d="M9900 7980 c0 -5 7 -10 16 -10 12 0 14 -7 10 -32 l-6 -33 15 33 c9
18 13 37 10 43 -8 12 -45 12 -45 -1z"/>
<path d="M9990 7935 c0 -56 12 -69 38 -43 25 25 7 98 -23 98 -11 0 -15 -13
-15 -55z m35 14 c9 -14 -3 -59 -15 -59 -6 0 -10 16 -10 35 0 34 12 46 25 24z"/>
<path d="M10060 7935 c0 -46 3 -55 18 -54 10 0 12 3 5 6 -7 2 -13 13 -13 23 0
10 6 21 13 23 10 4 10 6 0 6 -15 1 -18 31 -3 31 6 0 10 5 10 10 0 6 -7 10 -15
10 -12 0 -15 -13 -15 -55z"/>
<path d="M9780 7791 c-20 -39 -5 -101 25 -101 34 0 47 76 17 103 -24 22 -29
21 -42 -2z m48 -45 c-2 -23 -8 -31 -23 -31 -15 0 -21 8 -23 29 -4 30 12 48 35
39 9 -4 13 -17 11 -37z"/>
<path d="M10181 7791 c-15 -27 -14 -63 3 -86 17 -24 43 -14 52 21 14 57 -31
110 -55 65z m47 -45 c-4 -40 -33 -48 -42 -11 -8 31 8 57 30 48 10 -4 14 -16
12 -37z"/>
<path d="M9701 7748 c2 -49 2 -51 9 -18 4 19 8 28 9 19 0 -8 8 -24 16 -35 13
-17 14 -14 13 36 -1 48 -1 51 -7 20 l-7 -35 -8 33 c-12 50 -26 38 -25 -20z"/>
<path d="M9856 7775 c8 -37 14 -45 14 -19 0 10 -5 26 -10 34 -8 11 -9 7 -4
-15z"/>
<path d="M9894 7773 c-4 -16 -11 -34 -17 -41 -7 -9 -7 -16 0 -23 7 -7 15 5 24
38 l13 48 4 -47 c3 -42 6 -48 25 -47 17 1 18 2 5 6 -21 5 -24 29 -5 37 10 5
10 7 0 12 -19 8 -16 32 5 37 9 3 2 5 -15 6 -28 1 -34 -3 -39 -26z"/>
<path d="M9971 7748 c2 -48 2 -50 8 -18 l7 35 8 -32 c8 -37 26 -45 26 -12 0
11 -4 18 -9 14 -6 -3 -13 10 -17 30 -10 53 -24 42 -23 -17z"/>
<path d="M10028 7782 c-7 -25 2 -82 13 -82 5 0 9 23 9 50 0 49 -13 68 -22 32z"/>
<path d="M10060 7751 c0 -45 3 -51 20 -51 23 0 36 23 24 42 -5 7 -8 22 -9 33
0 11 -8 21 -17 23 -15 3 -18 -4 -18 -47z m25 30 c3 -5 1 -12 -5 -16 -5 -3 -10
1 -10 9 0 18 6 21 15 7z m5 -56 c0 -8 -4 -15 -10 -15 -5 0 -10 7 -10 15 0 8 5
15 10 15 6 0 10 -7 10 -15z"/>
<path d="M10120 7748 c0 -38 3 -49 10 -38 6 10 10 11 10 3 0 -7 3 -13 8 -13 4
0 7 21 7 47 0 37 -4 48 -17 51 -15 3 -18 -4 -18 -50z m30 16 c0 -8 -4 -14 -10
-14 -5 0 -10 9 -10 21 0 11 5 17 10 14 6 -3 10 -13 10 -21z"/>
<path d="M9797 7613 c-4 -3 -7 -26 -7 -50 0 -31 5 -45 16 -50 34 -13 60 67 32
95 -13 13 -31 16 -41 5z m41 -45 c2 -16 -3 -28 -12 -31 -13 -5 -16 1 -16 29 0
41 23 43 28 2z"/>
<path d="M9860 7565 c0 -48 2 -55 20 -55 11 0 20 5 20 10 0 6 -4 10 -10 10
-14 0 -12 27 3 33 9 4 8 8 -3 17 -11 9 -12 13 -2 17 19 8 14 23 -8 23 -18 0
-20 -7 -20 -55z"/>
<path d="M9957 7573 c7 -71 11 -75 12 -10 1 31 -3 57 -8 57 -5 0 -6 -21 -4
-47z"/>
<path d="M10007 7613 c-11 -19 -16 -79 -8 -92 17 -27 42 6 37 48 -3 20 -5 39
-5 44 -1 4 -5 7 -10 7 -6 0 -12 -3 -14 -7z m10 -75 c-3 -7 -5 -2 -5 12 0 14 2
19 5 13 2 -7 2 -19 0 -25z"/>
<path d="M10057 7613 c-3 -5 -5 -20 -5 -35 0 -18 5 -25 14 -21 9 3 14 -2 14
-12 0 -12 -5 -15 -16 -11 -10 4 -14 1 -12 -6 8 -22 33 -14 36 11 3 16 -3 30
-15 39 -13 10 -14 16 -5 19 6 3 12 9 12 14 0 11 -17 12 -23 2z"/>
<path d="M10107 7613 c-11 -10 -8 -51 3 -58 6 -4 8 -16 5 -28 -6 -22 -6 -22
10 -2 20 25 29 60 21 80 -6 15 -28 20 -39 8z m31 -25 c-6 -18 -28 -21 -28 -4
0 9 7 16 16 16 9 0 14 -5 12 -12z"/>
<path d="M9055 7338 c-11 -6 -32 -22 -47 -36 l-27 -24 -27 21 c-32 26 -85 27
-107 3 -45 -50 -40 -110 11 -131 l30 -13 -24 -35 c-28 -42 -29 -47 -8 -67 22
-23 55 -29 87 -17 30 12 47 45 47 94 0 46 9 55 68 67 86 19 117 85 60 133 -23
20 -35 21 -63 5z m65 -62 c0 -24 -28 -45 -68 -51 -83 -14 -79 -9 -85 -77 -4
-48 -11 -67 -27 -80 -45 -37 -66 -16 -30 29 27 35 25 50 -11 84 -25 23 -30 34
-25 54 4 14 13 28 21 32 20 7 60 -4 79 -22 20 -20 24 -19 76 15 49 33 70 38
70 16z"/>
<path d="M12056 4428 c-9 -36 -7 -48 8 -48 18 0 29 31 20 54 -9 23 -21 20 -28
-6z"/>
<path d="M11780 4310 c0 -31 6 -36 29 -21 10 7 11 13 2 30 -17 30 -31 26 -31
-9z"/>
<path d="M12696 4198 c-17 -23 -13 -38 10 -38 9 0 14 11 14 30 0 36 -4 37 -24
8z"/>
</g>
</svg>
